#VRML V2.0 utf8
# generated by mkfp_impl.py (HVAWG), simple box model, visual only
Shape { appearance Appearance { material Material { diffuseColor 0.080 0.080 0.090 specularColor 0.2 0.2 0.2 shininess 0.3 } }
 geometry IndexedFaceSet { solid FALSE coord Coordinate { point [ -3.5000 -5.3000 0.0000, 3.5000 -5.3000 0.0000, -3.5000 9.2000 0.0000, 3.5000 9.2000 0.0000, -3.5000 -5.3000 0.4000, 3.5000 -5.3000 0.4000, -3.5000 9.2000 0.4000, 3.5000 9.2000 0.4000 ] }
 coordIndex [ 0, 2, 3, 1, -1, 4, 5, 7, 6, -1, 0, 1, 5, 4, -1, 2, 6, 7, 3, -1, 0, 4, 6, 2, -1, 1, 3, 7, 5, -1 ] } }
Shape { appearance Appearance { material Material { diffuseColor 0.080 0.080 0.090 specularColor 0.2 0.2 0.2 shininess 0.3 } }
 geometry IndexedFaceSet { solid FALSE coord Coordinate { point [ -3.5000 -5.3000 0.0000, -3.1000 -5.3000 0.0000, -3.5000 9.2000 0.0000, -3.1000 9.2000 0.0000, -3.5000 -5.3000 3.7500, -3.1000 -5.3000 3.7500, -3.5000 9.2000 3.7500, -3.1000 9.2000 3.7500 ] }
 coordIndex [ 0, 2, 3, 1, -1, 4, 5, 7, 6, -1, 0, 1, 5, 4, -1, 2, 6, 7, 3, -1, 0, 4, 6, 2, -1, 1, 3, 7, 5, -1 ] } }
Shape { appearance Appearance { material Material { diffuseColor 0.080 0.080 0.090 specularColor 0.2 0.2 0.2 shininess 0.3 } }
 geometry IndexedFaceSet { solid FALSE coord Coordinate { point [ -8.7500 6.9408 3.3500, -3.5000 6.9408 3.3500, -8.7500 9.0425 3.3500, -3.5000 9.0425 3.3500, -8.7500 6.9408 3.7500, -3.5000 6.9408 3.7500, -8.7500 9.0425 3.7500, -3.5000 9.0425 3.7500 ] }
 coordIndex [ 0, 2, 3, 1, -1, 4, 5, 7, 6, -1, 0, 1, 5, 4, -1, 2, 6, 7, 3, -1, 0, 4, 6, 2, -1, 1, 3, 7, 5, -1 ] } }
Shape { appearance Appearance { material Material { diffuseColor 0.080 0.080 0.090 specularColor 0.2 0.2 0.2 shininess 0.3 } }
 geometry IndexedFaceSet { solid FALSE coord Coordinate { point [ -8.7500 4.5241 3.3500, -3.5000 4.5241 3.3500, -8.7500 6.6259 3.3500, -3.5000 6.6259 3.3500, -8.7500 4.5241 3.7500, -3.5000 4.5241 3.7500, -8.7500 6.6259 3.7500, -3.5000 6.6259 3.7500 ] }
 coordIndex [ 0, 2, 3, 1, -1, 4, 5, 7, 6, -1, 0, 1, 5, 4, -1, 2, 6, 7, 3, -1, 0, 4, 6, 2, -1, 1, 3, 7, 5, -1 ] } }
Shape { appearance Appearance { material Material { diffuseColor 0.080 0.080 0.090 specularColor 0.2 0.2 0.2 shininess 0.3 } }
 geometry IndexedFaceSet { solid FALSE coord Coordinate { point [ -8.7500 2.1075 3.3500, -3.5000 2.1075 3.3500, -8.7500 4.2092 3.3500, -3.5000 4.2092 3.3500, -8.7500 2.1075 3.7500, -3.5000 2.1075 3.7500, -8.7500 4.2092 3.7500, -3.5000 4.2092 3.7500 ] }
 coordIndex [ 0, 2, 3, 1, -1, 4, 5, 7, 6, -1, 0, 1, 5, 4, -1, 2, 6, 7, 3, -1, 0, 4, 6, 2, -1, 1, 3, 7, 5, -1 ] } }
Shape { appearance Appearance { material Material { diffuseColor 0.080 0.080 0.090 specularColor 0.2 0.2 0.2 shininess 0.3 } }
 geometry IndexedFaceSet { solid FALSE coord Coordinate { point [ -8.7500 -0.3092 3.3500, -3.5000 -0.3092 3.3500, -8.7500 1.7925 3.3500, -3.5000 1.7925 3.3500, -8.7500 -0.3092 3.7500, -3.5000 -0.3092 3.7500, -8.7500 1.7925 3.7500, -3.5000 1.7925 3.7500 ] }
 coordIndex [ 0, 2, 3, 1, -1, 4, 5, 7, 6, -1, 0, 1, 5, 4, -1, 2, 6, 7, 3, -1, 0, 4, 6, 2, -1, 1, 3, 7, 5, -1 ] } }
Shape { appearance Appearance { material Material { diffuseColor 0.080 0.080 0.090 specularColor 0.2 0.2 0.2 shininess 0.3 } }
 geometry IndexedFaceSet { solid FALSE coord Coordinate { point [ -8.7500 -2.7259 3.3500, -3.5000 -2.7259 3.3500, -8.7500 -0.6241 3.3500, -3.5000 -0.6241 3.3500, -8.7500 -2.7259 3.7500, -3.5000 -2.7259 3.7500, -8.7500 -0.6241 3.7500, -3.5000 -0.6241 3.7500 ] }
 coordIndex [ 0, 2, 3, 1, -1, 4, 5, 7, 6, -1, 0, 1, 5, 4, -1, 2, 6, 7, 3, -1, 0, 4, 6, 2, -1, 1, 3, 7, 5, -1 ] } }
Shape { appearance Appearance { material Material { diffuseColor 0.080 0.080 0.090 specularColor 0.2 0.2 0.2 shininess 0.3 } }
 geometry IndexedFaceSet { solid FALSE coord Coordinate { point [ -8.7500 -5.1425 3.3500, -3.5000 -5.1425 3.3500, -8.7500 -3.0408 3.3500, -3.5000 -3.0408 3.3500, -8.7500 -5.1425 3.7500, -3.5000 -5.1425 3.7500, -8.7500 -3.0408 3.7500, -3.5000 -3.0408 3.7500 ] }
 coordIndex [ 0, 2, 3, 1, -1, 4, 5, 7, 6, -1, 0, 1, 5, 4, -1, 2, 6, 7, 3, -1, 0, 4, 6, 2, -1, 1, 3, 7, 5, -1 ] } }
Shape { appearance Appearance { material Material { diffuseColor 0.080 0.080 0.090 specularColor 0.2 0.2 0.2 shininess 0.3 } }
 geometry IndexedFaceSet { solid FALSE coord Coordinate { point [ -4.2874 -5.3000 3.3500, -3.5000 -5.3000 3.3500, -4.2874 9.2000 3.3500, -3.5000 9.2000 3.3500, -4.2874 -5.3000 3.7500, -3.5000 -5.3000 3.7500, -4.2874 9.2000 3.7500, -3.5000 9.2000 3.7500 ] }
 coordIndex [ 0, 2, 3, 1, -1, 4, 5, 7, 6, -1, 0, 1, 5, 4, -1, 2, 6, 7, 3, -1, 0, 4, 6, 2, -1, 1, 3, 7, 5, -1 ] } }
Shape { appearance Appearance { material Material { diffuseColor 0.080 0.080 0.090 specularColor 0.2 0.2 0.2 shininess 0.3 } }
 geometry IndexedFaceSet { solid FALSE coord Coordinate { point [ 3.1000 -5.3000 0.0000, 3.5000 -5.3000 0.0000, 3.1000 9.2000 0.0000, 3.5000 9.2000 0.0000, 3.1000 -5.3000 3.7500, 3.5000 -5.3000 3.7500, 3.1000 9.2000 3.7500, 3.5000 9.2000 3.7500 ] }
 coordIndex [ 0, 2, 3, 1, -1, 4, 5, 7, 6, -1, 0, 1, 5, 4, -1, 2, 6, 7, 3, -1, 0, 4, 6, 2, -1, 1, 3, 7, 5, -1 ] } }
Shape { appearance Appearance { material Material { diffuseColor 0.080 0.080 0.090 specularColor 0.2 0.2 0.2 shininess 0.3 } }
 geometry IndexedFaceSet { solid FALSE coord Coordinate { point [ 3.5000 6.9408 3.3500, 8.7500 6.9408 3.3500, 3.5000 9.0425 3.3500, 8.7500 9.0425 3.3500, 3.5000 6.9408 3.7500, 8.7500 6.9408 3.7500, 3.5000 9.0425 3.7500, 8.7500 9.0425 3.7500 ] }
 coordIndex [ 0, 2, 3, 1, -1, 4, 5, 7, 6, -1, 0, 1, 5, 4, -1, 2, 6, 7, 3, -1, 0, 4, 6, 2, -1, 1, 3, 7, 5, -1 ] } }
Shape { appearance Appearance { material Material { diffuseColor 0.080 0.080 0.090 specularColor 0.2 0.2 0.2 shininess 0.3 } }
 geometry IndexedFaceSet { solid FALSE coord Coordinate { point [ 3.5000 4.5241 3.3500, 8.7500 4.5241 3.3500, 3.5000 6.6259 3.3500, 8.7500 6.6259 3.3500, 3.5000 4.5241 3.7500, 8.7500 4.5241 3.7500, 3.5000 6.6259 3.7500, 8.7500 6.6259 3.7500 ] }
 coordIndex [ 0, 2, 3, 1, -1, 4, 5, 7, 6, -1, 0, 1, 5, 4, -1, 2, 6, 7, 3, -1, 0, 4, 6, 2, -1, 1, 3, 7, 5, -1 ] } }
Shape { appearance Appearance { material Material { diffuseColor 0.080 0.080 0.090 specularColor 0.2 0.2 0.2 shininess 0.3 } }
 geometry IndexedFaceSet { solid FALSE coord Coordinate { point [ 3.5000 2.1075 3.3500, 8.7500 2.1075 3.3500, 3.5000 4.2092 3.3500, 8.7500 4.2092 3.3500, 3.5000 2.1075 3.7500, 8.7500 2.1075 3.7500, 3.5000 4.2092 3.7500, 8.7500 4.2092 3.7500 ] }
 coordIndex [ 0, 2, 3, 1, -1, 4, 5, 7, 6, -1, 0, 1, 5, 4, -1, 2, 6, 7, 3, -1, 0, 4, 6, 2, -1, 1, 3, 7, 5, -1 ] } }
Shape { appearance Appearance { material Material { diffuseColor 0.080 0.080 0.090 specularColor 0.2 0.2 0.2 shininess 0.3 } }
 geometry IndexedFaceSet { solid FALSE coord Coordinate { point [ 3.5000 -0.3092 3.3500, 8.7500 -0.3092 3.3500, 3.5000 1.7925 3.3500, 8.7500 1.7925 3.3500, 3.5000 -0.3092 3.7500, 8.7500 -0.3092 3.7500, 3.5000 1.7925 3.7500, 8.7500 1.7925 3.7500 ] }
 coordIndex [ 0, 2, 3, 1, -1, 4, 5, 7, 6, -1, 0, 1, 5, 4, -1, 2, 6, 7, 3, -1, 0, 4, 6, 2, -1, 1, 3, 7, 5, -1 ] } }
Shape { appearance Appearance { material Material { diffuseColor 0.080 0.080 0.090 specularColor 0.2 0.2 0.2 shininess 0.3 } }
 geometry IndexedFaceSet { solid FALSE coord Coordinate { point [ 3.5000 -2.7259 3.3500, 8.7500 -2.7259 3.3500, 3.5000 -0.6241 3.3500, 8.7500 -0.6241 3.3500, 3.5000 -2.7259 3.7500, 8.7500 -2.7259 3.7500, 3.5000 -0.6241 3.7500, 8.7500 -0.6241 3.7500 ] }
 coordIndex [ 0, 2, 3, 1, -1, 4, 5, 7, 6, -1, 0, 1, 5, 4, -1, 2, 6, 7, 3, -1, 0, 4, 6, 2, -1, 1, 3, 7, 5, -1 ] } }
Shape { appearance Appearance { material Material { diffuseColor 0.080 0.080 0.090 specularColor 0.2 0.2 0.2 shininess 0.3 } }
 geometry IndexedFaceSet { solid FALSE coord Coordinate { point [ 3.5000 -5.1425 3.3500, 8.7500 -5.1425 3.3500, 3.5000 -3.0408 3.3500, 8.7500 -3.0408 3.3500, 3.5000 -5.1425 3.7500, 8.7500 -5.1425 3.7500, 3.5000 -3.0408 3.7500, 8.7500 -3.0408 3.7500 ] }
 coordIndex [ 0, 2, 3, 1, -1, 4, 5, 7, 6, -1, 0, 1, 5, 4, -1, 2, 6, 7, 3, -1, 0, 4, 6, 2, -1, 1, 3, 7, 5, -1 ] } }
Shape { appearance Appearance { material Material { diffuseColor 0.080 0.080 0.090 specularColor 0.2 0.2 0.2 shininess 0.3 } }
 geometry IndexedFaceSet { solid FALSE coord Coordinate { point [ 3.5000 -5.3000 3.3500, 4.2874 -5.3000 3.3500, 3.5000 9.2000 3.3500, 4.2874 9.2000 3.3500, 3.5000 -5.3000 3.7500, 4.2874 -5.3000 3.7500, 3.5000 9.2000 3.7500, 4.2874 9.2000 3.7500 ] }
 coordIndex [ 0, 2, 3, 1, -1, 4, 5, 7, 6, -1, 0, 1, 5, 4, -1, 2, 6, 7, 3, -1, 0, 4, 6, 2, -1, 1, 3, 7, 5, -1 ] } }
