#VRML V2.0 utf8
# generated by mkfp_impl.py (HVAWG), simple box model, visual only
Shape { appearance Appearance { material Material { diffuseColor 0.200 0.200 0.220 specularColor 0.2 0.2 0.2 shininess 0.3 } }
 geometry IndexedFaceSet { solid FALSE coord Coordinate { point [ -1.0472 2.2441 0.4000, 3.0472 2.2441 0.4000, -1.0472 8.6220 0.4000, 3.0472 8.6220 0.4000, -1.0472 2.2441 1.6598, 3.0472 2.2441 1.6598, -1.0472 8.6220 1.6598, 3.0472 8.6220 1.6598 ] }
 coordIndex [ 0, 2, 3, 1, -1, 4, 5, 7, 6, -1, 0, 1, 5, 4, -1, 2, 6, 7, 3, -1, 0, 4, 6, 2, -1, 1, 3, 7, 5, -1 ] } }
Shape { appearance Appearance { material Material { diffuseColor 0.800 0.800 0.780 specularColor 0.2 0.2 0.2 shininess 0.3 } }
 geometry IndexedFaceSet { solid FALSE coord Coordinate { point [ -0.2559 0.8661 1.1087, 0.2559 0.8661 1.1087, -0.2559 2.2441 1.1087, 0.2559 2.2441 1.1087, -0.2559 0.8661 1.3449, 0.2559 0.8661 1.3449, -0.2559 2.2441 1.3449, 0.2559 2.2441 1.3449 ] }
 coordIndex [ 0, 2, 3, 1, -1, 4, 5, 7, 6, -1, 0, 1, 5, 4, -1, 2, 6, 7, 3, -1, 0, 4, 6, 2, -1, 1, 3, 7, 5, -1 ] } }
Shape { appearance Appearance { material Material { diffuseColor 0.800 0.800 0.780 specularColor 0.2 0.2 0.2 shininess 0.3 } }
 geometry IndexedFaceSet { solid FALSE coord Coordinate { point [ -0.1575 0.5906 1.1087, 0.1575 0.5906 1.1087, -0.1575 0.8661 1.1087, 0.1575 0.8661 1.1087, -0.1575 0.5906 1.3449, 0.1575 0.5906 1.3449, -0.1575 0.8661 1.3449, 0.1575 0.8661 1.3449 ] }
 coordIndex [ 0, 2, 3, 1, -1, 4, 5, 7, 6, -1, 0, 1, 5, 4, -1, 2, 6, 7, 3, -1, 0, 4, 6, 2, -1, 1, 3, 7, 5, -1 ] } }
Shape { appearance Appearance { material Material { diffuseColor 0.800 0.800 0.780 specularColor 0.2 0.2 0.2 shininess 0.3 } }
 geometry IndexedFaceSet { solid FALSE coord Coordinate { point [ -0.1575 0.1772 1.0295, 0.1575 0.1772 1.0295, -0.1575 0.7087 1.0295, 0.1575 0.7087 1.0295, -0.1575 0.1772 1.3449, 0.1575 0.1772 1.3449, -0.1575 0.7087 1.3449, 0.1575 0.7087 1.3449 ] }
 coordIndex [ 0, 2, 3, 1, -1, 4, 5, 7, 6, -1, 0, 1, 5, 4, -1, 2, 6, 7, 3, -1, 0, 4, 6, 2, -1, 1, 3, 7, 5, -1 ] } }
Shape { appearance Appearance { material Material { diffuseColor 0.800 0.800 0.780 specularColor 0.2 0.2 0.2 shininess 0.3 } }
 geometry IndexedFaceSet { solid FALSE coord Coordinate { point [ -0.1575 -0.0390 0.8134, 0.1575 -0.0390 0.8134, -0.1575 0.4134 0.8134, 0.1575 0.4134 0.8134, -0.1575 -0.0390 1.2658, 0.1575 -0.0390 1.2658, -0.1575 0.4134 1.2658, 0.1575 0.4134 1.2658 ] }
 coordIndex [ 0, 2, 3, 1, -1, 4, 5, 7, 6, -1, 0, 1, 5, 4, -1, 2, 6, 7, 3, -1, 0, 4, 6, 2, -1, 1, 3, 7, 5, -1 ] } }
Shape { appearance Appearance { material Material { diffuseColor 0.800 0.800 0.780 specularColor 0.2 0.2 0.2 shininess 0.3 } }
 geometry IndexedFaceSet { solid FALSE coord Coordinate { point [ -0.1575 -0.1181 0.5181, 0.1575 -0.1181 0.5181, -0.1575 0.1972 0.5181, 0.1575 0.1972 0.5181, -0.1575 -0.1181 1.0496, 0.1575 -0.1181 1.0496, -0.1575 0.1972 1.0496, 0.1575 0.1972 1.0496 ] }
 coordIndex [ 0, 2, 3, 1, -1, 4, 5, 7, 6, -1, 0, 1, 5, 4, -1, 2, 6, 7, 3, -1, 0, 4, 6, 2, -1, 1, 3, 7, 5, -1 ] } }
Shape { appearance Appearance { material Material { diffuseColor 0.800 0.800 0.780 specularColor 0.2 0.2 0.2 shininess 0.3 } }
 geometry IndexedFaceSet { solid FALSE coord Coordinate { point [ -0.1575 -0.1181 -1.2205, 0.1575 -0.1181 -1.2205, -0.1575 0.1181 -1.2205, 0.1575 0.1181 -1.2205, -0.1575 -0.1181 0.6362, 0.1575 -0.1181 0.6362, -0.1575 0.1181 0.6362, 0.1575 0.1181 0.6362 ] }
 coordIndex [ 0, 2, 3, 1, -1, 4, 5, 7, 6, -1, 0, 1, 5, 4, -1, 2, 6, 7, 3, -1, 0, 4, 6, 2, -1, 1, 3, 7, 5, -1 ] } }
Shape { appearance Appearance { material Material { diffuseColor 0.800 0.800 0.780 specularColor 0.2 0.2 0.2 shininess 0.3 } }
 geometry IndexedFaceSet { solid FALSE coord Coordinate { point [ 1.7441 0.8661 1.1087, 2.2559 0.8661 1.1087, 1.7441 2.2441 1.1087, 2.2559 2.2441 1.1087, 1.7441 0.8661 1.3449, 2.2559 0.8661 1.3449, 1.7441 2.2441 1.3449, 2.2559 2.2441 1.3449 ] }
 coordIndex [ 0, 2, 3, 1, -1, 4, 5, 7, 6, -1, 0, 1, 5, 4, -1, 2, 6, 7, 3, -1, 0, 4, 6, 2, -1, 1, 3, 7, 5, -1 ] } }
Shape { appearance Appearance { material Material { diffuseColor 0.800 0.800 0.780 specularColor 0.2 0.2 0.2 shininess 0.3 } }
 geometry IndexedFaceSet { solid FALSE coord Coordinate { point [ 1.8425 0.5906 1.1087, 2.1575 0.5906 1.1087, 1.8425 0.8661 1.1087, 2.1575 0.8661 1.1087, 1.8425 0.5906 1.3449, 2.1575 0.5906 1.3449, 1.8425 0.8661 1.3449, 2.1575 0.8661 1.3449 ] }
 coordIndex [ 0, 2, 3, 1, -1, 4, 5, 7, 6, -1, 0, 1, 5, 4, -1, 2, 6, 7, 3, -1, 0, 4, 6, 2, -1, 1, 3, 7, 5, -1 ] } }
Shape { appearance Appearance { material Material { diffuseColor 0.800 0.800 0.780 specularColor 0.2 0.2 0.2 shininess 0.3 } }
 geometry IndexedFaceSet { solid FALSE coord Coordinate { point [ 1.8425 0.1772 1.0295, 2.1575 0.1772 1.0295, 1.8425 0.7087 1.0295, 2.1575 0.7087 1.0295, 1.8425 0.1772 1.3449, 2.1575 0.1772 1.3449, 1.8425 0.7087 1.3449, 2.1575 0.7087 1.3449 ] }
 coordIndex [ 0, 2, 3, 1, -1, 4, 5, 7, 6, -1, 0, 1, 5, 4, -1, 2, 6, 7, 3, -1, 0, 4, 6, 2, -1, 1, 3, 7, 5, -1 ] } }
Shape { appearance Appearance { material Material { diffuseColor 0.800 0.800 0.780 specularColor 0.2 0.2 0.2 shininess 0.3 } }
 geometry IndexedFaceSet { solid FALSE coord Coordinate { point [ 1.8425 -0.0390 0.8134, 2.1575 -0.0390 0.8134, 1.8425 0.4134 0.8134, 2.1575 0.4134 0.8134, 1.8425 -0.0390 1.2658, 2.1575 -0.0390 1.2658, 1.8425 0.4134 1.2658, 2.1575 0.4134 1.2658 ] }
 coordIndex [ 0, 2, 3, 1, -1, 4, 5, 7, 6, -1, 0, 1, 5, 4, -1, 2, 6, 7, 3, -1, 0, 4, 6, 2, -1, 1, 3, 7, 5, -1 ] } }
Shape { appearance Appearance { material Material { diffuseColor 0.800 0.800 0.780 specularColor 0.2 0.2 0.2 shininess 0.3 } }
 geometry IndexedFaceSet { solid FALSE coord Coordinate { point [ 1.8425 -0.1181 0.5181, 2.1575 -0.1181 0.5181, 1.8425 0.1972 0.5181, 2.1575 0.1972 0.5181, 1.8425 -0.1181 1.0496, 2.1575 -0.1181 1.0496, 1.8425 0.1972 1.0496, 2.1575 0.1972 1.0496 ] }
 coordIndex [ 0, 2, 3, 1, -1, 4, 5, 7, 6, -1, 0, 1, 5, 4, -1, 2, 6, 7, 3, -1, 0, 4, 6, 2, -1, 1, 3, 7, 5, -1 ] } }
Shape { appearance Appearance { material Material { diffuseColor 0.800 0.800 0.780 specularColor 0.2 0.2 0.2 shininess 0.3 } }
 geometry IndexedFaceSet { solid FALSE coord Coordinate { point [ 1.8425 -0.1181 -1.2205, 2.1575 -0.1181 -1.2205, 1.8425 0.1181 -1.2205, 2.1575 0.1181 -1.2205, 1.8425 -0.1181 0.6362, 2.1575 -0.1181 0.6362, 1.8425 0.1181 0.6362, 2.1575 0.1181 0.6362 ] }
 coordIndex [ 0, 2, 3, 1, -1, 4, 5, 7, 6, -1, 0, 1, 5, 4, -1, 2, 6, 7, 3, -1, 0, 4, 6, 2, -1, 1, 3, 7, 5, -1 ] } }
