M48
; DRILL file {KiCad 9.0.6} date 2026-09-09T15:11:09-0700
; FORMAT={-:-/ absolute / inch / decimal}
; #@! TF.CreationDate,2026-09-09T15:11:09-07:00
; #@! TF.GenerationSoftware,Kicad,Pcbnew,9.0.6
; #@! TF.FileFunction,Plated,1,2,PTH
FMAT,2
INCH
; #@! TA.AperFunction,Plated,PTH,ViaDrill
T1C0.0118
; #@! TA.AperFunction,Plated,PTH,ComponentDrill
T2C0.0315
; #@! TA.AperFunction,Plated,PTH,ComponentDrill
T3C0.0394
; #@! TA.AperFunction,Plated,PTH,ComponentDrill
T4C0.0433
; #@! TA.AperFunction,Plated,PTH,ComponentDrill
T5C0.0472
; #@! TA.AperFunction,Plated,PTH,ComponentDrill
T6C0.0630
; #@! TA.AperFunction,Plated,PTH,ComponentDrill
T7C0.1260
%
G90
G05
T1
X3.4621Y-3.7102
X3.4821Y-3.2502
X3.6121Y-3.3102
X3.6221Y-3.8202
X3.7121Y-4.2702
X3.7421Y-3.2502
X3.8621Y-3.3102
X4.2121Y-3.4502
X4.4521Y-4.1002
X4.5721Y-3.9702
X4.5721Y-4.1002
X4.6221Y-4.5802
X4.6321Y-3.8702
X5.1621Y-4.4902
X5.2421Y-4.0402
X5.2521Y-3.9202
X5.3421Y-4.4202
X5.3521Y-3.9202
X5.4Y-3.42
X5.4803Y-4.5502
X5.6421Y-3.3302
X5.6421Y-4.1502
X5.69Y-3.28
X5.7421Y-4.0302
X5.7721Y-4.6102
X6.0621Y-3.2102
X6.4173Y-4.5276
X6.42Y-3.57
X6.4331Y-4.0079
X6.4961Y-3.3465
X6.94Y-4.5193
X6.98Y-3.33
X7.6378Y-4.5433
X7.685Y-4.3386
X7.7402Y-3.2047
X7.8031Y-4.6063
X7.8346Y-3.5827
X7.8346Y-4.0394
X8.1496Y-3.7087
X8.1811Y-4.1654
X8.2835Y-4.0866
X8.2913Y-4.3701
X8.5591Y-4.1811
T2
X6.1514Y-3.599
X6.1514Y-3.799
X6.1514Y-4.0124
X6.1514Y-4.2124
X6.2514Y-3.699
X6.2514Y-4.1124
X7.0385Y-4.4193
X7.0385Y-4.5193
X8.3474Y-4.5457
X8.4474Y-4.5457
T3
X4.0921Y-3.5602
X4.0921Y-4.235
X4.1921Y-3.5602
X4.1921Y-4.235
X4.2921Y-3.5602
X4.2921Y-4.235
X4.3921Y-3.5602
X4.3921Y-4.235
X4.9272Y-4.2593
X4.9272Y-4.3593
X5.0921Y-3.5602
X5.0921Y-3.6602
X5.0921Y-4.235
X5.1921Y-3.5602
X5.1921Y-3.6602
X5.1921Y-4.235
X5.2921Y-3.5602
X5.2921Y-3.6602
X5.2921Y-4.235
X5.3921Y-3.5602
X5.3921Y-3.6602
X5.3921Y-4.235
X5.4921Y-3.5602
X5.4921Y-3.6602
X5.4921Y-4.235
X5.5921Y-3.5602
X5.5921Y-3.6602
X5.5921Y-4.235
X5.6921Y-3.5602
X5.6921Y-3.6602
X5.6921Y-4.235
X5.7921Y-3.5602
X5.7921Y-3.6602
X5.7921Y-4.235
X6.8467Y-3.7042
X6.8467Y-3.8042
X6.9207Y-4.2297
X7.0207Y-4.2297
X7.1398Y-3.7702
X7.1398Y-3.8702
X7.1921Y-3.5602
X7.1921Y-4.235
X7.2921Y-3.5602
X7.2921Y-3.7702
X7.2921Y-3.8702
X7.2921Y-4.235
X7.3921Y-3.5602
X7.3921Y-4.235
X7.4421Y-3.7702
X7.4421Y-3.8702
X7.4921Y-3.5602
X7.4921Y-4.235
X7.5921Y-3.5602
X7.5921Y-3.7702
X7.5921Y-3.8702
T4
X6.6752Y-4.2787
X6.6752Y-4.3787
X6.6752Y-4.4787
X8.7699Y-4.0431
X8.7699Y-4.1431
X8.7699Y-4.2431
T5
X8.3167Y-3.6939
X8.7167Y-3.6939
T6
X3.3013Y-4.19
X4.7561Y-4.3653
X6.9066Y-3.9972
X6.9624Y-3.5137
X7.9404Y-3.7713
T7
X3.189Y-3.3071
X3.189Y-4.4882
X8.7008Y-3.3071
X8.7008Y-4.4882
M30
