%TF.GenerationSoftware,KiCad,Pcbnew,9.0.6*%
%TF.CreationDate,2026-09-24T19:51:50-07:00*%
%TF.ProjectId,hvawg,68766177-672e-46b6-9963-61645f706362,rev?*%
%TF.SameCoordinates,Original*%
%TF.FileFunction,Soldermask,Bot*%
%TF.FilePolarity,Negative*%
%FSLAX46Y46*%
G04 Gerber Fmt 4.6, Leading zero omitted, Abs format (unit mm)*
G04 Created by KiCad (PCBNEW 9.0.6) date 2026-09-24 19:51:50*
%MOMM*%
%LPD*%
G01*
G04 APERTURE LIST*
G04 Aperture macros list*
%AMRoundRect*
0 Rectangle with rounded corners*
0 $1 Rounding radius*
0 $2 $3 $4 $5 $6 $7 $8 $9 X,Y pos of 4 corners*
0 Add a 4 corners polygon primitive as box body*
4,1,4,$2,$3,$4,$5,$6,$7,$8,$9,$2,$3,0*
0 Add four circle primitives for the rounded corners*
1,1,$1+$1,$2,$3*
1,1,$1+$1,$4,$5*
1,1,$1+$1,$6,$7*
1,1,$1+$1,$8,$9*
0 Add four rect primitives between the rounded corners*
20,1,$1+$1,$2,$3,$4,$5,0*
20,1,$1+$1,$4,$5,$6,$7,0*
20,1,$1+$1,$6,$7,$8,$9,0*
20,1,$1+$1,$8,$9,$2,$3,0*%
G04 Aperture macros list end*
%ADD10O,4.200000X2.600000*%
%ADD11C,2.800000*%
%ADD12C,7.000000*%
%ADD13R,1.700000X1.700000*%
%ADD14O,1.700000X1.700000*%
%ADD15C,1.440000*%
%ADD16C,1.600000*%
%ADD17O,1.600000X1.600000*%
%ADD18C,6.400000*%
%ADD19C,1.700000*%
%ADD20R,2.500000X1.550000*%
%ADD21O,2.500000X1.550000*%
%ADD22RoundRect,0.250000X0.650000X1.550000X-0.650000X1.550000X-0.650000X-1.550000X0.650000X-1.550000X0*%
%ADD23O,1.800000X3.600000*%
G04 APERTURE END LIST*
D10*
%TO.C,R21*%
X213800000Y-101460000D03*
X213800000Y-106540000D03*
%TD*%
D11*
%TO.C,TP4*%
X177427000Y-109529000D03*
%TD*%
D12*
%TO.C,HS1*%
X232500000Y-104000000D03*
X242406000Y-104000000D03*
%TD*%
D13*
%TO.C,J5*%
X140770000Y-79630000D03*
D14*
X143310000Y-79630000D03*
X145850000Y-79630000D03*
X148390000Y-79630000D03*
%TD*%
D11*
%TO.C,TP8*%
X151500000Y-111000000D03*
%TD*%
D15*
%TO.C,RV1*%
X156245000Y-109915000D03*
X158785000Y-112455000D03*
X156245000Y-114995000D03*
%TD*%
D16*
%TO.C,R23*%
X269525000Y-115461000D03*
D17*
X272065000Y-115461000D03*
%TD*%
D13*
%TO.C,J4*%
X129340000Y-115570000D03*
D14*
X131880000Y-115570000D03*
X134420000Y-115570000D03*
X136960000Y-115570000D03*
%TD*%
D13*
%TO.C,JP10*%
X189030000Y-91764000D03*
D14*
X189030000Y-94304000D03*
%TD*%
D13*
%TO.C,J2*%
X103940000Y-115570000D03*
D14*
X106480000Y-115570000D03*
X109020000Y-115570000D03*
X111560000Y-115570000D03*
%TD*%
D18*
%TO.C,H4*%
X278000000Y-122000000D03*
%TD*%
D13*
%TO.C,JP9*%
X185220000Y-91764000D03*
D14*
X185220000Y-94304000D03*
%TD*%
D18*
%TO.C,H1*%
X81000000Y-73200000D03*
%TD*%
D13*
%TO.C,J8*%
X182680000Y-115570000D03*
D19*
X185220000Y-115570000D03*
X187760000Y-115570000D03*
X190300000Y-115570000D03*
X192840000Y-115570000D03*
X195380000Y-115570000D03*
X197920000Y-115570000D03*
%TD*%
D13*
%TO.C,JP11*%
X192840000Y-91764000D03*
D14*
X192840000Y-94304000D03*
%TD*%
D13*
%TO.C,JP4*%
X175785000Y-115435000D03*
D14*
X178325000Y-115435000D03*
%TD*%
D11*
%TO.C,TP5*%
X201685000Y-90790000D03*
%TD*%
D20*
%TO.C,Q1*%
X280255000Y-102695000D03*
D21*
X280255000Y-105235000D03*
X280255000Y-107775000D03*
%TD*%
D16*
%TO.C,R19*%
X178779000Y-120251000D03*
D17*
X178779000Y-122791000D03*
%TD*%
D15*
%TO.C,RV2*%
X156245000Y-94415000D03*
X158785000Y-96955000D03*
X156245000Y-99495000D03*
%TD*%
D13*
%TO.C,JP6*%
X173905000Y-104627000D03*
D14*
X173905000Y-102087000D03*
%TD*%
D13*
%TO.C,JP8*%
X181350000Y-91764000D03*
D14*
X181350000Y-94304000D03*
%TD*%
D22*
%TO.C,J9*%
X177770000Y-76500000D03*
D23*
X174270000Y-76500000D03*
X170770000Y-76500000D03*
X167270000Y-76500000D03*
X163770000Y-76500000D03*
X160270000Y-76500000D03*
X156770000Y-76500000D03*
X153270000Y-76500000D03*
%TD*%
D13*
%TO.C,J6*%
X140770000Y-115570000D03*
D14*
X143310000Y-115570000D03*
X145850000Y-115570000D03*
X148390000Y-115570000D03*
%TD*%
D18*
%TO.C,H2*%
X81000000Y-122000000D03*
%TD*%
D13*
%TO.C,J3*%
X129340000Y-79630000D03*
D14*
X131880000Y-79630000D03*
X134420000Y-79630000D03*
X136960000Y-79630000D03*
%TD*%
D11*
%TO.C,TP1*%
X83853000Y-109425000D03*
%TD*%
%TO.C,TP3*%
X176345000Y-92249000D03*
%TD*%
D20*
%TO.C,Q3*%
X169551000Y-116679000D03*
D21*
X169551000Y-119219000D03*
X169551000Y-121759000D03*
%TD*%
D11*
%TO.C,TP6*%
X190300000Y-99300000D03*
%TD*%
D13*
%TO.C,JP3*%
X125151000Y-111187000D03*
D14*
X125151000Y-113727000D03*
%TD*%
D13*
%TO.C,J7*%
X182680000Y-79630000D03*
D14*
X185220000Y-79630000D03*
X187760000Y-79630000D03*
X190300000Y-79630000D03*
X192840000Y-79630000D03*
X195380000Y-79630000D03*
X197920000Y-79630000D03*
%TD*%
D11*
%TO.C,TP2*%
X120805000Y-113879000D03*
%TD*%
D18*
%TO.C,H3*%
X278000000Y-73200000D03*
%TD*%
D11*
%TO.C,TP7*%
X171000000Y-109500000D03*
%TD*%
D13*
%TO.C,J1*%
X103940000Y-79630000D03*
D14*
X106480000Y-79630000D03*
X109020000Y-79630000D03*
X111560000Y-79630000D03*
%TD*%
M02*
