%TF.GenerationSoftware,KiCad,Pcbnew,9.0.6*%
%TF.CreationDate,2026-09-24T19:51:50-07:00*%
%TF.ProjectId,hvawg,68766177-672e-46b6-9963-61645f706362,rev?*%
%TF.SameCoordinates,Original*%
%TF.FileFunction,Copper,L1,Top*%
%TF.FilePolarity,Positive*%
%FSLAX46Y46*%
G04 Gerber Fmt 4.6, Leading zero omitted, Abs format (unit mm)*
G04 Created by KiCad (PCBNEW 9.0.6) date 2026-09-24 19:51:50*
%MOMM*%
%LPD*%
G01*
G04 APERTURE LIST*
G04 Aperture macros list*
%AMRoundRect*
0 Rectangle with rounded corners*
0 $1 Rounding radius*
0 $2 $3 $4 $5 $6 $7 $8 $9 X,Y pos of 4 corners*
0 Add a 4 corners polygon primitive as box body*
4,1,4,$2,$3,$4,$5,$6,$7,$8,$9,$2,$3,0*
0 Add four circle primitives for the rounded corners*
1,1,$1+$1,$2,$3*
1,1,$1+$1,$4,$5*
1,1,$1+$1,$6,$7*
1,1,$1+$1,$8,$9*
0 Add four rect primitives between the rounded corners*
20,1,$1+$1,$2,$3,$4,$5,0*
20,1,$1+$1,$4,$5,$6,$7,0*
20,1,$1+$1,$6,$7,$8,$9,0*
20,1,$1+$1,$8,$9,$2,$3,0*%
%AMFreePoly0*
4,1,23,0.500000,-0.750000,0.000000,-0.750000,0.000000,-0.745722,-0.065263,-0.745722,-0.191342,-0.711940,-0.304381,-0.646677,-0.396677,-0.554381,-0.461940,-0.441342,-0.495722,-0.315263,-0.495722,-0.250000,-0.500000,-0.250000,-0.500000,0.250000,-0.495722,0.250000,-0.495722,0.315263,-0.461940,0.441342,-0.396677,0.554381,-0.304381,0.646677,-0.191342,0.711940,-0.065263,0.745722,0.000000,0.745722,
0.000000,0.750000,0.500000,0.750000,0.500000,-0.750000,0.500000,-0.750000,$1*%
%AMFreePoly1*
4,1,23,0.000000,0.745722,0.065263,0.745722,0.191342,0.711940,0.304381,0.646677,0.396677,0.554381,0.461940,0.441342,0.495722,0.315263,0.495722,0.250000,0.500000,0.250000,0.500000,-0.250000,0.495722,-0.250000,0.495722,-0.315263,0.461940,-0.441342,0.396677,-0.554381,0.304381,-0.646677,0.191342,-0.711940,0.065263,-0.745722,0.000000,-0.745722,0.000000,-0.750000,-0.500000,-0.750000,
-0.500000,0.750000,0.000000,0.750000,0.000000,0.745722,0.000000,0.745722,$1*%
G04 Aperture macros list end*
%TA.AperFunction,EtchedComponent*%
%ADD10C,0.000000*%
%TD*%
%TA.AperFunction,SMDPad,CuDef*%
%ADD11RoundRect,0.150000X0.150000X-0.825000X0.150000X0.825000X-0.150000X0.825000X-0.150000X-0.825000X0*%
%TD*%
%TA.AperFunction,ComponentPad*%
%ADD12O,4.200000X2.600000*%
%TD*%
%TA.AperFunction,SMDPad,CuDef*%
%ADD13RoundRect,0.250000X0.325000X0.650000X-0.325000X0.650000X-0.325000X-0.650000X0.325000X-0.650000X0*%
%TD*%
%TA.AperFunction,SMDPad,CuDef*%
%ADD14RoundRect,0.135000X-0.135000X-0.185000X0.135000X-0.185000X0.135000X0.185000X-0.135000X0.185000X0*%
%TD*%
%TA.AperFunction,SMDPad,CuDef*%
%ADD15RoundRect,0.135000X-0.185000X0.135000X-0.185000X-0.135000X0.185000X-0.135000X0.185000X0.135000X0*%
%TD*%
%TA.AperFunction,SMDPad,CuDef*%
%ADD16RoundRect,0.250000X0.625000X-0.312500X0.625000X0.312500X-0.625000X0.312500X-0.625000X-0.312500X0*%
%TD*%
%TA.AperFunction,ComponentPad*%
%ADD17C,2.800000*%
%TD*%
%TA.AperFunction,SMDPad,CuDef*%
%ADD18RoundRect,0.150000X0.512500X0.150000X-0.512500X0.150000X-0.512500X-0.150000X0.512500X-0.150000X0*%
%TD*%
%TA.AperFunction,SMDPad,CuDef*%
%ADD19RoundRect,0.250000X-1.075000X0.362500X-1.075000X-0.362500X1.075000X-0.362500X1.075000X0.362500X0*%
%TD*%
%TA.AperFunction,SMDPad,CuDef*%
%ADD20RoundRect,0.135000X0.185000X-0.135000X0.185000X0.135000X-0.185000X0.135000X-0.185000X-0.135000X0*%
%TD*%
%TA.AperFunction,ComponentPad*%
%ADD21C,7.000000*%
%TD*%
%TA.AperFunction,ComponentPad*%
%ADD22C,0.600000*%
%TD*%
%TA.AperFunction,SMDPad,CuDef*%
%ADD23RoundRect,0.218750X-0.256250X0.218750X-0.256250X-0.218750X0.256250X-0.218750X0.256250X0.218750X0*%
%TD*%
%TA.AperFunction,SMDPad,CuDef*%
%ADD24RoundRect,0.225000X-0.375000X0.225000X-0.375000X-0.225000X0.375000X-0.225000X0.375000X0.225000X0*%
%TD*%
%TA.AperFunction,SMDPad,CuDef*%
%ADD25RoundRect,0.250000X-0.325000X-0.650000X0.325000X-0.650000X0.325000X0.650000X-0.325000X0.650000X0*%
%TD*%
%TA.AperFunction,SMDPad,CuDef*%
%ADD26C,1.500000*%
%TD*%
%TA.AperFunction,ComponentPad*%
%ADD27R,1.700000X1.700000*%
%TD*%
%TA.AperFunction,ComponentPad*%
%ADD28O,1.700000X1.700000*%
%TD*%
%TA.AperFunction,SMDPad,CuDef*%
%ADD29RoundRect,0.250000X-0.650000X0.325000X-0.650000X-0.325000X0.650000X-0.325000X0.650000X0.325000X0*%
%TD*%
%TA.AperFunction,ComponentPad*%
%ADD30C,1.440000*%
%TD*%
%TA.AperFunction,SMDPad,CuDef*%
%ADD31RoundRect,0.225000X0.250000X-0.225000X0.250000X0.225000X-0.250000X0.225000X-0.250000X-0.225000X0*%
%TD*%
%TA.AperFunction,SMDPad,CuDef*%
%ADD32RoundRect,0.250000X-0.350000X0.850000X-0.350000X-0.850000X0.350000X-0.850000X0.350000X0.850000X0*%
%TD*%
%TA.AperFunction,SMDPad,CuDef*%
%ADD33RoundRect,0.250000X-1.125000X1.275000X-1.125000X-1.275000X1.125000X-1.275000X1.125000X1.275000X0*%
%TD*%
%TA.AperFunction,SMDPad,CuDef*%
%ADD34RoundRect,0.249997X-2.650003X2.950003X-2.650003X-2.950003X2.650003X-2.950003X2.650003X2.950003X0*%
%TD*%
%TA.AperFunction,SMDPad,CuDef*%
%ADD35RoundRect,0.225000X0.225000X0.250000X-0.225000X0.250000X-0.225000X-0.250000X0.225000X-0.250000X0*%
%TD*%
%TA.AperFunction,ComponentPad*%
%ADD36C,1.600000*%
%TD*%
%TA.AperFunction,ComponentPad*%
%ADD37O,1.600000X1.600000*%
%TD*%
%TA.AperFunction,SMDPad,CuDef*%
%ADD38RoundRect,0.250000X0.650000X-0.325000X0.650000X0.325000X-0.650000X0.325000X-0.650000X-0.325000X0*%
%TD*%
%TA.AperFunction,SMDPad,CuDef*%
%ADD39RoundRect,0.135000X0.135000X0.185000X-0.135000X0.185000X-0.135000X-0.185000X0.135000X-0.185000X0*%
%TD*%
%TA.AperFunction,SMDPad,CuDef*%
%ADD40RoundRect,0.250000X-1.425000X0.362500X-1.425000X-0.362500X1.425000X-0.362500X1.425000X0.362500X0*%
%TD*%
%TA.AperFunction,SMDPad,CuDef*%
%ADD41RoundRect,0.250000X-0.625000X0.312500X-0.625000X-0.312500X0.625000X-0.312500X0.625000X0.312500X0*%
%TD*%
%TA.AperFunction,ComponentPad*%
%ADD42C,6.400000*%
%TD*%
%TA.AperFunction,SMDPad,CuDef*%
%ADD43RoundRect,0.225000X-0.225000X-0.250000X0.225000X-0.250000X0.225000X0.250000X-0.225000X0.250000X0*%
%TD*%
%TA.AperFunction,SMDPad,CuDef*%
%ADD44RoundRect,0.150000X-0.512500X-0.150000X0.512500X-0.150000X0.512500X0.150000X-0.512500X0.150000X0*%
%TD*%
%TA.AperFunction,SMDPad,CuDef*%
%ADD45FreePoly0,270.000000*%
%TD*%
%TA.AperFunction,SMDPad,CuDef*%
%ADD46FreePoly1,270.000000*%
%TD*%
%TA.AperFunction,SMDPad,CuDef*%
%ADD47RoundRect,0.225000X0.375000X-0.225000X0.375000X0.225000X-0.375000X0.225000X-0.375000X-0.225000X0*%
%TD*%
%TA.AperFunction,ComponentPad*%
%ADD48C,1.700000*%
%TD*%
%TA.AperFunction,SMDPad,CuDef*%
%ADD49RoundRect,0.250000X1.425000X-0.362500X1.425000X0.362500X-1.425000X0.362500X-1.425000X-0.362500X0*%
%TD*%
%TA.AperFunction,ComponentPad*%
%ADD50R,2.500000X1.550000*%
%TD*%
%TA.AperFunction,ComponentPad*%
%ADD51O,2.500000X1.550000*%
%TD*%
%TA.AperFunction,SMDPad,CuDef*%
%ADD52RoundRect,0.150000X-0.825000X-0.150000X0.825000X-0.150000X0.825000X0.150000X-0.825000X0.150000X0*%
%TD*%
%TA.AperFunction,ComponentPad*%
%ADD53RoundRect,0.250000X0.650000X1.550000X-0.650000X1.550000X-0.650000X-1.550000X0.650000X-1.550000X0*%
%TD*%
%TA.AperFunction,ComponentPad*%
%ADD54O,1.800000X3.600000*%
%TD*%
%TA.AperFunction,SMDPad,CuDef*%
%ADD55RoundRect,0.250000X-1.000000X1.950000X-1.000000X-1.950000X1.000000X-1.950000X1.000000X1.950000X0*%
%TD*%
%TA.AperFunction,SMDPad,CuDef*%
%ADD56RoundRect,0.150000X-0.150000X0.825000X-0.150000X-0.825000X0.150000X-0.825000X0.150000X0.825000X0*%
%TD*%
%TA.AperFunction,SMDPad,CuDef*%
%ADD57RoundRect,0.225000X-0.250000X0.225000X-0.250000X-0.225000X0.250000X-0.225000X0.250000X0.225000X0*%
%TD*%
%TA.AperFunction,SMDPad,CuDef*%
%ADD58RoundRect,0.250000X0.312500X0.625000X-0.312500X0.625000X-0.312500X-0.625000X0.312500X-0.625000X0*%
%TD*%
%TA.AperFunction,ViaPad*%
%ADD59C,0.600000*%
%TD*%
%TA.AperFunction,Conductor*%
%ADD60C,0.300000*%
%TD*%
%TA.AperFunction,Conductor*%
%ADD61C,1.000000*%
%TD*%
%TA.AperFunction,Conductor*%
%ADD62C,0.500000*%
%TD*%
G04 APERTURE END LIST*
D10*
%TA.AperFunction,EtchedComponent*%
%TO.C,JP2*%
G36*
X117641000Y-92097000D02*
G01*
X117041000Y-92097000D01*
X117041000Y-91597000D01*
X117641000Y-91597000D01*
X117641000Y-92097000D01*
G37*
%TD.AperFunction*%
%TD*%
D11*
%TO.P,U3,1,VCC*%
%TO.N,Net-(JP1-B)*%
X91154000Y-94920000D03*
%TO.P,U3,2,VREF+*%
%TO.N,Net-(U3-VREF+)*%
X92424000Y-94920000D03*
%TO.P,U3,3,VREF-*%
%TO.N,Net-(U3-VREF-)*%
X93694000Y-94920000D03*
%TO.P,U3,4,COMPEN*%
%TO.N,Net-(U3-COMPEN)*%
X94964000Y-94920000D03*
%TO.P,U3,5,NC*%
%TO.N,unconnected-(U3-NC-Pad5)*%
X96234000Y-94920000D03*
%TO.P,U3,6,GND*%
%TO.N,GND*%
X97504000Y-94920000D03*
%TO.P,U3,7,VEE*%
%TO.N,-12V*%
X98774000Y-94920000D03*
%TO.P,U3,8,I0*%
%TO.N,dac_out*%
X100044000Y-94920000D03*
%TO.P,U3,9,A1*%
%TO.N,Net-(U2-QH)*%
X100044000Y-89970000D03*
%TO.P,U3,10,A2*%
%TO.N,Net-(U2-QG)*%
X98774000Y-89970000D03*
%TO.P,U3,11,A3*%
%TO.N,Net-(U2-QF)*%
X97504000Y-89970000D03*
%TO.P,U3,12,A4*%
%TO.N,Net-(U2-QE)*%
X96234000Y-89970000D03*
%TO.P,U3,13,A5*%
%TO.N,Net-(U2-QD)*%
X94964000Y-89970000D03*
%TO.P,U3,14,A6*%
%TO.N,Net-(U2-QC)*%
X93694000Y-89970000D03*
%TO.P,U3,15,A7*%
%TO.N,Net-(U2-QB)*%
X92424000Y-89970000D03*
%TO.P,U3,16,A8*%
%TO.N,Net-(U2-QA)*%
X91154000Y-89970000D03*
%TD*%
D12*
%TO.P,R21,1*%
%TO.N,Net-(Q1-D)*%
X213800000Y-101460000D03*
%TO.P,R21,2*%
%TO.N,+100V*%
X213800000Y-106540000D03*
%TD*%
D13*
%TO.P,C3,1*%
%TO.N,Net-(JP1-B)*%
X88006000Y-87105000D03*
%TO.P,C3,2*%
%TO.N,GND*%
X85056000Y-87105000D03*
%TD*%
D14*
%TO.P,R27,1*%
%TO.N,Net-(R27-Pad1)*%
X161090000Y-96955000D03*
%TO.P,R27,2*%
%TO.N,GND*%
X162110000Y-96955000D03*
%TD*%
D15*
%TO.P,R28,1*%
%TO.N,Net-(D4-K)*%
X277300000Y-104490000D03*
%TO.P,R28,2*%
%TO.N,Net-(D4-A)*%
X277300000Y-105510000D03*
%TD*%
D16*
%TO.P,R32,1*%
%TO.N,Net-(Q1-D)*%
X205220000Y-91812500D03*
%TO.P,R32,2*%
%TO.N,Net-(C32-Pad1)*%
X205220000Y-88887500D03*
%TD*%
D17*
%TO.P,TP4,1,1*%
%TO.N,levelshift_out*%
X177427000Y-109529000D03*
%TD*%
D18*
%TO.P,U6,1*%
%TO.N,Net-(D5-A)*%
X166174500Y-115346000D03*
%TO.P,U6,2,V-*%
%TO.N,-12V*%
X166174500Y-114396000D03*
%TO.P,U6,3,+*%
%TO.N,Net-(JP3-B)*%
X166174500Y-113446000D03*
%TO.P,U6,4,-*%
%TO.N,Net-(D5-K)*%
X163899500Y-113446000D03*
%TO.P,U6,5,V+*%
%TO.N,+12V*%
X163899500Y-115346000D03*
%TD*%
D19*
%TO.P,R22,1*%
%TO.N,Net-(D4-A)*%
X270179000Y-107646500D03*
%TO.P,R22,2*%
%TO.N,-100V*%
X270179000Y-112271500D03*
%TD*%
D20*
%TO.P,R10,1*%
%TO.N,Net-(JP2-A)*%
X114833000Y-91303000D03*
%TO.P,R10,2*%
%TO.N,GND*%
X114833000Y-90283000D03*
%TD*%
D21*
%TO.P,HS1,1*%
%TO.N,GND*%
X232500000Y-104000000D03*
D22*
%TO.P,HS1,2*%
X253000000Y-98000000D03*
X247500000Y-98000000D03*
X237453000Y-98000000D03*
X227500000Y-98000000D03*
X222000000Y-98000000D03*
X253000000Y-104000000D03*
D21*
X242406000Y-104000000D03*
D22*
X222000000Y-104000000D03*
X253000000Y-110000000D03*
X247500000Y-110000000D03*
X237453000Y-110000000D03*
X227500000Y-110000000D03*
X222000000Y-110000000D03*
%TD*%
D15*
%TO.P,R1,1*%
%TO.N,+12V*%
X134420000Y-97389000D03*
%TO.P,R1,2*%
%TO.N,Net-(D1-A)*%
X134420000Y-98409000D03*
%TD*%
D23*
%TO.P,D1,1,K*%
%TO.N,GND*%
X134420000Y-99961500D03*
%TO.P,D1,2,A*%
%TO.N,Net-(D1-A)*%
X134420000Y-101536500D03*
%TD*%
D24*
%TO.P,D4,1*%
%TO.N,Net-(D4-K)*%
X273800000Y-106600000D03*
%TO.P,D4,2*%
%TO.N,Net-(D4-A)*%
X273800000Y-109900000D03*
%TD*%
D25*
%TO.P,C13,1*%
%TO.N,-12V*%
X120580000Y-89817000D03*
%TO.P,C13,2*%
%TO.N,GND*%
X123530000Y-89817000D03*
%TD*%
D26*
%TO.P,TP12,1*%
%TO.N,-100V*%
X266100000Y-108800000D03*
%TD*%
D27*
%TO.P,J5,1,Pin_1*%
%TO.N,+100V*%
X140770000Y-79630000D03*
D28*
%TO.P,J5,2,Pin_2*%
%TO.N,GND*%
X143310000Y-79630000D03*
%TO.P,J5,3,Pin_3*%
%TO.N,-100V*%
X145850000Y-79630000D03*
%TO.P,J5,4,Pin_4*%
%TO.N,-100+12V*%
X148390000Y-79630000D03*
%TD*%
D17*
%TO.P,TP8,1*%
%TO.N,Net-(D5-K)*%
X151500000Y-111000000D03*
%TD*%
D29*
%TO.P,C22,1*%
%TO.N,+12V*%
X160954000Y-119453000D03*
%TO.P,C22,2*%
%TO.N,GND*%
X160954000Y-122403000D03*
%TD*%
D20*
%TO.P,R2,1*%
%TO.N,Net-(D2-K)*%
X136960000Y-98409000D03*
%TO.P,R2,2*%
%TO.N,-12V*%
X136960000Y-97389000D03*
%TD*%
D30*
%TO.P,RV1,1,1*%
%TO.N,Net-(R26-Pad2)*%
X156245000Y-109915000D03*
%TO.P,RV1,2,2*%
%TO.N,Net-(D5-K)*%
X158785000Y-112455000D03*
%TO.P,RV1,3,3*%
X156245000Y-114995000D03*
%TD*%
D31*
%TO.P,C25,1*%
%TO.N,-100V*%
X267827000Y-102438000D03*
%TO.P,C25,2*%
%TO.N,-100+12V*%
X267827000Y-100888000D03*
%TD*%
D32*
%TO.P,U1,1,IN*%
%TO.N,+12V*%
X96423000Y-110246000D03*
D33*
%TO.P,U1,2,GND*%
%TO.N,GND*%
X95668000Y-114871000D03*
X92618000Y-114871000D03*
D34*
X94143000Y-116546000D03*
D33*
X95668000Y-118221000D03*
X92618000Y-118221000D03*
D32*
%TO.P,U1,3,OUT*%
%TO.N,Net-(JP1-B)*%
X91863000Y-110246000D03*
%TD*%
D35*
%TO.P,C6,1*%
%TO.N,Net-(JP1-B)*%
X88902000Y-94365000D03*
%TO.P,C6,2*%
%TO.N,GND*%
X87352000Y-94365000D03*
%TD*%
D26*
%TO.P,TP9,1*%
%TO.N,Net-(D4-K)*%
X276700000Y-95800000D03*
%TD*%
%TO.P,TP11,1*%
%TO.N,-100+12V*%
X270800000Y-100600000D03*
%TD*%
D29*
%TO.P,C32,1*%
%TO.N,Net-(C32-Pad1)*%
X209300000Y-88325000D03*
%TO.P,C32,2*%
%TO.N,GND*%
X209300000Y-91275000D03*
%TD*%
D36*
%TO.P,R23,1*%
%TO.N,-100V*%
X269525000Y-115461000D03*
D37*
%TO.P,R23,2*%
%TO.N,Net-(D4-A)*%
X272065000Y-115461000D03*
%TD*%
D27*
%TO.P,J4,1,Pin_1*%
%TO.N,GND*%
X129340000Y-115570000D03*
D28*
%TO.P,J4,2,Pin_2*%
X131880000Y-115570000D03*
%TO.P,J4,3,Pin_3*%
%TO.N,+12V*%
X134420000Y-115570000D03*
%TO.P,J4,4,Pin_4*%
%TO.N,-12V*%
X136960000Y-115570000D03*
%TD*%
D11*
%TO.P,U2,1,QB*%
%TO.N,Net-(U2-QB)*%
X91154000Y-86870000D03*
%TO.P,U2,2,QC*%
%TO.N,Net-(U2-QC)*%
X92424000Y-86870000D03*
%TO.P,U2,3,QD*%
%TO.N,Net-(U2-QD)*%
X93694000Y-86870000D03*
%TO.P,U2,4,QE*%
%TO.N,Net-(U2-QE)*%
X94964000Y-86870000D03*
%TO.P,U2,5,QF*%
%TO.N,Net-(U2-QF)*%
X96234000Y-86870000D03*
%TO.P,U2,6,QG*%
%TO.N,Net-(U2-QG)*%
X97504000Y-86870000D03*
%TO.P,U2,7,QH*%
%TO.N,Net-(U2-QH)*%
X98774000Y-86870000D03*
%TO.P,U2,8,GND*%
%TO.N,GND*%
X100044000Y-86870000D03*
%TO.P,U2,9,QH'*%
%TO.N,serial_out*%
X100044000Y-81920000D03*
%TO.P,U2,10,~{SRCLR}*%
%TO.N,Net-(JP1-B)*%
X98774000Y-81920000D03*
%TO.P,U2,11,SRCLK*%
%TO.N,shift_clock*%
X97504000Y-81920000D03*
%TO.P,U2,12,RCLK*%
%TO.N,store_clock*%
X96234000Y-81920000D03*
%TO.P,U2,13,~{OE}*%
%TO.N,GND*%
X94964000Y-81920000D03*
%TO.P,U2,14,SER*%
%TO.N,serial_in*%
X93694000Y-81920000D03*
%TO.P,U2,15,QA*%
%TO.N,Net-(U2-QA)*%
X92424000Y-81920000D03*
%TO.P,U2,16,VCC*%
%TO.N,Net-(JP1-B)*%
X91154000Y-81920000D03*
%TD*%
D35*
%TO.P,C10,1*%
%TO.N,+12V*%
X121680000Y-103363000D03*
%TO.P,C10,2*%
%TO.N,GND*%
X120130000Y-103363000D03*
%TD*%
D38*
%TO.P,C12,1*%
%TO.N,+12V*%
X117303000Y-106160000D03*
%TO.P,C12,2*%
%TO.N,GND*%
X117303000Y-103210000D03*
%TD*%
D27*
%TO.P,JP10,1,A*%
%TO.N,output_post*%
X189030000Y-91764000D03*
D28*
%TO.P,JP10,2,B*%
%TO.N,Net-(J7-Pin_5)*%
X189030000Y-94304000D03*
%TD*%
D39*
%TO.P,R6,1*%
%TO.N,Net-(U3-VREF-)*%
X87811000Y-91381000D03*
%TO.P,R6,2*%
%TO.N,GND*%
X86791000Y-91381000D03*
%TD*%
D40*
%TO.P,R30,1*%
%TO.N,Net-(C14-Pad1)*%
X162225000Y-86937500D03*
%TO.P,R30,2*%
%TO.N,Net-(U8A-+)*%
X162225000Y-92862500D03*
%TD*%
D38*
%TO.P,C24,1*%
%TO.N,-100V*%
X264099000Y-103138000D03*
%TO.P,C24,2*%
%TO.N,-100+12V*%
X264099000Y-100188000D03*
%TD*%
D15*
%TO.P,R17,1*%
%TO.N,levelshift_out*%
X174385000Y-121291000D03*
%TO.P,R17,2*%
%TO.N,-100V*%
X174385000Y-122311000D03*
%TD*%
D41*
%TO.P,R18,1*%
%TO.N,Net-(D4-K)*%
X275239000Y-101750500D03*
%TO.P,R18,2*%
%TO.N,-100V*%
X275239000Y-104675500D03*
%TD*%
D27*
%TO.P,J2,1,Pin_1*%
%TO.N,GND*%
X103940000Y-115570000D03*
D28*
%TO.P,J2,2,Pin_2*%
%TO.N,serial_out*%
X106480000Y-115570000D03*
%TO.P,J2,3,Pin_3*%
%TO.N,shift_clock*%
X109020000Y-115570000D03*
%TO.P,J2,4,Pin_4*%
%TO.N,store_clock*%
X111560000Y-115570000D03*
%TD*%
D15*
%TO.P,R11,1*%
%TO.N,Net-(U4A--)*%
X124469000Y-98155000D03*
%TO.P,R11,2*%
%TO.N,dac_out*%
X124469000Y-99175000D03*
%TD*%
D42*
%TO.P,H4,1*%
%TO.N,N/C*%
X278000000Y-122000000D03*
%TD*%
D16*
%TO.P,R15,1*%
%TO.N,-100V*%
X260207000Y-103125500D03*
%TO.P,R15,2*%
%TO.N,-100+12V*%
X260207000Y-100200500D03*
%TD*%
D43*
%TO.P,C8,1*%
%TO.N,Net-(U3-COMPEN)*%
X94416000Y-97121000D03*
%TO.P,C8,2*%
%TO.N,-12V*%
X95966000Y-97121000D03*
%TD*%
D44*
%TO.P,U7,1*%
%TO.N,Net-(D4-K)*%
X270167500Y-102823000D03*
%TO.P,U7,2,V-*%
%TO.N,-100V*%
X270167500Y-103773000D03*
%TO.P,U7,3,+*%
%TO.N,Net-(JP4-B)*%
X270167500Y-104723000D03*
%TO.P,U7,4,-*%
%TO.N,Net-(D4-A)*%
X272442500Y-104723000D03*
%TO.P,U7,5,V+*%
%TO.N,-100+12V*%
X272442500Y-102823000D03*
%TD*%
D20*
%TO.P,R8,1*%
%TO.N,Net-(R7-Pad2)*%
X114861000Y-95775000D03*
%TO.P,R8,2*%
%TO.N,Net-(R8-Pad2)*%
X114861000Y-94755000D03*
%TD*%
%TO.P,R3,1*%
%TO.N,-100+12V*%
X147120000Y-110710000D03*
%TO.P,R3,2*%
%TO.N,Net-(D3-A)*%
X147120000Y-109690000D03*
%TD*%
D27*
%TO.P,JP9,1,A*%
%TO.N,output_post*%
X185220000Y-91764000D03*
D28*
%TO.P,JP9,2,B*%
%TO.N,Net-(J7-Pin_3)*%
X185220000Y-94304000D03*
%TD*%
D31*
%TO.P,C14,1*%
%TO.N,Net-(C14-Pad1)*%
X153000000Y-89275000D03*
%TO.P,C14,2*%
%TO.N,GND*%
X153000000Y-87725000D03*
%TD*%
D45*
%TO.P,JP2,1,A*%
%TO.N,Net-(JP2-A)*%
X117341000Y-91197000D03*
D46*
%TO.P,JP2,2,B*%
%TO.N,Net-(JP2-B)*%
X117341000Y-92497000D03*
%TD*%
D47*
%TO.P,D5,1*%
%TO.N,Net-(D5-K)*%
X166350000Y-121815000D03*
%TO.P,D5,2*%
%TO.N,Net-(D5-A)*%
X166350000Y-118515000D03*
%TD*%
D42*
%TO.P,H1,1*%
%TO.N,N/C*%
X81000000Y-73200000D03*
%TD*%
D27*
%TO.P,J8,1*%
%TO.N,Net-(J7-Pin_1)*%
X182680000Y-115570000D03*
D48*
%TO.P,J8,2*%
%TO.N,GND*%
X185220000Y-115570000D03*
%TO.P,J8,3*%
%TO.N,Net-(J7-Pin_3)*%
X187760000Y-115570000D03*
%TO.P,J8,4*%
%TO.N,GND*%
X190300000Y-115570000D03*
%TO.P,J8,5*%
%TO.N,Net-(J7-Pin_5)*%
X192840000Y-115570000D03*
%TO.P,J8,6*%
%TO.N,GND*%
X195380000Y-115570000D03*
%TO.P,J8,7*%
%TO.N,Net-(J7-Pin_7)*%
X197920000Y-115570000D03*
%TD*%
D29*
%TO.P,C2,1*%
%TO.N,Net-(JP1-B)*%
X88997000Y-109792000D03*
%TO.P,C2,2*%
%TO.N,GND*%
X88997000Y-112742000D03*
%TD*%
%TO.P,C15,1*%
%TO.N,Net-(C14-Pad1)*%
X152871000Y-94480000D03*
%TO.P,C15,2*%
%TO.N,GND*%
X152871000Y-97430000D03*
%TD*%
D27*
%TO.P,JP11,1,A*%
%TO.N,output_post*%
X192840000Y-91764000D03*
D28*
%TO.P,JP11,2,B*%
%TO.N,Net-(J7-Pin_7)*%
X192840000Y-94304000D03*
%TD*%
D13*
%TO.P,C23,1*%
%TO.N,-12V*%
X167737000Y-109200000D03*
%TO.P,C23,2*%
%TO.N,GND*%
X164787000Y-109200000D03*
%TD*%
%TO.P,C31,1*%
%TO.N,-12V*%
X167162000Y-98241000D03*
%TO.P,C31,2*%
%TO.N,GND*%
X164212000Y-98241000D03*
%TD*%
D27*
%TO.P,JP4,1,A*%
%TO.N,levelshift_out*%
X175785000Y-115435000D03*
D28*
%TO.P,JP4,2,B*%
%TO.N,Net-(JP4-B)*%
X178325000Y-115435000D03*
%TD*%
D49*
%TO.P,R31,1*%
%TO.N,Net-(Q1-D)*%
X196700000Y-95462500D03*
%TO.P,R31,2*%
%TO.N,output_post*%
X196700000Y-89537500D03*
%TD*%
D17*
%TO.P,TP5,1,1*%
%TO.N,Net-(Q1-D)*%
X201685000Y-90790000D03*
%TD*%
D43*
%TO.P,C11,1*%
%TO.N,-12V*%
X120902000Y-93457000D03*
%TO.P,C11,2*%
%TO.N,GND*%
X122452000Y-93457000D03*
%TD*%
D19*
%TO.P,R12,1*%
%TO.N,+100V*%
X157419000Y-85316500D03*
%TO.P,R12,2*%
%TO.N,Net-(C14-Pad1)*%
X157419000Y-89941500D03*
%TD*%
D39*
%TO.P,R29,1*%
%TO.N,Net-(D5-K)*%
X166860000Y-116955000D03*
%TO.P,R29,2*%
%TO.N,Net-(D5-A)*%
X165840000Y-116955000D03*
%TD*%
D50*
%TO.P,Q1,1*%
%TO.N,Net-(D4-K)*%
X280255000Y-102695000D03*
D51*
%TO.P,Q1,2*%
%TO.N,Net-(Q1-D)*%
X280255000Y-105235000D03*
%TO.P,Q1,3*%
%TO.N,Net-(D4-A)*%
X280255000Y-107775000D03*
%TD*%
D45*
%TO.P,JP1,1,A*%
%TO.N,Net-(JP1-A)*%
X90697000Y-98853000D03*
D46*
%TO.P,JP1,2,B*%
%TO.N,Net-(JP1-B)*%
X90697000Y-100153000D03*
%TD*%
D36*
%TO.P,R19,1*%
%TO.N,levelshift_out*%
X178779000Y-120251000D03*
D37*
%TO.P,R19,2*%
%TO.N,-100V*%
X178779000Y-122791000D03*
%TD*%
D52*
%TO.P,U8,1*%
%TO.N,monitor_out*%
X165488000Y-90020000D03*
%TO.P,U8,2,-*%
X165488000Y-91290000D03*
%TO.P,U8,3,+*%
%TO.N,Net-(U8A-+)*%
X165488000Y-92560000D03*
%TO.P,U8,4,V-*%
%TO.N,-12V*%
X165488000Y-93830000D03*
%TO.P,U8,5*%
%TO.N,GND*%
X170438000Y-93830000D03*
%TO.P,U8,6*%
%TO.N,Net-(U8B--)*%
X170438000Y-92560000D03*
%TO.P,U8,7*%
X170438000Y-91290000D03*
%TO.P,U8,8,V+*%
%TO.N,+12V*%
X170438000Y-90020000D03*
%TD*%
D30*
%TO.P,RV2,1,1*%
%TO.N,Net-(C14-Pad1)*%
X156245000Y-94415000D03*
%TO.P,RV2,2,2*%
%TO.N,Net-(R27-Pad1)*%
X158785000Y-96955000D03*
%TO.P,RV2,3,3*%
X156245000Y-99495000D03*
%TD*%
D27*
%TO.P,JP6,1,A*%
%TO.N,Net-(JP6-A)*%
X173905000Y-104627000D03*
D28*
%TO.P,JP6,2,B*%
%TO.N,monitor_out*%
X173905000Y-102087000D03*
%TD*%
D27*
%TO.P,JP8,1,A*%
%TO.N,output_post*%
X181350000Y-91764000D03*
D28*
%TO.P,JP8,2,B*%
%TO.N,Net-(J7-Pin_1)*%
X181350000Y-94304000D03*
%TD*%
D53*
%TO.P,J9,1*%
%TO.N,GND*%
X177770000Y-76500000D03*
D54*
%TO.P,J9,2*%
%TO.N,+12V*%
X174270000Y-76500000D03*
%TO.P,J9,3*%
%TO.N,-12V*%
X170770000Y-76500000D03*
%TO.P,J9,4*%
%TO.N,GND*%
X167270000Y-76500000D03*
%TO.P,J9,5*%
%TO.N,+100V*%
X163770000Y-76500000D03*
%TO.P,J9,6*%
%TO.N,GND*%
X160270000Y-76500000D03*
%TO.P,J9,7*%
%TO.N,-100V*%
X156770000Y-76500000D03*
%TO.P,J9,8*%
%TO.N,-100+12V*%
X153270000Y-76500000D03*
%TD*%
D29*
%TO.P,C1,1*%
%TO.N,+12V*%
X99311000Y-110484000D03*
%TO.P,C1,2*%
%TO.N,GND*%
X99311000Y-113434000D03*
%TD*%
D26*
%TO.P,TP10,1*%
%TO.N,Net-(D4-A)*%
X276550000Y-112900000D03*
%TD*%
D35*
%TO.P,C4,1*%
%TO.N,Net-(JP1-B)*%
X89378000Y-82283000D03*
%TO.P,C4,2*%
%TO.N,GND*%
X87828000Y-82283000D03*
%TD*%
D13*
%TO.P,C9,1*%
%TO.N,-12V*%
X100554000Y-99329000D03*
%TO.P,C9,2*%
%TO.N,GND*%
X97604000Y-99329000D03*
%TD*%
D27*
%TO.P,J6,1,Pin_1*%
%TO.N,+100V*%
X140770000Y-115570000D03*
D28*
%TO.P,J6,2,Pin_2*%
%TO.N,GND*%
X143310000Y-115570000D03*
%TO.P,J6,3,Pin_3*%
%TO.N,-100V*%
X145850000Y-115570000D03*
%TO.P,J6,4,Pin_4*%
%TO.N,-100+12V*%
X148390000Y-115570000D03*
%TD*%
D55*
%TO.P,C27,1*%
%TO.N,GND*%
X204320000Y-116147000D03*
%TO.P,C27,2*%
%TO.N,-100V*%
X204320000Y-123547000D03*
%TD*%
D23*
%TO.P,D3,1,K*%
%TO.N,-100V*%
X147120000Y-106712500D03*
%TO.P,D3,2,A*%
%TO.N,Net-(D3-A)*%
X147120000Y-108287500D03*
%TD*%
D35*
%TO.P,C28,1*%
%TO.N,+12V*%
X172176000Y-87387000D03*
%TO.P,C28,2*%
%TO.N,GND*%
X170626000Y-87387000D03*
%TD*%
D20*
%TO.P,R4,1*%
%TO.N,Net-(JP1-B)*%
X88551000Y-100747000D03*
%TO.P,R4,2*%
%TO.N,Net-(JP1-A)*%
X88551000Y-99727000D03*
%TD*%
D38*
%TO.P,C5,1*%
%TO.N,Net-(JP1-B)*%
X85035000Y-97366000D03*
%TO.P,C5,2*%
%TO.N,GND*%
X85035000Y-94416000D03*
%TD*%
%TO.P,C30,1*%
%TO.N,+12V*%
X174593000Y-88508000D03*
%TO.P,C30,2*%
%TO.N,GND*%
X174593000Y-85558000D03*
%TD*%
D42*
%TO.P,H2,1*%
%TO.N,N/C*%
X81000000Y-122000000D03*
%TD*%
D27*
%TO.P,J3,1,Pin_1*%
%TO.N,GND*%
X129340000Y-79630000D03*
D28*
%TO.P,J3,2,Pin_2*%
X131880000Y-79630000D03*
%TO.P,J3,3,Pin_3*%
%TO.N,+12V*%
X134420000Y-79630000D03*
%TO.P,J3,4,Pin_4*%
%TO.N,-12V*%
X136960000Y-79630000D03*
%TD*%
D39*
%TO.P,R26,1*%
%TO.N,Net-(JP6-A)*%
X162110000Y-107900000D03*
%TO.P,R26,2*%
%TO.N,Net-(R26-Pad2)*%
X161090000Y-107900000D03*
%TD*%
D23*
%TO.P,D2,1,K*%
%TO.N,Net-(D2-K)*%
X136960000Y-99961500D03*
%TO.P,D2,2,A*%
%TO.N,GND*%
X136960000Y-101536500D03*
%TD*%
D17*
%TO.P,TP1,1,1*%
%TO.N,Net-(JP1-B)*%
X83853000Y-109425000D03*
%TD*%
%TO.P,TP3,1,1*%
%TO.N,monitor_out*%
X176345000Y-92249000D03*
%TD*%
D16*
%TO.P,R24,1*%
%TO.N,+100V*%
X179560000Y-85462500D03*
%TO.P,R24,2*%
%TO.N,GND*%
X179560000Y-82537500D03*
%TD*%
D56*
%TO.P,U4,1*%
%TO.N,Net-(U4A--)*%
X122648000Y-95846000D03*
%TO.P,U4,2,-*%
X121378000Y-95846000D03*
%TO.P,U4,3,+*%
%TO.N,Net-(JP2-B)*%
X120108000Y-95846000D03*
%TO.P,U4,4,V-*%
%TO.N,-12V*%
X118838000Y-95846000D03*
%TO.P,U4,5*%
%TO.N,GND*%
X118838000Y-100796000D03*
%TO.P,U4,6*%
%TO.N,Net-(U4B--)*%
X120108000Y-100796000D03*
%TO.P,U4,7*%
X121378000Y-100796000D03*
%TO.P,U4,8,V+*%
%TO.N,+12V*%
X122648000Y-100796000D03*
%TD*%
D50*
%TO.P,Q3,1*%
%TO.N,Net-(D5-A)*%
X169551000Y-116679000D03*
D51*
%TO.P,Q3,2*%
%TO.N,levelshift_out*%
X169551000Y-119219000D03*
%TO.P,Q3,3*%
%TO.N,Net-(D5-K)*%
X169551000Y-121759000D03*
%TD*%
D17*
%TO.P,TP6,1*%
%TO.N,output_post*%
X190300000Y-99300000D03*
%TD*%
D20*
%TO.P,R9,1*%
%TO.N,Net-(R8-Pad2)*%
X114831000Y-93621000D03*
%TO.P,R9,2*%
%TO.N,Net-(JP2-B)*%
X114831000Y-92601000D03*
%TD*%
D35*
%TO.P,C29,1*%
%TO.N,-12V*%
X166008000Y-96033000D03*
%TO.P,C29,2*%
%TO.N,GND*%
X164458000Y-96033000D03*
%TD*%
%TO.P,C21,1*%
%TO.N,-12V*%
X167247000Y-111368000D03*
%TO.P,C21,2*%
%TO.N,GND*%
X165697000Y-111368000D03*
%TD*%
D57*
%TO.P,C20,1*%
%TO.N,+12V*%
X163924000Y-118323000D03*
%TO.P,C20,2*%
%TO.N,GND*%
X163924000Y-119873000D03*
%TD*%
D55*
%TO.P,C26,1*%
%TO.N,+100V*%
X204320000Y-71737000D03*
%TO.P,C26,2*%
%TO.N,GND*%
X204320000Y-79137000D03*
%TD*%
D27*
%TO.P,JP3,1,A*%
%TO.N,dac_out*%
X125151000Y-111187000D03*
D28*
%TO.P,JP3,2,B*%
%TO.N,Net-(JP3-B)*%
X125151000Y-113727000D03*
%TD*%
D20*
%TO.P,R7,1*%
%TO.N,Net-(JP1-B)*%
X114843000Y-97839000D03*
%TO.P,R7,2*%
%TO.N,Net-(R7-Pad2)*%
X114843000Y-96819000D03*
%TD*%
D27*
%TO.P,J7,1*%
%TO.N,Net-(J7-Pin_1)*%
X182680000Y-79630000D03*
D28*
%TO.P,J7,2*%
%TO.N,GND*%
X185220000Y-79630000D03*
%TO.P,J7,3*%
%TO.N,Net-(J7-Pin_3)*%
X187760000Y-79630000D03*
%TO.P,J7,4*%
%TO.N,GND*%
X190300000Y-79630000D03*
%TO.P,J7,5*%
%TO.N,Net-(J7-Pin_5)*%
X192840000Y-79630000D03*
%TO.P,J7,6*%
%TO.N,GND*%
X195380000Y-79630000D03*
%TO.P,J7,7*%
%TO.N,Net-(J7-Pin_7)*%
X197920000Y-79630000D03*
%TD*%
D35*
%TO.P,C7,1*%
%TO.N,-12V*%
X99076000Y-97121000D03*
%TO.P,C7,2*%
%TO.N,GND*%
X97526000Y-97121000D03*
%TD*%
D58*
%TO.P,R25,1*%
%TO.N,GND*%
X153562500Y-103900000D03*
%TO.P,R25,2*%
%TO.N,-100V*%
X150637500Y-103900000D03*
%TD*%
D17*
%TO.P,TP2,1,1*%
%TO.N,dac_out*%
X120805000Y-113879000D03*
%TD*%
D20*
%TO.P,R5,1*%
%TO.N,Net-(JP1-A)*%
X88551000Y-98585000D03*
%TO.P,R5,2*%
%TO.N,Net-(U3-VREF+)*%
X88551000Y-97565000D03*
%TD*%
D42*
%TO.P,H3,1*%
%TO.N,N/C*%
X278000000Y-73200000D03*
%TD*%
D17*
%TO.P,TP7,1*%
%TO.N,Net-(D5-A)*%
X171000000Y-109500000D03*
%TD*%
D27*
%TO.P,J1,1,Pin_1*%
%TO.N,GND*%
X103940000Y-79630000D03*
D28*
%TO.P,J1,2,Pin_2*%
%TO.N,serial_in*%
X106480000Y-79630000D03*
%TO.P,J1,3,Pin_3*%
%TO.N,shift_clock*%
X109020000Y-79630000D03*
%TO.P,J1,4,Pin_4*%
%TO.N,store_clock*%
X111560000Y-79630000D03*
%TD*%
D59*
%TO.N,GND*%
X113600000Y-90283000D03*
X172300000Y-93830000D03*
X162600000Y-122403000D03*
X154900000Y-103900000D03*
X101400000Y-88226000D03*
X94143000Y-120600000D03*
X154200000Y-97430000D03*
X212000000Y-85900000D03*
X177200000Y-113000000D03*
X117303000Y-101900000D03*
X163400000Y-109800000D03*
X83400000Y-87105000D03*
X206300000Y-79137000D03*
X143310000Y-82400000D03*
X151800000Y-87725000D03*
X83300000Y-94416000D03*
X160946000Y-94500000D03*
X94964000Y-79400000D03*
X206300000Y-116147000D03*
X160270000Y-79900000D03*
X133150000Y-99622000D03*
X169300000Y-87387000D03*
X124900000Y-89817000D03*
%TO.N,+12V*%
X134420000Y-95800000D03*
X162500000Y-85200000D03*
X147200000Y-119453000D03*
%TO.N,Net-(JP1-B)*%
X89378000Y-85200000D03*
X98774000Y-85200000D03*
X103400000Y-92000000D03*
%TO.N,-12V*%
X164000000Y-94900000D03*
X102500000Y-88500000D03*
X102500000Y-99329000D03*
%TO.N,-100V*%
X267827000Y-104300000D03*
X149600000Y-103900000D03*
X145850000Y-103900000D03*
X267827000Y-111000000D03*
X274900000Y-106200000D03*
%TO.N,-100+12V*%
X258900000Y-100200000D03*
%TO.N,+100V*%
X180300000Y-87000000D03*
X201500000Y-71000000D03*
X209800000Y-71737000D03*
%TO.N,serial_in*%
X93694000Y-84000000D03*
%TO.N,serial_out*%
X104500000Y-86376000D03*
%TO.N,Net-(JP3-B)*%
X165000000Y-112450000D03*
%TO.N,dac_out*%
X121400000Y-99175000D03*
%TO.N,Net-(JP4-B)*%
X180325000Y-110500000D03*
%TO.N,Net-(JP6-A)*%
X162600000Y-106766000D03*
%TO.N,Net-(Q1-D)*%
X281255000Y-96280000D03*
%TO.N,Net-(U3-VREF-)*%
X87938000Y-90240000D03*
X92002000Y-93034000D03*
%TO.N,Net-(D4-K)*%
X274400000Y-102700000D03*
X275600000Y-96900000D03*
%TD*%
D60*
%TO.N,GND*%
X170438000Y-93830000D02*
X172300000Y-93830000D01*
D61*
X184220000Y-113000000D02*
X177200000Y-113000000D01*
D60*
X133489500Y-99961500D02*
X133150000Y-99622000D01*
D61*
X97105000Y-113434000D02*
X95668000Y-114871000D01*
X191800000Y-76500000D02*
X193880000Y-76500000D01*
X185220000Y-114000000D02*
X184220000Y-113000000D01*
X131880000Y-116300000D02*
X133080000Y-117500000D01*
D60*
X153000000Y-87725000D02*
X151800000Y-87725000D01*
X85086000Y-94365000D02*
X85035000Y-94416000D01*
X118838000Y-102071000D02*
X120130000Y-103363000D01*
D62*
X117303000Y-103210000D02*
X117303000Y-101900000D01*
D60*
X164212000Y-98241000D02*
X163259000Y-98241000D01*
X97504000Y-93374000D02*
X98098000Y-92780000D01*
D61*
X129340000Y-115570000D02*
X131880000Y-115570000D01*
D60*
X100384000Y-92780000D02*
X101400000Y-91764000D01*
X134420000Y-99961500D02*
X133489500Y-99961500D01*
D61*
X191300000Y-113000000D02*
X190300000Y-114000000D01*
X204320000Y-79137000D02*
X206300000Y-79137000D01*
D60*
X86791000Y-93500000D02*
X87200000Y-93909000D01*
X94964000Y-81920000D02*
X94964000Y-79400000D01*
X97504000Y-94920000D02*
X97504000Y-93374000D01*
X163259000Y-98241000D02*
X161973000Y-96955000D01*
D61*
X204320000Y-116147000D02*
X206300000Y-116147000D01*
D60*
X97526000Y-99251000D02*
X97604000Y-99329000D01*
D61*
X85056000Y-94395000D02*
X85035000Y-94416000D01*
X195380000Y-115570000D02*
X195380000Y-114000000D01*
X195380000Y-81000000D02*
X196380000Y-82000000D01*
X133080000Y-117500000D02*
X138840000Y-117500000D01*
D60*
X123530000Y-89817000D02*
X123530000Y-90192000D01*
X118838000Y-100796000D02*
X118838000Y-102071000D01*
X160946000Y-94500000D02*
X162110000Y-95664000D01*
X164212000Y-96279000D02*
X164458000Y-96033000D01*
X98098000Y-92780000D02*
X100384000Y-92780000D01*
D61*
X117456000Y-103363000D02*
X117303000Y-103210000D01*
X177770000Y-76500000D02*
X183720000Y-76500000D01*
X196380000Y-82000000D02*
X199500000Y-82000000D01*
D60*
X123530000Y-90192000D02*
X122452000Y-91270000D01*
D61*
X143310000Y-79630000D02*
X143310000Y-115570000D01*
X185220000Y-115570000D02*
X185220000Y-114000000D01*
D60*
X97526000Y-97121000D02*
X97526000Y-99251000D01*
D61*
X99311000Y-113434000D02*
X97105000Y-113434000D01*
X143310000Y-115570000D02*
X143310000Y-116850000D01*
X195380000Y-79630000D02*
X195380000Y-81000000D01*
X196380000Y-118000000D02*
X195380000Y-117000000D01*
D62*
X153562000Y-103900000D02*
X154900000Y-103900000D01*
D61*
X186220000Y-82000000D02*
X189300000Y-82000000D01*
D62*
X85056000Y-87105000D02*
X83400000Y-87105000D01*
X179560000Y-80000000D02*
X177770000Y-78210000D01*
D60*
X162110000Y-95664000D02*
X162110000Y-96955000D01*
D61*
X199500000Y-82000000D02*
X202000000Y-79500000D01*
D60*
X101400000Y-88226000D02*
X100044000Y-86870000D01*
D61*
X190300000Y-81000000D02*
X190300000Y-79630000D01*
X185220000Y-78000000D02*
X185220000Y-79630000D01*
X85056000Y-85055000D02*
X85056000Y-87105000D01*
X87828000Y-82283000D02*
X85056000Y-85055000D01*
D60*
X170626000Y-87387000D02*
X172455000Y-85558000D01*
D61*
X120130000Y-103363000D02*
X117456000Y-103363000D01*
X90489000Y-112742000D02*
X92618000Y-114871000D01*
D60*
X136960000Y-101536500D02*
X135995000Y-101536500D01*
D61*
X195380000Y-117000000D02*
X195380000Y-115570000D01*
X190300000Y-114000000D02*
X190300000Y-115570000D01*
X94143000Y-116546000D02*
X94143000Y-120600000D01*
D60*
X87352000Y-94365000D02*
X85086000Y-94365000D01*
D61*
X190300000Y-78000000D02*
X191800000Y-76500000D01*
D62*
X211000000Y-91275000D02*
X212000000Y-90275000D01*
X212000000Y-90275000D02*
X212000000Y-85900000D01*
D61*
X152871000Y-97430000D02*
X152141000Y-97430000D01*
D60*
X86791000Y-91381000D02*
X86791000Y-93500000D01*
D61*
X189300000Y-118000000D02*
X186220000Y-118000000D01*
X190300000Y-79630000D02*
X190300000Y-78000000D01*
X164187000Y-109800000D02*
X164787000Y-109200000D01*
X190300000Y-117000000D02*
X189300000Y-118000000D01*
D60*
X164212000Y-108625000D02*
X164787000Y-109200000D01*
D62*
X160270000Y-79900000D02*
X160270000Y-76500000D01*
D61*
X195380000Y-114000000D02*
X194380000Y-113000000D01*
X88997000Y-112742000D02*
X90489000Y-112742000D01*
D60*
X114833000Y-90283000D02*
X113600000Y-90283000D01*
X97504000Y-94920000D02*
X97504000Y-97099000D01*
D61*
X139090000Y-117750000D02*
X138840000Y-117500000D01*
X183720000Y-76500000D02*
X185220000Y-78000000D01*
X190300000Y-115570000D02*
X190300000Y-117000000D01*
D62*
X160954000Y-122403000D02*
X162600000Y-122403000D01*
D60*
X170626000Y-87387000D02*
X169300000Y-87387000D01*
D61*
X143310000Y-116850000D02*
X142410000Y-117750000D01*
D62*
X123530000Y-89817000D02*
X124900000Y-89817000D01*
X179560000Y-82537000D02*
X179560000Y-80000000D01*
D60*
X172455000Y-85558000D02*
X174593000Y-85558000D01*
D62*
X85035000Y-94416000D02*
X83300000Y-94416000D01*
D60*
X160954000Y-122403000D02*
X163484000Y-119873000D01*
D61*
X185220000Y-79630000D02*
X185220000Y-81000000D01*
X163400000Y-109800000D02*
X164187000Y-109800000D01*
X194380000Y-113000000D02*
X191300000Y-113000000D01*
X202000000Y-79500000D02*
X204320000Y-79500000D01*
X195380000Y-78000000D02*
X195380000Y-79630000D01*
D60*
X122452000Y-91270000D02*
X122452000Y-93457000D01*
X164212000Y-98241000D02*
X164212000Y-96279000D01*
D62*
X209300000Y-91275000D02*
X211000000Y-91275000D01*
D61*
X193880000Y-76500000D02*
X195380000Y-78000000D01*
X189300000Y-82000000D02*
X190300000Y-81000000D01*
X204320000Y-118000000D02*
X196380000Y-118000000D01*
D60*
X164787000Y-109200000D02*
X164787000Y-110458000D01*
X164787000Y-110458000D02*
X165697000Y-111368000D01*
D61*
X186220000Y-118000000D02*
X185220000Y-117000000D01*
X142410000Y-117750000D02*
X139090000Y-117750000D01*
D62*
X152871000Y-97430000D02*
X154200000Y-97430000D01*
D60*
X161973000Y-96955000D02*
X162110000Y-96955000D01*
X101400000Y-91764000D02*
X101400000Y-88226000D01*
X163484000Y-119873000D02*
X163924000Y-119873000D01*
D61*
X185220000Y-81000000D02*
X186220000Y-82000000D01*
D60*
X97504000Y-97099000D02*
X97526000Y-97121000D01*
D61*
X185220000Y-117000000D02*
X185220000Y-115570000D01*
D60*
X135995000Y-101536500D02*
X134420000Y-99961500D01*
%TO.N,+12V*%
X162500000Y-85200000D02*
X164000000Y-83700000D01*
D61*
X96661000Y-110484000D02*
X96423000Y-110246000D01*
D60*
X134420000Y-97389000D02*
X134219000Y-97389000D01*
X176200000Y-87300000D02*
X175300000Y-88200000D01*
X176200000Y-84700000D02*
X176200000Y-87300000D01*
X172176000Y-87387000D02*
X173297000Y-88508000D01*
X163899500Y-115346000D02*
X163899500Y-118298500D01*
X132420000Y-104500000D02*
X123200000Y-104500000D01*
X99311000Y-110484000D02*
X112979000Y-110484000D01*
X170438000Y-90020000D02*
X172176000Y-88282000D01*
X127600000Y-97389000D02*
X124800000Y-100189000D01*
X122648000Y-100796000D02*
X122648000Y-102395000D01*
X123200000Y-104500000D02*
X121900000Y-103200000D01*
X122648000Y-102395000D02*
X121680000Y-103363000D01*
X172176000Y-88282000D02*
X172176000Y-87387000D01*
X112979000Y-110484000D02*
X117303000Y-106160000D01*
X163899500Y-118298500D02*
X163924000Y-118323000D01*
X134420000Y-106500000D02*
X132420000Y-104500000D01*
X174270000Y-80000000D02*
X176200000Y-81930000D01*
X174270000Y-76500000D02*
X174270000Y-80000000D01*
X147200000Y-119453000D02*
X160954000Y-119453000D01*
X173297000Y-88508000D02*
X174593000Y-88508000D01*
X117303000Y-106160000D02*
X119520000Y-106160000D01*
X163924000Y-118323000D02*
X162084000Y-118323000D01*
X121680000Y-104000000D02*
X121680000Y-103363000D01*
X175200000Y-83700000D02*
X176200000Y-84700000D01*
X134420000Y-95800000D02*
X134420000Y-97389000D01*
X162084000Y-118323000D02*
X160954000Y-119453000D01*
X176200000Y-81930000D02*
X176200000Y-84700000D01*
X124800000Y-100189000D02*
X122648000Y-100189000D01*
D61*
X99311000Y-110484000D02*
X96661000Y-110484000D01*
D60*
X134420000Y-115570000D02*
X134420000Y-106500000D01*
X119520000Y-106160000D02*
X121680000Y-104000000D01*
X164000000Y-83700000D02*
X175200000Y-83700000D01*
X134420000Y-97389000D02*
X127600000Y-97389000D01*
%TO.N,Net-(JP1-B)*%
X88902000Y-95372000D02*
X88446000Y-95828000D01*
X88446000Y-95828000D02*
X86573000Y-95828000D01*
D61*
X85035000Y-108243000D02*
X83853000Y-109425000D01*
D60*
X86735000Y-100747000D02*
X85035000Y-102447000D01*
X89457000Y-94920000D02*
X88902000Y-94365000D01*
D61*
X91409000Y-109792000D02*
X91863000Y-110246000D01*
D60*
X88902000Y-88001000D02*
X88006000Y-87105000D01*
X88551000Y-100747000D02*
X90100000Y-100747000D01*
D61*
X85035000Y-108243000D02*
X85035000Y-102447000D01*
D60*
X98774000Y-85200000D02*
X98774000Y-81920000D01*
X90791000Y-82283000D02*
X91154000Y-81920000D01*
X88902000Y-94365000D02*
X88902000Y-95372000D01*
X108000000Y-92000000D02*
X113839000Y-97839000D01*
D61*
X85035000Y-102447000D02*
X85035000Y-97366000D01*
D60*
X89378000Y-85900000D02*
X88300000Y-86978000D01*
X88551000Y-100747000D02*
X86735000Y-100747000D01*
D61*
X88997000Y-109792000D02*
X91409000Y-109792000D01*
D60*
X103400000Y-92000000D02*
X108000000Y-92000000D01*
X86573000Y-95828000D02*
X85035000Y-97366000D01*
X91154000Y-94920000D02*
X89457000Y-94920000D01*
X88551000Y-109346000D02*
X88997000Y-109792000D01*
X89378000Y-82283000D02*
X90791000Y-82283000D01*
X89378000Y-85200000D02*
X89378000Y-85900000D01*
D61*
X84220000Y-109792000D02*
X83853000Y-109425000D01*
D60*
X89378000Y-82283000D02*
X89378000Y-82704000D01*
X113839000Y-97839000D02*
X114843000Y-97839000D01*
X89378000Y-82283000D02*
X89378000Y-85200000D01*
X90100000Y-100747000D02*
X90400000Y-100447000D01*
X88902000Y-94365000D02*
X88902000Y-88001000D01*
D61*
X88997000Y-109792000D02*
X84220000Y-109792000D01*
D60*
%TO.N,-12V*%
X100554000Y-98599000D02*
X99076000Y-97121000D01*
X135460000Y-88500000D02*
X136960000Y-90000000D01*
X102500000Y-88500000D02*
X119900000Y-88500000D01*
X98774000Y-96758000D02*
X98774000Y-94920000D01*
X95966000Y-100300000D02*
X96574000Y-100908000D01*
X167162000Y-97187000D02*
X166008000Y-96033000D01*
X120580000Y-93135000D02*
X120902000Y-93457000D01*
X119900000Y-88500000D02*
X120580000Y-89180000D01*
X100554000Y-100484000D02*
X100554000Y-99329000D01*
X137900000Y-97389000D02*
X138400000Y-97889000D01*
X167162000Y-107900000D02*
X167737000Y-108475000D01*
X136960000Y-90000000D02*
X136960000Y-97389000D01*
X98860000Y-96905000D02*
X98860000Y-96844000D01*
X166008000Y-96033000D02*
X166008000Y-94350000D01*
X166174500Y-114396000D02*
X166908000Y-114396000D01*
X167247000Y-112763000D02*
X167247000Y-111368000D01*
X166008000Y-94350000D02*
X165488000Y-93830000D01*
X99076000Y-97121000D02*
X98860000Y-96905000D01*
X167162000Y-98241000D02*
X167162000Y-107900000D01*
X167737000Y-109200000D02*
X167737000Y-108681000D01*
X167640000Y-113156000D02*
X167247000Y-112763000D01*
X100130000Y-100908000D02*
X100554000Y-100484000D01*
X100554000Y-99329000D02*
X100554000Y-98599000D01*
X95966000Y-97121000D02*
X95966000Y-100300000D01*
X136960000Y-97389000D02*
X137900000Y-97389000D01*
X138400000Y-97889000D02*
X138400000Y-114130000D01*
X120580000Y-89817000D02*
X120580000Y-93135000D01*
X120452000Y-93457000D02*
X118838000Y-95071000D01*
X167247000Y-111368000D02*
X167247000Y-109690000D01*
X167247000Y-109690000D02*
X167737000Y-109200000D01*
X118838000Y-95071000D02*
X118838000Y-95846000D01*
X167162000Y-98241000D02*
X167162000Y-97187000D01*
X120580000Y-89180000D02*
X121260000Y-88500000D01*
X136960000Y-79630000D02*
X136960000Y-90000000D01*
X121260000Y-88500000D02*
X135460000Y-88500000D01*
X96574000Y-100908000D02*
X100130000Y-100908000D01*
X167640000Y-113664000D02*
X167640000Y-113156000D01*
X120902000Y-93457000D02*
X120452000Y-93457000D01*
X164000000Y-94900000D02*
X164900000Y-94000000D01*
X136960000Y-97389000D02*
X136759000Y-97389000D01*
X98860000Y-96844000D02*
X98774000Y-96758000D01*
X166908000Y-114396000D02*
X167640000Y-113664000D01*
X138400000Y-114130000D02*
X136960000Y-115570000D01*
X100554000Y-99329000D02*
X102500000Y-99329000D01*
%TO.N,Net-(U3-COMPEN)*%
X94416000Y-96462000D02*
X94416000Y-97121000D01*
X94964000Y-94920000D02*
X94964000Y-95914000D01*
X94964000Y-95914000D02*
X94416000Y-96462000D01*
%TO.N,Net-(U8A-+)*%
X163500000Y-92560000D02*
X165488000Y-92560000D01*
D61*
%TO.N,-100V*%
X178779000Y-122791000D02*
X180488000Y-124500000D01*
D60*
X275239000Y-105861000D02*
X274900000Y-106200000D01*
X270167500Y-103773000D02*
X269162000Y-103773000D01*
D61*
X174752000Y-122808000D02*
X176259000Y-122808000D01*
X269525000Y-112271000D02*
X269525000Y-115461000D01*
D60*
X260207000Y-103125500D02*
X264086500Y-103125500D01*
D62*
X147120000Y-106712000D02*
X147120000Y-105170000D01*
D60*
X174385000Y-122311000D02*
X174385000Y-122441000D01*
X266100000Y-108800000D02*
X266100000Y-109273000D01*
D61*
X145850000Y-123500000D02*
X146850000Y-124500000D01*
D60*
X267127000Y-103138000D02*
X267827000Y-102438000D01*
X269162000Y-103773000D02*
X267827000Y-102438000D01*
D61*
X145850000Y-103900000D02*
X145850000Y-115570000D01*
D60*
X269098000Y-112271000D02*
X270179000Y-112271000D01*
D61*
X145850000Y-79630000D02*
X145850000Y-103900000D01*
X203953000Y-123547000D02*
X204320000Y-123547000D01*
X177070000Y-124500000D02*
X178779000Y-122791000D01*
X176276000Y-122791000D02*
X178779000Y-122791000D01*
D60*
X174385000Y-122441000D02*
X174752000Y-122808000D01*
D61*
X176259000Y-122808000D02*
X176276000Y-122791000D01*
D62*
X147120000Y-105170000D02*
X145850000Y-103900000D01*
D61*
X269525000Y-118022000D02*
X269525000Y-115461000D01*
D60*
X266100000Y-109273000D02*
X267827000Y-111000000D01*
X267827000Y-111000000D02*
X269098000Y-112271000D01*
X275239000Y-104675500D02*
X275239000Y-105861000D01*
D61*
X204320000Y-123547000D02*
X264000000Y-123547000D01*
X150637000Y-103900000D02*
X149600000Y-103900000D01*
D60*
X267900000Y-102511000D02*
X267827000Y-102438000D01*
X264099000Y-103138000D02*
X267127000Y-103138000D01*
D61*
X145850000Y-115570000D02*
X145850000Y-123500000D01*
X146850000Y-124500000D02*
X177070000Y-124500000D01*
D60*
X267827000Y-102438000D02*
X267827000Y-104300000D01*
X264086500Y-103125500D02*
X264099000Y-103138000D01*
D61*
X180488000Y-124500000D02*
X204320000Y-124500000D01*
X264000000Y-123547000D02*
X269525000Y-118022000D01*
%TO.N,-100+12V*%
X260207000Y-100200500D02*
X258899500Y-100200500D01*
D60*
X264086500Y-100200500D02*
X264099000Y-100188000D01*
X147120000Y-110710000D02*
X148390000Y-111980000D01*
X260207000Y-100200500D02*
X264086500Y-100200500D01*
D61*
X148390000Y-111980000D02*
X148390000Y-115570000D01*
D60*
X264099000Y-100188000D02*
X267127000Y-100188000D01*
X267127000Y-100188000D02*
X267827000Y-100888000D01*
X267827000Y-100888000D02*
X270507500Y-100888000D01*
X270507500Y-100888000D02*
X272442500Y-102823000D01*
X270507000Y-100888000D02*
X270800000Y-100600000D01*
D61*
X148390000Y-79630000D02*
X148390000Y-111980000D01*
%TO.N,+100V*%
X140770000Y-79630000D02*
X140770000Y-115570000D01*
X163770000Y-76500000D02*
X163770000Y-78965000D01*
X201500000Y-71000000D02*
X204320000Y-71000000D01*
X163770000Y-78965000D02*
X157419000Y-85316000D01*
X204320000Y-71737000D02*
X209800000Y-71737000D01*
X180300000Y-87000000D02*
X180300000Y-85600000D01*
D60*
%TO.N,Net-(D1-A)*%
X133286500Y-101536500D02*
X131880000Y-100130000D01*
X131880000Y-99368000D02*
X132839000Y-98409000D01*
X131880000Y-100130000D02*
X131880000Y-99368000D01*
X134420000Y-101536500D02*
X133286500Y-101536500D01*
X132839000Y-98409000D02*
X134420000Y-98409000D01*
%TO.N,Net-(D2-K)*%
X136960000Y-98409000D02*
X136960000Y-99961500D01*
%TO.N,Net-(D3-A)*%
X147120000Y-108287500D02*
X147120000Y-109690000D01*
%TO.N,serial_in*%
X93694000Y-84000000D02*
X93694000Y-81920000D01*
%TO.N,shift_clock*%
X109020000Y-79200000D02*
X108020000Y-78200000D01*
X108020000Y-78200000D02*
X98504000Y-78200000D01*
X98504000Y-78200000D02*
X97504000Y-79200000D01*
X97504000Y-79200000D02*
X97504000Y-81920000D01*
X109020000Y-79630000D02*
X109020000Y-79200000D01*
%TO.N,store_clock*%
X110560000Y-77500000D02*
X97234000Y-77500000D01*
X111560000Y-78500000D02*
X110560000Y-77500000D01*
X97234000Y-77500000D02*
X96234000Y-78500000D01*
X96234000Y-78500000D02*
X96234000Y-81920000D01*
X111560000Y-79630000D02*
X111560000Y-78500000D01*
%TO.N,serial_out*%
X100044000Y-81920000D02*
X104500000Y-86376000D01*
%TO.N,Net-(JP1-A)*%
X88551000Y-98585000D02*
X88551000Y-99727000D01*
D61*
X90697000Y-98585000D02*
X88551000Y-98585000D01*
D60*
%TO.N,Net-(JP2-A)*%
X114833000Y-91303000D02*
X117235000Y-91303000D01*
X117235000Y-91303000D02*
X117341000Y-91197000D01*
%TO.N,Net-(JP2-B)*%
X116640000Y-92510000D02*
X116640000Y-92182000D01*
X120108000Y-95846000D02*
X120108000Y-96662000D01*
X116640000Y-96320000D02*
X116640000Y-92510000D01*
X119434000Y-97336000D02*
X117656000Y-97336000D01*
X116200000Y-91900000D02*
X116950000Y-92650000D01*
X120108000Y-96662000D02*
X119434000Y-97336000D01*
X117656000Y-97336000D02*
X116640000Y-96320000D01*
X114831000Y-92601000D02*
X115532000Y-91900000D01*
X115532000Y-91900000D02*
X116200000Y-91900000D01*
%TO.N,Net-(JP3-B)*%
X165000000Y-112450000D02*
X165750000Y-113200000D01*
%TO.N,dac_out*%
X100044000Y-94920000D02*
X102000000Y-94920000D01*
X121400000Y-99175000D02*
X124469000Y-99175000D01*
X123497000Y-111187000D02*
X120805000Y-113879000D01*
X106255000Y-99175000D02*
X121400000Y-99175000D01*
X125151000Y-111187000D02*
X123497000Y-111187000D01*
X102000000Y-94920000D02*
X106255000Y-99175000D01*
%TO.N,levelshift_out*%
X175785000Y-117257000D02*
X178779000Y-120251000D01*
D61*
X172991000Y-120251000D02*
X176025000Y-120251000D01*
D60*
X175785000Y-115435000D02*
X175785000Y-117257000D01*
D61*
X171959000Y-119219000D02*
X172991000Y-120251000D01*
D60*
X174385000Y-121291000D02*
X174985000Y-121291000D01*
D61*
X176025000Y-120251000D02*
X178779000Y-120251000D01*
D60*
X175785000Y-111871000D02*
X177427000Y-110229000D01*
X174985000Y-121291000D02*
X176025000Y-120251000D01*
D61*
X169551000Y-119219000D02*
X171959000Y-119219000D01*
D60*
X175785000Y-115435000D02*
X175785000Y-111871000D01*
%TO.N,Net-(JP4-B)*%
X268220000Y-106300000D02*
X269800000Y-104720000D01*
X180325000Y-107300000D02*
X181325000Y-106300000D01*
X259500000Y-115000000D02*
X259500000Y-107300000D01*
X180325000Y-110500000D02*
X180325000Y-107300000D01*
X259500000Y-107300000D02*
X260500000Y-106300000D01*
X181325000Y-106300000D02*
X201000000Y-106300000D01*
X210700000Y-116000000D02*
X258500000Y-116000000D01*
X258500000Y-116000000D02*
X259500000Y-115000000D01*
X260500000Y-106300000D02*
X268220000Y-106300000D01*
X201000000Y-106300000D02*
X210700000Y-116000000D01*
%TO.N,Net-(D4-A)*%
X272442500Y-105383000D02*
X270179000Y-107646500D01*
X273800000Y-109900000D02*
X273700000Y-109900000D01*
D61*
X270307500Y-107775000D02*
X270179000Y-107646500D01*
X280255000Y-107775000D02*
X276425000Y-107775000D01*
X274700000Y-107775000D02*
X273700000Y-108775000D01*
X276425000Y-107775000D02*
X274700000Y-107775000D01*
X273700000Y-108775000D02*
X273700000Y-112695000D01*
D60*
X276550000Y-112900000D02*
X276550000Y-112650000D01*
D61*
X272065000Y-114329630D02*
X273700000Y-112694630D01*
D60*
X277300000Y-105510000D02*
X277300000Y-106900000D01*
X277300000Y-106900000D02*
X276425000Y-107775000D01*
X272442500Y-104723000D02*
X272442500Y-105383000D01*
X276550000Y-112650000D02*
X273800000Y-109900000D01*
D61*
X274700000Y-107775000D02*
X270307500Y-107775000D01*
X272065000Y-115461000D02*
X272065000Y-114329630D01*
D60*
%TO.N,Net-(D5-K)*%
X151500000Y-111000000D02*
X155495000Y-114995000D01*
X158785000Y-112455000D02*
X156245000Y-114995000D01*
X169495000Y-121815000D02*
X169551000Y-121759000D01*
X167105000Y-116955000D02*
X166860000Y-116955000D01*
X167330000Y-117180000D02*
X167105000Y-116955000D01*
X166350000Y-121815000D02*
X169495000Y-121815000D01*
X167330000Y-120835000D02*
X167330000Y-117180000D01*
X163899500Y-113446000D02*
X159776000Y-113446000D01*
X166350000Y-121815000D02*
X167330000Y-120835000D01*
X159776000Y-113446000D02*
X158785000Y-112455000D01*
X155495000Y-114995000D02*
X156245000Y-114995000D01*
%TO.N,monitor_out*%
X165488000Y-91290000D02*
X166800000Y-91290000D01*
X176345000Y-99647000D02*
X176345000Y-92249000D01*
X167300000Y-95482000D02*
X173905000Y-102087000D01*
X167300000Y-91790000D02*
X167300000Y-95482000D01*
X166800000Y-91290000D02*
X167300000Y-91790000D01*
X165488000Y-90020000D02*
X165488000Y-91290000D01*
X173905000Y-102087000D02*
X176345000Y-99647000D01*
%TO.N,Net-(JP6-A)*%
X162110000Y-107900000D02*
X162600000Y-107410000D01*
X162600000Y-107410000D02*
X162600000Y-106766000D01*
%TO.N,Net-(C14-Pad1)*%
X159246000Y-89942000D02*
X162000000Y-87188000D01*
X153000000Y-89275000D02*
X153000000Y-94000000D01*
D61*
X156245000Y-94415000D02*
X152936000Y-94415000D01*
D60*
X157419000Y-89942000D02*
X159246000Y-89942000D01*
D61*
X152936000Y-94415000D02*
X152871000Y-94480000D01*
X157419000Y-93241000D02*
X156245000Y-94415000D01*
X157419000Y-89941500D02*
X157419000Y-93241000D01*
D60*
%TO.N,Net-(D5-A)*%
X165840000Y-115346000D02*
X165840000Y-116955000D01*
X166174500Y-115346000D02*
X168218000Y-115346000D01*
X165840000Y-116955000D02*
X165840000Y-118005000D01*
X165840000Y-118005000D02*
X166350000Y-118515000D01*
X171000000Y-109500000D02*
X171000000Y-115230000D01*
X168218000Y-115346000D02*
X169551000Y-116679000D01*
X171000000Y-115230000D02*
X169551000Y-116679000D01*
D62*
%TO.N,Net-(Q1-D)*%
X272975000Y-88000000D02*
X281255000Y-96280000D01*
D61*
X213800000Y-94500000D02*
X212800000Y-93500000D01*
X213800000Y-101460000D02*
X213800000Y-94500000D01*
X201685000Y-90790000D02*
X197200000Y-95275000D01*
D62*
X221500000Y-88000000D02*
X272975000Y-88000000D01*
D61*
X205220000Y-91812000D02*
X201685000Y-91812000D01*
X206908000Y-93500000D02*
X205220000Y-91812000D01*
X206908000Y-93500000D02*
X212800000Y-93500000D01*
D62*
X216000000Y-93500000D02*
X221500000Y-88000000D01*
D61*
X212800000Y-93500000D02*
X216000000Y-93500000D01*
D60*
%TO.N,Net-(U3-VREF+)*%
X88551000Y-97565000D02*
X88551000Y-97247000D01*
X92424000Y-95914000D02*
X92424000Y-94920000D01*
X91494000Y-96844000D02*
X92424000Y-95914000D01*
X88551000Y-97247000D02*
X88954000Y-96844000D01*
X88954000Y-96844000D02*
X91494000Y-96844000D01*
%TO.N,Net-(U3-VREF-)*%
X93694000Y-93964000D02*
X93694000Y-94920000D01*
X92002000Y-93034000D02*
X92764000Y-93034000D01*
X92764000Y-93034000D02*
X93694000Y-93964000D01*
X87811000Y-91381000D02*
X87811000Y-90367000D01*
X87811000Y-90367000D02*
X87938000Y-90240000D01*
%TO.N,Net-(R7-Pad2)*%
X114861000Y-95775000D02*
X114861000Y-96801000D01*
X114861000Y-96801000D02*
X114843000Y-96819000D01*
%TO.N,Net-(R8-Pad2)*%
X114831000Y-93621000D02*
X114831000Y-94725000D01*
X114831000Y-94725000D02*
X114861000Y-94755000D01*
%TO.N,Net-(U4A--)*%
X124469000Y-98155000D02*
X124469000Y-97667000D01*
X124469000Y-97667000D02*
X122648000Y-95846000D01*
X121378000Y-95846000D02*
X122648000Y-95846000D01*
%TO.N,Net-(U2-QA)*%
X92424000Y-83468000D02*
X90224000Y-85668000D01*
X92424000Y-81920000D02*
X92424000Y-83468000D01*
X90224000Y-85668000D02*
X90224000Y-89040000D01*
X90224000Y-89040000D02*
X91154000Y-89970000D01*
%TO.N,Net-(U2-QE)*%
X94964000Y-87614000D02*
X96234000Y-88884000D01*
X96234000Y-88884000D02*
X96234000Y-89970000D01*
X94964000Y-86870000D02*
X94964000Y-87614000D01*
%TO.N,Net-(U2-QF)*%
X96234000Y-86870000D02*
X96234000Y-87614000D01*
X97504000Y-88884000D02*
X97504000Y-89970000D01*
X96234000Y-87614000D02*
X97504000Y-88884000D01*
%TO.N,Net-(U2-QC)*%
X92424000Y-86870000D02*
X92424000Y-87614000D01*
X93694000Y-88884000D02*
X93694000Y-89970000D01*
X92424000Y-87614000D02*
X93694000Y-88884000D01*
%TO.N,Net-(U2-QB)*%
X91154000Y-87614000D02*
X92424000Y-88884000D01*
X91154000Y-86870000D02*
X91154000Y-87614000D01*
X92424000Y-88884000D02*
X92424000Y-89970000D01*
%TO.N,Net-(U2-QD)*%
X94964000Y-88884000D02*
X94964000Y-89970000D01*
X93694000Y-87614000D02*
X94964000Y-88884000D01*
X93694000Y-86870000D02*
X93694000Y-87614000D01*
%TO.N,Net-(U2-QG)*%
X97504000Y-86870000D02*
X97504000Y-87614000D01*
X98774000Y-88884000D02*
X98774000Y-89970000D01*
X97504000Y-87614000D02*
X98774000Y-88884000D01*
%TO.N,Net-(U2-QH)*%
X100044000Y-88884000D02*
X100044000Y-89970000D01*
X98774000Y-87614000D02*
X100044000Y-88884000D01*
X98774000Y-86870000D02*
X98774000Y-87614000D01*
%TO.N,output_post*%
X190935000Y-93000000D02*
X189699000Y-91764000D01*
D61*
X194900000Y-91764000D02*
X196700000Y-89964000D01*
X181350000Y-91764000D02*
X192840000Y-91764000D01*
D60*
X181350000Y-91764000D02*
X185220000Y-91764000D01*
X190935000Y-98665000D02*
X190935000Y-93000000D01*
X190300000Y-99300000D02*
X190935000Y-98665000D01*
X189030000Y-91764000D02*
X192840000Y-91764000D01*
X185220000Y-91764000D02*
X189030000Y-91764000D01*
D61*
X192840000Y-91764000D02*
X194900000Y-91764000D01*
D60*
%TO.N,Net-(R26-Pad2)*%
X156245000Y-109915000D02*
X159075000Y-109915000D01*
X159075000Y-109915000D02*
X161090000Y-107900000D01*
%TO.N,Net-(R27-Pad1)*%
X158785000Y-96955000D02*
X161090000Y-96955000D01*
X156245000Y-99495000D02*
X158785000Y-96955000D01*
%TO.N,Net-(C32-Pad1)*%
X205220000Y-88600000D02*
X209300000Y-88600000D01*
%TO.N,Net-(D4-K)*%
X271700000Y-103600000D02*
X273100000Y-103600000D01*
X273500000Y-104000000D02*
X273500000Y-106300000D01*
X273500000Y-103600000D02*
X275239000Y-101861000D01*
X273100000Y-103600000D02*
X273500000Y-103600000D01*
X275239000Y-101861000D02*
X275239000Y-101750500D01*
X273500000Y-106300000D02*
X273800000Y-106600000D01*
X270923000Y-102823000D02*
X271700000Y-103600000D01*
X276183500Y-102695000D02*
X275239000Y-101750500D01*
X277300000Y-104490000D02*
X279205000Y-102585000D01*
X280255000Y-102695000D02*
X276183500Y-102695000D01*
X275600000Y-96900000D02*
X276700000Y-95800000D01*
X273100000Y-103600000D02*
X273500000Y-104000000D01*
X270167500Y-102823000D02*
X270923000Y-102823000D01*
%TO.N,Net-(U4B--)*%
X120108000Y-100796000D02*
X121378000Y-100796000D01*
%TO.N,Net-(U8B--)*%
X170438000Y-92560000D02*
X170438000Y-91290000D01*
%TD*%
%TA.AperFunction,Conductor*%
%TO.N,GND*%
G36*
X255343039Y-96019685D02*
G01*
X255388794Y-96072489D01*
X255400000Y-96124000D01*
X255400000Y-112276000D01*
X255380315Y-112343039D01*
X255327511Y-112388794D01*
X255276000Y-112400000D01*
X219624000Y-112400000D01*
X219556961Y-112380315D01*
X219511206Y-112327511D01*
X219500000Y-112276000D01*
X219500000Y-96124000D01*
X219519685Y-96056961D01*
X219572489Y-96011206D01*
X219624000Y-96000000D01*
X255276000Y-96000000D01*
X255343039Y-96019685D01*
G37*
%TD.AperFunction*%
%TD*%
M02*
