%TF.GenerationSoftware,KiCad,Pcbnew,9.0.6*%
%TF.CreationDate,2026-09-09T15:10:21-07:00*%
%TF.ProjectId,hvawg,68766177-672e-46b6-9963-61645f706362,rev?*%
%TF.SameCoordinates,Original*%
%TF.FileFunction,Soldermask,Top*%
%TF.FilePolarity,Negative*%
%FSLAX46Y46*%
G04 Gerber Fmt 4.6, Leading zero omitted, Abs format (unit mm)*
G04 Created by KiCad (PCBNEW 9.0.6) date 2026-09-09 15:10:21*
%MOMM*%
%LPD*%
G01*
G04 APERTURE LIST*
G04 Aperture macros list*
%AMRoundRect*
0 Rectangle with rounded corners*
0 $1 Rounding radius*
0 $2 $3 $4 $5 $6 $7 $8 $9 X,Y pos of 4 corners*
0 Add a 4 corners polygon primitive as box body*
4,1,4,$2,$3,$4,$5,$6,$7,$8,$9,$2,$3,0*
0 Add four circle primitives for the rounded corners*
1,1,$1+$1,$2,$3*
1,1,$1+$1,$4,$5*
1,1,$1+$1,$6,$7*
1,1,$1+$1,$8,$9*
0 Add four rect primitives between the rounded corners*
20,1,$1+$1,$2,$3,$4,$5,0*
20,1,$1+$1,$4,$5,$6,$7,0*
20,1,$1+$1,$6,$7,$8,$9,0*
20,1,$1+$1,$8,$9,$2,$3,0*%
%AMFreePoly0*
4,1,23,0.500000,-0.750000,0.000000,-0.750000,0.000000,-0.745722,-0.065263,-0.745722,-0.191342,-0.711940,-0.304381,-0.646677,-0.396677,-0.554381,-0.461940,-0.441342,-0.495722,-0.315263,-0.495722,-0.250000,-0.500000,-0.250000,-0.500000,0.250000,-0.495722,0.250000,-0.495722,0.315263,-0.461940,0.441342,-0.396677,0.554381,-0.304381,0.646677,-0.191342,0.711940,-0.065263,0.745722,0.000000,0.745722,
0.000000,0.750000,0.500000,0.750000,0.500000,-0.750000,0.500000,-0.750000,$1*%
%AMFreePoly1*
4,1,23,0.000000,0.745722,0.065263,0.745722,0.191342,0.711940,0.304381,0.646677,0.396677,0.554381,0.461940,0.441342,0.495722,0.315263,0.495722,0.250000,0.500000,0.250000,0.500000,-0.250000,0.495722,-0.250000,0.495722,-0.315263,0.461940,-0.441342,0.396677,-0.554381,0.304381,-0.646677,0.191342,-0.711940,0.065263,-0.745722,0.000000,-0.745722,0.000000,-0.750000,-0.500000,-0.750000,
-0.500000,0.750000,0.000000,0.750000,0.000000,0.745722,0.000000,0.745722,$1*%
G04 Aperture macros list end*
%ADD10RoundRect,0.150000X0.150000X-0.825000X0.150000X0.825000X-0.150000X0.825000X-0.150000X-0.825000X0*%
%ADD11RoundRect,0.250000X0.325000X0.650000X-0.325000X0.650000X-0.325000X-0.650000X0.325000X-0.650000X0*%
%ADD12C,2.400000*%
%ADD13O,2.400000X2.400000*%
%ADD14C,2.800000*%
%ADD15RoundRect,0.150000X0.512500X0.150000X-0.512500X0.150000X-0.512500X-0.150000X0.512500X-0.150000X0*%
%ADD16RoundRect,0.250000X-1.075000X0.362500X-1.075000X-0.362500X1.075000X-0.362500X1.075000X0.362500X0*%
%ADD17RoundRect,0.135000X0.185000X-0.135000X0.185000X0.135000X-0.185000X0.135000X-0.185000X-0.135000X0*%
%ADD18RoundRect,0.135000X-0.185000X0.135000X-0.185000X-0.135000X0.185000X-0.135000X0.185000X0.135000X0*%
%ADD19RoundRect,0.218750X-0.256250X0.218750X-0.256250X-0.218750X0.256250X-0.218750X0.256250X0.218750X0*%
%ADD20RoundRect,0.250000X-0.325000X-0.650000X0.325000X-0.650000X0.325000X0.650000X-0.325000X0.650000X0*%
%ADD21R,1.700000X1.700000*%
%ADD22O,1.700000X1.700000*%
%ADD23RoundRect,0.250000X-0.650000X0.325000X-0.650000X-0.325000X0.650000X-0.325000X0.650000X0.325000X0*%
%ADD24C,1.440000*%
%ADD25RoundRect,0.225000X0.250000X-0.225000X0.250000X0.225000X-0.250000X0.225000X-0.250000X-0.225000X0*%
%ADD26RoundRect,0.250000X-0.350000X0.850000X-0.350000X-0.850000X0.350000X-0.850000X0.350000X0.850000X0*%
%ADD27RoundRect,0.249997X-2.650003X2.950003X-2.650003X-2.950003X2.650003X-2.950003X2.650003X2.950003X0*%
%ADD28RoundRect,0.225000X0.225000X0.250000X-0.225000X0.250000X-0.225000X-0.250000X0.225000X-0.250000X0*%
%ADD29C,1.600000*%
%ADD30O,1.600000X1.600000*%
%ADD31RoundRect,0.250000X0.650000X-0.325000X0.650000X0.325000X-0.650000X0.325000X-0.650000X-0.325000X0*%
%ADD32RoundRect,0.135000X0.135000X0.185000X-0.135000X0.185000X-0.135000X-0.185000X0.135000X-0.185000X0*%
%ADD33RoundRect,0.250000X-0.625000X0.312500X-0.625000X-0.312500X0.625000X-0.312500X0.625000X0.312500X0*%
%ADD34C,6.400000*%
%ADD35RoundRect,0.250000X0.625000X-0.312500X0.625000X0.312500X-0.625000X0.312500X-0.625000X-0.312500X0*%
%ADD36RoundRect,0.225000X-0.225000X-0.250000X0.225000X-0.250000X0.225000X0.250000X-0.225000X0.250000X0*%
%ADD37RoundRect,0.150000X-0.512500X-0.150000X0.512500X-0.150000X0.512500X0.150000X-0.512500X0.150000X0*%
%ADD38RoundRect,0.225000X-0.250000X0.225000X-0.250000X-0.225000X0.250000X-0.225000X0.250000X0.225000X0*%
%ADD39FreePoly0,270.000000*%
%ADD40FreePoly1,270.000000*%
%ADD41R,2.000000X1.905000*%
%ADD42O,2.000000X1.905000*%
%ADD43RoundRect,0.150000X-0.825000X-0.150000X0.825000X-0.150000X0.825000X0.150000X-0.825000X0.150000X0*%
%ADD44RoundRect,0.250000X-1.000000X1.950000X-1.000000X-1.950000X1.000000X-1.950000X1.000000X1.950000X0*%
%ADD45RoundRect,0.150000X-0.150000X0.825000X-0.150000X-0.825000X0.150000X-0.825000X0.150000X0.825000X0*%
G04 APERTURE END LIST*
D10*
%TO.C,U3*%
X91154000Y-98920000D03*
X92424000Y-98920000D03*
X93694000Y-98920000D03*
X94964000Y-98920000D03*
X96234000Y-98920000D03*
X97504000Y-98920000D03*
X98774000Y-98920000D03*
X100044000Y-98920000D03*
X100044000Y-93970000D03*
X98774000Y-93970000D03*
X97504000Y-93970000D03*
X96234000Y-93970000D03*
X94964000Y-93970000D03*
X93694000Y-93970000D03*
X92424000Y-93970000D03*
X91154000Y-93970000D03*
%TD*%
D11*
%TO.C,C3*%
X88006000Y-91105000D03*
X85056000Y-91105000D03*
%TD*%
D12*
%TO.C,R21*%
X221405000Y-93825000D03*
D13*
X211245000Y-93825000D03*
%TD*%
D14*
%TO.C,TP4*%
X175427000Y-101529000D03*
%TD*%
D15*
%TO.C,U6*%
X166174500Y-107346000D03*
X166174500Y-106396000D03*
X166174500Y-105446000D03*
X163899500Y-105446000D03*
X163899500Y-107346000D03*
%TD*%
D16*
%TO.C,R22*%
X212679000Y-107646500D03*
X212679000Y-112271500D03*
%TD*%
D17*
%TO.C,R10*%
X114833000Y-94303000D03*
X114833000Y-93283000D03*
%TD*%
D18*
%TO.C,R1*%
X134420000Y-100389000D03*
X134420000Y-101409000D03*
%TD*%
D19*
%TO.C,D1*%
X134420000Y-102961500D03*
X134420000Y-104536500D03*
%TD*%
D20*
%TO.C,C13*%
X120580000Y-92817000D03*
X123530000Y-92817000D03*
%TD*%
D21*
%TO.C,J7*%
X182680000Y-90430000D03*
D22*
X185220000Y-90430000D03*
X187760000Y-90430000D03*
X190300000Y-90430000D03*
%TD*%
D21*
%TO.C,J5*%
X139500000Y-90430000D03*
D22*
X142040000Y-90430000D03*
X144580000Y-90430000D03*
X147120000Y-90430000D03*
%TD*%
D23*
%TO.C,C22*%
X160954000Y-111453000D03*
X160954000Y-114403000D03*
%TD*%
D17*
%TO.C,R2*%
X136960000Y-101409000D03*
X136960000Y-100389000D03*
%TD*%
D24*
%TO.C,RV1*%
X156245000Y-101915000D03*
X158785000Y-104455000D03*
X156245000Y-106995000D03*
%TD*%
D25*
%TO.C,C25*%
X210327000Y-102438000D03*
X210327000Y-100888000D03*
%TD*%
D26*
%TO.C,U1*%
X96423000Y-107246000D03*
D27*
X94143000Y-113546000D03*
D26*
X91863000Y-107246000D03*
%TD*%
D21*
%TO.C,J9*%
X129340000Y-92970000D03*
D22*
X131880000Y-92970000D03*
X134420000Y-92970000D03*
X136960000Y-92970000D03*
X139500000Y-92970000D03*
X142040000Y-92970000D03*
X144580000Y-92970000D03*
X147120000Y-92970000D03*
%TD*%
D28*
%TO.C,C6*%
X88902000Y-98365000D03*
X87352000Y-98365000D03*
%TD*%
D29*
%TO.C,R23*%
X212025000Y-115461000D03*
D30*
X214565000Y-115461000D03*
%TD*%
D21*
%TO.C,J4*%
X129340000Y-107570000D03*
D22*
X131880000Y-107570000D03*
X134420000Y-107570000D03*
X136960000Y-107570000D03*
%TD*%
D10*
%TO.C,U2*%
X91154000Y-90870000D03*
X92424000Y-90870000D03*
X93694000Y-90870000D03*
X94964000Y-90870000D03*
X96234000Y-90870000D03*
X97504000Y-90870000D03*
X98774000Y-90870000D03*
X100044000Y-90870000D03*
X100044000Y-85920000D03*
X98774000Y-85920000D03*
X97504000Y-85920000D03*
X96234000Y-85920000D03*
X94964000Y-85920000D03*
X93694000Y-85920000D03*
X92424000Y-85920000D03*
X91154000Y-85920000D03*
%TD*%
D28*
%TO.C,C10*%
X121680000Y-106363000D03*
X120130000Y-106363000D03*
%TD*%
D31*
%TO.C,C12*%
X117303000Y-109160000D03*
X117303000Y-106210000D03*
%TD*%
D21*
%TO.C,JP10*%
X189030000Y-95764000D03*
D22*
X189030000Y-98304000D03*
%TD*%
D32*
%TO.C,R6*%
X87811000Y-95381000D03*
X86791000Y-95381000D03*
%TD*%
D31*
%TO.C,C24*%
X206599000Y-103138000D03*
X206599000Y-100188000D03*
%TD*%
D18*
%TO.C,R17*%
X174385000Y-113291000D03*
X174385000Y-114311000D03*
%TD*%
D21*
%TO.C,J8*%
X182680000Y-107570000D03*
D22*
X185220000Y-107570000D03*
X187760000Y-107570000D03*
X190300000Y-107570000D03*
%TD*%
D33*
%TO.C,R18*%
X217739000Y-101750500D03*
X217739000Y-104675500D03*
%TD*%
D21*
%TO.C,J2*%
X103940000Y-107570000D03*
D22*
X106480000Y-107570000D03*
X109020000Y-107570000D03*
X111560000Y-107570000D03*
%TD*%
D18*
%TO.C,R11*%
X124469000Y-101155000D03*
X124469000Y-102175000D03*
%TD*%
D34*
%TO.C,H4*%
X221000000Y-114000000D03*
%TD*%
D35*
%TO.C,R15*%
X202707000Y-103125500D03*
X202707000Y-100200500D03*
%TD*%
D36*
%TO.C,C8*%
X94416000Y-101121000D03*
X95966000Y-101121000D03*
%TD*%
D37*
%TO.C,U7*%
X212667500Y-102823000D03*
X212667500Y-103773000D03*
X212667500Y-104723000D03*
X214942500Y-104723000D03*
X214942500Y-102823000D03*
%TD*%
D17*
%TO.C,R8*%
X114861000Y-98775000D03*
X114861000Y-97755000D03*
%TD*%
%TO.C,R3*%
X143236000Y-104560000D03*
X143236000Y-103540000D03*
%TD*%
D21*
%TO.C,JP9*%
X185220000Y-95764000D03*
D22*
X185220000Y-98304000D03*
%TD*%
D38*
%TO.C,C14*%
X162525000Y-87504000D03*
X162525000Y-89054000D03*
%TD*%
D39*
%TO.C,JP2*%
X117341000Y-94197000D03*
D40*
X117341000Y-95497000D03*
%TD*%
D34*
%TO.C,H1*%
X81000000Y-84000000D03*
%TD*%
D41*
%TO.C,Q3*%
X169551000Y-108679000D03*
D42*
X169551000Y-111219000D03*
X169551000Y-113759000D03*
%TD*%
D23*
%TO.C,C2*%
X88997000Y-106792000D03*
X88997000Y-109742000D03*
%TD*%
%TO.C,C15*%
X152871000Y-91480000D03*
X152871000Y-94430000D03*
%TD*%
D21*
%TO.C,JP11*%
X192840000Y-95764000D03*
D22*
X192840000Y-98304000D03*
%TD*%
D11*
%TO.C,C23*%
X167737000Y-101200000D03*
X164787000Y-101200000D03*
%TD*%
%TO.C,C31*%
X167162000Y-95241000D03*
X164212000Y-95241000D03*
%TD*%
D21*
%TO.C,JP4*%
X175785000Y-107435000D03*
D22*
X178325000Y-107435000D03*
%TD*%
D14*
%TO.C,TP5*%
X201685000Y-95790000D03*
%TD*%
D36*
%TO.C,C11*%
X120902000Y-96457000D03*
X122452000Y-96457000D03*
%TD*%
D16*
%TO.C,R12*%
X157419000Y-82316500D03*
X157419000Y-86941500D03*
%TD*%
D39*
%TO.C,JP1*%
X90697000Y-102853000D03*
D40*
X90697000Y-104153000D03*
%TD*%
D41*
%TO.C,Q1*%
X222755000Y-102695000D03*
D42*
X222755000Y-105235000D03*
X222755000Y-107775000D03*
%TD*%
D29*
%TO.C,R19*%
X178779000Y-112251000D03*
D30*
X178779000Y-114791000D03*
%TD*%
D43*
%TO.C,U8*%
X165488000Y-87020000D03*
X165488000Y-88290000D03*
X165488000Y-89560000D03*
X165488000Y-90830000D03*
X170438000Y-90830000D03*
X170438000Y-89560000D03*
X170438000Y-88290000D03*
X170438000Y-87020000D03*
%TD*%
D24*
%TO.C,RV2*%
X156245000Y-91415000D03*
X158785000Y-93955000D03*
X156245000Y-96495000D03*
%TD*%
D21*
%TO.C,JP6*%
X173905000Y-96627000D03*
D22*
X173905000Y-94087000D03*
%TD*%
D21*
%TO.C,JP8*%
X181350000Y-95764000D03*
D22*
X181350000Y-98304000D03*
%TD*%
D23*
%TO.C,C1*%
X99311000Y-107484000D03*
X99311000Y-110434000D03*
%TD*%
D28*
%TO.C,C4*%
X89378000Y-86283000D03*
X87828000Y-86283000D03*
%TD*%
D11*
%TO.C,C9*%
X100554000Y-103329000D03*
X97604000Y-103329000D03*
%TD*%
D21*
%TO.C,J6*%
X139500000Y-107570000D03*
D22*
X142040000Y-107570000D03*
X144580000Y-107570000D03*
X147120000Y-107570000D03*
%TD*%
D44*
%TO.C,C27*%
X204120000Y-108147000D03*
X204120000Y-115547000D03*
%TD*%
D19*
%TO.C,D3*%
X144580000Y-102961500D03*
X144580000Y-104536500D03*
%TD*%
D28*
%TO.C,C28*%
X172176000Y-84387000D03*
X170626000Y-84387000D03*
%TD*%
D17*
%TO.C,R4*%
X88551000Y-104747000D03*
X88551000Y-103727000D03*
%TD*%
D31*
%TO.C,C5*%
X85035000Y-101366000D03*
X85035000Y-98416000D03*
%TD*%
%TO.C,C30*%
X174593000Y-85508000D03*
X174593000Y-82558000D03*
%TD*%
D34*
%TO.C,H2*%
X81000000Y-114000000D03*
%TD*%
D21*
%TO.C,J3*%
X129340000Y-90430000D03*
D22*
X131880000Y-90430000D03*
X134420000Y-90430000D03*
X136960000Y-90430000D03*
%TD*%
D19*
%TO.C,D2*%
X136960000Y-102961500D03*
X136960000Y-104536500D03*
%TD*%
D14*
%TO.C,TP1*%
X83853000Y-106425000D03*
%TD*%
%TO.C,TP3*%
X176845000Y-89249000D03*
%TD*%
D33*
%TO.C,R24*%
X197282000Y-84761500D03*
X197282000Y-87686500D03*
%TD*%
D45*
%TO.C,U4*%
X122648000Y-98846000D03*
X121378000Y-98846000D03*
X120108000Y-98846000D03*
X118838000Y-98846000D03*
X118838000Y-103796000D03*
X120108000Y-103796000D03*
X121378000Y-103796000D03*
X122648000Y-103796000D03*
%TD*%
D17*
%TO.C,R9*%
X114831000Y-96621000D03*
X114831000Y-95601000D03*
%TD*%
D28*
%TO.C,C29*%
X166008000Y-93033000D03*
X164458000Y-93033000D03*
%TD*%
D21*
%TO.C,J10*%
X192840000Y-90430000D03*
%TD*%
D28*
%TO.C,C21*%
X167247000Y-103368000D03*
X165697000Y-103368000D03*
%TD*%
D38*
%TO.C,C20*%
X163924000Y-110323000D03*
X163924000Y-111873000D03*
%TD*%
D44*
%TO.C,C26*%
X204120000Y-82537000D03*
X204120000Y-89937000D03*
%TD*%
D21*
%TO.C,JP3*%
X125151000Y-108187000D03*
D22*
X125151000Y-110727000D03*
%TD*%
D17*
%TO.C,R7*%
X114843000Y-100839000D03*
X114843000Y-99819000D03*
%TD*%
D28*
%TO.C,C7*%
X99076000Y-101121000D03*
X97526000Y-101121000D03*
%TD*%
D33*
%TO.C,R25*%
X197282000Y-110780500D03*
X197282000Y-113705500D03*
%TD*%
D14*
%TO.C,TP2*%
X120805000Y-110879000D03*
%TD*%
D17*
%TO.C,R5*%
X88551000Y-102585000D03*
X88551000Y-101565000D03*
%TD*%
D34*
%TO.C,H3*%
X221000000Y-84000000D03*
%TD*%
D21*
%TO.C,J1*%
X103940000Y-90430000D03*
D22*
X106480000Y-90430000D03*
X109020000Y-90430000D03*
X111560000Y-90430000D03*
%TD*%
M02*
