%TF.GenerationSoftware,KiCad,Pcbnew,9.0.6*%
%TF.CreationDate,2026-09-24T19:51:50-07:00*%
%TF.ProjectId,hvawg,68766177-672e-46b6-9963-61645f706362,rev?*%
%TF.SameCoordinates,Original*%
%TF.FileFunction,Legend,Bot*%
%TF.FilePolarity,Positive*%
%FSLAX46Y46*%
G04 Gerber Fmt 4.6, Leading zero omitted, Abs format (unit mm)*
G04 Created by KiCad (PCBNEW 9.0.6) date 2026-09-24 19:51:50*
%MOMM*%
%LPD*%
G01*
G04 APERTURE LIST*
%ADD10C,0.100000*%
%ADD11C,0.160000*%
G04 APERTURE END LIST*
D10*
X125000000Y-95500000D02*
X150900000Y-95500000D01*
X150900000Y-105000000D01*
X125000000Y-105000000D01*
X125000000Y-95500000D01*
D11*
X271690475Y-105473346D02*
X270928571Y-105473346D01*
X269690475Y-105854299D02*
X269690475Y-104854299D01*
X269214285Y-105854299D02*
X269214285Y-104854299D01*
X269214285Y-104854299D02*
X268642857Y-105854299D01*
X268642857Y-105854299D02*
X268642857Y-104854299D01*
X268214285Y-105806680D02*
X268071428Y-105854299D01*
X268071428Y-105854299D02*
X267833333Y-105854299D01*
X267833333Y-105854299D02*
X267738095Y-105806680D01*
X267738095Y-105806680D02*
X267690476Y-105759060D01*
X267690476Y-105759060D02*
X267642857Y-105663822D01*
X267642857Y-105663822D02*
X267642857Y-105568584D01*
X267642857Y-105568584D02*
X267690476Y-105473346D01*
X267690476Y-105473346D02*
X267738095Y-105425727D01*
X267738095Y-105425727D02*
X267833333Y-105378108D01*
X267833333Y-105378108D02*
X268023809Y-105330489D01*
X268023809Y-105330489D02*
X268119047Y-105282870D01*
X268119047Y-105282870D02*
X268166666Y-105235251D01*
X268166666Y-105235251D02*
X268214285Y-105140013D01*
X268214285Y-105140013D02*
X268214285Y-105044775D01*
X268214285Y-105044775D02*
X268166666Y-104949537D01*
X268166666Y-104949537D02*
X268119047Y-104901918D01*
X268119047Y-104901918D02*
X268023809Y-104854299D01*
X268023809Y-104854299D02*
X267785714Y-104854299D01*
X267785714Y-104854299D02*
X267642857Y-104901918D01*
X267214285Y-104854299D02*
X267214285Y-105663822D01*
X267214285Y-105663822D02*
X267166666Y-105759060D01*
X267166666Y-105759060D02*
X267119047Y-105806680D01*
X267119047Y-105806680D02*
X267023809Y-105854299D01*
X267023809Y-105854299D02*
X266833333Y-105854299D01*
X266833333Y-105854299D02*
X266738095Y-105806680D01*
X266738095Y-105806680D02*
X266690476Y-105759060D01*
X266690476Y-105759060D02*
X266642857Y-105663822D01*
X266642857Y-105663822D02*
X266642857Y-104854299D01*
X265690476Y-105854299D02*
X266166666Y-105854299D01*
X266166666Y-105854299D02*
X266166666Y-104854299D01*
X265404761Y-105568584D02*
X264928571Y-105568584D01*
X265499999Y-105854299D02*
X265166666Y-104854299D01*
X265166666Y-104854299D02*
X264833333Y-105854299D01*
X264642856Y-104854299D02*
X264071428Y-104854299D01*
X264357142Y-105854299D02*
X264357142Y-104854299D01*
X263738094Y-105330489D02*
X263404761Y-105330489D01*
X263261904Y-105854299D02*
X263738094Y-105854299D01*
X263738094Y-105854299D02*
X263738094Y-104854299D01*
X263738094Y-104854299D02*
X263261904Y-104854299D01*
X277500000Y-104149537D02*
X277595238Y-104101918D01*
X277595238Y-104101918D02*
X277690476Y-104006680D01*
X277690476Y-104006680D02*
X277833333Y-103863822D01*
X277833333Y-103863822D02*
X277928571Y-103816203D01*
X277928571Y-103816203D02*
X278023809Y-103816203D01*
X277976190Y-104054299D02*
X278071428Y-104006680D01*
X278071428Y-104006680D02*
X278166666Y-103911441D01*
X278166666Y-103911441D02*
X278214285Y-103720965D01*
X278214285Y-103720965D02*
X278214285Y-103387632D01*
X278214285Y-103387632D02*
X278166666Y-103197156D01*
X278166666Y-103197156D02*
X278071428Y-103101918D01*
X278071428Y-103101918D02*
X277976190Y-103054299D01*
X277976190Y-103054299D02*
X277785714Y-103054299D01*
X277785714Y-103054299D02*
X277690476Y-103101918D01*
X277690476Y-103101918D02*
X277595238Y-103197156D01*
X277595238Y-103197156D02*
X277547619Y-103387632D01*
X277547619Y-103387632D02*
X277547619Y-103720965D01*
X277547619Y-103720965D02*
X277595238Y-103911441D01*
X277595238Y-103911441D02*
X277690476Y-104006680D01*
X277690476Y-104006680D02*
X277785714Y-104054299D01*
X277785714Y-104054299D02*
X277976190Y-104054299D01*
X276595238Y-104054299D02*
X277166666Y-104054299D01*
X276880952Y-104054299D02*
X276880952Y-103054299D01*
X276880952Y-103054299D02*
X276976190Y-103197156D01*
X276976190Y-103197156D02*
X277071428Y-103292394D01*
X277071428Y-103292394D02*
X277166666Y-103340013D01*
X275547618Y-103054299D02*
X274976190Y-103054299D01*
X275261904Y-104054299D02*
X275261904Y-103054299D01*
X274690475Y-103768584D02*
X274214285Y-103768584D01*
X274785713Y-104054299D02*
X274452380Y-103054299D01*
X274452380Y-103054299D02*
X274119047Y-104054299D01*
X273452380Y-103530489D02*
X273309523Y-103578108D01*
X273309523Y-103578108D02*
X273261904Y-103625727D01*
X273261904Y-103625727D02*
X273214285Y-103720965D01*
X273214285Y-103720965D02*
X273214285Y-103863822D01*
X273214285Y-103863822D02*
X273261904Y-103959060D01*
X273261904Y-103959060D02*
X273309523Y-104006680D01*
X273309523Y-104006680D02*
X273404761Y-104054299D01*
X273404761Y-104054299D02*
X273785713Y-104054299D01*
X273785713Y-104054299D02*
X273785713Y-103054299D01*
X273785713Y-103054299D02*
X273452380Y-103054299D01*
X273452380Y-103054299D02*
X273357142Y-103101918D01*
X273357142Y-103101918D02*
X273309523Y-103149537D01*
X273309523Y-103149537D02*
X273261904Y-103244775D01*
X273261904Y-103244775D02*
X273261904Y-103340013D01*
X273261904Y-103340013D02*
X273309523Y-103435251D01*
X273309523Y-103435251D02*
X273357142Y-103482870D01*
X273357142Y-103482870D02*
X273452380Y-103530489D01*
X273452380Y-103530489D02*
X273785713Y-103530489D01*
X272023808Y-103530489D02*
X271261904Y-103530489D01*
X271261904Y-103816203D02*
X272023808Y-103816203D01*
X269833332Y-103054299D02*
X269642856Y-103054299D01*
X269642856Y-103054299D02*
X269547618Y-103101918D01*
X269547618Y-103101918D02*
X269452380Y-103197156D01*
X269452380Y-103197156D02*
X269404761Y-103387632D01*
X269404761Y-103387632D02*
X269404761Y-103720965D01*
X269404761Y-103720965D02*
X269452380Y-103911441D01*
X269452380Y-103911441D02*
X269547618Y-104006680D01*
X269547618Y-104006680D02*
X269642856Y-104054299D01*
X269642856Y-104054299D02*
X269833332Y-104054299D01*
X269833332Y-104054299D02*
X269928570Y-104006680D01*
X269928570Y-104006680D02*
X270023808Y-103911441D01*
X270023808Y-103911441D02*
X270071427Y-103720965D01*
X270071427Y-103720965D02*
X270071427Y-103387632D01*
X270071427Y-103387632D02*
X270023808Y-103197156D01*
X270023808Y-103197156D02*
X269928570Y-103101918D01*
X269928570Y-103101918D02*
X269833332Y-103054299D01*
X268976189Y-103054299D02*
X268976189Y-103863822D01*
X268976189Y-103863822D02*
X268928570Y-103959060D01*
X268928570Y-103959060D02*
X268880951Y-104006680D01*
X268880951Y-104006680D02*
X268785713Y-104054299D01*
X268785713Y-104054299D02*
X268595237Y-104054299D01*
X268595237Y-104054299D02*
X268499999Y-104006680D01*
X268499999Y-104006680D02*
X268452380Y-103959060D01*
X268452380Y-103959060D02*
X268404761Y-103863822D01*
X268404761Y-103863822D02*
X268404761Y-103054299D01*
X268071427Y-103054299D02*
X267499999Y-103054299D01*
X267785713Y-104054299D02*
X267785713Y-103054299D01*
X267166665Y-104054299D02*
X267166665Y-103054299D01*
X267166665Y-103054299D02*
X266785713Y-103054299D01*
X266785713Y-103054299D02*
X266690475Y-103101918D01*
X266690475Y-103101918D02*
X266642856Y-103149537D01*
X266642856Y-103149537D02*
X266595237Y-103244775D01*
X266595237Y-103244775D02*
X266595237Y-103387632D01*
X266595237Y-103387632D02*
X266642856Y-103482870D01*
X266642856Y-103482870D02*
X266690475Y-103530489D01*
X266690475Y-103530489D02*
X266785713Y-103578108D01*
X266785713Y-103578108D02*
X267166665Y-103578108D01*
X266166665Y-103054299D02*
X266166665Y-103863822D01*
X266166665Y-103863822D02*
X266119046Y-103959060D01*
X266119046Y-103959060D02*
X266071427Y-104006680D01*
X266071427Y-104006680D02*
X265976189Y-104054299D01*
X265976189Y-104054299D02*
X265785713Y-104054299D01*
X265785713Y-104054299D02*
X265690475Y-104006680D01*
X265690475Y-104006680D02*
X265642856Y-103959060D01*
X265642856Y-103959060D02*
X265595237Y-103863822D01*
X265595237Y-103863822D02*
X265595237Y-103054299D01*
X265261903Y-103054299D02*
X264690475Y-103054299D01*
X264976189Y-104054299D02*
X264976189Y-103054299D01*
X263595236Y-103673346D02*
X262833332Y-103673346D01*
X263214284Y-104054299D02*
X263214284Y-103292394D01*
X261642856Y-103006680D02*
X262499998Y-104292394D01*
X261309522Y-103673346D02*
X260547618Y-103673346D01*
X259547618Y-104054299D02*
X260119046Y-104054299D01*
X259833332Y-104054299D02*
X259833332Y-103054299D01*
X259833332Y-103054299D02*
X259928570Y-103197156D01*
X259928570Y-103197156D02*
X260023808Y-103292394D01*
X260023808Y-103292394D02*
X260119046Y-103340013D01*
X258642856Y-103054299D02*
X259119046Y-103054299D01*
X259119046Y-103054299D02*
X259166665Y-103530489D01*
X259166665Y-103530489D02*
X259119046Y-103482870D01*
X259119046Y-103482870D02*
X259023808Y-103435251D01*
X259023808Y-103435251D02*
X258785713Y-103435251D01*
X258785713Y-103435251D02*
X258690475Y-103482870D01*
X258690475Y-103482870D02*
X258642856Y-103530489D01*
X258642856Y-103530489D02*
X258595237Y-103625727D01*
X258595237Y-103625727D02*
X258595237Y-103863822D01*
X258595237Y-103863822D02*
X258642856Y-103959060D01*
X258642856Y-103959060D02*
X258690475Y-104006680D01*
X258690475Y-104006680D02*
X258785713Y-104054299D01*
X258785713Y-104054299D02*
X259023808Y-104054299D01*
X259023808Y-104054299D02*
X259119046Y-104006680D01*
X259119046Y-104006680D02*
X259166665Y-103959060D01*
X257976189Y-103054299D02*
X257880951Y-103054299D01*
X257880951Y-103054299D02*
X257785713Y-103101918D01*
X257785713Y-103101918D02*
X257738094Y-103149537D01*
X257738094Y-103149537D02*
X257690475Y-103244775D01*
X257690475Y-103244775D02*
X257642856Y-103435251D01*
X257642856Y-103435251D02*
X257642856Y-103673346D01*
X257642856Y-103673346D02*
X257690475Y-103863822D01*
X257690475Y-103863822D02*
X257738094Y-103959060D01*
X257738094Y-103959060D02*
X257785713Y-104006680D01*
X257785713Y-104006680D02*
X257880951Y-104054299D01*
X257880951Y-104054299D02*
X257976189Y-104054299D01*
X257976189Y-104054299D02*
X258071427Y-104006680D01*
X258071427Y-104006680D02*
X258119046Y-103959060D01*
X258119046Y-103959060D02*
X258166665Y-103863822D01*
X258166665Y-103863822D02*
X258214284Y-103673346D01*
X258214284Y-103673346D02*
X258214284Y-103435251D01*
X258214284Y-103435251D02*
X258166665Y-103244775D01*
X258166665Y-103244775D02*
X258119046Y-103149537D01*
X258119046Y-103149537D02*
X258071427Y-103101918D01*
X258071427Y-103101918D02*
X257976189Y-103054299D01*
X257357141Y-103054299D02*
X257023808Y-104054299D01*
X257023808Y-104054299D02*
X256690475Y-103054299D01*
X149848451Y-96575523D02*
X150324641Y-96575523D01*
X150324641Y-96575523D02*
X150372260Y-97051713D01*
X150372260Y-97051713D02*
X150324641Y-97004094D01*
X150324641Y-97004094D02*
X150229403Y-96956475D01*
X150229403Y-96956475D02*
X149991308Y-96956475D01*
X149991308Y-96956475D02*
X149896070Y-97004094D01*
X149896070Y-97004094D02*
X149848451Y-97051713D01*
X149848451Y-97051713D02*
X149800832Y-97146951D01*
X149800832Y-97146951D02*
X149800832Y-97385046D01*
X149800832Y-97385046D02*
X149848451Y-97480284D01*
X149848451Y-97480284D02*
X149896070Y-97527904D01*
X149896070Y-97527904D02*
X149991308Y-97575523D01*
X149991308Y-97575523D02*
X150229403Y-97575523D01*
X150229403Y-97575523D02*
X150324641Y-97527904D01*
X150324641Y-97527904D02*
X150372260Y-97480284D01*
X147848451Y-96908856D02*
X148610355Y-97194570D01*
X148610355Y-97194570D02*
X147848451Y-97480284D01*
X146753212Y-96575523D02*
X146419879Y-97575523D01*
X146419879Y-97575523D02*
X146086546Y-96575523D01*
X145753212Y-97575523D02*
X145753212Y-96575523D01*
X145324641Y-97575523D02*
X145324641Y-97051713D01*
X145324641Y-97051713D02*
X145372260Y-96956475D01*
X145372260Y-96956475D02*
X145467498Y-96908856D01*
X145467498Y-96908856D02*
X145610355Y-96908856D01*
X145610355Y-96908856D02*
X145705593Y-96956475D01*
X145705593Y-96956475D02*
X145753212Y-97004094D01*
X144848450Y-97575523D02*
X144848450Y-96908856D01*
X144848450Y-96575523D02*
X144896069Y-96623142D01*
X144896069Y-96623142D02*
X144848450Y-96670761D01*
X144848450Y-96670761D02*
X144800831Y-96623142D01*
X144800831Y-96623142D02*
X144848450Y-96575523D01*
X144848450Y-96575523D02*
X144848450Y-96670761D01*
X143943689Y-96908856D02*
X143943689Y-97718380D01*
X143943689Y-97718380D02*
X143991308Y-97813618D01*
X143991308Y-97813618D02*
X144038927Y-97861237D01*
X144038927Y-97861237D02*
X144134165Y-97908856D01*
X144134165Y-97908856D02*
X144277022Y-97908856D01*
X144277022Y-97908856D02*
X144372260Y-97861237D01*
X143943689Y-97527904D02*
X144038927Y-97575523D01*
X144038927Y-97575523D02*
X144229403Y-97575523D01*
X144229403Y-97575523D02*
X144324641Y-97527904D01*
X144324641Y-97527904D02*
X144372260Y-97480284D01*
X144372260Y-97480284D02*
X144419879Y-97385046D01*
X144419879Y-97385046D02*
X144419879Y-97099332D01*
X144419879Y-97099332D02*
X144372260Y-97004094D01*
X144372260Y-97004094D02*
X144324641Y-96956475D01*
X144324641Y-96956475D02*
X144229403Y-96908856D01*
X144229403Y-96908856D02*
X144038927Y-96908856D01*
X144038927Y-96908856D02*
X143943689Y-96956475D01*
X143467498Y-97575523D02*
X143467498Y-96575523D01*
X143038927Y-97575523D02*
X143038927Y-97051713D01*
X143038927Y-97051713D02*
X143086546Y-96956475D01*
X143086546Y-96956475D02*
X143181784Y-96908856D01*
X143181784Y-96908856D02*
X143324641Y-96908856D01*
X143324641Y-96908856D02*
X143419879Y-96956475D01*
X143419879Y-96956475D02*
X143467498Y-97004094D01*
X141038927Y-96908856D02*
X141800831Y-97194570D01*
X141800831Y-97194570D02*
X141038927Y-97480284D01*
X139277022Y-97575523D02*
X139848450Y-97575523D01*
X139562736Y-97575523D02*
X139562736Y-96575523D01*
X139562736Y-96575523D02*
X139657974Y-96718380D01*
X139657974Y-96718380D02*
X139753212Y-96813618D01*
X139753212Y-96813618D02*
X139848450Y-96861237D01*
X138419879Y-96575523D02*
X138610355Y-96575523D01*
X138610355Y-96575523D02*
X138705593Y-96623142D01*
X138705593Y-96623142D02*
X138753212Y-96670761D01*
X138753212Y-96670761D02*
X138848450Y-96813618D01*
X138848450Y-96813618D02*
X138896069Y-97004094D01*
X138896069Y-97004094D02*
X138896069Y-97385046D01*
X138896069Y-97385046D02*
X138848450Y-97480284D01*
X138848450Y-97480284D02*
X138800831Y-97527904D01*
X138800831Y-97527904D02*
X138705593Y-97575523D01*
X138705593Y-97575523D02*
X138515117Y-97575523D01*
X138515117Y-97575523D02*
X138419879Y-97527904D01*
X138419879Y-97527904D02*
X138372260Y-97480284D01*
X138372260Y-97480284D02*
X138324641Y-97385046D01*
X138324641Y-97385046D02*
X138324641Y-97146951D01*
X138324641Y-97146951D02*
X138372260Y-97051713D01*
X138372260Y-97051713D02*
X138419879Y-97004094D01*
X138419879Y-97004094D02*
X138515117Y-96956475D01*
X138515117Y-96956475D02*
X138705593Y-96956475D01*
X138705593Y-96956475D02*
X138800831Y-97004094D01*
X138800831Y-97004094D02*
X138848450Y-97051713D01*
X138848450Y-97051713D02*
X138896069Y-97146951D01*
X137705593Y-96575523D02*
X137610355Y-96575523D01*
X137610355Y-96575523D02*
X137515117Y-96623142D01*
X137515117Y-96623142D02*
X137467498Y-96670761D01*
X137467498Y-96670761D02*
X137419879Y-96765999D01*
X137419879Y-96765999D02*
X137372260Y-96956475D01*
X137372260Y-96956475D02*
X137372260Y-97194570D01*
X137372260Y-97194570D02*
X137419879Y-97385046D01*
X137419879Y-97385046D02*
X137467498Y-97480284D01*
X137467498Y-97480284D02*
X137515117Y-97527904D01*
X137515117Y-97527904D02*
X137610355Y-97575523D01*
X137610355Y-97575523D02*
X137705593Y-97575523D01*
X137705593Y-97575523D02*
X137800831Y-97527904D01*
X137800831Y-97527904D02*
X137848450Y-97480284D01*
X137848450Y-97480284D02*
X137896069Y-97385046D01*
X137896069Y-97385046D02*
X137943688Y-97194570D01*
X137943688Y-97194570D02*
X137943688Y-96956475D01*
X137943688Y-96956475D02*
X137896069Y-96765999D01*
X137896069Y-96765999D02*
X137848450Y-96670761D01*
X137848450Y-96670761D02*
X137800831Y-96623142D01*
X137800831Y-96623142D02*
X137705593Y-96575523D01*
X137086545Y-96575523D02*
X136753212Y-97575523D01*
X136753212Y-97575523D02*
X136419879Y-96575523D01*
X150324641Y-98804514D02*
X149562737Y-98804514D01*
X148562737Y-99185467D02*
X149134165Y-99185467D01*
X148848451Y-99185467D02*
X148848451Y-98185467D01*
X148848451Y-98185467D02*
X148943689Y-98328324D01*
X148943689Y-98328324D02*
X149038927Y-98423562D01*
X149038927Y-98423562D02*
X149134165Y-98471181D01*
X147943689Y-98185467D02*
X147848451Y-98185467D01*
X147848451Y-98185467D02*
X147753213Y-98233086D01*
X147753213Y-98233086D02*
X147705594Y-98280705D01*
X147705594Y-98280705D02*
X147657975Y-98375943D01*
X147657975Y-98375943D02*
X147610356Y-98566419D01*
X147610356Y-98566419D02*
X147610356Y-98804514D01*
X147610356Y-98804514D02*
X147657975Y-98994990D01*
X147657975Y-98994990D02*
X147705594Y-99090228D01*
X147705594Y-99090228D02*
X147753213Y-99137848D01*
X147753213Y-99137848D02*
X147848451Y-99185467D01*
X147848451Y-99185467D02*
X147943689Y-99185467D01*
X147943689Y-99185467D02*
X148038927Y-99137848D01*
X148038927Y-99137848D02*
X148086546Y-99090228D01*
X148086546Y-99090228D02*
X148134165Y-98994990D01*
X148134165Y-98994990D02*
X148181784Y-98804514D01*
X148181784Y-98804514D02*
X148181784Y-98566419D01*
X148181784Y-98566419D02*
X148134165Y-98375943D01*
X148134165Y-98375943D02*
X148086546Y-98280705D01*
X148086546Y-98280705D02*
X148038927Y-98233086D01*
X148038927Y-98233086D02*
X147943689Y-98185467D01*
X146419879Y-98518800D02*
X145657975Y-98804514D01*
X145657975Y-98804514D02*
X146419879Y-99090228D01*
X144562736Y-98185467D02*
X144229403Y-99185467D01*
X144229403Y-99185467D02*
X143896070Y-98185467D01*
X143419879Y-99185467D02*
X143515117Y-99137848D01*
X143515117Y-99137848D02*
X143562736Y-99042609D01*
X143562736Y-99042609D02*
X143562736Y-98185467D01*
X142896069Y-99185467D02*
X142991307Y-99137848D01*
X142991307Y-99137848D02*
X143038926Y-99090228D01*
X143038926Y-99090228D02*
X143086545Y-98994990D01*
X143086545Y-98994990D02*
X143086545Y-98709276D01*
X143086545Y-98709276D02*
X143038926Y-98614038D01*
X143038926Y-98614038D02*
X142991307Y-98566419D01*
X142991307Y-98566419D02*
X142896069Y-98518800D01*
X142896069Y-98518800D02*
X142753212Y-98518800D01*
X142753212Y-98518800D02*
X142657974Y-98566419D01*
X142657974Y-98566419D02*
X142610355Y-98614038D01*
X142610355Y-98614038D02*
X142562736Y-98709276D01*
X142562736Y-98709276D02*
X142562736Y-98994990D01*
X142562736Y-98994990D02*
X142610355Y-99090228D01*
X142610355Y-99090228D02*
X142657974Y-99137848D01*
X142657974Y-99137848D02*
X142753212Y-99185467D01*
X142753212Y-99185467D02*
X142896069Y-99185467D01*
X142229402Y-98518800D02*
X142038926Y-99185467D01*
X142038926Y-99185467D02*
X141848450Y-98709276D01*
X141848450Y-98709276D02*
X141657974Y-99185467D01*
X141657974Y-99185467D02*
X141467498Y-98518800D01*
X140324640Y-98518800D02*
X139562736Y-98804514D01*
X139562736Y-98804514D02*
X140324640Y-99090228D01*
X138324640Y-98804514D02*
X137562736Y-98804514D01*
X136562736Y-99185467D02*
X137134164Y-99185467D01*
X136848450Y-99185467D02*
X136848450Y-98185467D01*
X136848450Y-98185467D02*
X136943688Y-98328324D01*
X136943688Y-98328324D02*
X137038926Y-98423562D01*
X137038926Y-98423562D02*
X137134164Y-98471181D01*
X135705593Y-98185467D02*
X135896069Y-98185467D01*
X135896069Y-98185467D02*
X135991307Y-98233086D01*
X135991307Y-98233086D02*
X136038926Y-98280705D01*
X136038926Y-98280705D02*
X136134164Y-98423562D01*
X136134164Y-98423562D02*
X136181783Y-98614038D01*
X136181783Y-98614038D02*
X136181783Y-98994990D01*
X136181783Y-98994990D02*
X136134164Y-99090228D01*
X136134164Y-99090228D02*
X136086545Y-99137848D01*
X136086545Y-99137848D02*
X135991307Y-99185467D01*
X135991307Y-99185467D02*
X135800831Y-99185467D01*
X135800831Y-99185467D02*
X135705593Y-99137848D01*
X135705593Y-99137848D02*
X135657974Y-99090228D01*
X135657974Y-99090228D02*
X135610355Y-98994990D01*
X135610355Y-98994990D02*
X135610355Y-98756895D01*
X135610355Y-98756895D02*
X135657974Y-98661657D01*
X135657974Y-98661657D02*
X135705593Y-98614038D01*
X135705593Y-98614038D02*
X135800831Y-98566419D01*
X135800831Y-98566419D02*
X135991307Y-98566419D01*
X135991307Y-98566419D02*
X136086545Y-98614038D01*
X136086545Y-98614038D02*
X136134164Y-98661657D01*
X136134164Y-98661657D02*
X136181783Y-98756895D01*
X134991307Y-98185467D02*
X134896069Y-98185467D01*
X134896069Y-98185467D02*
X134800831Y-98233086D01*
X134800831Y-98233086D02*
X134753212Y-98280705D01*
X134753212Y-98280705D02*
X134705593Y-98375943D01*
X134705593Y-98375943D02*
X134657974Y-98566419D01*
X134657974Y-98566419D02*
X134657974Y-98804514D01*
X134657974Y-98804514D02*
X134705593Y-98994990D01*
X134705593Y-98994990D02*
X134753212Y-99090228D01*
X134753212Y-99090228D02*
X134800831Y-99137848D01*
X134800831Y-99137848D02*
X134896069Y-99185467D01*
X134896069Y-99185467D02*
X134991307Y-99185467D01*
X134991307Y-99185467D02*
X135086545Y-99137848D01*
X135086545Y-99137848D02*
X135134164Y-99090228D01*
X135134164Y-99090228D02*
X135181783Y-98994990D01*
X135181783Y-98994990D02*
X135229402Y-98804514D01*
X135229402Y-98804514D02*
X135229402Y-98566419D01*
X135229402Y-98566419D02*
X135181783Y-98375943D01*
X135181783Y-98375943D02*
X135134164Y-98280705D01*
X135134164Y-98280705D02*
X135086545Y-98233086D01*
X135086545Y-98233086D02*
X134991307Y-98185467D01*
X134372259Y-98185467D02*
X134038926Y-99185467D01*
X134038926Y-99185467D02*
X133705593Y-98185467D01*
X150181784Y-100795411D02*
X150277022Y-100747792D01*
X150277022Y-100747792D02*
X150324641Y-100700172D01*
X150324641Y-100700172D02*
X150372260Y-100604934D01*
X150372260Y-100604934D02*
X150372260Y-100319220D01*
X150372260Y-100319220D02*
X150324641Y-100223982D01*
X150324641Y-100223982D02*
X150277022Y-100176363D01*
X150277022Y-100176363D02*
X150181784Y-100128744D01*
X150181784Y-100128744D02*
X150038927Y-100128744D01*
X150038927Y-100128744D02*
X149943689Y-100176363D01*
X149943689Y-100176363D02*
X149896070Y-100223982D01*
X149896070Y-100223982D02*
X149848451Y-100319220D01*
X149848451Y-100319220D02*
X149848451Y-100604934D01*
X149848451Y-100604934D02*
X149896070Y-100700172D01*
X149896070Y-100700172D02*
X149943689Y-100747792D01*
X149943689Y-100747792D02*
X150038927Y-100795411D01*
X150038927Y-100795411D02*
X150181784Y-100795411D01*
X148991308Y-100128744D02*
X148991308Y-100795411D01*
X149419879Y-100128744D02*
X149419879Y-100652553D01*
X149419879Y-100652553D02*
X149372260Y-100747792D01*
X149372260Y-100747792D02*
X149277022Y-100795411D01*
X149277022Y-100795411D02*
X149134165Y-100795411D01*
X149134165Y-100795411D02*
X149038927Y-100747792D01*
X149038927Y-100747792D02*
X148991308Y-100700172D01*
X148657974Y-100128744D02*
X148277022Y-100128744D01*
X148515117Y-99795411D02*
X148515117Y-100652553D01*
X148515117Y-100652553D02*
X148467498Y-100747792D01*
X148467498Y-100747792D02*
X148372260Y-100795411D01*
X148372260Y-100795411D02*
X148277022Y-100795411D01*
X147943688Y-100128744D02*
X147943688Y-101128744D01*
X147943688Y-100176363D02*
X147848450Y-100128744D01*
X147848450Y-100128744D02*
X147657974Y-100128744D01*
X147657974Y-100128744D02*
X147562736Y-100176363D01*
X147562736Y-100176363D02*
X147515117Y-100223982D01*
X147515117Y-100223982D02*
X147467498Y-100319220D01*
X147467498Y-100319220D02*
X147467498Y-100604934D01*
X147467498Y-100604934D02*
X147515117Y-100700172D01*
X147515117Y-100700172D02*
X147562736Y-100747792D01*
X147562736Y-100747792D02*
X147657974Y-100795411D01*
X147657974Y-100795411D02*
X147848450Y-100795411D01*
X147848450Y-100795411D02*
X147943688Y-100747792D01*
X146610355Y-100128744D02*
X146610355Y-100795411D01*
X147038926Y-100128744D02*
X147038926Y-100652553D01*
X147038926Y-100652553D02*
X146991307Y-100747792D01*
X146991307Y-100747792D02*
X146896069Y-100795411D01*
X146896069Y-100795411D02*
X146753212Y-100795411D01*
X146753212Y-100795411D02*
X146657974Y-100747792D01*
X146657974Y-100747792D02*
X146610355Y-100700172D01*
X146277021Y-100128744D02*
X145896069Y-100128744D01*
X146134164Y-99795411D02*
X146134164Y-100652553D01*
X146134164Y-100652553D02*
X146086545Y-100747792D01*
X146086545Y-100747792D02*
X145991307Y-100795411D01*
X145991307Y-100795411D02*
X145896069Y-100795411D01*
X144800830Y-100795411D02*
X144800830Y-100128744D01*
X144800830Y-99795411D02*
X144848449Y-99843030D01*
X144848449Y-99843030D02*
X144800830Y-99890649D01*
X144800830Y-99890649D02*
X144753211Y-99843030D01*
X144753211Y-99843030D02*
X144800830Y-99795411D01*
X144800830Y-99795411D02*
X144800830Y-99890649D01*
X144324640Y-100795411D02*
X144324640Y-100128744D01*
X144324640Y-100223982D02*
X144277021Y-100176363D01*
X144277021Y-100176363D02*
X144181783Y-100128744D01*
X144181783Y-100128744D02*
X144038926Y-100128744D01*
X144038926Y-100128744D02*
X143943688Y-100176363D01*
X143943688Y-100176363D02*
X143896069Y-100271601D01*
X143896069Y-100271601D02*
X143896069Y-100795411D01*
X143896069Y-100271601D02*
X143848450Y-100176363D01*
X143848450Y-100176363D02*
X143753212Y-100128744D01*
X143753212Y-100128744D02*
X143610355Y-100128744D01*
X143610355Y-100128744D02*
X143515116Y-100176363D01*
X143515116Y-100176363D02*
X143467497Y-100271601D01*
X143467497Y-100271601D02*
X143467497Y-100795411D01*
X142991307Y-100128744D02*
X142991307Y-101128744D01*
X142991307Y-100176363D02*
X142896069Y-100128744D01*
X142896069Y-100128744D02*
X142705593Y-100128744D01*
X142705593Y-100128744D02*
X142610355Y-100176363D01*
X142610355Y-100176363D02*
X142562736Y-100223982D01*
X142562736Y-100223982D02*
X142515117Y-100319220D01*
X142515117Y-100319220D02*
X142515117Y-100604934D01*
X142515117Y-100604934D02*
X142562736Y-100700172D01*
X142562736Y-100700172D02*
X142610355Y-100747792D01*
X142610355Y-100747792D02*
X142705593Y-100795411D01*
X142705593Y-100795411D02*
X142896069Y-100795411D01*
X142896069Y-100795411D02*
X142991307Y-100747792D01*
X141705593Y-100747792D02*
X141800831Y-100795411D01*
X141800831Y-100795411D02*
X141991307Y-100795411D01*
X141991307Y-100795411D02*
X142086545Y-100747792D01*
X142086545Y-100747792D02*
X142134164Y-100652553D01*
X142134164Y-100652553D02*
X142134164Y-100271601D01*
X142134164Y-100271601D02*
X142086545Y-100176363D01*
X142086545Y-100176363D02*
X141991307Y-100128744D01*
X141991307Y-100128744D02*
X141800831Y-100128744D01*
X141800831Y-100128744D02*
X141705593Y-100176363D01*
X141705593Y-100176363D02*
X141657974Y-100271601D01*
X141657974Y-100271601D02*
X141657974Y-100366839D01*
X141657974Y-100366839D02*
X142134164Y-100462077D01*
X140800831Y-100795411D02*
X140800831Y-99795411D01*
X140800831Y-100747792D02*
X140896069Y-100795411D01*
X140896069Y-100795411D02*
X141086545Y-100795411D01*
X141086545Y-100795411D02*
X141181783Y-100747792D01*
X141181783Y-100747792D02*
X141229402Y-100700172D01*
X141229402Y-100700172D02*
X141277021Y-100604934D01*
X141277021Y-100604934D02*
X141277021Y-100319220D01*
X141277021Y-100319220D02*
X141229402Y-100223982D01*
X141229402Y-100223982D02*
X141181783Y-100176363D01*
X141181783Y-100176363D02*
X141086545Y-100128744D01*
X141086545Y-100128744D02*
X140896069Y-100128744D01*
X140896069Y-100128744D02*
X140800831Y-100176363D01*
X139896069Y-100795411D02*
X139896069Y-100271601D01*
X139896069Y-100271601D02*
X139943688Y-100176363D01*
X139943688Y-100176363D02*
X140038926Y-100128744D01*
X140038926Y-100128744D02*
X140229402Y-100128744D01*
X140229402Y-100128744D02*
X140324640Y-100176363D01*
X139896069Y-100747792D02*
X139991307Y-100795411D01*
X139991307Y-100795411D02*
X140229402Y-100795411D01*
X140229402Y-100795411D02*
X140324640Y-100747792D01*
X140324640Y-100747792D02*
X140372259Y-100652553D01*
X140372259Y-100652553D02*
X140372259Y-100557315D01*
X140372259Y-100557315D02*
X140324640Y-100462077D01*
X140324640Y-100462077D02*
X140229402Y-100414458D01*
X140229402Y-100414458D02*
X139991307Y-100414458D01*
X139991307Y-100414458D02*
X139896069Y-100366839D01*
X139419878Y-100128744D02*
X139419878Y-100795411D01*
X139419878Y-100223982D02*
X139372259Y-100176363D01*
X139372259Y-100176363D02*
X139277021Y-100128744D01*
X139277021Y-100128744D02*
X139134164Y-100128744D01*
X139134164Y-100128744D02*
X139038926Y-100176363D01*
X139038926Y-100176363D02*
X138991307Y-100271601D01*
X138991307Y-100271601D02*
X138991307Y-100795411D01*
X138086545Y-100747792D02*
X138181783Y-100795411D01*
X138181783Y-100795411D02*
X138372259Y-100795411D01*
X138372259Y-100795411D02*
X138467497Y-100747792D01*
X138467497Y-100747792D02*
X138515116Y-100700172D01*
X138515116Y-100700172D02*
X138562735Y-100604934D01*
X138562735Y-100604934D02*
X138562735Y-100319220D01*
X138562735Y-100319220D02*
X138515116Y-100223982D01*
X138515116Y-100223982D02*
X138467497Y-100176363D01*
X138467497Y-100176363D02*
X138372259Y-100128744D01*
X138372259Y-100128744D02*
X138181783Y-100128744D01*
X138181783Y-100128744D02*
X138086545Y-100176363D01*
X137277021Y-100747792D02*
X137372259Y-100795411D01*
X137372259Y-100795411D02*
X137562735Y-100795411D01*
X137562735Y-100795411D02*
X137657973Y-100747792D01*
X137657973Y-100747792D02*
X137705592Y-100652553D01*
X137705592Y-100652553D02*
X137705592Y-100271601D01*
X137705592Y-100271601D02*
X137657973Y-100176363D01*
X137657973Y-100176363D02*
X137562735Y-100128744D01*
X137562735Y-100128744D02*
X137372259Y-100128744D01*
X137372259Y-100128744D02*
X137277021Y-100176363D01*
X137277021Y-100176363D02*
X137229402Y-100271601D01*
X137229402Y-100271601D02*
X137229402Y-100366839D01*
X137229402Y-100366839D02*
X137705592Y-100462077D01*
X136038925Y-100128744D02*
X135277021Y-100414458D01*
X135277021Y-100414458D02*
X136038925Y-100700172D01*
X134800830Y-100128744D02*
X134038926Y-100414458D01*
X134038926Y-100414458D02*
X134800830Y-100700172D01*
X132277021Y-100795411D02*
X132848449Y-100795411D01*
X132562735Y-100795411D02*
X132562735Y-99795411D01*
X132562735Y-99795411D02*
X132657973Y-99938268D01*
X132657973Y-99938268D02*
X132753211Y-100033506D01*
X132753211Y-100033506D02*
X132848449Y-100081125D01*
X131657973Y-99795411D02*
X131562735Y-99795411D01*
X131562735Y-99795411D02*
X131467497Y-99843030D01*
X131467497Y-99843030D02*
X131419878Y-99890649D01*
X131419878Y-99890649D02*
X131372259Y-99985887D01*
X131372259Y-99985887D02*
X131324640Y-100176363D01*
X131324640Y-100176363D02*
X131324640Y-100414458D01*
X131324640Y-100414458D02*
X131372259Y-100604934D01*
X131372259Y-100604934D02*
X131419878Y-100700172D01*
X131419878Y-100700172D02*
X131467497Y-100747792D01*
X131467497Y-100747792D02*
X131562735Y-100795411D01*
X131562735Y-100795411D02*
X131657973Y-100795411D01*
X131657973Y-100795411D02*
X131753211Y-100747792D01*
X131753211Y-100747792D02*
X131800830Y-100700172D01*
X131800830Y-100700172D02*
X131848449Y-100604934D01*
X131848449Y-100604934D02*
X131896068Y-100414458D01*
X131896068Y-100414458D02*
X131896068Y-100176363D01*
X131896068Y-100176363D02*
X131848449Y-99985887D01*
X131848449Y-99985887D02*
X131800830Y-99890649D01*
X131800830Y-99890649D02*
X131753211Y-99843030D01*
X131753211Y-99843030D02*
X131657973Y-99795411D01*
X130896068Y-100795411D02*
X130896068Y-99795411D01*
X130800830Y-100414458D02*
X130515116Y-100795411D01*
X130515116Y-100128744D02*
X130896068Y-100509696D01*
X129943687Y-100795411D02*
X130038925Y-100747792D01*
X130038925Y-100747792D02*
X130086544Y-100700172D01*
X130086544Y-100700172D02*
X130134163Y-100604934D01*
X130134163Y-100604934D02*
X130134163Y-100319220D01*
X130134163Y-100319220D02*
X130086544Y-100223982D01*
X130086544Y-100223982D02*
X130038925Y-100176363D01*
X130038925Y-100176363D02*
X129943687Y-100128744D01*
X129943687Y-100128744D02*
X129800830Y-100128744D01*
X129800830Y-100128744D02*
X129705592Y-100176363D01*
X129705592Y-100176363D02*
X129657973Y-100223982D01*
X129657973Y-100223982D02*
X129610354Y-100319220D01*
X129610354Y-100319220D02*
X129610354Y-100604934D01*
X129610354Y-100604934D02*
X129657973Y-100700172D01*
X129657973Y-100700172D02*
X129705592Y-100747792D01*
X129705592Y-100747792D02*
X129800830Y-100795411D01*
X129800830Y-100795411D02*
X129943687Y-100795411D01*
X129181782Y-100795411D02*
X129181782Y-99795411D01*
X128753211Y-100795411D02*
X128753211Y-100271601D01*
X128753211Y-100271601D02*
X128800830Y-100176363D01*
X128800830Y-100176363D02*
X128896068Y-100128744D01*
X128896068Y-100128744D02*
X129038925Y-100128744D01*
X129038925Y-100128744D02*
X129134163Y-100176363D01*
X129134163Y-100176363D02*
X129181782Y-100223982D01*
X128277020Y-100795411D02*
X128277020Y-100128744D01*
X128277020Y-100223982D02*
X128229401Y-100176363D01*
X128229401Y-100176363D02*
X128134163Y-100128744D01*
X128134163Y-100128744D02*
X127991306Y-100128744D01*
X127991306Y-100128744D02*
X127896068Y-100176363D01*
X127896068Y-100176363D02*
X127848449Y-100271601D01*
X127848449Y-100271601D02*
X127848449Y-100795411D01*
X127848449Y-100271601D02*
X127800830Y-100176363D01*
X127800830Y-100176363D02*
X127705592Y-100128744D01*
X127705592Y-100128744D02*
X127562735Y-100128744D01*
X127562735Y-100128744D02*
X127467496Y-100176363D01*
X127467496Y-100176363D02*
X127419877Y-100271601D01*
X127419877Y-100271601D02*
X127419877Y-100795411D01*
X150181784Y-102405355D02*
X150277022Y-102357736D01*
X150277022Y-102357736D02*
X150324641Y-102310116D01*
X150324641Y-102310116D02*
X150372260Y-102214878D01*
X150372260Y-102214878D02*
X150372260Y-101929164D01*
X150372260Y-101929164D02*
X150324641Y-101833926D01*
X150324641Y-101833926D02*
X150277022Y-101786307D01*
X150277022Y-101786307D02*
X150181784Y-101738688D01*
X150181784Y-101738688D02*
X150038927Y-101738688D01*
X150038927Y-101738688D02*
X149943689Y-101786307D01*
X149943689Y-101786307D02*
X149896070Y-101833926D01*
X149896070Y-101833926D02*
X149848451Y-101929164D01*
X149848451Y-101929164D02*
X149848451Y-102214878D01*
X149848451Y-102214878D02*
X149896070Y-102310116D01*
X149896070Y-102310116D02*
X149943689Y-102357736D01*
X149943689Y-102357736D02*
X150038927Y-102405355D01*
X150038927Y-102405355D02*
X150181784Y-102405355D01*
X148991308Y-101738688D02*
X148991308Y-102405355D01*
X149419879Y-101738688D02*
X149419879Y-102262497D01*
X149419879Y-102262497D02*
X149372260Y-102357736D01*
X149372260Y-102357736D02*
X149277022Y-102405355D01*
X149277022Y-102405355D02*
X149134165Y-102405355D01*
X149134165Y-102405355D02*
X149038927Y-102357736D01*
X149038927Y-102357736D02*
X148991308Y-102310116D01*
X148657974Y-101738688D02*
X148277022Y-101738688D01*
X148515117Y-101405355D02*
X148515117Y-102262497D01*
X148515117Y-102262497D02*
X148467498Y-102357736D01*
X148467498Y-102357736D02*
X148372260Y-102405355D01*
X148372260Y-102405355D02*
X148277022Y-102405355D01*
X147943688Y-101738688D02*
X147943688Y-102738688D01*
X147943688Y-101786307D02*
X147848450Y-101738688D01*
X147848450Y-101738688D02*
X147657974Y-101738688D01*
X147657974Y-101738688D02*
X147562736Y-101786307D01*
X147562736Y-101786307D02*
X147515117Y-101833926D01*
X147515117Y-101833926D02*
X147467498Y-101929164D01*
X147467498Y-101929164D02*
X147467498Y-102214878D01*
X147467498Y-102214878D02*
X147515117Y-102310116D01*
X147515117Y-102310116D02*
X147562736Y-102357736D01*
X147562736Y-102357736D02*
X147657974Y-102405355D01*
X147657974Y-102405355D02*
X147848450Y-102405355D01*
X147848450Y-102405355D02*
X147943688Y-102357736D01*
X146610355Y-101738688D02*
X146610355Y-102405355D01*
X147038926Y-101738688D02*
X147038926Y-102262497D01*
X147038926Y-102262497D02*
X146991307Y-102357736D01*
X146991307Y-102357736D02*
X146896069Y-102405355D01*
X146896069Y-102405355D02*
X146753212Y-102405355D01*
X146753212Y-102405355D02*
X146657974Y-102357736D01*
X146657974Y-102357736D02*
X146610355Y-102310116D01*
X146277021Y-101738688D02*
X145896069Y-101738688D01*
X146134164Y-101405355D02*
X146134164Y-102262497D01*
X146134164Y-102262497D02*
X146086545Y-102357736D01*
X146086545Y-102357736D02*
X145991307Y-102405355D01*
X145991307Y-102405355D02*
X145896069Y-102405355D01*
X144943687Y-101738688D02*
X144562735Y-101738688D01*
X144800830Y-102405355D02*
X144800830Y-101548212D01*
X144800830Y-101548212D02*
X144753211Y-101452974D01*
X144753211Y-101452974D02*
X144657973Y-101405355D01*
X144657973Y-101405355D02*
X144562735Y-101405355D01*
X144229401Y-102405355D02*
X144229401Y-101738688D01*
X144229401Y-101929164D02*
X144181782Y-101833926D01*
X144181782Y-101833926D02*
X144134163Y-101786307D01*
X144134163Y-101786307D02*
X144038925Y-101738688D01*
X144038925Y-101738688D02*
X143943687Y-101738688D01*
X143229401Y-102357736D02*
X143324639Y-102405355D01*
X143324639Y-102405355D02*
X143515115Y-102405355D01*
X143515115Y-102405355D02*
X143610353Y-102357736D01*
X143610353Y-102357736D02*
X143657972Y-102262497D01*
X143657972Y-102262497D02*
X143657972Y-101881545D01*
X143657972Y-101881545D02*
X143610353Y-101786307D01*
X143610353Y-101786307D02*
X143515115Y-101738688D01*
X143515115Y-101738688D02*
X143324639Y-101738688D01*
X143324639Y-101738688D02*
X143229401Y-101786307D01*
X143229401Y-101786307D02*
X143181782Y-101881545D01*
X143181782Y-101881545D02*
X143181782Y-101976783D01*
X143181782Y-101976783D02*
X143657972Y-102072021D01*
X142324639Y-101738688D02*
X142324639Y-102738688D01*
X142324639Y-102357736D02*
X142419877Y-102405355D01*
X142419877Y-102405355D02*
X142610353Y-102405355D01*
X142610353Y-102405355D02*
X142705591Y-102357736D01*
X142705591Y-102357736D02*
X142753210Y-102310116D01*
X142753210Y-102310116D02*
X142800829Y-102214878D01*
X142800829Y-102214878D02*
X142800829Y-101929164D01*
X142800829Y-101929164D02*
X142753210Y-101833926D01*
X142753210Y-101833926D02*
X142705591Y-101786307D01*
X142705591Y-101786307D02*
X142610353Y-101738688D01*
X142610353Y-101738688D02*
X142419877Y-101738688D01*
X142419877Y-101738688D02*
X142324639Y-101786307D01*
X141419877Y-101738688D02*
X141419877Y-102405355D01*
X141848448Y-101738688D02*
X141848448Y-102262497D01*
X141848448Y-102262497D02*
X141800829Y-102357736D01*
X141800829Y-102357736D02*
X141705591Y-102405355D01*
X141705591Y-102405355D02*
X141562734Y-102405355D01*
X141562734Y-102405355D02*
X141467496Y-102357736D01*
X141467496Y-102357736D02*
X141419877Y-102310116D01*
X140562734Y-102357736D02*
X140657972Y-102405355D01*
X140657972Y-102405355D02*
X140848448Y-102405355D01*
X140848448Y-102405355D02*
X140943686Y-102357736D01*
X140943686Y-102357736D02*
X140991305Y-102262497D01*
X140991305Y-102262497D02*
X140991305Y-101881545D01*
X140991305Y-101881545D02*
X140943686Y-101786307D01*
X140943686Y-101786307D02*
X140848448Y-101738688D01*
X140848448Y-101738688D02*
X140657972Y-101738688D01*
X140657972Y-101738688D02*
X140562734Y-101786307D01*
X140562734Y-101786307D02*
X140515115Y-101881545D01*
X140515115Y-101881545D02*
X140515115Y-101976783D01*
X140515115Y-101976783D02*
X140991305Y-102072021D01*
X140086543Y-101738688D02*
X140086543Y-102405355D01*
X140086543Y-101833926D02*
X140038924Y-101786307D01*
X140038924Y-101786307D02*
X139943686Y-101738688D01*
X139943686Y-101738688D02*
X139800829Y-101738688D01*
X139800829Y-101738688D02*
X139705591Y-101786307D01*
X139705591Y-101786307D02*
X139657972Y-101881545D01*
X139657972Y-101881545D02*
X139657972Y-102405355D01*
X138753210Y-102357736D02*
X138848448Y-102405355D01*
X138848448Y-102405355D02*
X139038924Y-102405355D01*
X139038924Y-102405355D02*
X139134162Y-102357736D01*
X139134162Y-102357736D02*
X139181781Y-102310116D01*
X139181781Y-102310116D02*
X139229400Y-102214878D01*
X139229400Y-102214878D02*
X139229400Y-101929164D01*
X139229400Y-101929164D02*
X139181781Y-101833926D01*
X139181781Y-101833926D02*
X139134162Y-101786307D01*
X139134162Y-101786307D02*
X139038924Y-101738688D01*
X139038924Y-101738688D02*
X138848448Y-101738688D01*
X138848448Y-101738688D02*
X138753210Y-101786307D01*
X138419876Y-101738688D02*
X138181781Y-102405355D01*
X137943686Y-101738688D02*
X138181781Y-102405355D01*
X138181781Y-102405355D02*
X138277019Y-102643450D01*
X138277019Y-102643450D02*
X138324638Y-102691069D01*
X138324638Y-102691069D02*
X138419876Y-102738688D01*
X136038924Y-101738688D02*
X136800828Y-102024402D01*
X136800828Y-102024402D02*
X136038924Y-102310116D01*
X134277019Y-102405355D02*
X134848447Y-102405355D01*
X134562733Y-102405355D02*
X134562733Y-101405355D01*
X134562733Y-101405355D02*
X134657971Y-101548212D01*
X134657971Y-101548212D02*
X134753209Y-101643450D01*
X134753209Y-101643450D02*
X134848447Y-101691069D01*
X133848447Y-102405355D02*
X133848447Y-101405355D01*
X133848447Y-101405355D02*
X133515114Y-102119640D01*
X133515114Y-102119640D02*
X133181781Y-101405355D01*
X133181781Y-101405355D02*
X133181781Y-102405355D01*
X132705590Y-102405355D02*
X132705590Y-101405355D01*
X132705590Y-101881545D02*
X132134162Y-101881545D01*
X132134162Y-102405355D02*
X132134162Y-101405355D01*
X131753209Y-101738688D02*
X131229400Y-101738688D01*
X131229400Y-101738688D02*
X131753209Y-102405355D01*
X131753209Y-102405355D02*
X131229400Y-102405355D01*
X150324641Y-104015299D02*
X150324641Y-103348632D01*
X150324641Y-103015299D02*
X150372260Y-103062918D01*
X150372260Y-103062918D02*
X150324641Y-103110537D01*
X150324641Y-103110537D02*
X150277022Y-103062918D01*
X150277022Y-103062918D02*
X150324641Y-103015299D01*
X150324641Y-103015299D02*
X150324641Y-103110537D01*
X149848451Y-103348632D02*
X149848451Y-104015299D01*
X149848451Y-103443870D02*
X149800832Y-103396251D01*
X149800832Y-103396251D02*
X149705594Y-103348632D01*
X149705594Y-103348632D02*
X149562737Y-103348632D01*
X149562737Y-103348632D02*
X149467499Y-103396251D01*
X149467499Y-103396251D02*
X149419880Y-103491489D01*
X149419880Y-103491489D02*
X149419880Y-104015299D01*
X148943689Y-103348632D02*
X148943689Y-104348632D01*
X148943689Y-103396251D02*
X148848451Y-103348632D01*
X148848451Y-103348632D02*
X148657975Y-103348632D01*
X148657975Y-103348632D02*
X148562737Y-103396251D01*
X148562737Y-103396251D02*
X148515118Y-103443870D01*
X148515118Y-103443870D02*
X148467499Y-103539108D01*
X148467499Y-103539108D02*
X148467499Y-103824822D01*
X148467499Y-103824822D02*
X148515118Y-103920060D01*
X148515118Y-103920060D02*
X148562737Y-103967680D01*
X148562737Y-103967680D02*
X148657975Y-104015299D01*
X148657975Y-104015299D02*
X148848451Y-104015299D01*
X148848451Y-104015299D02*
X148943689Y-103967680D01*
X147610356Y-103348632D02*
X147610356Y-104015299D01*
X148038927Y-103348632D02*
X148038927Y-103872441D01*
X148038927Y-103872441D02*
X147991308Y-103967680D01*
X147991308Y-103967680D02*
X147896070Y-104015299D01*
X147896070Y-104015299D02*
X147753213Y-104015299D01*
X147753213Y-104015299D02*
X147657975Y-103967680D01*
X147657975Y-103967680D02*
X147610356Y-103920060D01*
X147277022Y-103348632D02*
X146896070Y-103348632D01*
X147134165Y-103015299D02*
X147134165Y-103872441D01*
X147134165Y-103872441D02*
X147086546Y-103967680D01*
X147086546Y-103967680D02*
X146991308Y-104015299D01*
X146991308Y-104015299D02*
X146896070Y-104015299D01*
X145657974Y-104015299D02*
X145753212Y-103967680D01*
X145753212Y-103967680D02*
X145800831Y-103872441D01*
X145800831Y-103872441D02*
X145800831Y-103015299D01*
X145134164Y-104015299D02*
X145229402Y-103967680D01*
X145229402Y-103967680D02*
X145277021Y-103920060D01*
X145277021Y-103920060D02*
X145324640Y-103824822D01*
X145324640Y-103824822D02*
X145324640Y-103539108D01*
X145324640Y-103539108D02*
X145277021Y-103443870D01*
X145277021Y-103443870D02*
X145229402Y-103396251D01*
X145229402Y-103396251D02*
X145134164Y-103348632D01*
X145134164Y-103348632D02*
X144991307Y-103348632D01*
X144991307Y-103348632D02*
X144896069Y-103396251D01*
X144896069Y-103396251D02*
X144848450Y-103443870D01*
X144848450Y-103443870D02*
X144800831Y-103539108D01*
X144800831Y-103539108D02*
X144800831Y-103824822D01*
X144800831Y-103824822D02*
X144848450Y-103920060D01*
X144848450Y-103920060D02*
X144896069Y-103967680D01*
X144896069Y-103967680D02*
X144991307Y-104015299D01*
X144991307Y-104015299D02*
X145134164Y-104015299D01*
X143943688Y-103348632D02*
X143943688Y-104158156D01*
X143943688Y-104158156D02*
X143991307Y-104253394D01*
X143991307Y-104253394D02*
X144038926Y-104301013D01*
X144038926Y-104301013D02*
X144134164Y-104348632D01*
X144134164Y-104348632D02*
X144277021Y-104348632D01*
X144277021Y-104348632D02*
X144372259Y-104301013D01*
X143943688Y-103967680D02*
X144038926Y-104015299D01*
X144038926Y-104015299D02*
X144229402Y-104015299D01*
X144229402Y-104015299D02*
X144324640Y-103967680D01*
X144324640Y-103967680D02*
X144372259Y-103920060D01*
X144372259Y-103920060D02*
X144419878Y-103824822D01*
X144419878Y-103824822D02*
X144419878Y-103539108D01*
X144419878Y-103539108D02*
X144372259Y-103443870D01*
X144372259Y-103443870D02*
X144324640Y-103396251D01*
X144324640Y-103396251D02*
X144229402Y-103348632D01*
X144229402Y-103348632D02*
X144038926Y-103348632D01*
X144038926Y-103348632D02*
X143943688Y-103396251D01*
X143467497Y-104015299D02*
X143467497Y-103348632D01*
X143467497Y-103015299D02*
X143515116Y-103062918D01*
X143515116Y-103062918D02*
X143467497Y-103110537D01*
X143467497Y-103110537D02*
X143419878Y-103062918D01*
X143419878Y-103062918D02*
X143467497Y-103015299D01*
X143467497Y-103015299D02*
X143467497Y-103110537D01*
X142562736Y-103967680D02*
X142657974Y-104015299D01*
X142657974Y-104015299D02*
X142848450Y-104015299D01*
X142848450Y-104015299D02*
X142943688Y-103967680D01*
X142943688Y-103967680D02*
X142991307Y-103920060D01*
X142991307Y-103920060D02*
X143038926Y-103824822D01*
X143038926Y-103824822D02*
X143038926Y-103539108D01*
X143038926Y-103539108D02*
X142991307Y-103443870D01*
X142991307Y-103443870D02*
X142943688Y-103396251D01*
X142943688Y-103396251D02*
X142848450Y-103348632D01*
X142848450Y-103348632D02*
X142657974Y-103348632D01*
X142657974Y-103348632D02*
X142562736Y-103396251D01*
X141467497Y-103015299D02*
X140848450Y-103015299D01*
X140848450Y-103015299D02*
X141181783Y-103396251D01*
X141181783Y-103396251D02*
X141038926Y-103396251D01*
X141038926Y-103396251D02*
X140943688Y-103443870D01*
X140943688Y-103443870D02*
X140896069Y-103491489D01*
X140896069Y-103491489D02*
X140848450Y-103586727D01*
X140848450Y-103586727D02*
X140848450Y-103824822D01*
X140848450Y-103824822D02*
X140896069Y-103920060D01*
X140896069Y-103920060D02*
X140943688Y-103967680D01*
X140943688Y-103967680D02*
X141038926Y-104015299D01*
X141038926Y-104015299D02*
X141324640Y-104015299D01*
X141324640Y-104015299D02*
X141419878Y-103967680D01*
X141419878Y-103967680D02*
X141467497Y-103920060D01*
X140419878Y-103920060D02*
X140372259Y-103967680D01*
X140372259Y-103967680D02*
X140419878Y-104015299D01*
X140419878Y-104015299D02*
X140467497Y-103967680D01*
X140467497Y-103967680D02*
X140419878Y-103920060D01*
X140419878Y-103920060D02*
X140419878Y-104015299D01*
X140038926Y-103015299D02*
X139419879Y-103015299D01*
X139419879Y-103015299D02*
X139753212Y-103396251D01*
X139753212Y-103396251D02*
X139610355Y-103396251D01*
X139610355Y-103396251D02*
X139515117Y-103443870D01*
X139515117Y-103443870D02*
X139467498Y-103491489D01*
X139467498Y-103491489D02*
X139419879Y-103586727D01*
X139419879Y-103586727D02*
X139419879Y-103824822D01*
X139419879Y-103824822D02*
X139467498Y-103920060D01*
X139467498Y-103920060D02*
X139515117Y-103967680D01*
X139515117Y-103967680D02*
X139610355Y-104015299D01*
X139610355Y-104015299D02*
X139896069Y-104015299D01*
X139896069Y-104015299D02*
X139991307Y-103967680D01*
X139991307Y-103967680D02*
X140038926Y-103920060D01*
X138991307Y-103634346D02*
X138229403Y-103634346D01*
X137277022Y-103015299D02*
X137753212Y-103015299D01*
X137753212Y-103015299D02*
X137800831Y-103491489D01*
X137800831Y-103491489D02*
X137753212Y-103443870D01*
X137753212Y-103443870D02*
X137657974Y-103396251D01*
X137657974Y-103396251D02*
X137419879Y-103396251D01*
X137419879Y-103396251D02*
X137324641Y-103443870D01*
X137324641Y-103443870D02*
X137277022Y-103491489D01*
X137277022Y-103491489D02*
X137229403Y-103586727D01*
X137229403Y-103586727D02*
X137229403Y-103824822D01*
X137229403Y-103824822D02*
X137277022Y-103920060D01*
X137277022Y-103920060D02*
X137324641Y-103967680D01*
X137324641Y-103967680D02*
X137419879Y-104015299D01*
X137419879Y-104015299D02*
X137657974Y-104015299D01*
X137657974Y-104015299D02*
X137753212Y-103967680D01*
X137753212Y-103967680D02*
X137800831Y-103920060D01*
X136943688Y-103015299D02*
X136610355Y-104015299D01*
X136610355Y-104015299D02*
X136277022Y-103015299D01*
X135896069Y-103967680D02*
X135896069Y-104015299D01*
X135896069Y-104015299D02*
X135943688Y-104110537D01*
X135943688Y-104110537D02*
X135991307Y-104158156D01*
X133943689Y-103348632D02*
X134705593Y-103634346D01*
X134705593Y-103634346D02*
X133943689Y-103920060D01*
X132705594Y-103348632D02*
X133467498Y-103634346D01*
X133467498Y-103634346D02*
X132705594Y-103920060D01*
X130943689Y-104015299D02*
X131515117Y-104015299D01*
X131229403Y-104015299D02*
X131229403Y-103015299D01*
X131229403Y-103015299D02*
X131324641Y-103158156D01*
X131324641Y-103158156D02*
X131419879Y-103253394D01*
X131419879Y-103253394D02*
X131515117Y-103301013D01*
X130324641Y-103015299D02*
X130229403Y-103015299D01*
X130229403Y-103015299D02*
X130134165Y-103062918D01*
X130134165Y-103062918D02*
X130086546Y-103110537D01*
X130086546Y-103110537D02*
X130038927Y-103205775D01*
X130038927Y-103205775D02*
X129991308Y-103396251D01*
X129991308Y-103396251D02*
X129991308Y-103634346D01*
X129991308Y-103634346D02*
X130038927Y-103824822D01*
X130038927Y-103824822D02*
X130086546Y-103920060D01*
X130086546Y-103920060D02*
X130134165Y-103967680D01*
X130134165Y-103967680D02*
X130229403Y-104015299D01*
X130229403Y-104015299D02*
X130324641Y-104015299D01*
X130324641Y-104015299D02*
X130419879Y-103967680D01*
X130419879Y-103967680D02*
X130467498Y-103920060D01*
X130467498Y-103920060D02*
X130515117Y-103824822D01*
X130515117Y-103824822D02*
X130562736Y-103634346D01*
X130562736Y-103634346D02*
X130562736Y-103396251D01*
X130562736Y-103396251D02*
X130515117Y-103205775D01*
X130515117Y-103205775D02*
X130467498Y-103110537D01*
X130467498Y-103110537D02*
X130419879Y-103062918D01*
X130419879Y-103062918D02*
X130324641Y-103015299D01*
X129372260Y-103015299D02*
X129277022Y-103015299D01*
X129277022Y-103015299D02*
X129181784Y-103062918D01*
X129181784Y-103062918D02*
X129134165Y-103110537D01*
X129134165Y-103110537D02*
X129086546Y-103205775D01*
X129086546Y-103205775D02*
X129038927Y-103396251D01*
X129038927Y-103396251D02*
X129038927Y-103634346D01*
X129038927Y-103634346D02*
X129086546Y-103824822D01*
X129086546Y-103824822D02*
X129134165Y-103920060D01*
X129134165Y-103920060D02*
X129181784Y-103967680D01*
X129181784Y-103967680D02*
X129277022Y-104015299D01*
X129277022Y-104015299D02*
X129372260Y-104015299D01*
X129372260Y-104015299D02*
X129467498Y-103967680D01*
X129467498Y-103967680D02*
X129515117Y-103920060D01*
X129515117Y-103920060D02*
X129562736Y-103824822D01*
X129562736Y-103824822D02*
X129610355Y-103634346D01*
X129610355Y-103634346D02*
X129610355Y-103396251D01*
X129610355Y-103396251D02*
X129562736Y-103205775D01*
X129562736Y-103205775D02*
X129515117Y-103110537D01*
X129515117Y-103110537D02*
X129467498Y-103062918D01*
X129467498Y-103062918D02*
X129372260Y-103015299D01*
X128610355Y-104015299D02*
X128610355Y-103015299D01*
X128610355Y-103015299D02*
X128277022Y-103729584D01*
X128277022Y-103729584D02*
X127943689Y-103015299D01*
X127943689Y-103015299D02*
X127943689Y-104015299D01*
X127467498Y-104015299D02*
X127467498Y-103015299D01*
X127467498Y-103491489D02*
X126896070Y-103491489D01*
X126896070Y-104015299D02*
X126896070Y-103015299D01*
X126515117Y-103348632D02*
X125991308Y-103348632D01*
X125991308Y-103348632D02*
X126515117Y-104015299D01*
X126515117Y-104015299D02*
X125991308Y-104015299D01*
M02*
