%TF.GenerationSoftware,KiCad,Pcbnew,9.0.6*%
%TF.CreationDate,2026-09-09T15:10:21-07:00*%
%TF.ProjectId,hvawg,68766177-672e-46b6-9963-61645f706362,rev?*%
%TF.SameCoordinates,Original*%
%TF.FileFunction,Legend,Bot*%
%TF.FilePolarity,Positive*%
%FSLAX46Y46*%
G04 Gerber Fmt 4.6, Leading zero omitted, Abs format (unit mm)*
G04 Created by KiCad (PCBNEW 9.0.6) date 2026-09-09 15:10:21*
%MOMM*%
%LPD*%
G01*
G04 APERTURE LIST*
%ADD10C,0.100000*%
G04 APERTURE END LIST*
D10*
X125000000Y-95500000D02*
X151500000Y-95500000D01*
X151500000Y-105000000D01*
X125000000Y-105000000D01*
X125000000Y-95500000D01*
X149887925Y-96578643D02*
X150364115Y-96578643D01*
X150364115Y-96578643D02*
X150411734Y-97054833D01*
X150411734Y-97054833D02*
X150364115Y-97007214D01*
X150364115Y-97007214D02*
X150268877Y-96959595D01*
X150268877Y-96959595D02*
X150030782Y-96959595D01*
X150030782Y-96959595D02*
X149935544Y-97007214D01*
X149935544Y-97007214D02*
X149887925Y-97054833D01*
X149887925Y-97054833D02*
X149840306Y-97150071D01*
X149840306Y-97150071D02*
X149840306Y-97388166D01*
X149840306Y-97388166D02*
X149887925Y-97483404D01*
X149887925Y-97483404D02*
X149935544Y-97531024D01*
X149935544Y-97531024D02*
X150030782Y-97578643D01*
X150030782Y-97578643D02*
X150268877Y-97578643D01*
X150268877Y-97578643D02*
X150364115Y-97531024D01*
X150364115Y-97531024D02*
X150411734Y-97483404D01*
X147887925Y-96911976D02*
X148649829Y-97197690D01*
X148649829Y-97197690D02*
X147887925Y-97483404D01*
X146792686Y-96578643D02*
X146459353Y-97578643D01*
X146459353Y-97578643D02*
X146126020Y-96578643D01*
X145792686Y-97578643D02*
X145792686Y-96578643D01*
X145364115Y-97578643D02*
X145364115Y-97054833D01*
X145364115Y-97054833D02*
X145411734Y-96959595D01*
X145411734Y-96959595D02*
X145506972Y-96911976D01*
X145506972Y-96911976D02*
X145649829Y-96911976D01*
X145649829Y-96911976D02*
X145745067Y-96959595D01*
X145745067Y-96959595D02*
X145792686Y-97007214D01*
X144887924Y-97578643D02*
X144887924Y-96911976D01*
X144887924Y-96578643D02*
X144935543Y-96626262D01*
X144935543Y-96626262D02*
X144887924Y-96673881D01*
X144887924Y-96673881D02*
X144840305Y-96626262D01*
X144840305Y-96626262D02*
X144887924Y-96578643D01*
X144887924Y-96578643D02*
X144887924Y-96673881D01*
X143983163Y-96911976D02*
X143983163Y-97721500D01*
X143983163Y-97721500D02*
X144030782Y-97816738D01*
X144030782Y-97816738D02*
X144078401Y-97864357D01*
X144078401Y-97864357D02*
X144173639Y-97911976D01*
X144173639Y-97911976D02*
X144316496Y-97911976D01*
X144316496Y-97911976D02*
X144411734Y-97864357D01*
X143983163Y-97531024D02*
X144078401Y-97578643D01*
X144078401Y-97578643D02*
X144268877Y-97578643D01*
X144268877Y-97578643D02*
X144364115Y-97531024D01*
X144364115Y-97531024D02*
X144411734Y-97483404D01*
X144411734Y-97483404D02*
X144459353Y-97388166D01*
X144459353Y-97388166D02*
X144459353Y-97102452D01*
X144459353Y-97102452D02*
X144411734Y-97007214D01*
X144411734Y-97007214D02*
X144364115Y-96959595D01*
X144364115Y-96959595D02*
X144268877Y-96911976D01*
X144268877Y-96911976D02*
X144078401Y-96911976D01*
X144078401Y-96911976D02*
X143983163Y-96959595D01*
X143506972Y-97578643D02*
X143506972Y-96578643D01*
X143078401Y-97578643D02*
X143078401Y-97054833D01*
X143078401Y-97054833D02*
X143126020Y-96959595D01*
X143126020Y-96959595D02*
X143221258Y-96911976D01*
X143221258Y-96911976D02*
X143364115Y-96911976D01*
X143364115Y-96911976D02*
X143459353Y-96959595D01*
X143459353Y-96959595D02*
X143506972Y-97007214D01*
X141078401Y-96911976D02*
X141840305Y-97197690D01*
X141840305Y-97197690D02*
X141078401Y-97483404D01*
X139316496Y-97578643D02*
X139887924Y-97578643D01*
X139602210Y-97578643D02*
X139602210Y-96578643D01*
X139602210Y-96578643D02*
X139697448Y-96721500D01*
X139697448Y-96721500D02*
X139792686Y-96816738D01*
X139792686Y-96816738D02*
X139887924Y-96864357D01*
X138459353Y-96578643D02*
X138649829Y-96578643D01*
X138649829Y-96578643D02*
X138745067Y-96626262D01*
X138745067Y-96626262D02*
X138792686Y-96673881D01*
X138792686Y-96673881D02*
X138887924Y-96816738D01*
X138887924Y-96816738D02*
X138935543Y-97007214D01*
X138935543Y-97007214D02*
X138935543Y-97388166D01*
X138935543Y-97388166D02*
X138887924Y-97483404D01*
X138887924Y-97483404D02*
X138840305Y-97531024D01*
X138840305Y-97531024D02*
X138745067Y-97578643D01*
X138745067Y-97578643D02*
X138554591Y-97578643D01*
X138554591Y-97578643D02*
X138459353Y-97531024D01*
X138459353Y-97531024D02*
X138411734Y-97483404D01*
X138411734Y-97483404D02*
X138364115Y-97388166D01*
X138364115Y-97388166D02*
X138364115Y-97150071D01*
X138364115Y-97150071D02*
X138411734Y-97054833D01*
X138411734Y-97054833D02*
X138459353Y-97007214D01*
X138459353Y-97007214D02*
X138554591Y-96959595D01*
X138554591Y-96959595D02*
X138745067Y-96959595D01*
X138745067Y-96959595D02*
X138840305Y-97007214D01*
X138840305Y-97007214D02*
X138887924Y-97054833D01*
X138887924Y-97054833D02*
X138935543Y-97150071D01*
X137745067Y-96578643D02*
X137649829Y-96578643D01*
X137649829Y-96578643D02*
X137554591Y-96626262D01*
X137554591Y-96626262D02*
X137506972Y-96673881D01*
X137506972Y-96673881D02*
X137459353Y-96769119D01*
X137459353Y-96769119D02*
X137411734Y-96959595D01*
X137411734Y-96959595D02*
X137411734Y-97197690D01*
X137411734Y-97197690D02*
X137459353Y-97388166D01*
X137459353Y-97388166D02*
X137506972Y-97483404D01*
X137506972Y-97483404D02*
X137554591Y-97531024D01*
X137554591Y-97531024D02*
X137649829Y-97578643D01*
X137649829Y-97578643D02*
X137745067Y-97578643D01*
X137745067Y-97578643D02*
X137840305Y-97531024D01*
X137840305Y-97531024D02*
X137887924Y-97483404D01*
X137887924Y-97483404D02*
X137935543Y-97388166D01*
X137935543Y-97388166D02*
X137983162Y-97197690D01*
X137983162Y-97197690D02*
X137983162Y-96959595D01*
X137983162Y-96959595D02*
X137935543Y-96769119D01*
X137935543Y-96769119D02*
X137887924Y-96673881D01*
X137887924Y-96673881D02*
X137840305Y-96626262D01*
X137840305Y-96626262D02*
X137745067Y-96578643D01*
X137126019Y-96578643D02*
X136792686Y-97578643D01*
X136792686Y-97578643D02*
X136459353Y-96578643D01*
X150364115Y-98807634D02*
X149602211Y-98807634D01*
X148602211Y-99188587D02*
X149173639Y-99188587D01*
X148887925Y-99188587D02*
X148887925Y-98188587D01*
X148887925Y-98188587D02*
X148983163Y-98331444D01*
X148983163Y-98331444D02*
X149078401Y-98426682D01*
X149078401Y-98426682D02*
X149173639Y-98474301D01*
X147983163Y-98188587D02*
X147887925Y-98188587D01*
X147887925Y-98188587D02*
X147792687Y-98236206D01*
X147792687Y-98236206D02*
X147745068Y-98283825D01*
X147745068Y-98283825D02*
X147697449Y-98379063D01*
X147697449Y-98379063D02*
X147649830Y-98569539D01*
X147649830Y-98569539D02*
X147649830Y-98807634D01*
X147649830Y-98807634D02*
X147697449Y-98998110D01*
X147697449Y-98998110D02*
X147745068Y-99093348D01*
X147745068Y-99093348D02*
X147792687Y-99140968D01*
X147792687Y-99140968D02*
X147887925Y-99188587D01*
X147887925Y-99188587D02*
X147983163Y-99188587D01*
X147983163Y-99188587D02*
X148078401Y-99140968D01*
X148078401Y-99140968D02*
X148126020Y-99093348D01*
X148126020Y-99093348D02*
X148173639Y-98998110D01*
X148173639Y-98998110D02*
X148221258Y-98807634D01*
X148221258Y-98807634D02*
X148221258Y-98569539D01*
X148221258Y-98569539D02*
X148173639Y-98379063D01*
X148173639Y-98379063D02*
X148126020Y-98283825D01*
X148126020Y-98283825D02*
X148078401Y-98236206D01*
X148078401Y-98236206D02*
X147983163Y-98188587D01*
X146459353Y-98521920D02*
X145697449Y-98807634D01*
X145697449Y-98807634D02*
X146459353Y-99093348D01*
X144602210Y-98188587D02*
X144268877Y-99188587D01*
X144268877Y-99188587D02*
X143935544Y-98188587D01*
X143459353Y-99188587D02*
X143554591Y-99140968D01*
X143554591Y-99140968D02*
X143602210Y-99045729D01*
X143602210Y-99045729D02*
X143602210Y-98188587D01*
X142935543Y-99188587D02*
X143030781Y-99140968D01*
X143030781Y-99140968D02*
X143078400Y-99093348D01*
X143078400Y-99093348D02*
X143126019Y-98998110D01*
X143126019Y-98998110D02*
X143126019Y-98712396D01*
X143126019Y-98712396D02*
X143078400Y-98617158D01*
X143078400Y-98617158D02*
X143030781Y-98569539D01*
X143030781Y-98569539D02*
X142935543Y-98521920D01*
X142935543Y-98521920D02*
X142792686Y-98521920D01*
X142792686Y-98521920D02*
X142697448Y-98569539D01*
X142697448Y-98569539D02*
X142649829Y-98617158D01*
X142649829Y-98617158D02*
X142602210Y-98712396D01*
X142602210Y-98712396D02*
X142602210Y-98998110D01*
X142602210Y-98998110D02*
X142649829Y-99093348D01*
X142649829Y-99093348D02*
X142697448Y-99140968D01*
X142697448Y-99140968D02*
X142792686Y-99188587D01*
X142792686Y-99188587D02*
X142935543Y-99188587D01*
X142268876Y-98521920D02*
X142078400Y-99188587D01*
X142078400Y-99188587D02*
X141887924Y-98712396D01*
X141887924Y-98712396D02*
X141697448Y-99188587D01*
X141697448Y-99188587D02*
X141506972Y-98521920D01*
X140364114Y-98521920D02*
X139602210Y-98807634D01*
X139602210Y-98807634D02*
X140364114Y-99093348D01*
X138364114Y-98807634D02*
X137602210Y-98807634D01*
X136602210Y-99188587D02*
X137173638Y-99188587D01*
X136887924Y-99188587D02*
X136887924Y-98188587D01*
X136887924Y-98188587D02*
X136983162Y-98331444D01*
X136983162Y-98331444D02*
X137078400Y-98426682D01*
X137078400Y-98426682D02*
X137173638Y-98474301D01*
X135745067Y-98188587D02*
X135935543Y-98188587D01*
X135935543Y-98188587D02*
X136030781Y-98236206D01*
X136030781Y-98236206D02*
X136078400Y-98283825D01*
X136078400Y-98283825D02*
X136173638Y-98426682D01*
X136173638Y-98426682D02*
X136221257Y-98617158D01*
X136221257Y-98617158D02*
X136221257Y-98998110D01*
X136221257Y-98998110D02*
X136173638Y-99093348D01*
X136173638Y-99093348D02*
X136126019Y-99140968D01*
X136126019Y-99140968D02*
X136030781Y-99188587D01*
X136030781Y-99188587D02*
X135840305Y-99188587D01*
X135840305Y-99188587D02*
X135745067Y-99140968D01*
X135745067Y-99140968D02*
X135697448Y-99093348D01*
X135697448Y-99093348D02*
X135649829Y-98998110D01*
X135649829Y-98998110D02*
X135649829Y-98760015D01*
X135649829Y-98760015D02*
X135697448Y-98664777D01*
X135697448Y-98664777D02*
X135745067Y-98617158D01*
X135745067Y-98617158D02*
X135840305Y-98569539D01*
X135840305Y-98569539D02*
X136030781Y-98569539D01*
X136030781Y-98569539D02*
X136126019Y-98617158D01*
X136126019Y-98617158D02*
X136173638Y-98664777D01*
X136173638Y-98664777D02*
X136221257Y-98760015D01*
X135030781Y-98188587D02*
X134935543Y-98188587D01*
X134935543Y-98188587D02*
X134840305Y-98236206D01*
X134840305Y-98236206D02*
X134792686Y-98283825D01*
X134792686Y-98283825D02*
X134745067Y-98379063D01*
X134745067Y-98379063D02*
X134697448Y-98569539D01*
X134697448Y-98569539D02*
X134697448Y-98807634D01*
X134697448Y-98807634D02*
X134745067Y-98998110D01*
X134745067Y-98998110D02*
X134792686Y-99093348D01*
X134792686Y-99093348D02*
X134840305Y-99140968D01*
X134840305Y-99140968D02*
X134935543Y-99188587D01*
X134935543Y-99188587D02*
X135030781Y-99188587D01*
X135030781Y-99188587D02*
X135126019Y-99140968D01*
X135126019Y-99140968D02*
X135173638Y-99093348D01*
X135173638Y-99093348D02*
X135221257Y-98998110D01*
X135221257Y-98998110D02*
X135268876Y-98807634D01*
X135268876Y-98807634D02*
X135268876Y-98569539D01*
X135268876Y-98569539D02*
X135221257Y-98379063D01*
X135221257Y-98379063D02*
X135173638Y-98283825D01*
X135173638Y-98283825D02*
X135126019Y-98236206D01*
X135126019Y-98236206D02*
X135030781Y-98188587D01*
X134411733Y-98188587D02*
X134078400Y-99188587D01*
X134078400Y-99188587D02*
X133745067Y-98188587D01*
X150221258Y-100798531D02*
X150316496Y-100750912D01*
X150316496Y-100750912D02*
X150364115Y-100703292D01*
X150364115Y-100703292D02*
X150411734Y-100608054D01*
X150411734Y-100608054D02*
X150411734Y-100322340D01*
X150411734Y-100322340D02*
X150364115Y-100227102D01*
X150364115Y-100227102D02*
X150316496Y-100179483D01*
X150316496Y-100179483D02*
X150221258Y-100131864D01*
X150221258Y-100131864D02*
X150078401Y-100131864D01*
X150078401Y-100131864D02*
X149983163Y-100179483D01*
X149983163Y-100179483D02*
X149935544Y-100227102D01*
X149935544Y-100227102D02*
X149887925Y-100322340D01*
X149887925Y-100322340D02*
X149887925Y-100608054D01*
X149887925Y-100608054D02*
X149935544Y-100703292D01*
X149935544Y-100703292D02*
X149983163Y-100750912D01*
X149983163Y-100750912D02*
X150078401Y-100798531D01*
X150078401Y-100798531D02*
X150221258Y-100798531D01*
X149030782Y-100131864D02*
X149030782Y-100798531D01*
X149459353Y-100131864D02*
X149459353Y-100655673D01*
X149459353Y-100655673D02*
X149411734Y-100750912D01*
X149411734Y-100750912D02*
X149316496Y-100798531D01*
X149316496Y-100798531D02*
X149173639Y-100798531D01*
X149173639Y-100798531D02*
X149078401Y-100750912D01*
X149078401Y-100750912D02*
X149030782Y-100703292D01*
X148697448Y-100131864D02*
X148316496Y-100131864D01*
X148554591Y-99798531D02*
X148554591Y-100655673D01*
X148554591Y-100655673D02*
X148506972Y-100750912D01*
X148506972Y-100750912D02*
X148411734Y-100798531D01*
X148411734Y-100798531D02*
X148316496Y-100798531D01*
X147983162Y-100131864D02*
X147983162Y-101131864D01*
X147983162Y-100179483D02*
X147887924Y-100131864D01*
X147887924Y-100131864D02*
X147697448Y-100131864D01*
X147697448Y-100131864D02*
X147602210Y-100179483D01*
X147602210Y-100179483D02*
X147554591Y-100227102D01*
X147554591Y-100227102D02*
X147506972Y-100322340D01*
X147506972Y-100322340D02*
X147506972Y-100608054D01*
X147506972Y-100608054D02*
X147554591Y-100703292D01*
X147554591Y-100703292D02*
X147602210Y-100750912D01*
X147602210Y-100750912D02*
X147697448Y-100798531D01*
X147697448Y-100798531D02*
X147887924Y-100798531D01*
X147887924Y-100798531D02*
X147983162Y-100750912D01*
X146649829Y-100131864D02*
X146649829Y-100798531D01*
X147078400Y-100131864D02*
X147078400Y-100655673D01*
X147078400Y-100655673D02*
X147030781Y-100750912D01*
X147030781Y-100750912D02*
X146935543Y-100798531D01*
X146935543Y-100798531D02*
X146792686Y-100798531D01*
X146792686Y-100798531D02*
X146697448Y-100750912D01*
X146697448Y-100750912D02*
X146649829Y-100703292D01*
X146316495Y-100131864D02*
X145935543Y-100131864D01*
X146173638Y-99798531D02*
X146173638Y-100655673D01*
X146173638Y-100655673D02*
X146126019Y-100750912D01*
X146126019Y-100750912D02*
X146030781Y-100798531D01*
X146030781Y-100798531D02*
X145935543Y-100798531D01*
X144840304Y-100798531D02*
X144840304Y-100131864D01*
X144840304Y-99798531D02*
X144887923Y-99846150D01*
X144887923Y-99846150D02*
X144840304Y-99893769D01*
X144840304Y-99893769D02*
X144792685Y-99846150D01*
X144792685Y-99846150D02*
X144840304Y-99798531D01*
X144840304Y-99798531D02*
X144840304Y-99893769D01*
X144364114Y-100798531D02*
X144364114Y-100131864D01*
X144364114Y-100227102D02*
X144316495Y-100179483D01*
X144316495Y-100179483D02*
X144221257Y-100131864D01*
X144221257Y-100131864D02*
X144078400Y-100131864D01*
X144078400Y-100131864D02*
X143983162Y-100179483D01*
X143983162Y-100179483D02*
X143935543Y-100274721D01*
X143935543Y-100274721D02*
X143935543Y-100798531D01*
X143935543Y-100274721D02*
X143887924Y-100179483D01*
X143887924Y-100179483D02*
X143792686Y-100131864D01*
X143792686Y-100131864D02*
X143649829Y-100131864D01*
X143649829Y-100131864D02*
X143554590Y-100179483D01*
X143554590Y-100179483D02*
X143506971Y-100274721D01*
X143506971Y-100274721D02*
X143506971Y-100798531D01*
X143030781Y-100131864D02*
X143030781Y-101131864D01*
X143030781Y-100179483D02*
X142935543Y-100131864D01*
X142935543Y-100131864D02*
X142745067Y-100131864D01*
X142745067Y-100131864D02*
X142649829Y-100179483D01*
X142649829Y-100179483D02*
X142602210Y-100227102D01*
X142602210Y-100227102D02*
X142554591Y-100322340D01*
X142554591Y-100322340D02*
X142554591Y-100608054D01*
X142554591Y-100608054D02*
X142602210Y-100703292D01*
X142602210Y-100703292D02*
X142649829Y-100750912D01*
X142649829Y-100750912D02*
X142745067Y-100798531D01*
X142745067Y-100798531D02*
X142935543Y-100798531D01*
X142935543Y-100798531D02*
X143030781Y-100750912D01*
X141745067Y-100750912D02*
X141840305Y-100798531D01*
X141840305Y-100798531D02*
X142030781Y-100798531D01*
X142030781Y-100798531D02*
X142126019Y-100750912D01*
X142126019Y-100750912D02*
X142173638Y-100655673D01*
X142173638Y-100655673D02*
X142173638Y-100274721D01*
X142173638Y-100274721D02*
X142126019Y-100179483D01*
X142126019Y-100179483D02*
X142030781Y-100131864D01*
X142030781Y-100131864D02*
X141840305Y-100131864D01*
X141840305Y-100131864D02*
X141745067Y-100179483D01*
X141745067Y-100179483D02*
X141697448Y-100274721D01*
X141697448Y-100274721D02*
X141697448Y-100369959D01*
X141697448Y-100369959D02*
X142173638Y-100465197D01*
X140840305Y-100798531D02*
X140840305Y-99798531D01*
X140840305Y-100750912D02*
X140935543Y-100798531D01*
X140935543Y-100798531D02*
X141126019Y-100798531D01*
X141126019Y-100798531D02*
X141221257Y-100750912D01*
X141221257Y-100750912D02*
X141268876Y-100703292D01*
X141268876Y-100703292D02*
X141316495Y-100608054D01*
X141316495Y-100608054D02*
X141316495Y-100322340D01*
X141316495Y-100322340D02*
X141268876Y-100227102D01*
X141268876Y-100227102D02*
X141221257Y-100179483D01*
X141221257Y-100179483D02*
X141126019Y-100131864D01*
X141126019Y-100131864D02*
X140935543Y-100131864D01*
X140935543Y-100131864D02*
X140840305Y-100179483D01*
X139935543Y-100798531D02*
X139935543Y-100274721D01*
X139935543Y-100274721D02*
X139983162Y-100179483D01*
X139983162Y-100179483D02*
X140078400Y-100131864D01*
X140078400Y-100131864D02*
X140268876Y-100131864D01*
X140268876Y-100131864D02*
X140364114Y-100179483D01*
X139935543Y-100750912D02*
X140030781Y-100798531D01*
X140030781Y-100798531D02*
X140268876Y-100798531D01*
X140268876Y-100798531D02*
X140364114Y-100750912D01*
X140364114Y-100750912D02*
X140411733Y-100655673D01*
X140411733Y-100655673D02*
X140411733Y-100560435D01*
X140411733Y-100560435D02*
X140364114Y-100465197D01*
X140364114Y-100465197D02*
X140268876Y-100417578D01*
X140268876Y-100417578D02*
X140030781Y-100417578D01*
X140030781Y-100417578D02*
X139935543Y-100369959D01*
X139459352Y-100131864D02*
X139459352Y-100798531D01*
X139459352Y-100227102D02*
X139411733Y-100179483D01*
X139411733Y-100179483D02*
X139316495Y-100131864D01*
X139316495Y-100131864D02*
X139173638Y-100131864D01*
X139173638Y-100131864D02*
X139078400Y-100179483D01*
X139078400Y-100179483D02*
X139030781Y-100274721D01*
X139030781Y-100274721D02*
X139030781Y-100798531D01*
X138126019Y-100750912D02*
X138221257Y-100798531D01*
X138221257Y-100798531D02*
X138411733Y-100798531D01*
X138411733Y-100798531D02*
X138506971Y-100750912D01*
X138506971Y-100750912D02*
X138554590Y-100703292D01*
X138554590Y-100703292D02*
X138602209Y-100608054D01*
X138602209Y-100608054D02*
X138602209Y-100322340D01*
X138602209Y-100322340D02*
X138554590Y-100227102D01*
X138554590Y-100227102D02*
X138506971Y-100179483D01*
X138506971Y-100179483D02*
X138411733Y-100131864D01*
X138411733Y-100131864D02*
X138221257Y-100131864D01*
X138221257Y-100131864D02*
X138126019Y-100179483D01*
X137316495Y-100750912D02*
X137411733Y-100798531D01*
X137411733Y-100798531D02*
X137602209Y-100798531D01*
X137602209Y-100798531D02*
X137697447Y-100750912D01*
X137697447Y-100750912D02*
X137745066Y-100655673D01*
X137745066Y-100655673D02*
X137745066Y-100274721D01*
X137745066Y-100274721D02*
X137697447Y-100179483D01*
X137697447Y-100179483D02*
X137602209Y-100131864D01*
X137602209Y-100131864D02*
X137411733Y-100131864D01*
X137411733Y-100131864D02*
X137316495Y-100179483D01*
X137316495Y-100179483D02*
X137268876Y-100274721D01*
X137268876Y-100274721D02*
X137268876Y-100369959D01*
X137268876Y-100369959D02*
X137745066Y-100465197D01*
X136078399Y-100131864D02*
X135316495Y-100417578D01*
X135316495Y-100417578D02*
X136078399Y-100703292D01*
X134840304Y-100131864D02*
X134078400Y-100417578D01*
X134078400Y-100417578D02*
X134840304Y-100703292D01*
X132316495Y-100798531D02*
X132887923Y-100798531D01*
X132602209Y-100798531D02*
X132602209Y-99798531D01*
X132602209Y-99798531D02*
X132697447Y-99941388D01*
X132697447Y-99941388D02*
X132792685Y-100036626D01*
X132792685Y-100036626D02*
X132887923Y-100084245D01*
X131697447Y-99798531D02*
X131602209Y-99798531D01*
X131602209Y-99798531D02*
X131506971Y-99846150D01*
X131506971Y-99846150D02*
X131459352Y-99893769D01*
X131459352Y-99893769D02*
X131411733Y-99989007D01*
X131411733Y-99989007D02*
X131364114Y-100179483D01*
X131364114Y-100179483D02*
X131364114Y-100417578D01*
X131364114Y-100417578D02*
X131411733Y-100608054D01*
X131411733Y-100608054D02*
X131459352Y-100703292D01*
X131459352Y-100703292D02*
X131506971Y-100750912D01*
X131506971Y-100750912D02*
X131602209Y-100798531D01*
X131602209Y-100798531D02*
X131697447Y-100798531D01*
X131697447Y-100798531D02*
X131792685Y-100750912D01*
X131792685Y-100750912D02*
X131840304Y-100703292D01*
X131840304Y-100703292D02*
X131887923Y-100608054D01*
X131887923Y-100608054D02*
X131935542Y-100417578D01*
X131935542Y-100417578D02*
X131935542Y-100179483D01*
X131935542Y-100179483D02*
X131887923Y-99989007D01*
X131887923Y-99989007D02*
X131840304Y-99893769D01*
X131840304Y-99893769D02*
X131792685Y-99846150D01*
X131792685Y-99846150D02*
X131697447Y-99798531D01*
X130935542Y-100798531D02*
X130935542Y-99798531D01*
X130840304Y-100417578D02*
X130554590Y-100798531D01*
X130554590Y-100131864D02*
X130935542Y-100512816D01*
X129983161Y-100798531D02*
X130078399Y-100750912D01*
X130078399Y-100750912D02*
X130126018Y-100703292D01*
X130126018Y-100703292D02*
X130173637Y-100608054D01*
X130173637Y-100608054D02*
X130173637Y-100322340D01*
X130173637Y-100322340D02*
X130126018Y-100227102D01*
X130126018Y-100227102D02*
X130078399Y-100179483D01*
X130078399Y-100179483D02*
X129983161Y-100131864D01*
X129983161Y-100131864D02*
X129840304Y-100131864D01*
X129840304Y-100131864D02*
X129745066Y-100179483D01*
X129745066Y-100179483D02*
X129697447Y-100227102D01*
X129697447Y-100227102D02*
X129649828Y-100322340D01*
X129649828Y-100322340D02*
X129649828Y-100608054D01*
X129649828Y-100608054D02*
X129697447Y-100703292D01*
X129697447Y-100703292D02*
X129745066Y-100750912D01*
X129745066Y-100750912D02*
X129840304Y-100798531D01*
X129840304Y-100798531D02*
X129983161Y-100798531D01*
X129221256Y-100798531D02*
X129221256Y-99798531D01*
X128792685Y-100798531D02*
X128792685Y-100274721D01*
X128792685Y-100274721D02*
X128840304Y-100179483D01*
X128840304Y-100179483D02*
X128935542Y-100131864D01*
X128935542Y-100131864D02*
X129078399Y-100131864D01*
X129078399Y-100131864D02*
X129173637Y-100179483D01*
X129173637Y-100179483D02*
X129221256Y-100227102D01*
X128316494Y-100798531D02*
X128316494Y-100131864D01*
X128316494Y-100227102D02*
X128268875Y-100179483D01*
X128268875Y-100179483D02*
X128173637Y-100131864D01*
X128173637Y-100131864D02*
X128030780Y-100131864D01*
X128030780Y-100131864D02*
X127935542Y-100179483D01*
X127935542Y-100179483D02*
X127887923Y-100274721D01*
X127887923Y-100274721D02*
X127887923Y-100798531D01*
X127887923Y-100274721D02*
X127840304Y-100179483D01*
X127840304Y-100179483D02*
X127745066Y-100131864D01*
X127745066Y-100131864D02*
X127602209Y-100131864D01*
X127602209Y-100131864D02*
X127506970Y-100179483D01*
X127506970Y-100179483D02*
X127459351Y-100274721D01*
X127459351Y-100274721D02*
X127459351Y-100798531D01*
X150221258Y-102408475D02*
X150316496Y-102360856D01*
X150316496Y-102360856D02*
X150364115Y-102313236D01*
X150364115Y-102313236D02*
X150411734Y-102217998D01*
X150411734Y-102217998D02*
X150411734Y-101932284D01*
X150411734Y-101932284D02*
X150364115Y-101837046D01*
X150364115Y-101837046D02*
X150316496Y-101789427D01*
X150316496Y-101789427D02*
X150221258Y-101741808D01*
X150221258Y-101741808D02*
X150078401Y-101741808D01*
X150078401Y-101741808D02*
X149983163Y-101789427D01*
X149983163Y-101789427D02*
X149935544Y-101837046D01*
X149935544Y-101837046D02*
X149887925Y-101932284D01*
X149887925Y-101932284D02*
X149887925Y-102217998D01*
X149887925Y-102217998D02*
X149935544Y-102313236D01*
X149935544Y-102313236D02*
X149983163Y-102360856D01*
X149983163Y-102360856D02*
X150078401Y-102408475D01*
X150078401Y-102408475D02*
X150221258Y-102408475D01*
X149030782Y-101741808D02*
X149030782Y-102408475D01*
X149459353Y-101741808D02*
X149459353Y-102265617D01*
X149459353Y-102265617D02*
X149411734Y-102360856D01*
X149411734Y-102360856D02*
X149316496Y-102408475D01*
X149316496Y-102408475D02*
X149173639Y-102408475D01*
X149173639Y-102408475D02*
X149078401Y-102360856D01*
X149078401Y-102360856D02*
X149030782Y-102313236D01*
X148697448Y-101741808D02*
X148316496Y-101741808D01*
X148554591Y-101408475D02*
X148554591Y-102265617D01*
X148554591Y-102265617D02*
X148506972Y-102360856D01*
X148506972Y-102360856D02*
X148411734Y-102408475D01*
X148411734Y-102408475D02*
X148316496Y-102408475D01*
X147983162Y-101741808D02*
X147983162Y-102741808D01*
X147983162Y-101789427D02*
X147887924Y-101741808D01*
X147887924Y-101741808D02*
X147697448Y-101741808D01*
X147697448Y-101741808D02*
X147602210Y-101789427D01*
X147602210Y-101789427D02*
X147554591Y-101837046D01*
X147554591Y-101837046D02*
X147506972Y-101932284D01*
X147506972Y-101932284D02*
X147506972Y-102217998D01*
X147506972Y-102217998D02*
X147554591Y-102313236D01*
X147554591Y-102313236D02*
X147602210Y-102360856D01*
X147602210Y-102360856D02*
X147697448Y-102408475D01*
X147697448Y-102408475D02*
X147887924Y-102408475D01*
X147887924Y-102408475D02*
X147983162Y-102360856D01*
X146649829Y-101741808D02*
X146649829Y-102408475D01*
X147078400Y-101741808D02*
X147078400Y-102265617D01*
X147078400Y-102265617D02*
X147030781Y-102360856D01*
X147030781Y-102360856D02*
X146935543Y-102408475D01*
X146935543Y-102408475D02*
X146792686Y-102408475D01*
X146792686Y-102408475D02*
X146697448Y-102360856D01*
X146697448Y-102360856D02*
X146649829Y-102313236D01*
X146316495Y-101741808D02*
X145935543Y-101741808D01*
X146173638Y-101408475D02*
X146173638Y-102265617D01*
X146173638Y-102265617D02*
X146126019Y-102360856D01*
X146126019Y-102360856D02*
X146030781Y-102408475D01*
X146030781Y-102408475D02*
X145935543Y-102408475D01*
X144983161Y-101741808D02*
X144602209Y-101741808D01*
X144840304Y-102408475D02*
X144840304Y-101551332D01*
X144840304Y-101551332D02*
X144792685Y-101456094D01*
X144792685Y-101456094D02*
X144697447Y-101408475D01*
X144697447Y-101408475D02*
X144602209Y-101408475D01*
X144268875Y-102408475D02*
X144268875Y-101741808D01*
X144268875Y-101932284D02*
X144221256Y-101837046D01*
X144221256Y-101837046D02*
X144173637Y-101789427D01*
X144173637Y-101789427D02*
X144078399Y-101741808D01*
X144078399Y-101741808D02*
X143983161Y-101741808D01*
X143268875Y-102360856D02*
X143364113Y-102408475D01*
X143364113Y-102408475D02*
X143554589Y-102408475D01*
X143554589Y-102408475D02*
X143649827Y-102360856D01*
X143649827Y-102360856D02*
X143697446Y-102265617D01*
X143697446Y-102265617D02*
X143697446Y-101884665D01*
X143697446Y-101884665D02*
X143649827Y-101789427D01*
X143649827Y-101789427D02*
X143554589Y-101741808D01*
X143554589Y-101741808D02*
X143364113Y-101741808D01*
X143364113Y-101741808D02*
X143268875Y-101789427D01*
X143268875Y-101789427D02*
X143221256Y-101884665D01*
X143221256Y-101884665D02*
X143221256Y-101979903D01*
X143221256Y-101979903D02*
X143697446Y-102075141D01*
X142364113Y-101741808D02*
X142364113Y-102741808D01*
X142364113Y-102360856D02*
X142459351Y-102408475D01*
X142459351Y-102408475D02*
X142649827Y-102408475D01*
X142649827Y-102408475D02*
X142745065Y-102360856D01*
X142745065Y-102360856D02*
X142792684Y-102313236D01*
X142792684Y-102313236D02*
X142840303Y-102217998D01*
X142840303Y-102217998D02*
X142840303Y-101932284D01*
X142840303Y-101932284D02*
X142792684Y-101837046D01*
X142792684Y-101837046D02*
X142745065Y-101789427D01*
X142745065Y-101789427D02*
X142649827Y-101741808D01*
X142649827Y-101741808D02*
X142459351Y-101741808D01*
X142459351Y-101741808D02*
X142364113Y-101789427D01*
X141459351Y-101741808D02*
X141459351Y-102408475D01*
X141887922Y-101741808D02*
X141887922Y-102265617D01*
X141887922Y-102265617D02*
X141840303Y-102360856D01*
X141840303Y-102360856D02*
X141745065Y-102408475D01*
X141745065Y-102408475D02*
X141602208Y-102408475D01*
X141602208Y-102408475D02*
X141506970Y-102360856D01*
X141506970Y-102360856D02*
X141459351Y-102313236D01*
X140602208Y-102360856D02*
X140697446Y-102408475D01*
X140697446Y-102408475D02*
X140887922Y-102408475D01*
X140887922Y-102408475D02*
X140983160Y-102360856D01*
X140983160Y-102360856D02*
X141030779Y-102265617D01*
X141030779Y-102265617D02*
X141030779Y-101884665D01*
X141030779Y-101884665D02*
X140983160Y-101789427D01*
X140983160Y-101789427D02*
X140887922Y-101741808D01*
X140887922Y-101741808D02*
X140697446Y-101741808D01*
X140697446Y-101741808D02*
X140602208Y-101789427D01*
X140602208Y-101789427D02*
X140554589Y-101884665D01*
X140554589Y-101884665D02*
X140554589Y-101979903D01*
X140554589Y-101979903D02*
X141030779Y-102075141D01*
X140126017Y-101741808D02*
X140126017Y-102408475D01*
X140126017Y-101837046D02*
X140078398Y-101789427D01*
X140078398Y-101789427D02*
X139983160Y-101741808D01*
X139983160Y-101741808D02*
X139840303Y-101741808D01*
X139840303Y-101741808D02*
X139745065Y-101789427D01*
X139745065Y-101789427D02*
X139697446Y-101884665D01*
X139697446Y-101884665D02*
X139697446Y-102408475D01*
X138792684Y-102360856D02*
X138887922Y-102408475D01*
X138887922Y-102408475D02*
X139078398Y-102408475D01*
X139078398Y-102408475D02*
X139173636Y-102360856D01*
X139173636Y-102360856D02*
X139221255Y-102313236D01*
X139221255Y-102313236D02*
X139268874Y-102217998D01*
X139268874Y-102217998D02*
X139268874Y-101932284D01*
X139268874Y-101932284D02*
X139221255Y-101837046D01*
X139221255Y-101837046D02*
X139173636Y-101789427D01*
X139173636Y-101789427D02*
X139078398Y-101741808D01*
X139078398Y-101741808D02*
X138887922Y-101741808D01*
X138887922Y-101741808D02*
X138792684Y-101789427D01*
X138459350Y-101741808D02*
X138221255Y-102408475D01*
X137983160Y-101741808D02*
X138221255Y-102408475D01*
X138221255Y-102408475D02*
X138316493Y-102646570D01*
X138316493Y-102646570D02*
X138364112Y-102694189D01*
X138364112Y-102694189D02*
X138459350Y-102741808D01*
X136078398Y-101741808D02*
X136840302Y-102027522D01*
X136840302Y-102027522D02*
X136078398Y-102313236D01*
X134316493Y-102408475D02*
X134887921Y-102408475D01*
X134602207Y-102408475D02*
X134602207Y-101408475D01*
X134602207Y-101408475D02*
X134697445Y-101551332D01*
X134697445Y-101551332D02*
X134792683Y-101646570D01*
X134792683Y-101646570D02*
X134887921Y-101694189D01*
X133887921Y-102408475D02*
X133887921Y-101408475D01*
X133887921Y-101408475D02*
X133554588Y-102122760D01*
X133554588Y-102122760D02*
X133221255Y-101408475D01*
X133221255Y-101408475D02*
X133221255Y-102408475D01*
X132745064Y-102408475D02*
X132745064Y-101408475D01*
X132745064Y-101884665D02*
X132173636Y-101884665D01*
X132173636Y-102408475D02*
X132173636Y-101408475D01*
X131792683Y-101741808D02*
X131268874Y-101741808D01*
X131268874Y-101741808D02*
X131792683Y-102408475D01*
X131792683Y-102408475D02*
X131268874Y-102408475D01*
X150364115Y-104018419D02*
X150364115Y-103351752D01*
X150364115Y-103018419D02*
X150411734Y-103066038D01*
X150411734Y-103066038D02*
X150364115Y-103113657D01*
X150364115Y-103113657D02*
X150316496Y-103066038D01*
X150316496Y-103066038D02*
X150364115Y-103018419D01*
X150364115Y-103018419D02*
X150364115Y-103113657D01*
X149887925Y-103351752D02*
X149887925Y-104018419D01*
X149887925Y-103446990D02*
X149840306Y-103399371D01*
X149840306Y-103399371D02*
X149745068Y-103351752D01*
X149745068Y-103351752D02*
X149602211Y-103351752D01*
X149602211Y-103351752D02*
X149506973Y-103399371D01*
X149506973Y-103399371D02*
X149459354Y-103494609D01*
X149459354Y-103494609D02*
X149459354Y-104018419D01*
X148983163Y-103351752D02*
X148983163Y-104351752D01*
X148983163Y-103399371D02*
X148887925Y-103351752D01*
X148887925Y-103351752D02*
X148697449Y-103351752D01*
X148697449Y-103351752D02*
X148602211Y-103399371D01*
X148602211Y-103399371D02*
X148554592Y-103446990D01*
X148554592Y-103446990D02*
X148506973Y-103542228D01*
X148506973Y-103542228D02*
X148506973Y-103827942D01*
X148506973Y-103827942D02*
X148554592Y-103923180D01*
X148554592Y-103923180D02*
X148602211Y-103970800D01*
X148602211Y-103970800D02*
X148697449Y-104018419D01*
X148697449Y-104018419D02*
X148887925Y-104018419D01*
X148887925Y-104018419D02*
X148983163Y-103970800D01*
X147649830Y-103351752D02*
X147649830Y-104018419D01*
X148078401Y-103351752D02*
X148078401Y-103875561D01*
X148078401Y-103875561D02*
X148030782Y-103970800D01*
X148030782Y-103970800D02*
X147935544Y-104018419D01*
X147935544Y-104018419D02*
X147792687Y-104018419D01*
X147792687Y-104018419D02*
X147697449Y-103970800D01*
X147697449Y-103970800D02*
X147649830Y-103923180D01*
X147316496Y-103351752D02*
X146935544Y-103351752D01*
X147173639Y-103018419D02*
X147173639Y-103875561D01*
X147173639Y-103875561D02*
X147126020Y-103970800D01*
X147126020Y-103970800D02*
X147030782Y-104018419D01*
X147030782Y-104018419D02*
X146935544Y-104018419D01*
X145697448Y-104018419D02*
X145792686Y-103970800D01*
X145792686Y-103970800D02*
X145840305Y-103875561D01*
X145840305Y-103875561D02*
X145840305Y-103018419D01*
X145173638Y-104018419D02*
X145268876Y-103970800D01*
X145268876Y-103970800D02*
X145316495Y-103923180D01*
X145316495Y-103923180D02*
X145364114Y-103827942D01*
X145364114Y-103827942D02*
X145364114Y-103542228D01*
X145364114Y-103542228D02*
X145316495Y-103446990D01*
X145316495Y-103446990D02*
X145268876Y-103399371D01*
X145268876Y-103399371D02*
X145173638Y-103351752D01*
X145173638Y-103351752D02*
X145030781Y-103351752D01*
X145030781Y-103351752D02*
X144935543Y-103399371D01*
X144935543Y-103399371D02*
X144887924Y-103446990D01*
X144887924Y-103446990D02*
X144840305Y-103542228D01*
X144840305Y-103542228D02*
X144840305Y-103827942D01*
X144840305Y-103827942D02*
X144887924Y-103923180D01*
X144887924Y-103923180D02*
X144935543Y-103970800D01*
X144935543Y-103970800D02*
X145030781Y-104018419D01*
X145030781Y-104018419D02*
X145173638Y-104018419D01*
X143983162Y-103351752D02*
X143983162Y-104161276D01*
X143983162Y-104161276D02*
X144030781Y-104256514D01*
X144030781Y-104256514D02*
X144078400Y-104304133D01*
X144078400Y-104304133D02*
X144173638Y-104351752D01*
X144173638Y-104351752D02*
X144316495Y-104351752D01*
X144316495Y-104351752D02*
X144411733Y-104304133D01*
X143983162Y-103970800D02*
X144078400Y-104018419D01*
X144078400Y-104018419D02*
X144268876Y-104018419D01*
X144268876Y-104018419D02*
X144364114Y-103970800D01*
X144364114Y-103970800D02*
X144411733Y-103923180D01*
X144411733Y-103923180D02*
X144459352Y-103827942D01*
X144459352Y-103827942D02*
X144459352Y-103542228D01*
X144459352Y-103542228D02*
X144411733Y-103446990D01*
X144411733Y-103446990D02*
X144364114Y-103399371D01*
X144364114Y-103399371D02*
X144268876Y-103351752D01*
X144268876Y-103351752D02*
X144078400Y-103351752D01*
X144078400Y-103351752D02*
X143983162Y-103399371D01*
X143506971Y-104018419D02*
X143506971Y-103351752D01*
X143506971Y-103018419D02*
X143554590Y-103066038D01*
X143554590Y-103066038D02*
X143506971Y-103113657D01*
X143506971Y-103113657D02*
X143459352Y-103066038D01*
X143459352Y-103066038D02*
X143506971Y-103018419D01*
X143506971Y-103018419D02*
X143506971Y-103113657D01*
X142602210Y-103970800D02*
X142697448Y-104018419D01*
X142697448Y-104018419D02*
X142887924Y-104018419D01*
X142887924Y-104018419D02*
X142983162Y-103970800D01*
X142983162Y-103970800D02*
X143030781Y-103923180D01*
X143030781Y-103923180D02*
X143078400Y-103827942D01*
X143078400Y-103827942D02*
X143078400Y-103542228D01*
X143078400Y-103542228D02*
X143030781Y-103446990D01*
X143030781Y-103446990D02*
X142983162Y-103399371D01*
X142983162Y-103399371D02*
X142887924Y-103351752D01*
X142887924Y-103351752D02*
X142697448Y-103351752D01*
X142697448Y-103351752D02*
X142602210Y-103399371D01*
X141506971Y-103018419D02*
X140887924Y-103018419D01*
X140887924Y-103018419D02*
X141221257Y-103399371D01*
X141221257Y-103399371D02*
X141078400Y-103399371D01*
X141078400Y-103399371D02*
X140983162Y-103446990D01*
X140983162Y-103446990D02*
X140935543Y-103494609D01*
X140935543Y-103494609D02*
X140887924Y-103589847D01*
X140887924Y-103589847D02*
X140887924Y-103827942D01*
X140887924Y-103827942D02*
X140935543Y-103923180D01*
X140935543Y-103923180D02*
X140983162Y-103970800D01*
X140983162Y-103970800D02*
X141078400Y-104018419D01*
X141078400Y-104018419D02*
X141364114Y-104018419D01*
X141364114Y-104018419D02*
X141459352Y-103970800D01*
X141459352Y-103970800D02*
X141506971Y-103923180D01*
X140459352Y-103923180D02*
X140411733Y-103970800D01*
X140411733Y-103970800D02*
X140459352Y-104018419D01*
X140459352Y-104018419D02*
X140506971Y-103970800D01*
X140506971Y-103970800D02*
X140459352Y-103923180D01*
X140459352Y-103923180D02*
X140459352Y-104018419D01*
X140078400Y-103018419D02*
X139459353Y-103018419D01*
X139459353Y-103018419D02*
X139792686Y-103399371D01*
X139792686Y-103399371D02*
X139649829Y-103399371D01*
X139649829Y-103399371D02*
X139554591Y-103446990D01*
X139554591Y-103446990D02*
X139506972Y-103494609D01*
X139506972Y-103494609D02*
X139459353Y-103589847D01*
X139459353Y-103589847D02*
X139459353Y-103827942D01*
X139459353Y-103827942D02*
X139506972Y-103923180D01*
X139506972Y-103923180D02*
X139554591Y-103970800D01*
X139554591Y-103970800D02*
X139649829Y-104018419D01*
X139649829Y-104018419D02*
X139935543Y-104018419D01*
X139935543Y-104018419D02*
X140030781Y-103970800D01*
X140030781Y-103970800D02*
X140078400Y-103923180D01*
X139030781Y-103637466D02*
X138268877Y-103637466D01*
X137316496Y-103018419D02*
X137792686Y-103018419D01*
X137792686Y-103018419D02*
X137840305Y-103494609D01*
X137840305Y-103494609D02*
X137792686Y-103446990D01*
X137792686Y-103446990D02*
X137697448Y-103399371D01*
X137697448Y-103399371D02*
X137459353Y-103399371D01*
X137459353Y-103399371D02*
X137364115Y-103446990D01*
X137364115Y-103446990D02*
X137316496Y-103494609D01*
X137316496Y-103494609D02*
X137268877Y-103589847D01*
X137268877Y-103589847D02*
X137268877Y-103827942D01*
X137268877Y-103827942D02*
X137316496Y-103923180D01*
X137316496Y-103923180D02*
X137364115Y-103970800D01*
X137364115Y-103970800D02*
X137459353Y-104018419D01*
X137459353Y-104018419D02*
X137697448Y-104018419D01*
X137697448Y-104018419D02*
X137792686Y-103970800D01*
X137792686Y-103970800D02*
X137840305Y-103923180D01*
X136983162Y-103018419D02*
X136649829Y-104018419D01*
X136649829Y-104018419D02*
X136316496Y-103018419D01*
X135935543Y-103970800D02*
X135935543Y-104018419D01*
X135935543Y-104018419D02*
X135983162Y-104113657D01*
X135983162Y-104113657D02*
X136030781Y-104161276D01*
X133983163Y-103351752D02*
X134745067Y-103637466D01*
X134745067Y-103637466D02*
X133983163Y-103923180D01*
X132745068Y-103351752D02*
X133506972Y-103637466D01*
X133506972Y-103637466D02*
X132745068Y-103923180D01*
X130983163Y-104018419D02*
X131554591Y-104018419D01*
X131268877Y-104018419D02*
X131268877Y-103018419D01*
X131268877Y-103018419D02*
X131364115Y-103161276D01*
X131364115Y-103161276D02*
X131459353Y-103256514D01*
X131459353Y-103256514D02*
X131554591Y-103304133D01*
X130364115Y-103018419D02*
X130268877Y-103018419D01*
X130268877Y-103018419D02*
X130173639Y-103066038D01*
X130173639Y-103066038D02*
X130126020Y-103113657D01*
X130126020Y-103113657D02*
X130078401Y-103208895D01*
X130078401Y-103208895D02*
X130030782Y-103399371D01*
X130030782Y-103399371D02*
X130030782Y-103637466D01*
X130030782Y-103637466D02*
X130078401Y-103827942D01*
X130078401Y-103827942D02*
X130126020Y-103923180D01*
X130126020Y-103923180D02*
X130173639Y-103970800D01*
X130173639Y-103970800D02*
X130268877Y-104018419D01*
X130268877Y-104018419D02*
X130364115Y-104018419D01*
X130364115Y-104018419D02*
X130459353Y-103970800D01*
X130459353Y-103970800D02*
X130506972Y-103923180D01*
X130506972Y-103923180D02*
X130554591Y-103827942D01*
X130554591Y-103827942D02*
X130602210Y-103637466D01*
X130602210Y-103637466D02*
X130602210Y-103399371D01*
X130602210Y-103399371D02*
X130554591Y-103208895D01*
X130554591Y-103208895D02*
X130506972Y-103113657D01*
X130506972Y-103113657D02*
X130459353Y-103066038D01*
X130459353Y-103066038D02*
X130364115Y-103018419D01*
X129411734Y-103018419D02*
X129316496Y-103018419D01*
X129316496Y-103018419D02*
X129221258Y-103066038D01*
X129221258Y-103066038D02*
X129173639Y-103113657D01*
X129173639Y-103113657D02*
X129126020Y-103208895D01*
X129126020Y-103208895D02*
X129078401Y-103399371D01*
X129078401Y-103399371D02*
X129078401Y-103637466D01*
X129078401Y-103637466D02*
X129126020Y-103827942D01*
X129126020Y-103827942D02*
X129173639Y-103923180D01*
X129173639Y-103923180D02*
X129221258Y-103970800D01*
X129221258Y-103970800D02*
X129316496Y-104018419D01*
X129316496Y-104018419D02*
X129411734Y-104018419D01*
X129411734Y-104018419D02*
X129506972Y-103970800D01*
X129506972Y-103970800D02*
X129554591Y-103923180D01*
X129554591Y-103923180D02*
X129602210Y-103827942D01*
X129602210Y-103827942D02*
X129649829Y-103637466D01*
X129649829Y-103637466D02*
X129649829Y-103399371D01*
X129649829Y-103399371D02*
X129602210Y-103208895D01*
X129602210Y-103208895D02*
X129554591Y-103113657D01*
X129554591Y-103113657D02*
X129506972Y-103066038D01*
X129506972Y-103066038D02*
X129411734Y-103018419D01*
X128649829Y-104018419D02*
X128649829Y-103018419D01*
X128649829Y-103018419D02*
X128316496Y-103732704D01*
X128316496Y-103732704D02*
X127983163Y-103018419D01*
X127983163Y-103018419D02*
X127983163Y-104018419D01*
X127506972Y-104018419D02*
X127506972Y-103018419D01*
X127506972Y-103494609D02*
X126935544Y-103494609D01*
X126935544Y-104018419D02*
X126935544Y-103018419D01*
X126554591Y-103351752D02*
X126030782Y-103351752D01*
X126030782Y-103351752D02*
X126554591Y-104018419D01*
X126554591Y-104018419D02*
X126030782Y-104018419D01*
M02*
