%TF.GenerationSoftware,KiCad,Pcbnew,9.0.6*%
%TF.CreationDate,2026-09-09T15:10:20-07:00*%
%TF.ProjectId,hvawg,68766177-672e-46b6-9963-61645f706362,rev?*%
%TF.SameCoordinates,Original*%
%TF.FileFunction,Paste,Top*%
%TF.FilePolarity,Positive*%
%FSLAX46Y46*%
G04 Gerber Fmt 4.6, Leading zero omitted, Abs format (unit mm)*
G04 Created by KiCad (PCBNEW 9.0.6) date 2026-09-09 15:10:20*
%MOMM*%
%LPD*%
G01*
G04 APERTURE LIST*
G04 Aperture macros list*
%AMRoundRect*
0 Rectangle with rounded corners*
0 $1 Rounding radius*
0 $2 $3 $4 $5 $6 $7 $8 $9 X,Y pos of 4 corners*
0 Add a 4 corners polygon primitive as box body*
4,1,4,$2,$3,$4,$5,$6,$7,$8,$9,$2,$3,0*
0 Add four circle primitives for the rounded corners*
1,1,$1+$1,$2,$3*
1,1,$1+$1,$4,$5*
1,1,$1+$1,$6,$7*
1,1,$1+$1,$8,$9*
0 Add four rect primitives between the rounded corners*
20,1,$1+$1,$2,$3,$4,$5,0*
20,1,$1+$1,$4,$5,$6,$7,0*
20,1,$1+$1,$6,$7,$8,$9,0*
20,1,$1+$1,$8,$9,$2,$3,0*%
G04 Aperture macros list end*
%ADD10RoundRect,0.150000X0.150000X-0.825000X0.150000X0.825000X-0.150000X0.825000X-0.150000X-0.825000X0*%
%ADD11RoundRect,0.250000X0.325000X0.650000X-0.325000X0.650000X-0.325000X-0.650000X0.325000X-0.650000X0*%
%ADD12RoundRect,0.150000X0.512500X0.150000X-0.512500X0.150000X-0.512500X-0.150000X0.512500X-0.150000X0*%
%ADD13RoundRect,0.250000X-1.075000X0.362500X-1.075000X-0.362500X1.075000X-0.362500X1.075000X0.362500X0*%
%ADD14RoundRect,0.135000X0.185000X-0.135000X0.185000X0.135000X-0.185000X0.135000X-0.185000X-0.135000X0*%
%ADD15RoundRect,0.135000X-0.185000X0.135000X-0.185000X-0.135000X0.185000X-0.135000X0.185000X0.135000X0*%
%ADD16RoundRect,0.218750X-0.256250X0.218750X-0.256250X-0.218750X0.256250X-0.218750X0.256250X0.218750X0*%
%ADD17RoundRect,0.250000X-0.325000X-0.650000X0.325000X-0.650000X0.325000X0.650000X-0.325000X0.650000X0*%
%ADD18RoundRect,0.250000X-0.650000X0.325000X-0.650000X-0.325000X0.650000X-0.325000X0.650000X0.325000X0*%
%ADD19RoundRect,0.225000X0.250000X-0.225000X0.250000X0.225000X-0.250000X0.225000X-0.250000X-0.225000X0*%
%ADD20RoundRect,0.250000X-0.350000X0.850000X-0.350000X-0.850000X0.350000X-0.850000X0.350000X0.850000X0*%
%ADD21RoundRect,0.250000X-1.125000X1.275000X-1.125000X-1.275000X1.125000X-1.275000X1.125000X1.275000X0*%
%ADD22RoundRect,0.225000X0.225000X0.250000X-0.225000X0.250000X-0.225000X-0.250000X0.225000X-0.250000X0*%
%ADD23RoundRect,0.250000X0.650000X-0.325000X0.650000X0.325000X-0.650000X0.325000X-0.650000X-0.325000X0*%
%ADD24RoundRect,0.135000X0.135000X0.185000X-0.135000X0.185000X-0.135000X-0.185000X0.135000X-0.185000X0*%
%ADD25RoundRect,0.250000X-0.625000X0.312500X-0.625000X-0.312500X0.625000X-0.312500X0.625000X0.312500X0*%
%ADD26RoundRect,0.250000X0.625000X-0.312500X0.625000X0.312500X-0.625000X0.312500X-0.625000X-0.312500X0*%
%ADD27RoundRect,0.225000X-0.225000X-0.250000X0.225000X-0.250000X0.225000X0.250000X-0.225000X0.250000X0*%
%ADD28RoundRect,0.150000X-0.512500X-0.150000X0.512500X-0.150000X0.512500X0.150000X-0.512500X0.150000X0*%
%ADD29RoundRect,0.225000X-0.250000X0.225000X-0.250000X-0.225000X0.250000X-0.225000X0.250000X0.225000X0*%
%ADD30RoundRect,0.150000X-0.825000X-0.150000X0.825000X-0.150000X0.825000X0.150000X-0.825000X0.150000X0*%
%ADD31RoundRect,0.250000X-1.000000X1.950000X-1.000000X-1.950000X1.000000X-1.950000X1.000000X1.950000X0*%
%ADD32RoundRect,0.150000X-0.150000X0.825000X-0.150000X-0.825000X0.150000X-0.825000X0.150000X0.825000X0*%
G04 APERTURE END LIST*
D10*
%TO.C,U3*%
X91154000Y-98920000D03*
X92424000Y-98920000D03*
X93694000Y-98920000D03*
X94964000Y-98920000D03*
X96234000Y-98920000D03*
X97504000Y-98920000D03*
X98774000Y-98920000D03*
X100044000Y-98920000D03*
X100044000Y-93970000D03*
X98774000Y-93970000D03*
X97504000Y-93970000D03*
X96234000Y-93970000D03*
X94964000Y-93970000D03*
X93694000Y-93970000D03*
X92424000Y-93970000D03*
X91154000Y-93970000D03*
%TD*%
D11*
%TO.C,C3*%
X88006000Y-91105000D03*
X85056000Y-91105000D03*
%TD*%
D12*
%TO.C,U6*%
X166174500Y-107346000D03*
X166174500Y-106396000D03*
X166174500Y-105446000D03*
X163899500Y-105446000D03*
X163899500Y-107346000D03*
%TD*%
D13*
%TO.C,R22*%
X212679000Y-107646500D03*
X212679000Y-112271500D03*
%TD*%
D14*
%TO.C,R10*%
X114833000Y-94303000D03*
X114833000Y-93283000D03*
%TD*%
D15*
%TO.C,R1*%
X134420000Y-100389000D03*
X134420000Y-101409000D03*
%TD*%
D16*
%TO.C,D1*%
X134420000Y-102961500D03*
X134420000Y-104536500D03*
%TD*%
D17*
%TO.C,C13*%
X120580000Y-92817000D03*
X123530000Y-92817000D03*
%TD*%
D18*
%TO.C,C22*%
X160954000Y-111453000D03*
X160954000Y-114403000D03*
%TD*%
D14*
%TO.C,R2*%
X136960000Y-101409000D03*
X136960000Y-100389000D03*
%TD*%
D19*
%TO.C,C25*%
X210327000Y-102438000D03*
X210327000Y-100888000D03*
%TD*%
D20*
%TO.C,U1*%
X96423000Y-107246000D03*
D21*
X95668000Y-111871000D03*
X92618000Y-111871000D03*
X95668000Y-115221000D03*
X92618000Y-115221000D03*
D20*
X91863000Y-107246000D03*
%TD*%
D22*
%TO.C,C6*%
X88902000Y-98365000D03*
X87352000Y-98365000D03*
%TD*%
D10*
%TO.C,U2*%
X91154000Y-90870000D03*
X92424000Y-90870000D03*
X93694000Y-90870000D03*
X94964000Y-90870000D03*
X96234000Y-90870000D03*
X97504000Y-90870000D03*
X98774000Y-90870000D03*
X100044000Y-90870000D03*
X100044000Y-85920000D03*
X98774000Y-85920000D03*
X97504000Y-85920000D03*
X96234000Y-85920000D03*
X94964000Y-85920000D03*
X93694000Y-85920000D03*
X92424000Y-85920000D03*
X91154000Y-85920000D03*
%TD*%
D22*
%TO.C,C10*%
X121680000Y-106363000D03*
X120130000Y-106363000D03*
%TD*%
D23*
%TO.C,C12*%
X117303000Y-109160000D03*
X117303000Y-106210000D03*
%TD*%
D24*
%TO.C,R6*%
X87811000Y-95381000D03*
X86791000Y-95381000D03*
%TD*%
D23*
%TO.C,C24*%
X206599000Y-103138000D03*
X206599000Y-100188000D03*
%TD*%
D15*
%TO.C,R17*%
X174385000Y-113291000D03*
X174385000Y-114311000D03*
%TD*%
D25*
%TO.C,R18*%
X217739000Y-101750500D03*
X217739000Y-104675500D03*
%TD*%
D15*
%TO.C,R11*%
X124469000Y-101155000D03*
X124469000Y-102175000D03*
%TD*%
D26*
%TO.C,R15*%
X202707000Y-103125500D03*
X202707000Y-100200500D03*
%TD*%
D27*
%TO.C,C8*%
X94416000Y-101121000D03*
X95966000Y-101121000D03*
%TD*%
D28*
%TO.C,U7*%
X212667500Y-102823000D03*
X212667500Y-103773000D03*
X212667500Y-104723000D03*
X214942500Y-104723000D03*
X214942500Y-102823000D03*
%TD*%
D14*
%TO.C,R8*%
X114861000Y-98775000D03*
X114861000Y-97755000D03*
%TD*%
%TO.C,R3*%
X143236000Y-104560000D03*
X143236000Y-103540000D03*
%TD*%
D29*
%TO.C,C14*%
X162525000Y-87504000D03*
X162525000Y-89054000D03*
%TD*%
D18*
%TO.C,C2*%
X88997000Y-106792000D03*
X88997000Y-109742000D03*
%TD*%
%TO.C,C15*%
X152871000Y-91480000D03*
X152871000Y-94430000D03*
%TD*%
D11*
%TO.C,C23*%
X167737000Y-101200000D03*
X164787000Y-101200000D03*
%TD*%
%TO.C,C31*%
X167162000Y-95241000D03*
X164212000Y-95241000D03*
%TD*%
D27*
%TO.C,C11*%
X120902000Y-96457000D03*
X122452000Y-96457000D03*
%TD*%
D13*
%TO.C,R12*%
X157419000Y-82316500D03*
X157419000Y-86941500D03*
%TD*%
D30*
%TO.C,U8*%
X165488000Y-87020000D03*
X165488000Y-88290000D03*
X165488000Y-89560000D03*
X165488000Y-90830000D03*
X170438000Y-90830000D03*
X170438000Y-89560000D03*
X170438000Y-88290000D03*
X170438000Y-87020000D03*
%TD*%
D18*
%TO.C,C1*%
X99311000Y-107484000D03*
X99311000Y-110434000D03*
%TD*%
D22*
%TO.C,C4*%
X89378000Y-86283000D03*
X87828000Y-86283000D03*
%TD*%
D11*
%TO.C,C9*%
X100554000Y-103329000D03*
X97604000Y-103329000D03*
%TD*%
D31*
%TO.C,C27*%
X204120000Y-108147000D03*
X204120000Y-115547000D03*
%TD*%
D16*
%TO.C,D3*%
X144580000Y-102961500D03*
X144580000Y-104536500D03*
%TD*%
D22*
%TO.C,C28*%
X172176000Y-84387000D03*
X170626000Y-84387000D03*
%TD*%
D14*
%TO.C,R4*%
X88551000Y-104747000D03*
X88551000Y-103727000D03*
%TD*%
D23*
%TO.C,C5*%
X85035000Y-101366000D03*
X85035000Y-98416000D03*
%TD*%
%TO.C,C30*%
X174593000Y-85508000D03*
X174593000Y-82558000D03*
%TD*%
D16*
%TO.C,D2*%
X136960000Y-102961500D03*
X136960000Y-104536500D03*
%TD*%
D25*
%TO.C,R24*%
X197282000Y-84761500D03*
X197282000Y-87686500D03*
%TD*%
D32*
%TO.C,U4*%
X122648000Y-98846000D03*
X121378000Y-98846000D03*
X120108000Y-98846000D03*
X118838000Y-98846000D03*
X118838000Y-103796000D03*
X120108000Y-103796000D03*
X121378000Y-103796000D03*
X122648000Y-103796000D03*
%TD*%
D14*
%TO.C,R9*%
X114831000Y-96621000D03*
X114831000Y-95601000D03*
%TD*%
D22*
%TO.C,C29*%
X166008000Y-93033000D03*
X164458000Y-93033000D03*
%TD*%
%TO.C,C21*%
X167247000Y-103368000D03*
X165697000Y-103368000D03*
%TD*%
D29*
%TO.C,C20*%
X163924000Y-110323000D03*
X163924000Y-111873000D03*
%TD*%
D31*
%TO.C,C26*%
X204120000Y-82537000D03*
X204120000Y-89937000D03*
%TD*%
D14*
%TO.C,R7*%
X114843000Y-100839000D03*
X114843000Y-99819000D03*
%TD*%
D22*
%TO.C,C7*%
X99076000Y-101121000D03*
X97526000Y-101121000D03*
%TD*%
D25*
%TO.C,R25*%
X197282000Y-110780500D03*
X197282000Y-113705500D03*
%TD*%
D14*
%TO.C,R5*%
X88551000Y-102585000D03*
X88551000Y-101565000D03*
%TD*%
M02*
