%TF.GenerationSoftware,KiCad,Pcbnew,9.0.6*%
%TF.CreationDate,2026-09-24T19:51:50-07:00*%
%TF.ProjectId,hvawg,68766177-672e-46b6-9963-61645f706362,rev?*%
%TF.SameCoordinates,Original*%
%TF.FileFunction,Copper,L2,Bot*%
%TF.FilePolarity,Positive*%
%FSLAX46Y46*%
G04 Gerber Fmt 4.6, Leading zero omitted, Abs format (unit mm)*
G04 Created by KiCad (PCBNEW 9.0.6) date 2026-09-24 19:51:50*
%MOMM*%
%LPD*%
G01*
G04 APERTURE LIST*
G04 Aperture macros list*
%AMRoundRect*
0 Rectangle with rounded corners*
0 $1 Rounding radius*
0 $2 $3 $4 $5 $6 $7 $8 $9 X,Y pos of 4 corners*
0 Add a 4 corners polygon primitive as box body*
4,1,4,$2,$3,$4,$5,$6,$7,$8,$9,$2,$3,0*
0 Add four circle primitives for the rounded corners*
1,1,$1+$1,$2,$3*
1,1,$1+$1,$4,$5*
1,1,$1+$1,$6,$7*
1,1,$1+$1,$8,$9*
0 Add four rect primitives between the rounded corners*
20,1,$1+$1,$2,$3,$4,$5,0*
20,1,$1+$1,$4,$5,$6,$7,0*
20,1,$1+$1,$6,$7,$8,$9,0*
20,1,$1+$1,$8,$9,$2,$3,0*%
G04 Aperture macros list end*
%TA.AperFunction,ComponentPad*%
%ADD10O,4.200000X2.600000*%
%TD*%
%TA.AperFunction,ComponentPad*%
%ADD11C,2.800000*%
%TD*%
%TA.AperFunction,ComponentPad*%
%ADD12C,7.000000*%
%TD*%
%TA.AperFunction,ComponentPad*%
%ADD13C,0.600000*%
%TD*%
%TA.AperFunction,ComponentPad*%
%ADD14R,1.700000X1.700000*%
%TD*%
%TA.AperFunction,ComponentPad*%
%ADD15O,1.700000X1.700000*%
%TD*%
%TA.AperFunction,ComponentPad*%
%ADD16C,1.440000*%
%TD*%
%TA.AperFunction,ComponentPad*%
%ADD17C,1.600000*%
%TD*%
%TA.AperFunction,ComponentPad*%
%ADD18O,1.600000X1.600000*%
%TD*%
%TA.AperFunction,ComponentPad*%
%ADD19C,6.400000*%
%TD*%
%TA.AperFunction,ComponentPad*%
%ADD20C,1.700000*%
%TD*%
%TA.AperFunction,ComponentPad*%
%ADD21R,2.500000X1.550000*%
%TD*%
%TA.AperFunction,ComponentPad*%
%ADD22O,2.500000X1.550000*%
%TD*%
%TA.AperFunction,ComponentPad*%
%ADD23RoundRect,0.250000X0.650000X1.550000X-0.650000X1.550000X-0.650000X-1.550000X0.650000X-1.550000X0*%
%TD*%
%TA.AperFunction,ComponentPad*%
%ADD24O,1.800000X3.600000*%
%TD*%
%TA.AperFunction,ViaPad*%
%ADD25C,0.600000*%
%TD*%
%TA.AperFunction,Conductor*%
%ADD26C,0.500000*%
%TD*%
%TA.AperFunction,Conductor*%
%ADD27C,1.000000*%
%TD*%
%TA.AperFunction,Conductor*%
%ADD28C,0.300000*%
%TD*%
G04 APERTURE END LIST*
D10*
%TO.P,R21,1*%
%TO.N,Net-(Q1-D)*%
X213800000Y-101460000D03*
%TO.P,R21,2*%
%TO.N,+100V*%
X213800000Y-106540000D03*
%TD*%
D11*
%TO.P,TP4,1,1*%
%TO.N,levelshift_out*%
X177427000Y-109529000D03*
%TD*%
D12*
%TO.P,HS1,1*%
%TO.N,GND*%
X232500000Y-104000000D03*
D13*
%TO.P,HS1,2*%
X253000000Y-98000000D03*
X247500000Y-98000000D03*
X237453000Y-98000000D03*
X227500000Y-98000000D03*
X222000000Y-98000000D03*
X253000000Y-104000000D03*
D12*
X242406000Y-104000000D03*
D13*
X222000000Y-104000000D03*
X253000000Y-110000000D03*
X247500000Y-110000000D03*
X237453000Y-110000000D03*
X227500000Y-110000000D03*
X222000000Y-110000000D03*
%TD*%
D14*
%TO.P,J5,1,Pin_1*%
%TO.N,+100V*%
X140770000Y-79630000D03*
D15*
%TO.P,J5,2,Pin_2*%
%TO.N,GND*%
X143310000Y-79630000D03*
%TO.P,J5,3,Pin_3*%
%TO.N,-100V*%
X145850000Y-79630000D03*
%TO.P,J5,4,Pin_4*%
%TO.N,-100+12V*%
X148390000Y-79630000D03*
%TD*%
D11*
%TO.P,TP8,1*%
%TO.N,Net-(D5-K)*%
X151500000Y-111000000D03*
%TD*%
D16*
%TO.P,RV1,1,1*%
%TO.N,Net-(R26-Pad2)*%
X156245000Y-109915000D03*
%TO.P,RV1,2,2*%
%TO.N,Net-(D5-K)*%
X158785000Y-112455000D03*
%TO.P,RV1,3,3*%
X156245000Y-114995000D03*
%TD*%
D17*
%TO.P,R23,1*%
%TO.N,-100V*%
X269525000Y-115461000D03*
D18*
%TO.P,R23,2*%
%TO.N,Net-(D4-A)*%
X272065000Y-115461000D03*
%TD*%
D14*
%TO.P,J4,1,Pin_1*%
%TO.N,GND*%
X129340000Y-115570000D03*
D15*
%TO.P,J4,2,Pin_2*%
X131880000Y-115570000D03*
%TO.P,J4,3,Pin_3*%
%TO.N,+12V*%
X134420000Y-115570000D03*
%TO.P,J4,4,Pin_4*%
%TO.N,-12V*%
X136960000Y-115570000D03*
%TD*%
D14*
%TO.P,JP10,1,A*%
%TO.N,output_post*%
X189030000Y-91764000D03*
D15*
%TO.P,JP10,2,B*%
%TO.N,Net-(J7-Pin_5)*%
X189030000Y-94304000D03*
%TD*%
D14*
%TO.P,J2,1,Pin_1*%
%TO.N,GND*%
X103940000Y-115570000D03*
D15*
%TO.P,J2,2,Pin_2*%
%TO.N,serial_out*%
X106480000Y-115570000D03*
%TO.P,J2,3,Pin_3*%
%TO.N,shift_clock*%
X109020000Y-115570000D03*
%TO.P,J2,4,Pin_4*%
%TO.N,store_clock*%
X111560000Y-115570000D03*
%TD*%
D19*
%TO.P,H4,1*%
%TO.N,N/C*%
X278000000Y-122000000D03*
%TD*%
D14*
%TO.P,JP9,1,A*%
%TO.N,output_post*%
X185220000Y-91764000D03*
D15*
%TO.P,JP9,2,B*%
%TO.N,Net-(J7-Pin_3)*%
X185220000Y-94304000D03*
%TD*%
D19*
%TO.P,H1,1*%
%TO.N,N/C*%
X81000000Y-73200000D03*
%TD*%
D14*
%TO.P,J8,1*%
%TO.N,Net-(J7-Pin_1)*%
X182680000Y-115570000D03*
D20*
%TO.P,J8,2*%
%TO.N,GND*%
X185220000Y-115570000D03*
%TO.P,J8,3*%
%TO.N,Net-(J7-Pin_3)*%
X187760000Y-115570000D03*
%TO.P,J8,4*%
%TO.N,GND*%
X190300000Y-115570000D03*
%TO.P,J8,5*%
%TO.N,Net-(J7-Pin_5)*%
X192840000Y-115570000D03*
%TO.P,J8,6*%
%TO.N,GND*%
X195380000Y-115570000D03*
%TO.P,J8,7*%
%TO.N,Net-(J7-Pin_7)*%
X197920000Y-115570000D03*
%TD*%
D14*
%TO.P,JP11,1,A*%
%TO.N,output_post*%
X192840000Y-91764000D03*
D15*
%TO.P,JP11,2,B*%
%TO.N,Net-(J7-Pin_7)*%
X192840000Y-94304000D03*
%TD*%
D14*
%TO.P,JP4,1,A*%
%TO.N,levelshift_out*%
X175785000Y-115435000D03*
D15*
%TO.P,JP4,2,B*%
%TO.N,Net-(JP4-B)*%
X178325000Y-115435000D03*
%TD*%
D11*
%TO.P,TP5,1,1*%
%TO.N,Net-(Q1-D)*%
X201685000Y-90790000D03*
%TD*%
D21*
%TO.P,Q1,1*%
%TO.N,Net-(D4-K)*%
X280255000Y-102695000D03*
D22*
%TO.P,Q1,2*%
%TO.N,Net-(Q1-D)*%
X280255000Y-105235000D03*
%TO.P,Q1,3*%
%TO.N,Net-(D4-A)*%
X280255000Y-107775000D03*
%TD*%
D17*
%TO.P,R19,1*%
%TO.N,levelshift_out*%
X178779000Y-120251000D03*
D18*
%TO.P,R19,2*%
%TO.N,-100V*%
X178779000Y-122791000D03*
%TD*%
D16*
%TO.P,RV2,1,1*%
%TO.N,Net-(C14-Pad1)*%
X156245000Y-94415000D03*
%TO.P,RV2,2,2*%
%TO.N,Net-(R27-Pad1)*%
X158785000Y-96955000D03*
%TO.P,RV2,3,3*%
X156245000Y-99495000D03*
%TD*%
D14*
%TO.P,JP6,1,A*%
%TO.N,Net-(JP6-A)*%
X173905000Y-104627000D03*
D15*
%TO.P,JP6,2,B*%
%TO.N,monitor_out*%
X173905000Y-102087000D03*
%TD*%
D14*
%TO.P,JP8,1,A*%
%TO.N,output_post*%
X181350000Y-91764000D03*
D15*
%TO.P,JP8,2,B*%
%TO.N,Net-(J7-Pin_1)*%
X181350000Y-94304000D03*
%TD*%
D23*
%TO.P,J9,1*%
%TO.N,GND*%
X177770000Y-76500000D03*
D24*
%TO.P,J9,2*%
%TO.N,+12V*%
X174270000Y-76500000D03*
%TO.P,J9,3*%
%TO.N,-12V*%
X170770000Y-76500000D03*
%TO.P,J9,4*%
%TO.N,GND*%
X167270000Y-76500000D03*
%TO.P,J9,5*%
%TO.N,+100V*%
X163770000Y-76500000D03*
%TO.P,J9,6*%
%TO.N,GND*%
X160270000Y-76500000D03*
%TO.P,J9,7*%
%TO.N,-100V*%
X156770000Y-76500000D03*
%TO.P,J9,8*%
%TO.N,-100+12V*%
X153270000Y-76500000D03*
%TD*%
D14*
%TO.P,J6,1,Pin_1*%
%TO.N,+100V*%
X140770000Y-115570000D03*
D15*
%TO.P,J6,2,Pin_2*%
%TO.N,GND*%
X143310000Y-115570000D03*
%TO.P,J6,3,Pin_3*%
%TO.N,-100V*%
X145850000Y-115570000D03*
%TO.P,J6,4,Pin_4*%
%TO.N,-100+12V*%
X148390000Y-115570000D03*
%TD*%
D19*
%TO.P,H2,1*%
%TO.N,N/C*%
X81000000Y-122000000D03*
%TD*%
D14*
%TO.P,J3,1,Pin_1*%
%TO.N,GND*%
X129340000Y-79630000D03*
D15*
%TO.P,J3,2,Pin_2*%
X131880000Y-79630000D03*
%TO.P,J3,3,Pin_3*%
%TO.N,+12V*%
X134420000Y-79630000D03*
%TO.P,J3,4,Pin_4*%
%TO.N,-12V*%
X136960000Y-79630000D03*
%TD*%
D11*
%TO.P,TP1,1,1*%
%TO.N,Net-(JP1-B)*%
X83853000Y-109425000D03*
%TD*%
%TO.P,TP3,1,1*%
%TO.N,monitor_out*%
X176345000Y-92249000D03*
%TD*%
D21*
%TO.P,Q3,1*%
%TO.N,Net-(D5-A)*%
X169551000Y-116679000D03*
D22*
%TO.P,Q3,2*%
%TO.N,levelshift_out*%
X169551000Y-119219000D03*
%TO.P,Q3,3*%
%TO.N,Net-(D5-K)*%
X169551000Y-121759000D03*
%TD*%
D11*
%TO.P,TP6,1*%
%TO.N,output_post*%
X190300000Y-99300000D03*
%TD*%
D14*
%TO.P,JP3,1,A*%
%TO.N,dac_out*%
X125151000Y-111187000D03*
D15*
%TO.P,JP3,2,B*%
%TO.N,Net-(JP3-B)*%
X125151000Y-113727000D03*
%TD*%
D14*
%TO.P,J7,1*%
%TO.N,Net-(J7-Pin_1)*%
X182680000Y-79630000D03*
D15*
%TO.P,J7,2*%
%TO.N,GND*%
X185220000Y-79630000D03*
%TO.P,J7,3*%
%TO.N,Net-(J7-Pin_3)*%
X187760000Y-79630000D03*
%TO.P,J7,4*%
%TO.N,GND*%
X190300000Y-79630000D03*
%TO.P,J7,5*%
%TO.N,Net-(J7-Pin_5)*%
X192840000Y-79630000D03*
%TO.P,J7,6*%
%TO.N,GND*%
X195380000Y-79630000D03*
%TO.P,J7,7*%
%TO.N,Net-(J7-Pin_7)*%
X197920000Y-79630000D03*
%TD*%
D11*
%TO.P,TP2,1,1*%
%TO.N,dac_out*%
X120805000Y-113879000D03*
%TD*%
D19*
%TO.P,H3,1*%
%TO.N,N/C*%
X278000000Y-73200000D03*
%TD*%
D11*
%TO.P,TP7,1*%
%TO.N,Net-(D5-A)*%
X171000000Y-109500000D03*
%TD*%
D14*
%TO.P,J1,1,Pin_1*%
%TO.N,GND*%
X103940000Y-79630000D03*
D15*
%TO.P,J1,2,Pin_2*%
%TO.N,serial_in*%
X106480000Y-79630000D03*
%TO.P,J1,3,Pin_3*%
%TO.N,shift_clock*%
X109020000Y-79630000D03*
%TO.P,J1,4,Pin_4*%
%TO.N,store_clock*%
X111560000Y-79630000D03*
%TD*%
D25*
%TO.N,GND*%
X113600000Y-90283000D03*
X172300000Y-93830000D03*
X162600000Y-122403000D03*
X154900000Y-103900000D03*
X101400000Y-88226000D03*
X94143000Y-120600000D03*
X154200000Y-97430000D03*
X212000000Y-85900000D03*
X177200000Y-113000000D03*
X117303000Y-101900000D03*
X163400000Y-109800000D03*
X83400000Y-87105000D03*
X206300000Y-79137000D03*
X143310000Y-82400000D03*
X151800000Y-87725000D03*
X83300000Y-94416000D03*
X160946000Y-94500000D03*
X94964000Y-79400000D03*
X206300000Y-116147000D03*
X160270000Y-79900000D03*
X133150000Y-99622000D03*
X169300000Y-87387000D03*
X124900000Y-89817000D03*
%TO.N,+12V*%
X134420000Y-95800000D03*
X162500000Y-85200000D03*
X147200000Y-119453000D03*
%TO.N,Net-(JP1-B)*%
X89378000Y-85200000D03*
X98774000Y-85200000D03*
X103400000Y-92000000D03*
%TO.N,-12V*%
X164000000Y-94900000D03*
X102500000Y-88500000D03*
X102500000Y-99329000D03*
%TO.N,-100V*%
X267827000Y-104300000D03*
X149600000Y-103900000D03*
X145850000Y-103900000D03*
X267827000Y-111000000D03*
X274900000Y-106200000D03*
%TO.N,-100+12V*%
X258900000Y-100200000D03*
%TO.N,+100V*%
X180300000Y-87000000D03*
X201500000Y-71000000D03*
X209800000Y-71737000D03*
%TO.N,serial_in*%
X93694000Y-84000000D03*
%TO.N,serial_out*%
X104500000Y-86376000D03*
%TO.N,Net-(JP3-B)*%
X165000000Y-112450000D03*
%TO.N,dac_out*%
X121400000Y-99175000D03*
%TO.N,Net-(JP4-B)*%
X180325000Y-110500000D03*
%TO.N,Net-(JP6-A)*%
X162600000Y-106766000D03*
%TO.N,Net-(Q1-D)*%
X281255000Y-96280000D03*
%TO.N,Net-(U3-VREF-)*%
X87938000Y-90240000D03*
X92002000Y-93034000D03*
%TO.N,Net-(D4-K)*%
X274400000Y-102700000D03*
X275600000Y-96900000D03*
%TD*%
D26*
%TO.N,GND*%
X143310000Y-79630000D02*
X143310000Y-82400000D01*
D27*
X131880000Y-79630000D02*
X129340000Y-79630000D01*
D26*
X160270000Y-76500000D02*
X160270000Y-79900000D01*
D27*
X129340000Y-115570000D02*
X131880000Y-115570000D01*
D28*
%TO.N,+12V*%
X134420000Y-118453000D02*
X135420000Y-119453000D01*
X134420000Y-115570000D02*
X134420000Y-118453000D01*
X135920000Y-85200000D02*
X162500000Y-85200000D01*
X135420000Y-119453000D02*
X147200000Y-119453000D01*
X134420000Y-83700000D02*
X135920000Y-85200000D01*
X134420000Y-79630000D02*
X134420000Y-83700000D01*
X134420000Y-83700000D02*
X134420000Y-95800000D01*
%TO.N,Net-(JP1-B)*%
X102800000Y-85200000D02*
X103400000Y-85800000D01*
X103400000Y-85800000D02*
X103400000Y-92000000D01*
X89378000Y-85200000D02*
X98774000Y-85200000D01*
X98774000Y-85200000D02*
X102800000Y-85200000D01*
%TO.N,-12V*%
X136960000Y-81500000D02*
X139460000Y-84000000D01*
X170770000Y-80000000D02*
X164000000Y-86770000D01*
X136960000Y-79630000D02*
X136960000Y-81500000D01*
X170770000Y-76500000D02*
X170770000Y-80000000D01*
X164000000Y-86770000D02*
X164000000Y-94900000D01*
X102500000Y-99329000D02*
X102500000Y-88500000D01*
X164970000Y-84000000D02*
X170770000Y-78200000D01*
X139460000Y-84000000D02*
X164970000Y-84000000D01*
%TO.N,-100V*%
X267827000Y-108200000D02*
X267827000Y-111000000D01*
X274900000Y-106200000D02*
X269827000Y-106200000D01*
X267827000Y-104300000D02*
X267827000Y-108200000D01*
D27*
X145850000Y-72400000D02*
X145850000Y-79630000D01*
X156770000Y-72400000D02*
X155770000Y-71400000D01*
X149600000Y-103900000D02*
X145850000Y-103900000D01*
X156770000Y-76500000D02*
X156770000Y-72400000D01*
D28*
X269827000Y-106200000D02*
X267827000Y-108200000D01*
D27*
X146850000Y-71400000D02*
X145850000Y-72400000D01*
X155770000Y-71400000D02*
X146850000Y-71400000D01*
%TO.N,-100+12V*%
X258900000Y-124300000D02*
X258900000Y-100200000D01*
X148390000Y-115570000D02*
X149900000Y-117080000D01*
X150900000Y-125300000D02*
X257900000Y-125300000D01*
X149390000Y-72700000D02*
X148390000Y-73700000D01*
X153270000Y-73700000D02*
X152270000Y-72700000D01*
X257900000Y-125300000D02*
X258900000Y-124300000D01*
X149900000Y-117080000D02*
X149900000Y-124300000D01*
X149900000Y-124300000D02*
X150900000Y-125300000D01*
X153270000Y-76500000D02*
X153270000Y-73700000D01*
X148390000Y-73700000D02*
X148390000Y-79630000D01*
X152270000Y-72700000D02*
X149390000Y-72700000D01*
%TO.N,+100V*%
X169070000Y-69900000D02*
X179400000Y-69900000D01*
X163770000Y-75200000D02*
X158470000Y-69900000D01*
X200300000Y-69800000D02*
X201500000Y-71000000D01*
X158470000Y-69900000D02*
X141670000Y-69900000D01*
X209800000Y-104040000D02*
X212300000Y-106540000D01*
X179400000Y-69900000D02*
X180300000Y-70800000D01*
X140770000Y-70800000D02*
X140770000Y-79630000D01*
X163770000Y-75200000D02*
X169070000Y-69900000D01*
X179400000Y-69900000D02*
X181500000Y-69900000D01*
X181600000Y-69800000D02*
X200300000Y-69800000D01*
X209800000Y-71737000D02*
X209800000Y-104040000D01*
X141670000Y-69900000D02*
X140770000Y-70800000D01*
X180300000Y-70800000D02*
X180300000Y-87000000D01*
X181500000Y-69900000D02*
X181600000Y-69800000D01*
D28*
%TO.N,serial_in*%
X103080000Y-84000000D02*
X93694000Y-84000000D01*
X106480000Y-79630000D02*
X106480000Y-80600000D01*
X106480000Y-80600000D02*
X103080000Y-84000000D01*
%TO.N,shift_clock*%
X109020000Y-79630000D02*
X109020000Y-115570000D01*
%TO.N,store_clock*%
X111560000Y-79630000D02*
X111560000Y-115570000D01*
%TO.N,serial_out*%
X104500000Y-113590000D02*
X106480000Y-115570000D01*
X104500000Y-86376000D02*
X104500000Y-113590000D01*
%TO.N,Net-(J7-Pin_1)*%
X181350000Y-112000000D02*
X182680000Y-113330000D01*
X182331000Y-94304000D02*
X181350000Y-94304000D01*
X183285000Y-86605000D02*
X183285000Y-93350000D01*
X182680000Y-113330000D02*
X182680000Y-115570000D01*
X182680000Y-86000000D02*
X183285000Y-86605000D01*
X183285000Y-93350000D02*
X182331000Y-94304000D01*
X182680000Y-79630000D02*
X182680000Y-86000000D01*
X181350000Y-94304000D02*
X181350000Y-112000000D01*
%TO.N,Net-(J7-Pin_3)*%
X187125000Y-85635000D02*
X187125000Y-93350000D01*
X187760000Y-114540000D02*
X187760000Y-115570000D01*
X187760000Y-79630000D02*
X187760000Y-85000000D01*
X185220000Y-94304000D02*
X185220000Y-112000000D01*
X187760000Y-85000000D02*
X187125000Y-85635000D01*
X186171000Y-94304000D02*
X185220000Y-94304000D01*
X187125000Y-93350000D02*
X186171000Y-94304000D01*
X185220000Y-112000000D02*
X187760000Y-114540000D01*
%TO.N,Net-(JP3-B)*%
X133578000Y-105300000D02*
X158900000Y-105300000D01*
X125151000Y-113727000D02*
X133578000Y-105300000D01*
X158900000Y-105300000D02*
X161500000Y-107900000D01*
X161500000Y-107900000D02*
X163000000Y-107900000D01*
X165000000Y-109900000D02*
X165000000Y-112450000D01*
X163000000Y-107900000D02*
X165000000Y-109900000D01*
%TO.N,dac_out*%
X121400000Y-107436000D02*
X125151000Y-111187000D01*
X121400000Y-99175000D02*
X121400000Y-107436000D01*
%TO.N,Net-(JP4-B)*%
X180325000Y-113435000D02*
X180325000Y-110500000D01*
X178325000Y-115435000D02*
X180325000Y-113435000D01*
D27*
%TO.N,Net-(D5-K)*%
X158785000Y-112455000D02*
X168089000Y-121759000D01*
X168089000Y-121759000D02*
X169551000Y-121759000D01*
%TO.N,Net-(JP6-A)*%
X162600000Y-106766000D02*
X164739000Y-104627000D01*
X164739000Y-104627000D02*
X173905000Y-104627000D01*
%TO.N,Net-(Q1-D)*%
X278200000Y-96280000D02*
X277200000Y-97280000D01*
X277200000Y-103785000D02*
X278650000Y-105235000D01*
X278650000Y-105235000D02*
X280255000Y-105235000D01*
X281255000Y-96280000D02*
X278200000Y-96280000D01*
X277200000Y-97280000D02*
X277200000Y-103785000D01*
D28*
%TO.N,Net-(U3-VREF-)*%
X87938000Y-90240000D02*
X89208000Y-90240000D01*
X89208000Y-90240000D02*
X92002000Y-93034000D01*
%TO.N,Net-(D4-K)*%
X274400000Y-102700000D02*
X274400000Y-98100000D01*
X274400000Y-98100000D02*
X275600000Y-96900000D01*
%TO.N,Net-(J7-Pin_5)*%
X192840000Y-106840000D02*
X192840000Y-115570000D01*
X192840000Y-84000000D02*
X190935000Y-85905000D01*
X187700000Y-101700000D02*
X192840000Y-106840000D01*
X189030000Y-94304000D02*
X187700000Y-95634000D01*
X187700000Y-95634000D02*
X187700000Y-101700000D01*
X189981000Y-94304000D02*
X189030000Y-94304000D01*
X190935000Y-85905000D02*
X190935000Y-93350000D01*
X192840000Y-79630000D02*
X192840000Y-84000000D01*
X190935000Y-93350000D02*
X189981000Y-94304000D01*
%TO.N,Net-(J7-Pin_7)*%
X195400000Y-96864000D02*
X195400000Y-110000000D01*
X193846000Y-94304000D02*
X192840000Y-94304000D01*
X195400000Y-110000000D02*
X197920000Y-112520000D01*
X197920000Y-82000000D02*
X194800000Y-85120000D01*
X197920000Y-79630000D02*
X197920000Y-82000000D01*
X192840000Y-94304000D02*
X195400000Y-96864000D01*
X197920000Y-112520000D02*
X197920000Y-115570000D01*
X194800000Y-85120000D02*
X194800000Y-93350000D01*
X194800000Y-93350000D02*
X193846000Y-94304000D01*
%TD*%
%TA.AperFunction,Conductor*%
%TO.N,GND*%
G36*
X131414075Y-115377007D02*
G01*
X131380000Y-115504174D01*
X131380000Y-115635826D01*
X131414075Y-115762993D01*
X131446988Y-115820000D01*
X129773012Y-115820000D01*
X129805925Y-115762993D01*
X129840000Y-115635826D01*
X129840000Y-115504174D01*
X129805925Y-115377007D01*
X129773012Y-115320000D01*
X131446988Y-115320000D01*
X131414075Y-115377007D01*
G37*
%TD.AperFunction*%
%TA.AperFunction,Conductor*%
G36*
X131414075Y-79437007D02*
G01*
X131380000Y-79564174D01*
X131380000Y-79695826D01*
X131414075Y-79822993D01*
X131446988Y-79880000D01*
X129773012Y-79880000D01*
X129805925Y-79822993D01*
X129840000Y-79695826D01*
X129840000Y-79564174D01*
X129805925Y-79437007D01*
X129773012Y-79380000D01*
X131446988Y-79380000D01*
X131414075Y-79437007D01*
G37*
%TD.AperFunction*%
%TA.AperFunction,Conductor*%
G36*
X140722756Y-69219685D02*
G01*
X140768511Y-69272489D01*
X140778455Y-69341647D01*
X140749430Y-69405203D01*
X140743398Y-69411681D01*
X140132221Y-70022858D01*
X140132218Y-70022861D01*
X140062538Y-70092540D01*
X139992859Y-70162219D01*
X139883371Y-70326079D01*
X139883364Y-70326092D01*
X139807950Y-70508160D01*
X139807947Y-70508170D01*
X139769500Y-70701456D01*
X139769500Y-77688916D01*
X139749815Y-77755955D01*
X139697011Y-77801710D01*
X139679612Y-77808132D01*
X139546953Y-77846090D01*
X139546951Y-77846090D01*
X139546951Y-77846091D01*
X139366593Y-77940302D01*
X139366591Y-77940303D01*
X139366590Y-77940304D01*
X139208890Y-78068890D01*
X139080304Y-78226590D01*
X139080302Y-78226593D01*
X139064439Y-78256961D01*
X138986089Y-78406954D01*
X138966511Y-78475379D01*
X138930634Y-78600767D01*
X138930114Y-78602583D01*
X138930113Y-78602586D01*
X138919500Y-78721966D01*
X138919500Y-80538028D01*
X138919501Y-80538034D01*
X138930113Y-80657415D01*
X138986089Y-80853045D01*
X138986090Y-80853048D01*
X138986091Y-80853049D01*
X139080302Y-81033407D01*
X139080304Y-81033409D01*
X139208890Y-81191109D01*
X139226601Y-81205550D01*
X139366593Y-81319698D01*
X139546951Y-81413909D01*
X139742582Y-81469886D01*
X139861963Y-81480500D01*
X141678036Y-81480499D01*
X141797418Y-81469886D01*
X141993049Y-81413909D01*
X142173407Y-81319698D01*
X142331109Y-81191109D01*
X142459698Y-81033407D01*
X142535510Y-80888271D01*
X142583993Y-80837968D01*
X142651981Y-80821860D01*
X142701711Y-80835202D01*
X142791775Y-80881092D01*
X142791779Y-80881094D01*
X142993871Y-80946757D01*
X143060000Y-80957231D01*
X143060000Y-80063012D01*
X143117007Y-80095925D01*
X143244174Y-80130000D01*
X143375826Y-80130000D01*
X143502993Y-80095925D01*
X143560000Y-80063012D01*
X143560000Y-80957230D01*
X143626126Y-80946757D01*
X143626129Y-80946757D01*
X143828217Y-80881095D01*
X144017554Y-80784622D01*
X144167606Y-80675603D01*
X144233413Y-80652123D01*
X144301467Y-80667948D01*
X144338868Y-80700434D01*
X144455733Y-80852736D01*
X144455739Y-80852743D01*
X144627256Y-81024260D01*
X144627263Y-81024266D01*
X144640947Y-81034766D01*
X144819711Y-81171936D01*
X145029788Y-81293224D01*
X145253900Y-81386054D01*
X145488211Y-81448838D01*
X145668586Y-81472584D01*
X145728711Y-81480500D01*
X145728712Y-81480500D01*
X145971289Y-81480500D01*
X146019388Y-81474167D01*
X146211789Y-81448838D01*
X146446100Y-81386054D01*
X146670212Y-81293224D01*
X146880289Y-81171936D01*
X147044514Y-81045922D01*
X147109683Y-81020728D01*
X147178128Y-81034766D01*
X147195486Y-81045922D01*
X147359711Y-81171936D01*
X147569788Y-81293224D01*
X147793900Y-81386054D01*
X148028211Y-81448838D01*
X148208586Y-81472584D01*
X148268711Y-81480500D01*
X148268712Y-81480500D01*
X148511289Y-81480500D01*
X148559388Y-81474167D01*
X148751789Y-81448838D01*
X148986100Y-81386054D01*
X149210212Y-81293224D01*
X149420289Y-81171936D01*
X149612738Y-81024265D01*
X149784265Y-80852738D01*
X149931936Y-80660289D01*
X150053224Y-80450212D01*
X150146054Y-80226100D01*
X150208838Y-79991789D01*
X150240500Y-79751288D01*
X150240500Y-79508712D01*
X150208838Y-79268211D01*
X150146054Y-79033900D01*
X150053224Y-78809788D01*
X149931936Y-78599711D01*
X149836533Y-78475379D01*
X149784266Y-78407263D01*
X149784260Y-78407256D01*
X149612743Y-78235739D01*
X149600822Y-78226592D01*
X149562382Y-78197095D01*
X149439013Y-78102431D01*
X149397811Y-78046003D01*
X149390500Y-78004055D01*
X149390500Y-74165782D01*
X149410185Y-74098743D01*
X149426819Y-74078101D01*
X149768102Y-73736819D01*
X149829425Y-73703334D01*
X149855783Y-73700500D01*
X151804218Y-73700500D01*
X151871257Y-73720185D01*
X151891899Y-73736819D01*
X152089035Y-73933956D01*
X152122520Y-73995279D01*
X152117536Y-74064971D01*
X152076842Y-74120012D01*
X152014221Y-74168063D01*
X151838066Y-74344218D01*
X151838060Y-74344225D01*
X151686400Y-74541873D01*
X151561837Y-74757623D01*
X151561830Y-74757638D01*
X151466498Y-74987792D01*
X151402017Y-75228438D01*
X151369501Y-75475424D01*
X151369500Y-75475441D01*
X151369500Y-77524558D01*
X151369501Y-77524575D01*
X151402017Y-77771561D01*
X151466498Y-78012207D01*
X151561830Y-78242361D01*
X151561837Y-78242376D01*
X151686400Y-78458126D01*
X151838060Y-78655774D01*
X151838066Y-78655781D01*
X152014218Y-78831933D01*
X152014225Y-78831939D01*
X152211873Y-78983599D01*
X152427623Y-79108162D01*
X152427638Y-79108169D01*
X152526825Y-79149253D01*
X152657793Y-79203502D01*
X152898435Y-79267982D01*
X153145435Y-79300500D01*
X153145442Y-79300500D01*
X153394558Y-79300500D01*
X153394565Y-79300500D01*
X153641565Y-79267982D01*
X153882207Y-79203502D01*
X154112373Y-79108164D01*
X154328127Y-78983599D01*
X154525776Y-78831938D01*
X154701938Y-78655776D01*
X154853599Y-78458127D01*
X154912613Y-78355910D01*
X154963179Y-78307696D01*
X155031786Y-78294472D01*
X155096651Y-78320440D01*
X155127386Y-78355910D01*
X155149830Y-78394784D01*
X155186401Y-78458128D01*
X155338060Y-78655774D01*
X155338066Y-78655781D01*
X155514218Y-78831933D01*
X155514225Y-78831939D01*
X155711873Y-78983599D01*
X155927623Y-79108162D01*
X155927638Y-79108169D01*
X156026825Y-79149253D01*
X156157793Y-79203502D01*
X156398435Y-79267982D01*
X156645435Y-79300500D01*
X156645442Y-79300500D01*
X156894558Y-79300500D01*
X156894565Y-79300500D01*
X157141565Y-79267982D01*
X157382207Y-79203502D01*
X157612373Y-79108164D01*
X157828127Y-78983599D01*
X158025776Y-78831938D01*
X158201938Y-78655776D01*
X158353599Y-78458127D01*
X158478164Y-78242373D01*
X158573502Y-78012207D01*
X158637982Y-77771565D01*
X158650463Y-77676760D01*
X158678728Y-77612866D01*
X158737052Y-77574394D01*
X158806916Y-77573562D01*
X158866140Y-77610634D01*
X158895874Y-77673547D01*
X158904473Y-77727836D01*
X158972567Y-77937410D01*
X159072613Y-78133760D01*
X159202142Y-78312041D01*
X159357958Y-78467857D01*
X159536239Y-78597386D01*
X159732589Y-78697432D01*
X159942163Y-78765526D01*
X160019999Y-78777854D01*
X160020000Y-78777854D01*
X160020000Y-77048482D01*
X160038409Y-77059111D01*
X160191009Y-77100000D01*
X160348991Y-77100000D01*
X160501591Y-77059111D01*
X160520000Y-77048482D01*
X160520000Y-78777854D01*
X160597834Y-78765526D01*
X160597837Y-78765526D01*
X160807410Y-78697432D01*
X161003760Y-78597386D01*
X161182041Y-78467857D01*
X161337857Y-78312041D01*
X161467386Y-78133760D01*
X161567432Y-77937410D01*
X161635526Y-77727835D01*
X161644125Y-77673549D01*
X161674054Y-77610414D01*
X161733366Y-77573483D01*
X161803228Y-77574481D01*
X161861461Y-77613091D01*
X161889537Y-77676762D01*
X161902017Y-77771561D01*
X161966498Y-78012207D01*
X162061830Y-78242361D01*
X162061837Y-78242376D01*
X162186400Y-78458126D01*
X162338060Y-78655774D01*
X162338066Y-78655781D01*
X162514218Y-78831933D01*
X162514225Y-78831939D01*
X162711873Y-78983599D01*
X162927623Y-79108162D01*
X162927638Y-79108169D01*
X163026825Y-79149253D01*
X163157793Y-79203502D01*
X163398435Y-79267982D01*
X163645435Y-79300500D01*
X163645442Y-79300500D01*
X163894558Y-79300500D01*
X163894565Y-79300500D01*
X164141565Y-79267982D01*
X164382207Y-79203502D01*
X164612373Y-79108164D01*
X164828127Y-78983599D01*
X165025776Y-78831938D01*
X165201938Y-78655776D01*
X165353599Y-78458127D01*
X165478164Y-78242373D01*
X165573502Y-78012207D01*
X165637982Y-77771565D01*
X165650463Y-77676760D01*
X165678728Y-77612866D01*
X165737052Y-77574394D01*
X165806916Y-77573562D01*
X165866140Y-77610634D01*
X165895874Y-77673547D01*
X165904473Y-77727836D01*
X165972567Y-77937410D01*
X166072613Y-78133760D01*
X166202142Y-78312041D01*
X166357958Y-78467857D01*
X166536239Y-78597386D01*
X166732589Y-78697432D01*
X166942163Y-78765526D01*
X167019999Y-78777854D01*
X167020000Y-78777854D01*
X167020000Y-77048482D01*
X167038409Y-77059111D01*
X167191009Y-77100000D01*
X167348991Y-77100000D01*
X167501591Y-77059111D01*
X167520000Y-77048482D01*
X167520000Y-78777854D01*
X167597834Y-78765526D01*
X167597837Y-78765526D01*
X167807410Y-78697432D01*
X168003760Y-78597386D01*
X168182041Y-78467857D01*
X168337857Y-78312041D01*
X168467386Y-78133760D01*
X168567432Y-77937410D01*
X168635526Y-77727835D01*
X168670000Y-77510181D01*
X168670000Y-76750000D01*
X167818482Y-76750000D01*
X167829111Y-76731591D01*
X167870000Y-76578991D01*
X167870000Y-76421009D01*
X167829111Y-76268409D01*
X167818482Y-76250000D01*
X168670000Y-76250000D01*
X168670000Y-75489818D01*
X168635526Y-75272164D01*
X168567432Y-75062589D01*
X168467386Y-74866239D01*
X168337857Y-74687958D01*
X168182041Y-74532142D01*
X168003760Y-74402613D01*
X167807410Y-74302567D01*
X167597836Y-74234473D01*
X167520000Y-74222144D01*
X167520000Y-75951517D01*
X167501591Y-75940889D01*
X167348991Y-75900000D01*
X167191009Y-75900000D01*
X167038409Y-75940889D01*
X167020000Y-75951517D01*
X167020000Y-74222144D01*
X166942164Y-74234473D01*
X166942161Y-74234473D01*
X166732589Y-74302567D01*
X166536239Y-74402613D01*
X166357958Y-74532142D01*
X166202142Y-74687958D01*
X166072613Y-74866239D01*
X165972567Y-75062589D01*
X165904473Y-75272163D01*
X165895874Y-75326452D01*
X165865943Y-75389586D01*
X165806631Y-75426516D01*
X165736769Y-75425517D01*
X165678537Y-75386907D01*
X165650463Y-75323238D01*
X165637982Y-75228435D01*
X165573502Y-74987793D01*
X165553549Y-74939623D01*
X165546080Y-74870153D01*
X165577355Y-74807674D01*
X165580400Y-74804518D01*
X169448101Y-70936819D01*
X169509424Y-70903334D01*
X169535782Y-70900500D01*
X178934218Y-70900500D01*
X179001257Y-70920185D01*
X179021899Y-70936819D01*
X179263181Y-71178101D01*
X179296666Y-71239424D01*
X179299500Y-71265782D01*
X179299500Y-74510015D01*
X179279815Y-74577054D01*
X179227011Y-74622809D01*
X179157853Y-74632753D01*
X179094297Y-74603728D01*
X179069962Y-74575112D01*
X179012319Y-74481659D01*
X179012316Y-74481655D01*
X178888345Y-74357684D01*
X178739124Y-74265643D01*
X178739119Y-74265641D01*
X178572697Y-74210494D01*
X178572690Y-74210493D01*
X178469986Y-74200000D01*
X178020000Y-74200000D01*
X178020000Y-75951517D01*
X178001591Y-75940889D01*
X177848991Y-75900000D01*
X177691009Y-75900000D01*
X177538409Y-75940889D01*
X177520000Y-75951517D01*
X177520000Y-74200000D01*
X177070028Y-74200000D01*
X177070012Y-74200001D01*
X176967302Y-74210494D01*
X176800880Y-74265641D01*
X176800875Y-74265643D01*
X176651654Y-74357684D01*
X176527684Y-74481654D01*
X176435643Y-74630875D01*
X176435641Y-74630880D01*
X176380494Y-74797302D01*
X176380493Y-74797309D01*
X176370000Y-74900013D01*
X176370000Y-76250000D01*
X177221518Y-76250000D01*
X177210889Y-76268409D01*
X177170000Y-76421009D01*
X177170000Y-76578991D01*
X177210889Y-76731591D01*
X177221518Y-76750000D01*
X176370001Y-76750000D01*
X176370001Y-78099986D01*
X176380494Y-78202697D01*
X176435641Y-78369119D01*
X176435643Y-78369124D01*
X176527684Y-78518345D01*
X176651654Y-78642315D01*
X176800875Y-78734356D01*
X176800880Y-78734358D01*
X176967302Y-78789505D01*
X176967309Y-78789506D01*
X177070019Y-78799999D01*
X177519999Y-78799999D01*
X177520000Y-78799998D01*
X177520000Y-77048482D01*
X177538409Y-77059111D01*
X177691009Y-77100000D01*
X177848991Y-77100000D01*
X178001591Y-77059111D01*
X178020000Y-77048482D01*
X178020000Y-78799999D01*
X178469972Y-78799999D01*
X178469986Y-78799998D01*
X178572697Y-78789505D01*
X178739119Y-78734358D01*
X178739124Y-78734356D01*
X178888345Y-78642315D01*
X179012315Y-78518345D01*
X179069961Y-78424887D01*
X179121909Y-78378163D01*
X179190872Y-78366940D01*
X179254954Y-78394784D01*
X179293810Y-78452852D01*
X179299500Y-78489984D01*
X179299500Y-87098541D01*
X179299500Y-87098543D01*
X179299499Y-87098543D01*
X179337947Y-87291829D01*
X179337950Y-87291839D01*
X179414675Y-87477070D01*
X179422144Y-87546539D01*
X179390869Y-87609018D01*
X179387795Y-87612203D01*
X178000000Y-88999999D01*
X178000000Y-90918631D01*
X177980315Y-90985670D01*
X177927511Y-91031425D01*
X177858353Y-91041369D01*
X177794797Y-91012344D01*
X177779637Y-90996254D01*
X177779614Y-90996275D01*
X177779042Y-90995623D01*
X177777627Y-90994121D01*
X177776940Y-90993226D01*
X177776933Y-90993218D01*
X177600781Y-90817066D01*
X177600774Y-90817060D01*
X177403126Y-90665400D01*
X177187376Y-90540837D01*
X177187361Y-90540830D01*
X176957207Y-90445498D01*
X176716561Y-90381017D01*
X176469575Y-90348501D01*
X176469570Y-90348500D01*
X176469565Y-90348500D01*
X176220435Y-90348500D01*
X176220429Y-90348500D01*
X176220424Y-90348501D01*
X175973438Y-90381017D01*
X175732792Y-90445498D01*
X175502638Y-90540830D01*
X175502623Y-90540837D01*
X175286873Y-90665400D01*
X175089225Y-90817060D01*
X175089218Y-90817066D01*
X174913066Y-90993218D01*
X174913060Y-90993225D01*
X174761400Y-91190873D01*
X174636837Y-91406623D01*
X174636830Y-91406638D01*
X174541498Y-91636792D01*
X174477017Y-91877438D01*
X174444501Y-92124424D01*
X174444500Y-92124441D01*
X174444500Y-92373558D01*
X174444501Y-92373575D01*
X174449587Y-92412211D01*
X174477018Y-92620565D01*
X174488229Y-92662406D01*
X174541498Y-92861207D01*
X174636830Y-93091361D01*
X174636837Y-93091376D01*
X174761400Y-93307126D01*
X174913060Y-93504774D01*
X174913066Y-93504781D01*
X175089218Y-93680933D01*
X175089225Y-93680939D01*
X175286873Y-93832599D01*
X175502623Y-93957162D01*
X175502638Y-93957169D01*
X175601825Y-93998253D01*
X175732793Y-94052502D01*
X175973435Y-94116982D01*
X176220435Y-94149500D01*
X176220442Y-94149500D01*
X176469558Y-94149500D01*
X176469565Y-94149500D01*
X176716565Y-94116982D01*
X176957207Y-94052502D01*
X177187373Y-93957164D01*
X177403127Y-93832599D01*
X177600776Y-93680938D01*
X177776938Y-93504776D01*
X177777618Y-93503890D01*
X177777888Y-93503692D01*
X177779614Y-93501725D01*
X177780054Y-93502110D01*
X177834042Y-93462682D01*
X177903788Y-93458522D01*
X177964711Y-93492729D01*
X177997469Y-93554443D01*
X178000000Y-93579368D01*
X178000000Y-98000000D01*
X179963681Y-99963681D01*
X179997166Y-100025004D01*
X180000000Y-100051362D01*
X180000000Y-108913772D01*
X179980315Y-108980811D01*
X179927511Y-109026566D01*
X179858353Y-109036510D01*
X179794797Y-109007485D01*
X179757023Y-108948707D01*
X179755109Y-108941365D01*
X179748811Y-108913772D01*
X179737316Y-108863409D01*
X179648267Y-108608921D01*
X179531284Y-108366003D01*
X179387838Y-108137711D01*
X179219734Y-107926915D01*
X179029085Y-107736266D01*
X178818289Y-107568162D01*
X178589997Y-107424716D01*
X178589994Y-107424714D01*
X178347082Y-107307734D01*
X178092602Y-107218687D01*
X178092594Y-107218684D01*
X177864195Y-107166554D01*
X177829732Y-107158688D01*
X177829728Y-107158687D01*
X177829719Y-107158686D01*
X177561813Y-107128500D01*
X177561809Y-107128500D01*
X177292191Y-107128500D01*
X177292186Y-107128500D01*
X177024280Y-107158686D01*
X177024268Y-107158688D01*
X176761405Y-107218684D01*
X176761397Y-107218687D01*
X176506917Y-107307734D01*
X176264005Y-107424714D01*
X176035712Y-107568161D01*
X175824915Y-107736265D01*
X175634265Y-107926915D01*
X175466161Y-108137712D01*
X175322714Y-108366005D01*
X175205734Y-108608917D01*
X175116687Y-108863397D01*
X175116684Y-108863405D01*
X175056688Y-109126268D01*
X175056686Y-109126280D01*
X175026500Y-109394186D01*
X175026500Y-109663813D01*
X175056686Y-109931719D01*
X175056687Y-109931728D01*
X175056688Y-109931732D01*
X175071687Y-109997446D01*
X175116684Y-110194594D01*
X175116687Y-110194602D01*
X175205734Y-110449082D01*
X175322714Y-110691994D01*
X175322716Y-110691997D01*
X175466162Y-110920289D01*
X175566479Y-111046083D01*
X175613819Y-111105446D01*
X175634266Y-111131085D01*
X175824915Y-111321734D01*
X176035711Y-111489838D01*
X176264003Y-111633284D01*
X176506921Y-111750267D01*
X176650479Y-111800500D01*
X176761397Y-111839312D01*
X176761405Y-111839315D01*
X176761408Y-111839315D01*
X176761409Y-111839316D01*
X177024268Y-111899312D01*
X177292187Y-111929499D01*
X177292188Y-111929500D01*
X177292191Y-111929500D01*
X177561812Y-111929500D01*
X177561812Y-111929499D01*
X177829732Y-111899312D01*
X178092591Y-111839316D01*
X178347079Y-111750267D01*
X178589997Y-111633284D01*
X178818289Y-111489838D01*
X179029085Y-111321734D01*
X179219734Y-111131085D01*
X179387838Y-110920289D01*
X179409738Y-110885434D01*
X179435581Y-110862575D01*
X179461214Y-110839550D01*
X179461701Y-110839471D01*
X179462071Y-110839144D01*
X179496135Y-110833890D01*
X179530184Y-110828372D01*
X179530636Y-110828569D01*
X179531124Y-110828494D01*
X179562594Y-110842479D01*
X179594248Y-110856257D01*
X179594679Y-110856737D01*
X179594973Y-110856868D01*
X179617833Y-110882514D01*
X179653601Y-110936043D01*
X179674480Y-111002720D01*
X179674500Y-111004935D01*
X179674500Y-113114191D01*
X179654815Y-113181230D01*
X179638181Y-113201872D01*
X179149397Y-113690655D01*
X179088074Y-113724140D01*
X179018382Y-113719156D01*
X179014263Y-113717535D01*
X178921104Y-113678947D01*
X178686785Y-113616161D01*
X178446289Y-113584500D01*
X178446288Y-113584500D01*
X178203712Y-113584500D01*
X178203711Y-113584500D01*
X177963214Y-113616161D01*
X177728895Y-113678947D01*
X177504794Y-113771773D01*
X177504789Y-113771775D01*
X177412640Y-113824977D01*
X177344740Y-113841449D01*
X177278713Y-113818596D01*
X177272281Y-113813691D01*
X177188412Y-113745305D01*
X177188408Y-113745303D01*
X177188407Y-113745302D01*
X177008049Y-113651091D01*
X177008048Y-113651090D01*
X177008045Y-113651089D01*
X176890829Y-113617550D01*
X176812418Y-113595114D01*
X176812415Y-113595113D01*
X176812413Y-113595113D01*
X176746102Y-113589217D01*
X176693037Y-113584500D01*
X176693032Y-113584500D01*
X174876971Y-113584500D01*
X174876965Y-113584500D01*
X174876964Y-113584501D01*
X174865316Y-113585536D01*
X174757584Y-113595113D01*
X174561954Y-113651089D01*
X174543938Y-113660500D01*
X174381593Y-113745302D01*
X174381591Y-113745303D01*
X174381590Y-113745304D01*
X174223890Y-113873890D01*
X174098177Y-114028067D01*
X174095302Y-114031593D01*
X174057268Y-114104406D01*
X174001089Y-114211954D01*
X173945114Y-114407583D01*
X173945113Y-114407586D01*
X173934500Y-114526966D01*
X173934500Y-116343028D01*
X173934501Y-116343034D01*
X173945113Y-116462415D01*
X174001089Y-116658045D01*
X174001090Y-116658048D01*
X174001091Y-116658049D01*
X174095302Y-116838407D01*
X174095304Y-116838409D01*
X174223890Y-116996109D01*
X174283879Y-117045023D01*
X174381593Y-117124698D01*
X174561951Y-117218909D01*
X174757582Y-117274886D01*
X174876963Y-117285500D01*
X176693036Y-117285499D01*
X176812418Y-117274886D01*
X177008049Y-117218909D01*
X177188407Y-117124698D01*
X177272279Y-117056308D01*
X177336674Y-117029199D01*
X177405504Y-117041208D01*
X177412639Y-117045023D01*
X177504777Y-117098218D01*
X177504780Y-117098219D01*
X177504788Y-117098224D01*
X177728900Y-117191054D01*
X177963211Y-117253838D01*
X178143586Y-117277584D01*
X178203711Y-117285500D01*
X178203712Y-117285500D01*
X178446289Y-117285500D01*
X178494388Y-117279167D01*
X178686789Y-117253838D01*
X178921100Y-117191054D01*
X179145212Y-117098224D01*
X179355289Y-116976936D01*
X179547738Y-116829265D01*
X179719265Y-116657738D01*
X179777624Y-116581683D01*
X179834051Y-116540480D01*
X179903797Y-116536325D01*
X179964718Y-116570537D01*
X179997471Y-116632254D01*
X180000000Y-116657169D01*
X180000000Y-118666979D01*
X179980315Y-118734018D01*
X179927511Y-118779773D01*
X179858353Y-118789717D01*
X179800514Y-118765355D01*
X179781454Y-118750730D01*
X179781453Y-118750729D01*
X179781450Y-118750727D01*
X179664599Y-118683263D01*
X179577056Y-118632719D01*
X179577045Y-118632714D01*
X179358993Y-118542394D01*
X179131010Y-118481306D01*
X178897020Y-118450501D01*
X178897017Y-118450500D01*
X178897011Y-118450500D01*
X178660989Y-118450500D01*
X178660983Y-118450500D01*
X178660979Y-118450501D01*
X178426989Y-118481306D01*
X178199006Y-118542394D01*
X177980954Y-118632714D01*
X177980943Y-118632719D01*
X177776545Y-118750730D01*
X177589302Y-118894406D01*
X177589295Y-118894412D01*
X177422412Y-119061295D01*
X177422406Y-119061302D01*
X177278730Y-119248545D01*
X177160719Y-119452943D01*
X177160714Y-119452954D01*
X177070394Y-119671006D01*
X177009306Y-119898989D01*
X176978501Y-120132979D01*
X176978500Y-120132995D01*
X176978500Y-120369004D01*
X176978501Y-120369020D01*
X177009306Y-120603010D01*
X177070394Y-120830993D01*
X177160714Y-121049045D01*
X177160719Y-121049056D01*
X177231677Y-121171957D01*
X177278727Y-121253450D01*
X177278729Y-121253453D01*
X177278730Y-121253454D01*
X177424879Y-121443920D01*
X177423720Y-121444808D01*
X177450537Y-121502662D01*
X177440983Y-121571876D01*
X177424385Y-121597701D01*
X177424879Y-121598080D01*
X177278730Y-121788545D01*
X177160719Y-121992943D01*
X177160714Y-121992954D01*
X177070394Y-122211006D01*
X177009306Y-122438989D01*
X176978501Y-122672979D01*
X176978500Y-122672995D01*
X176978500Y-122909004D01*
X176978501Y-122909020D01*
X177009306Y-123143010D01*
X177070394Y-123370993D01*
X177160714Y-123589045D01*
X177160719Y-123589056D01*
X177231677Y-123711957D01*
X177278727Y-123793450D01*
X177278729Y-123793453D01*
X177278730Y-123793454D01*
X177422406Y-123980697D01*
X177422412Y-123980704D01*
X177529527Y-124087819D01*
X177563012Y-124149142D01*
X177558028Y-124218834D01*
X177516156Y-124274767D01*
X177450692Y-124299184D01*
X177441846Y-124299500D01*
X151365783Y-124299500D01*
X151298744Y-124279815D01*
X151278102Y-124263181D01*
X150936819Y-123921898D01*
X150903334Y-123860575D01*
X150900500Y-123834217D01*
X150900500Y-116981458D01*
X150900499Y-116981457D01*
X150881760Y-116887246D01*
X150862051Y-116788164D01*
X150808473Y-116658815D01*
X150808026Y-116657736D01*
X150786635Y-116606092D01*
X150786628Y-116606079D01*
X150677140Y-116442219D01*
X150625133Y-116390212D01*
X150537782Y-116302861D01*
X150537781Y-116302860D01*
X150247176Y-116012255D01*
X150213691Y-115950932D01*
X150211918Y-115908392D01*
X150240500Y-115691288D01*
X150240500Y-115448712D01*
X150208838Y-115208211D01*
X150146054Y-114973900D01*
X150140872Y-114961389D01*
X150132644Y-114941524D01*
X150132643Y-114941523D01*
X150115007Y-114898945D01*
X155024500Y-114898945D01*
X155024500Y-115091055D01*
X155031425Y-115134776D01*
X155054553Y-115280802D01*
X155113916Y-115463506D01*
X155172774Y-115579020D01*
X155201135Y-115634681D01*
X155314055Y-115790102D01*
X155449898Y-115925945D01*
X155605319Y-116038865D01*
X155666425Y-116070000D01*
X155776493Y-116126083D01*
X155867845Y-116155764D01*
X155959199Y-116185447D01*
X156148945Y-116215500D01*
X156148946Y-116215500D01*
X156341054Y-116215500D01*
X156341055Y-116215500D01*
X156530801Y-116185447D01*
X156713509Y-116126082D01*
X156884681Y-116038865D01*
X157040102Y-115925945D01*
X157175945Y-115790102D01*
X157288865Y-115634681D01*
X157376082Y-115463509D01*
X157435447Y-115280801D01*
X157465500Y-115091055D01*
X157465500Y-114898945D01*
X157435447Y-114709199D01*
X157381311Y-114542583D01*
X157376083Y-114526493D01*
X157351330Y-114477913D01*
X157288865Y-114355319D01*
X157175945Y-114199898D01*
X157040102Y-114064055D01*
X156884681Y-113951135D01*
X156713506Y-113863916D01*
X156530802Y-113804553D01*
X156414237Y-113786091D01*
X156341055Y-113774500D01*
X156148945Y-113774500D01*
X156115836Y-113779744D01*
X155959197Y-113804553D01*
X155776493Y-113863916D01*
X155605318Y-113951135D01*
X155531636Y-114004669D01*
X155449898Y-114064055D01*
X155449896Y-114064057D01*
X155449895Y-114064057D01*
X155314057Y-114199895D01*
X155314057Y-114199896D01*
X155314055Y-114199898D01*
X155275654Y-114252753D01*
X155201135Y-114355318D01*
X155113916Y-114526493D01*
X155054553Y-114709197D01*
X155046965Y-114757109D01*
X155024500Y-114898945D01*
X150115007Y-114898945D01*
X150053227Y-114749794D01*
X150053222Y-114749785D01*
X150043011Y-114732099D01*
X149931936Y-114539711D01*
X149869655Y-114458545D01*
X149784266Y-114347263D01*
X149784260Y-114347256D01*
X149612743Y-114175739D01*
X149612736Y-114175733D01*
X149420293Y-114028067D01*
X149420292Y-114028066D01*
X149420289Y-114028064D01*
X149210212Y-113906776D01*
X149210205Y-113906773D01*
X148986104Y-113813947D01*
X148751785Y-113751161D01*
X148511289Y-113719500D01*
X148511288Y-113719500D01*
X148268712Y-113719500D01*
X148268711Y-113719500D01*
X148028214Y-113751161D01*
X147793895Y-113813947D01*
X147569794Y-113906773D01*
X147569785Y-113906777D01*
X147359706Y-114028067D01*
X147195486Y-114154077D01*
X147130317Y-114179271D01*
X147061872Y-114165232D01*
X147044514Y-114154077D01*
X146880293Y-114028067D01*
X146880292Y-114028066D01*
X146880289Y-114028064D01*
X146670212Y-113906776D01*
X146670205Y-113906773D01*
X146446104Y-113813947D01*
X146211785Y-113751161D01*
X145971289Y-113719500D01*
X145971288Y-113719500D01*
X145728712Y-113719500D01*
X145728711Y-113719500D01*
X145488214Y-113751161D01*
X145253895Y-113813947D01*
X145029794Y-113906773D01*
X145029785Y-113906777D01*
X144819706Y-114028067D01*
X144627263Y-114175733D01*
X144627256Y-114175739D01*
X144455739Y-114347256D01*
X144455733Y-114347263D01*
X144338869Y-114499564D01*
X144282441Y-114540767D01*
X144212695Y-114544922D01*
X144167608Y-114524396D01*
X144017557Y-114415379D01*
X143828215Y-114318903D01*
X143626124Y-114253241D01*
X143560000Y-114242768D01*
X143560000Y-115136988D01*
X143502993Y-115104075D01*
X143375826Y-115070000D01*
X143244174Y-115070000D01*
X143117007Y-115104075D01*
X143060000Y-115136988D01*
X143060000Y-114242768D01*
X143059999Y-114242768D01*
X142993875Y-114253241D01*
X142791784Y-114318903D01*
X142701711Y-114364798D01*
X142633041Y-114377694D01*
X142568301Y-114351417D01*
X142535509Y-114311727D01*
X142459698Y-114166593D01*
X142376091Y-114064057D01*
X142331109Y-114008890D01*
X142205871Y-113906773D01*
X142173407Y-113880302D01*
X141993049Y-113786091D01*
X141993048Y-113786090D01*
X141993045Y-113786089D01*
X141875283Y-113752394D01*
X141797418Y-113730114D01*
X141797415Y-113730113D01*
X141797413Y-113730113D01*
X141730225Y-113724140D01*
X141678037Y-113719500D01*
X141678032Y-113719500D01*
X139861971Y-113719500D01*
X139861965Y-113719500D01*
X139861964Y-113719501D01*
X139850316Y-113720536D01*
X139742584Y-113730113D01*
X139546954Y-113786089D01*
X139511607Y-113804553D01*
X139366593Y-113880302D01*
X139366591Y-113880303D01*
X139366590Y-113880304D01*
X139208890Y-114008890D01*
X139080304Y-114166590D01*
X139080302Y-114166593D01*
X139039129Y-114245414D01*
X138986089Y-114346954D01*
X138948620Y-114477906D01*
X138930634Y-114540767D01*
X138930114Y-114542583D01*
X138930113Y-114542586D01*
X138919500Y-114661966D01*
X138919500Y-116478028D01*
X138919501Y-116478034D01*
X138930113Y-116597415D01*
X138986089Y-116793045D01*
X138986090Y-116793048D01*
X138986091Y-116793049D01*
X139080302Y-116973407D01*
X139098813Y-116996109D01*
X139208890Y-117131109D01*
X139282405Y-117191052D01*
X139366593Y-117259698D01*
X139546951Y-117353909D01*
X139742582Y-117409886D01*
X139861963Y-117420500D01*
X141678036Y-117420499D01*
X141797418Y-117409886D01*
X141993049Y-117353909D01*
X142173407Y-117259698D01*
X142331109Y-117131109D01*
X142459698Y-116973407D01*
X142535510Y-116828271D01*
X142583993Y-116777968D01*
X142651981Y-116761860D01*
X142701711Y-116775202D01*
X142791775Y-116821092D01*
X142791779Y-116821094D01*
X142993871Y-116886757D01*
X143060000Y-116897231D01*
X143060000Y-116003012D01*
X143117007Y-116035925D01*
X143244174Y-116070000D01*
X143375826Y-116070000D01*
X143502993Y-116035925D01*
X143560000Y-116003012D01*
X143560000Y-116897230D01*
X143626126Y-116886757D01*
X143626129Y-116886757D01*
X143828217Y-116821095D01*
X144017554Y-116724622D01*
X144167606Y-116615603D01*
X144233413Y-116592123D01*
X144301467Y-116607948D01*
X144338868Y-116640434D01*
X144352972Y-116658815D01*
X144452224Y-116788163D01*
X144455739Y-116792743D01*
X144627256Y-116964260D01*
X144627263Y-116964266D01*
X144655486Y-116985922D01*
X144819711Y-117111936D01*
X145029788Y-117233224D01*
X145253900Y-117326054D01*
X145488211Y-117388838D01*
X145668586Y-117412584D01*
X145728711Y-117420500D01*
X145728712Y-117420500D01*
X145971289Y-117420500D01*
X146019388Y-117414167D01*
X146211789Y-117388838D01*
X146446100Y-117326054D01*
X146670212Y-117233224D01*
X146880289Y-117111936D01*
X147044514Y-116985922D01*
X147109683Y-116960728D01*
X147178128Y-116974766D01*
X147195486Y-116985922D01*
X147359711Y-117111936D01*
X147569788Y-117233224D01*
X147793900Y-117326054D01*
X148028211Y-117388838D01*
X148208586Y-117412584D01*
X148268711Y-117420500D01*
X148268712Y-117420500D01*
X148511289Y-117420500D01*
X148543859Y-117416211D01*
X148728390Y-117391918D01*
X148732153Y-117392505D01*
X148735725Y-117391173D01*
X148766406Y-117397847D01*
X148797423Y-117402684D01*
X148801355Y-117405449D01*
X148803998Y-117406024D01*
X148832253Y-117427174D01*
X148863180Y-117458100D01*
X148896666Y-117519423D01*
X148899500Y-117545783D01*
X148899500Y-124398541D01*
X148899500Y-124398543D01*
X148899499Y-124398543D01*
X148937947Y-124591829D01*
X148937950Y-124591839D01*
X149013364Y-124773907D01*
X149013371Y-124773920D01*
X149122859Y-124937780D01*
X149122860Y-124937781D01*
X149122861Y-124937782D01*
X149262218Y-125077139D01*
X149262219Y-125077139D01*
X149269286Y-125084206D01*
X149269285Y-125084206D01*
X149269289Y-125084209D01*
X149973398Y-125788319D01*
X150006883Y-125849642D01*
X150001899Y-125919334D01*
X149960027Y-125975267D01*
X149894563Y-125999684D01*
X149885717Y-126000000D01*
X86124000Y-126000000D01*
X86056961Y-125980315D01*
X86011206Y-125927511D01*
X86000000Y-125876000D01*
X86000000Y-121000000D01*
X82000000Y-117000000D01*
X77124000Y-117000000D01*
X77056961Y-116980315D01*
X77011206Y-116927511D01*
X77000000Y-116876000D01*
X77000000Y-109300441D01*
X81952500Y-109300441D01*
X81952500Y-109549558D01*
X81952501Y-109549575D01*
X81985017Y-109796561D01*
X82049498Y-110037207D01*
X82144830Y-110267361D01*
X82144837Y-110267376D01*
X82269400Y-110483126D01*
X82421060Y-110680774D01*
X82421066Y-110680781D01*
X82597218Y-110856933D01*
X82597225Y-110856939D01*
X82794873Y-111008599D01*
X83010623Y-111133162D01*
X83010638Y-111133169D01*
X83089992Y-111166038D01*
X83240793Y-111228502D01*
X83481435Y-111292982D01*
X83728435Y-111325500D01*
X83728442Y-111325500D01*
X83977558Y-111325500D01*
X83977565Y-111325500D01*
X84224565Y-111292982D01*
X84465207Y-111228502D01*
X84695373Y-111133164D01*
X84911127Y-111008599D01*
X85108776Y-110856938D01*
X85284938Y-110680776D01*
X85436599Y-110483127D01*
X85561164Y-110267373D01*
X85656502Y-110037207D01*
X85720982Y-109796565D01*
X85753500Y-109549565D01*
X85753500Y-109300435D01*
X85720982Y-109053435D01*
X85656502Y-108812793D01*
X85592230Y-108657627D01*
X85561169Y-108582638D01*
X85561162Y-108582623D01*
X85436599Y-108366873D01*
X85284939Y-108169225D01*
X85284933Y-108169218D01*
X85108781Y-107993066D01*
X85108774Y-107993060D01*
X84911126Y-107841400D01*
X84695376Y-107716837D01*
X84695361Y-107716830D01*
X84465207Y-107621498D01*
X84383113Y-107599501D01*
X84224565Y-107557018D01*
X84224564Y-107557017D01*
X84224561Y-107557017D01*
X83977575Y-107524501D01*
X83977570Y-107524500D01*
X83977565Y-107524500D01*
X83728435Y-107524500D01*
X83728429Y-107524500D01*
X83728424Y-107524501D01*
X83481438Y-107557017D01*
X83240792Y-107621498D01*
X83010638Y-107716830D01*
X83010623Y-107716837D01*
X82794873Y-107841400D01*
X82597225Y-107993060D01*
X82597218Y-107993066D01*
X82421066Y-108169218D01*
X82421060Y-108169225D01*
X82269400Y-108366873D01*
X82144837Y-108582623D01*
X82144830Y-108582638D01*
X82049498Y-108812792D01*
X81985017Y-109053438D01*
X81952501Y-109300424D01*
X81952500Y-109300441D01*
X77000000Y-109300441D01*
X77000000Y-90161153D01*
X87137500Y-90161153D01*
X87137500Y-90318846D01*
X87168261Y-90473489D01*
X87168264Y-90473501D01*
X87228602Y-90619172D01*
X87228609Y-90619185D01*
X87316210Y-90750288D01*
X87316213Y-90750292D01*
X87427707Y-90861786D01*
X87427711Y-90861789D01*
X87558814Y-90949390D01*
X87558827Y-90949397D01*
X87704498Y-91009735D01*
X87704503Y-91009737D01*
X87859153Y-91040499D01*
X87859156Y-91040500D01*
X87859158Y-91040500D01*
X88016844Y-91040500D01*
X88016845Y-91040499D01*
X88171497Y-91009737D01*
X88317179Y-90949394D01*
X88374044Y-90911397D01*
X88440721Y-90890520D01*
X88442935Y-90890500D01*
X88887192Y-90890500D01*
X88954231Y-90910185D01*
X88974873Y-90926819D01*
X91184984Y-93136930D01*
X91218469Y-93198253D01*
X91218920Y-93200420D01*
X91232261Y-93267489D01*
X91232264Y-93267501D01*
X91292602Y-93413172D01*
X91292609Y-93413185D01*
X91380210Y-93544288D01*
X91380213Y-93544292D01*
X91491707Y-93655786D01*
X91491711Y-93655789D01*
X91622814Y-93743390D01*
X91622827Y-93743397D01*
X91699895Y-93775319D01*
X91768503Y-93803737D01*
X91913601Y-93832599D01*
X91923153Y-93834499D01*
X91923156Y-93834500D01*
X91923158Y-93834500D01*
X92080844Y-93834500D01*
X92080845Y-93834499D01*
X92235497Y-93803737D01*
X92381179Y-93743394D01*
X92512289Y-93655789D01*
X92623789Y-93544289D01*
X92711394Y-93413179D01*
X92771737Y-93267497D01*
X92802500Y-93112842D01*
X92802500Y-92955158D01*
X92802500Y-92955155D01*
X92802499Y-92955153D01*
X92771738Y-92800510D01*
X92771737Y-92800503D01*
X92758994Y-92769738D01*
X92711397Y-92654827D01*
X92711390Y-92654814D01*
X92623789Y-92523711D01*
X92623786Y-92523707D01*
X92512292Y-92412213D01*
X92512288Y-92412210D01*
X92381185Y-92324609D01*
X92381172Y-92324602D01*
X92235501Y-92264264D01*
X92235489Y-92264261D01*
X92168420Y-92250920D01*
X92106509Y-92218535D01*
X92104930Y-92216984D01*
X89622674Y-89734727D01*
X89622673Y-89734726D01*
X89622669Y-89734723D01*
X89516127Y-89663535D01*
X89397744Y-89614499D01*
X89397738Y-89614497D01*
X89272071Y-89589500D01*
X89272069Y-89589500D01*
X88442935Y-89589500D01*
X88375896Y-89569815D01*
X88374090Y-89568633D01*
X88317179Y-89530606D01*
X88317172Y-89530602D01*
X88171501Y-89470264D01*
X88171489Y-89470261D01*
X88016845Y-89439500D01*
X88016842Y-89439500D01*
X87859158Y-89439500D01*
X87859155Y-89439500D01*
X87704510Y-89470261D01*
X87704498Y-89470264D01*
X87558827Y-89530602D01*
X87558814Y-89530609D01*
X87427711Y-89618210D01*
X87427707Y-89618213D01*
X87316213Y-89729707D01*
X87316210Y-89729711D01*
X87228609Y-89860814D01*
X87228602Y-89860827D01*
X87168264Y-90006498D01*
X87168261Y-90006510D01*
X87137500Y-90161153D01*
X77000000Y-90161153D01*
X77000000Y-85121153D01*
X88577500Y-85121153D01*
X88577500Y-85278846D01*
X88608261Y-85433489D01*
X88608264Y-85433501D01*
X88668602Y-85579172D01*
X88668609Y-85579185D01*
X88756210Y-85710288D01*
X88756213Y-85710292D01*
X88867707Y-85821786D01*
X88867711Y-85821789D01*
X88998814Y-85909390D01*
X88998827Y-85909397D01*
X89144498Y-85969735D01*
X89144503Y-85969737D01*
X89280663Y-85996821D01*
X89299153Y-86000499D01*
X89299156Y-86000500D01*
X89299158Y-86000500D01*
X89456844Y-86000500D01*
X89456845Y-86000499D01*
X89611497Y-85969737D01*
X89757179Y-85909394D01*
X89814044Y-85871397D01*
X89880721Y-85850520D01*
X89882935Y-85850500D01*
X98269065Y-85850500D01*
X98336104Y-85870185D01*
X98337909Y-85871366D01*
X98394821Y-85909394D01*
X98394823Y-85909395D01*
X98394827Y-85909397D01*
X98540498Y-85969735D01*
X98540503Y-85969737D01*
X98676663Y-85996821D01*
X98695153Y-86000499D01*
X98695156Y-86000500D01*
X98695158Y-86000500D01*
X98852844Y-86000500D01*
X98852845Y-86000499D01*
X99007497Y-85969737D01*
X99153179Y-85909394D01*
X99210044Y-85871397D01*
X99276721Y-85850520D01*
X99278935Y-85850500D01*
X102479192Y-85850500D01*
X102508632Y-85859144D01*
X102538619Y-85865668D01*
X102543634Y-85869422D01*
X102546231Y-85870185D01*
X102566868Y-85886814D01*
X102713182Y-86033127D01*
X102746666Y-86094448D01*
X102749500Y-86120807D01*
X102749500Y-87582351D01*
X102729815Y-87649390D01*
X102677011Y-87695145D01*
X102607853Y-87705089D01*
X102601310Y-87703969D01*
X102578842Y-87699500D01*
X102421158Y-87699500D01*
X102421155Y-87699500D01*
X102266510Y-87730261D01*
X102266498Y-87730264D01*
X102120827Y-87790602D01*
X102120814Y-87790609D01*
X101989711Y-87878210D01*
X101989707Y-87878213D01*
X101878213Y-87989707D01*
X101878210Y-87989711D01*
X101790609Y-88120814D01*
X101790602Y-88120827D01*
X101730264Y-88266498D01*
X101730261Y-88266510D01*
X101699500Y-88421153D01*
X101699500Y-88578846D01*
X101730261Y-88733489D01*
X101730264Y-88733501D01*
X101790602Y-88879172D01*
X101790606Y-88879179D01*
X101828602Y-88936044D01*
X101849480Y-89002721D01*
X101849500Y-89004935D01*
X101849500Y-98824064D01*
X101829815Y-98891103D01*
X101828603Y-98892954D01*
X101790608Y-98949817D01*
X101790602Y-98949828D01*
X101730264Y-99095498D01*
X101730261Y-99095510D01*
X101699500Y-99250153D01*
X101699500Y-99407846D01*
X101730261Y-99562489D01*
X101730264Y-99562501D01*
X101790602Y-99708172D01*
X101790609Y-99708185D01*
X101878210Y-99839288D01*
X101878213Y-99839292D01*
X101989707Y-99950786D01*
X101989711Y-99950789D01*
X102120814Y-100038390D01*
X102120827Y-100038397D01*
X102266498Y-100098735D01*
X102266503Y-100098737D01*
X102421153Y-100129499D01*
X102421156Y-100129500D01*
X102421158Y-100129500D01*
X102578844Y-100129500D01*
X102578845Y-100129499D01*
X102733497Y-100098737D01*
X102847871Y-100051362D01*
X102879172Y-100038397D01*
X102879172Y-100038396D01*
X102879179Y-100038394D01*
X103010289Y-99950789D01*
X103121789Y-99839289D01*
X103209394Y-99708179D01*
X103269737Y-99562497D01*
X103300500Y-99407842D01*
X103300500Y-99250158D01*
X103300500Y-99250155D01*
X103300499Y-99250153D01*
X103269867Y-99096158D01*
X103269737Y-99095503D01*
X103209394Y-98949821D01*
X103171396Y-98892953D01*
X103150520Y-98826276D01*
X103150500Y-98824064D01*
X103150500Y-92917648D01*
X103170185Y-92850609D01*
X103222989Y-92804854D01*
X103292147Y-92794910D01*
X103298672Y-92796027D01*
X103321158Y-92800500D01*
X103478844Y-92800500D01*
X103478845Y-92800499D01*
X103633497Y-92769737D01*
X103678050Y-92751282D01*
X103747515Y-92743814D01*
X103809995Y-92775088D01*
X103845648Y-92835177D01*
X103849500Y-92865844D01*
X103849500Y-113654071D01*
X103867522Y-113744669D01*
X103867522Y-113744670D01*
X103874497Y-113779736D01*
X103874499Y-113779744D01*
X103916151Y-113880302D01*
X103923535Y-113898127D01*
X103994723Y-114004669D01*
X104153682Y-114163628D01*
X104187166Y-114224950D01*
X104190000Y-114251308D01*
X104190000Y-115136988D01*
X104132993Y-115104075D01*
X104005826Y-115070000D01*
X103874174Y-115070000D01*
X103747007Y-115104075D01*
X103690000Y-115136988D01*
X103690000Y-114220000D01*
X103042155Y-114220000D01*
X102982627Y-114226401D01*
X102982620Y-114226403D01*
X102847913Y-114276645D01*
X102847906Y-114276649D01*
X102732812Y-114362809D01*
X102732809Y-114362812D01*
X102646649Y-114477906D01*
X102646645Y-114477913D01*
X102596403Y-114612620D01*
X102596401Y-114612627D01*
X102590000Y-114672155D01*
X102590000Y-115320000D01*
X103506988Y-115320000D01*
X103474075Y-115377007D01*
X103440000Y-115504174D01*
X103440000Y-115635826D01*
X103474075Y-115762993D01*
X103506988Y-115820000D01*
X102590000Y-115820000D01*
X102590000Y-116467844D01*
X102596401Y-116527372D01*
X102596403Y-116527379D01*
X102646645Y-116662086D01*
X102646649Y-116662093D01*
X102732809Y-116777187D01*
X102732812Y-116777190D01*
X102847906Y-116863350D01*
X102847913Y-116863354D01*
X102982620Y-116913596D01*
X102982627Y-116913598D01*
X103042155Y-116919999D01*
X103042172Y-116920000D01*
X103690000Y-116920000D01*
X103690000Y-116003012D01*
X103747007Y-116035925D01*
X103874174Y-116070000D01*
X104005826Y-116070000D01*
X104132993Y-116035925D01*
X104190000Y-116003012D01*
X104190000Y-116920000D01*
X104837828Y-116920000D01*
X104837844Y-116919999D01*
X104897372Y-116913598D01*
X104897379Y-116913596D01*
X105032086Y-116863354D01*
X105032093Y-116863350D01*
X105147187Y-116777190D01*
X105147190Y-116777187D01*
X105233350Y-116662093D01*
X105233354Y-116662086D01*
X105282422Y-116530529D01*
X105324293Y-116474595D01*
X105389757Y-116450178D01*
X105458030Y-116465030D01*
X105486285Y-116486181D01*
X105600213Y-116600109D01*
X105772179Y-116725048D01*
X105772181Y-116725049D01*
X105772184Y-116725051D01*
X105961588Y-116821557D01*
X106163757Y-116887246D01*
X106373713Y-116920500D01*
X106373714Y-116920500D01*
X106586286Y-116920500D01*
X106586287Y-116920500D01*
X106796243Y-116887246D01*
X106998412Y-116821557D01*
X107187816Y-116725051D01*
X107274471Y-116662093D01*
X107359786Y-116600109D01*
X107359788Y-116600106D01*
X107359792Y-116600104D01*
X107510104Y-116449792D01*
X107510106Y-116449788D01*
X107510109Y-116449786D01*
X107635048Y-116277820D01*
X107635050Y-116277817D01*
X107635051Y-116277816D01*
X107639514Y-116269054D01*
X107687488Y-116218259D01*
X107755308Y-116201463D01*
X107821444Y-116223999D01*
X107860486Y-116269056D01*
X107864951Y-116277820D01*
X107989890Y-116449786D01*
X108140213Y-116600109D01*
X108312179Y-116725048D01*
X108312181Y-116725049D01*
X108312184Y-116725051D01*
X108501588Y-116821557D01*
X108703757Y-116887246D01*
X108913713Y-116920500D01*
X108913714Y-116920500D01*
X109126286Y-116920500D01*
X109126287Y-116920500D01*
X109336243Y-116887246D01*
X109538412Y-116821557D01*
X109727816Y-116725051D01*
X109814471Y-116662093D01*
X109899786Y-116600109D01*
X109899788Y-116600106D01*
X109899792Y-116600104D01*
X110050104Y-116449792D01*
X110050106Y-116449788D01*
X110050109Y-116449786D01*
X110175048Y-116277820D01*
X110175050Y-116277817D01*
X110175051Y-116277816D01*
X110179514Y-116269054D01*
X110227488Y-116218259D01*
X110295308Y-116201463D01*
X110361444Y-116223999D01*
X110400486Y-116269056D01*
X110404951Y-116277820D01*
X110529890Y-116449786D01*
X110680213Y-116600109D01*
X110852179Y-116725048D01*
X110852181Y-116725049D01*
X110852184Y-116725051D01*
X111041588Y-116821557D01*
X111243757Y-116887246D01*
X111453713Y-116920500D01*
X111453714Y-116920500D01*
X111666286Y-116920500D01*
X111666287Y-116920500D01*
X111876243Y-116887246D01*
X112078412Y-116821557D01*
X112267816Y-116725051D01*
X112354471Y-116662093D01*
X112439786Y-116600109D01*
X112439788Y-116600106D01*
X112439792Y-116600104D01*
X112590104Y-116449792D01*
X112590106Y-116449788D01*
X112590109Y-116449786D01*
X112715048Y-116277820D01*
X112715050Y-116277817D01*
X112715051Y-116277816D01*
X112811557Y-116088412D01*
X112877246Y-115886243D01*
X112910500Y-115676287D01*
X112910500Y-115463713D01*
X112877246Y-115253757D01*
X112811557Y-115051588D01*
X112715051Y-114862184D01*
X112715049Y-114862181D01*
X112715048Y-114862179D01*
X112590109Y-114690213D01*
X112439786Y-114539890D01*
X112263875Y-114412085D01*
X112264851Y-114410740D01*
X112222834Y-114364295D01*
X112210500Y-114310382D01*
X112210500Y-113754441D01*
X118904500Y-113754441D01*
X118904500Y-114003558D01*
X118904501Y-114003575D01*
X118936339Y-114245414D01*
X118937018Y-114250565D01*
X118942931Y-114272632D01*
X119001498Y-114491207D01*
X119096830Y-114721361D01*
X119096837Y-114721376D01*
X119221400Y-114937126D01*
X119373060Y-115134774D01*
X119373066Y-115134781D01*
X119549218Y-115310933D01*
X119549225Y-115310939D01*
X119746873Y-115462599D01*
X119962623Y-115587162D01*
X119962638Y-115587169D01*
X120061825Y-115628253D01*
X120192793Y-115682502D01*
X120433435Y-115746982D01*
X120680435Y-115779500D01*
X120680442Y-115779500D01*
X120929558Y-115779500D01*
X120929565Y-115779500D01*
X121176565Y-115746982D01*
X121417207Y-115682502D01*
X121647373Y-115587164D01*
X121863127Y-115462599D01*
X122060776Y-115310938D01*
X122236938Y-115134776D01*
X122388599Y-114937127D01*
X122513164Y-114721373D01*
X122608502Y-114491207D01*
X122672982Y-114250565D01*
X122705500Y-114003565D01*
X122705500Y-113754435D01*
X122672982Y-113507435D01*
X122608502Y-113266793D01*
X122527729Y-113071789D01*
X122513169Y-113036638D01*
X122513162Y-113036623D01*
X122388599Y-112820873D01*
X122236939Y-112623225D01*
X122236933Y-112623218D01*
X122060781Y-112447066D01*
X122060774Y-112447060D01*
X121863126Y-112295400D01*
X121647376Y-112170837D01*
X121647361Y-112170830D01*
X121417207Y-112075498D01*
X121176561Y-112011017D01*
X120929575Y-111978501D01*
X120929570Y-111978500D01*
X120929565Y-111978500D01*
X120680435Y-111978500D01*
X120680429Y-111978500D01*
X120680424Y-111978501D01*
X120433438Y-112011017D01*
X120192792Y-112075498D01*
X119962638Y-112170830D01*
X119962623Y-112170837D01*
X119746873Y-112295400D01*
X119549225Y-112447060D01*
X119549218Y-112447066D01*
X119373066Y-112623218D01*
X119373060Y-112623225D01*
X119221400Y-112820873D01*
X119096837Y-113036623D01*
X119096830Y-113036638D01*
X119001498Y-113266792D01*
X118937017Y-113507438D01*
X118904501Y-113754424D01*
X118904500Y-113754441D01*
X112210500Y-113754441D01*
X112210500Y-99096153D01*
X120599500Y-99096153D01*
X120599500Y-99253846D01*
X120630261Y-99408489D01*
X120630264Y-99408501D01*
X120690602Y-99554172D01*
X120690606Y-99554179D01*
X120728602Y-99611044D01*
X120749480Y-99677721D01*
X120749500Y-99679935D01*
X120749500Y-107500071D01*
X120769278Y-107599497D01*
X120769278Y-107599498D01*
X120774497Y-107625737D01*
X120774498Y-107625741D01*
X120774499Y-107625744D01*
X120823535Y-107744127D01*
X120894723Y-107850669D01*
X120894726Y-107850673D01*
X120894727Y-107850674D01*
X123764181Y-110720127D01*
X123797666Y-110781450D01*
X123800500Y-110807808D01*
X123800500Y-112084870D01*
X123800501Y-112084876D01*
X123806908Y-112144483D01*
X123857202Y-112279328D01*
X123857206Y-112279335D01*
X123943452Y-112394544D01*
X123943455Y-112394547D01*
X124058664Y-112480793D01*
X124058671Y-112480797D01*
X124190082Y-112529810D01*
X124246016Y-112571681D01*
X124270433Y-112637145D01*
X124255582Y-112705418D01*
X124234431Y-112733673D01*
X124120889Y-112847215D01*
X123995951Y-113019179D01*
X123899444Y-113208585D01*
X123833753Y-113410760D01*
X123801221Y-113616161D01*
X123800500Y-113620713D01*
X123800500Y-113833287D01*
X123807947Y-113880304D01*
X123831908Y-114031593D01*
X123833754Y-114043243D01*
X123892794Y-114224950D01*
X123899444Y-114245414D01*
X123995951Y-114434820D01*
X124120890Y-114606786D01*
X124271213Y-114757109D01*
X124443179Y-114882048D01*
X124443181Y-114882049D01*
X124443184Y-114882051D01*
X124632588Y-114978557D01*
X124834757Y-115044246D01*
X125044713Y-115077500D01*
X125044714Y-115077500D01*
X125257286Y-115077500D01*
X125257287Y-115077500D01*
X125467243Y-115044246D01*
X125669412Y-114978557D01*
X125858816Y-114882051D01*
X125886168Y-114862179D01*
X126030786Y-114757109D01*
X126030788Y-114757106D01*
X126030792Y-114757104D01*
X126115741Y-114672155D01*
X127990000Y-114672155D01*
X127990000Y-115320000D01*
X128906988Y-115320000D01*
X128874075Y-115377007D01*
X128840000Y-115504174D01*
X128840000Y-115635826D01*
X128874075Y-115762993D01*
X128906988Y-115820000D01*
X127990000Y-115820000D01*
X127990000Y-116467844D01*
X127996401Y-116527372D01*
X127996403Y-116527379D01*
X128046645Y-116662086D01*
X128046649Y-116662093D01*
X128132809Y-116777187D01*
X128132812Y-116777190D01*
X128247906Y-116863350D01*
X128247913Y-116863354D01*
X128382620Y-116913596D01*
X128382627Y-116913598D01*
X128442155Y-116919999D01*
X128442172Y-116920000D01*
X129090000Y-116920000D01*
X129090000Y-116003012D01*
X129147007Y-116035925D01*
X129274174Y-116070000D01*
X129405826Y-116070000D01*
X129532993Y-116035925D01*
X129590000Y-116003012D01*
X129590000Y-116920000D01*
X130237828Y-116920000D01*
X130237844Y-116919999D01*
X130297372Y-116913598D01*
X130297379Y-116913596D01*
X130432086Y-116863354D01*
X130432093Y-116863350D01*
X130547187Y-116777190D01*
X130547190Y-116777187D01*
X130633350Y-116662093D01*
X130633354Y-116662086D01*
X130682614Y-116530013D01*
X130724485Y-116474079D01*
X130789949Y-116449662D01*
X130858222Y-116464513D01*
X130886477Y-116485665D01*
X131000535Y-116599723D01*
X131000540Y-116599727D01*
X131172442Y-116724620D01*
X131361782Y-116821095D01*
X131563871Y-116886757D01*
X131630000Y-116897231D01*
X131630000Y-116003012D01*
X131687007Y-116035925D01*
X131814174Y-116070000D01*
X131945826Y-116070000D01*
X132072993Y-116035925D01*
X132130000Y-116003012D01*
X132130000Y-116897230D01*
X132196126Y-116886757D01*
X132196129Y-116886757D01*
X132398217Y-116821095D01*
X132587557Y-116724620D01*
X132759459Y-116599727D01*
X132759464Y-116599723D01*
X132909723Y-116449464D01*
X132909727Y-116449459D01*
X133034620Y-116277558D01*
X133039232Y-116268507D01*
X133087205Y-116217709D01*
X133155025Y-116200912D01*
X133221161Y-116223447D01*
X133260204Y-116268504D01*
X133264949Y-116277817D01*
X133389890Y-116449786D01*
X133389896Y-116449792D01*
X133540208Y-116600104D01*
X133712184Y-116725051D01*
X133712188Y-116725053D01*
X133716126Y-116727914D01*
X133715146Y-116729262D01*
X133757160Y-116775690D01*
X133769500Y-116829617D01*
X133769500Y-118517069D01*
X133774538Y-118542394D01*
X133774538Y-118542396D01*
X133794497Y-118642736D01*
X133794499Y-118642744D01*
X133836277Y-118743606D01*
X133843535Y-118761127D01*
X133914723Y-118867669D01*
X133914726Y-118867673D01*
X135005325Y-119958272D01*
X135005332Y-119958278D01*
X135076694Y-120005960D01*
X135111874Y-120029466D01*
X135181221Y-120058189D01*
X135230256Y-120078501D01*
X135230259Y-120078501D01*
X135230260Y-120078502D01*
X135355928Y-120103500D01*
X135355931Y-120103500D01*
X146695065Y-120103500D01*
X146762104Y-120123185D01*
X146763909Y-120124366D01*
X146820821Y-120162394D01*
X146820823Y-120162395D01*
X146820827Y-120162397D01*
X146966498Y-120222735D01*
X146966503Y-120222737D01*
X147121153Y-120253499D01*
X147121156Y-120253500D01*
X147121158Y-120253500D01*
X147278844Y-120253500D01*
X147278845Y-120253499D01*
X147433497Y-120222737D01*
X147579179Y-120162394D01*
X147710289Y-120074789D01*
X147821789Y-119963289D01*
X147909394Y-119832179D01*
X147969737Y-119686497D01*
X148000500Y-119531842D01*
X148000500Y-119374158D01*
X148000500Y-119374155D01*
X148000499Y-119374153D01*
X147992785Y-119335372D01*
X147969737Y-119219503D01*
X147921329Y-119102634D01*
X147909397Y-119073827D01*
X147909390Y-119073814D01*
X147821789Y-118942711D01*
X147821786Y-118942707D01*
X147710292Y-118831213D01*
X147710288Y-118831210D01*
X147579185Y-118743609D01*
X147579172Y-118743602D01*
X147433501Y-118683264D01*
X147433489Y-118683261D01*
X147278845Y-118652500D01*
X147278842Y-118652500D01*
X147121158Y-118652500D01*
X147121155Y-118652500D01*
X146966510Y-118683261D01*
X146966498Y-118683264D01*
X146820827Y-118743602D01*
X146820820Y-118743606D01*
X146810159Y-118750730D01*
X146763955Y-118781602D01*
X146697279Y-118802480D01*
X146695065Y-118802500D01*
X135740808Y-118802500D01*
X135673769Y-118782815D01*
X135653127Y-118766181D01*
X135106819Y-118219873D01*
X135073334Y-118158550D01*
X135070500Y-118132192D01*
X135070500Y-116829617D01*
X135090185Y-116762578D01*
X135124592Y-116728902D01*
X135123874Y-116727914D01*
X135127811Y-116725053D01*
X135127816Y-116725051D01*
X135299792Y-116600104D01*
X135450104Y-116449792D01*
X135450106Y-116449788D01*
X135450109Y-116449786D01*
X135575048Y-116277820D01*
X135575050Y-116277817D01*
X135575051Y-116277816D01*
X135579514Y-116269054D01*
X135627488Y-116218259D01*
X135695308Y-116201463D01*
X135761444Y-116223999D01*
X135800486Y-116269056D01*
X135804951Y-116277820D01*
X135929890Y-116449786D01*
X136080213Y-116600109D01*
X136252179Y-116725048D01*
X136252181Y-116725049D01*
X136252184Y-116725051D01*
X136441588Y-116821557D01*
X136643757Y-116887246D01*
X136853713Y-116920500D01*
X136853714Y-116920500D01*
X137066286Y-116920500D01*
X137066287Y-116920500D01*
X137276243Y-116887246D01*
X137478412Y-116821557D01*
X137667816Y-116725051D01*
X137754471Y-116662093D01*
X137839786Y-116600109D01*
X137839788Y-116600106D01*
X137839792Y-116600104D01*
X137990104Y-116449792D01*
X137990106Y-116449788D01*
X137990109Y-116449786D01*
X138115048Y-116277820D01*
X138115050Y-116277817D01*
X138115051Y-116277816D01*
X138211557Y-116088412D01*
X138277246Y-115886243D01*
X138310500Y-115676287D01*
X138310500Y-115463713D01*
X138277246Y-115253757D01*
X138211557Y-115051588D01*
X138115051Y-114862184D01*
X138102636Y-114845096D01*
X138020540Y-114732099D01*
X138020539Y-114732098D01*
X137990107Y-114690211D01*
X137839786Y-114539890D01*
X137667820Y-114414951D01*
X137478414Y-114318444D01*
X137478413Y-114318443D01*
X137478412Y-114318443D01*
X137276243Y-114252754D01*
X137276241Y-114252753D01*
X137276240Y-114252753D01*
X137114957Y-114227208D01*
X137066287Y-114219500D01*
X136853713Y-114219500D01*
X136805042Y-114227208D01*
X136643760Y-114252753D01*
X136441585Y-114318444D01*
X136252179Y-114414951D01*
X136080213Y-114539890D01*
X135929890Y-114690213D01*
X135804949Y-114862182D01*
X135800484Y-114870946D01*
X135752509Y-114921742D01*
X135684688Y-114938536D01*
X135618553Y-114915998D01*
X135579516Y-114870946D01*
X135575050Y-114862182D01*
X135450109Y-114690213D01*
X135299786Y-114539890D01*
X135127820Y-114414951D01*
X134938414Y-114318444D01*
X134938413Y-114318443D01*
X134938412Y-114318443D01*
X134736243Y-114252754D01*
X134736241Y-114252753D01*
X134736240Y-114252753D01*
X134574957Y-114227208D01*
X134526287Y-114219500D01*
X134313713Y-114219500D01*
X134265042Y-114227208D01*
X134103760Y-114252753D01*
X133901585Y-114318444D01*
X133712179Y-114414951D01*
X133540213Y-114539890D01*
X133389890Y-114690213D01*
X133264949Y-114862182D01*
X133260202Y-114871499D01*
X133212227Y-114922293D01*
X133144405Y-114939087D01*
X133078271Y-114916548D01*
X133039234Y-114871495D01*
X133034622Y-114862444D01*
X132909727Y-114690540D01*
X132909723Y-114690535D01*
X132759464Y-114540276D01*
X132759459Y-114540272D01*
X132587557Y-114415379D01*
X132398215Y-114318903D01*
X132196124Y-114253241D01*
X132130000Y-114242768D01*
X132130000Y-115136988D01*
X132072993Y-115104075D01*
X131945826Y-115070000D01*
X131814174Y-115070000D01*
X131687007Y-115104075D01*
X131630000Y-115136988D01*
X131630000Y-114242768D01*
X131629999Y-114242768D01*
X131563875Y-114253241D01*
X131361784Y-114318903D01*
X131172442Y-114415379D01*
X131000541Y-114540271D01*
X130886477Y-114654335D01*
X130825154Y-114687819D01*
X130755462Y-114682835D01*
X130699529Y-114640963D01*
X130682614Y-114609986D01*
X130633354Y-114477913D01*
X130633350Y-114477906D01*
X130547190Y-114362812D01*
X130547187Y-114362809D01*
X130432093Y-114276649D01*
X130432086Y-114276645D01*
X130297379Y-114226403D01*
X130297372Y-114226401D01*
X130237844Y-114220000D01*
X129590000Y-114220000D01*
X129590000Y-115136988D01*
X129532993Y-115104075D01*
X129405826Y-115070000D01*
X129274174Y-115070000D01*
X129147007Y-115104075D01*
X129090000Y-115136988D01*
X129090000Y-114220000D01*
X128442155Y-114220000D01*
X128382627Y-114226401D01*
X128382620Y-114226403D01*
X128247913Y-114276645D01*
X128247906Y-114276649D01*
X128132812Y-114362809D01*
X128132809Y-114362812D01*
X128046649Y-114477906D01*
X128046645Y-114477913D01*
X127996403Y-114612620D01*
X127996401Y-114612627D01*
X127990000Y-114672155D01*
X126115741Y-114672155D01*
X126181104Y-114606792D01*
X126188969Y-114595966D01*
X126188970Y-114595966D01*
X126259009Y-114499564D01*
X126306051Y-114434816D01*
X126402557Y-114245412D01*
X126468246Y-114043243D01*
X126501500Y-113833287D01*
X126501500Y-113620713D01*
X126500779Y-113616161D01*
X126467484Y-113405945D01*
X126469123Y-113405685D01*
X126472257Y-113343126D01*
X126501655Y-113296289D01*
X128922504Y-110875441D01*
X149599500Y-110875441D01*
X149599500Y-111124558D01*
X149599501Y-111124575D01*
X149632017Y-111371561D01*
X149696498Y-111612207D01*
X149791830Y-111842361D01*
X149791837Y-111842376D01*
X149916400Y-112058126D01*
X150068060Y-112255774D01*
X150068066Y-112255781D01*
X150244218Y-112431933D01*
X150244225Y-112431939D01*
X150441873Y-112583599D01*
X150657623Y-112708162D01*
X150657638Y-112708169D01*
X150736422Y-112740802D01*
X150887793Y-112803502D01*
X151128435Y-112867982D01*
X151375435Y-112900500D01*
X151375442Y-112900500D01*
X151624558Y-112900500D01*
X151624565Y-112900500D01*
X151871565Y-112867982D01*
X152112207Y-112803502D01*
X152342373Y-112708164D01*
X152558127Y-112583599D01*
X152755776Y-112431938D01*
X152828769Y-112358945D01*
X157564500Y-112358945D01*
X157564500Y-112551055D01*
X157575930Y-112623218D01*
X157594553Y-112740802D01*
X157653916Y-112923506D01*
X157702667Y-113019184D01*
X157741135Y-113094681D01*
X157854055Y-113250102D01*
X157989898Y-113385945D01*
X158145319Y-113498865D01*
X158313386Y-113584500D01*
X158316493Y-113586083D01*
X158499192Y-113645445D01*
X158499193Y-113645445D01*
X158499199Y-113645447D01*
X158532275Y-113650685D01*
X158595407Y-113680613D01*
X158600557Y-113685477D01*
X167308735Y-122393655D01*
X167308764Y-122393686D01*
X167451214Y-122536136D01*
X167451218Y-122536139D01*
X167615079Y-122645628D01*
X167615092Y-122645635D01*
X167743833Y-122698961D01*
X167786744Y-122716735D01*
X167797164Y-122721051D01*
X167893812Y-122740275D01*
X167942135Y-122749887D01*
X167990458Y-122759500D01*
X167990459Y-122759500D01*
X167990460Y-122759500D01*
X168187540Y-122759500D01*
X168242770Y-122759500D01*
X168309809Y-122779185D01*
X168315647Y-122783176D01*
X168407492Y-122849905D01*
X168492007Y-122892967D01*
X168586373Y-122941050D01*
X168586375Y-122941050D01*
X168586378Y-122941052D01*
X168777320Y-123003093D01*
X168975616Y-123034500D01*
X168975617Y-123034500D01*
X170126383Y-123034500D01*
X170126384Y-123034500D01*
X170324680Y-123003093D01*
X170515622Y-122941052D01*
X170694508Y-122849905D01*
X170856932Y-122731897D01*
X170998897Y-122589932D01*
X171116905Y-122427508D01*
X171208052Y-122248622D01*
X171270093Y-122057680D01*
X171301500Y-121859384D01*
X171301500Y-121658616D01*
X171270093Y-121460320D01*
X171208052Y-121269378D01*
X171208050Y-121269375D01*
X171208050Y-121269373D01*
X171159967Y-121175007D01*
X171116905Y-121090492D01*
X170998897Y-120928068D01*
X170973311Y-120902482D01*
X170939826Y-120841159D01*
X170944810Y-120771467D01*
X170986682Y-120715534D01*
X170998992Y-120707414D01*
X171014532Y-120698442D01*
X171199181Y-120556756D01*
X171363756Y-120392181D01*
X171505442Y-120207532D01*
X171621815Y-120005969D01*
X171639494Y-119963289D01*
X171710879Y-119790947D01*
X171710878Y-119790947D01*
X171710882Y-119790940D01*
X171771121Y-119566126D01*
X171801500Y-119335372D01*
X171801500Y-119102628D01*
X171771121Y-118871874D01*
X171710882Y-118647060D01*
X171710879Y-118647052D01*
X171621819Y-118432039D01*
X171621811Y-118432023D01*
X171505446Y-118230475D01*
X171505442Y-118230468D01*
X171469444Y-118183554D01*
X171363758Y-118045821D01*
X171363750Y-118045813D01*
X171222078Y-117904141D01*
X171188595Y-117842821D01*
X171193579Y-117773129D01*
X171210492Y-117742154D01*
X171244796Y-117696331D01*
X171295091Y-117561483D01*
X171301500Y-117501873D01*
X171301499Y-115856128D01*
X171295091Y-115796517D01*
X171292698Y-115790102D01*
X171244797Y-115661671D01*
X171244793Y-115661664D01*
X171158547Y-115546455D01*
X171158544Y-115546452D01*
X171043335Y-115460206D01*
X171043328Y-115460202D01*
X170908482Y-115409908D01*
X170908483Y-115409908D01*
X170848883Y-115403501D01*
X170848881Y-115403500D01*
X170848873Y-115403500D01*
X170848864Y-115403500D01*
X168253129Y-115403500D01*
X168253123Y-115403501D01*
X168193516Y-115409908D01*
X168058671Y-115460202D01*
X168058664Y-115460206D01*
X167943455Y-115546452D01*
X167943452Y-115546455D01*
X167857206Y-115661664D01*
X167857202Y-115661671D01*
X167806908Y-115796517D01*
X167805135Y-115813014D01*
X167800501Y-115856123D01*
X167800500Y-115856135D01*
X167800500Y-117501870D01*
X167800501Y-117501876D01*
X167806908Y-117561483D01*
X167857202Y-117696328D01*
X167857203Y-117696330D01*
X167891505Y-117742151D01*
X167915922Y-117807615D01*
X167901071Y-117875888D01*
X167879919Y-117904143D01*
X167738248Y-118045813D01*
X167738242Y-118045820D01*
X167596564Y-118230459D01*
X167596553Y-118230475D01*
X167480188Y-118432023D01*
X167480180Y-118432039D01*
X167391120Y-118647052D01*
X167330878Y-118871877D01*
X167300501Y-119102617D01*
X167300500Y-119102634D01*
X167300500Y-119256218D01*
X167280815Y-119323257D01*
X167228011Y-119369012D01*
X167158853Y-119378956D01*
X167095297Y-119349931D01*
X167088819Y-119343899D01*
X160015477Y-112270557D01*
X159981992Y-112209234D01*
X159980691Y-112202309D01*
X159975447Y-112169199D01*
X159975445Y-112169192D01*
X159916083Y-111986493D01*
X159842651Y-111842376D01*
X159828865Y-111815319D01*
X159715945Y-111659898D01*
X159580102Y-111524055D01*
X159424681Y-111411135D01*
X159361976Y-111379185D01*
X159253506Y-111323916D01*
X159070802Y-111264553D01*
X158946547Y-111244873D01*
X158881055Y-111234500D01*
X158688945Y-111234500D01*
X158625696Y-111244517D01*
X158499197Y-111264553D01*
X158316493Y-111323916D01*
X158145318Y-111411135D01*
X158082805Y-111456554D01*
X157989898Y-111524055D01*
X157989896Y-111524057D01*
X157989895Y-111524057D01*
X157854057Y-111659895D01*
X157854057Y-111659896D01*
X157854055Y-111659898D01*
X157818097Y-111709390D01*
X157741135Y-111815318D01*
X157653916Y-111986493D01*
X157594553Y-112169197D01*
X157574564Y-112295401D01*
X157564500Y-112358945D01*
X152828769Y-112358945D01*
X152921323Y-112266392D01*
X152931933Y-112255781D01*
X152931938Y-112255776D01*
X153083599Y-112058127D01*
X153208164Y-111842373D01*
X153303502Y-111612207D01*
X153367982Y-111371565D01*
X153400500Y-111124565D01*
X153400500Y-110875435D01*
X153367982Y-110628435D01*
X153303502Y-110387793D01*
X153237942Y-110229517D01*
X153208169Y-110157638D01*
X153208162Y-110157623D01*
X153083602Y-109941877D01*
X153083599Y-109941873D01*
X153007661Y-109842909D01*
X152989273Y-109818945D01*
X155024500Y-109818945D01*
X155024500Y-110011054D01*
X155054553Y-110200802D01*
X155113916Y-110383506D01*
X155189924Y-110532679D01*
X155201135Y-110554681D01*
X155314055Y-110710102D01*
X155449898Y-110845945D01*
X155605319Y-110958865D01*
X155691389Y-111002720D01*
X155776493Y-111046083D01*
X155867845Y-111075764D01*
X155959199Y-111105447D01*
X156148945Y-111135500D01*
X156148946Y-111135500D01*
X156341054Y-111135500D01*
X156341055Y-111135500D01*
X156530801Y-111105447D01*
X156713509Y-111046082D01*
X156884681Y-110958865D01*
X157040102Y-110845945D01*
X157175945Y-110710102D01*
X157288865Y-110554681D01*
X157376082Y-110383509D01*
X157435447Y-110200801D01*
X157465500Y-110011055D01*
X157465500Y-109818945D01*
X157435447Y-109629199D01*
X157388702Y-109485331D01*
X157376083Y-109446493D01*
X157301662Y-109300435D01*
X157288865Y-109275319D01*
X157175945Y-109119898D01*
X157040102Y-108984055D01*
X156884681Y-108871135D01*
X156869494Y-108863397D01*
X156713506Y-108783916D01*
X156530802Y-108724553D01*
X156435928Y-108709526D01*
X156341055Y-108694500D01*
X156148945Y-108694500D01*
X156085696Y-108704517D01*
X155959197Y-108724553D01*
X155776493Y-108783916D01*
X155605318Y-108871135D01*
X155546634Y-108913772D01*
X155449898Y-108984055D01*
X155449896Y-108984057D01*
X155449895Y-108984057D01*
X155314057Y-109119895D01*
X155314057Y-109119896D01*
X155314055Y-109119898D01*
X155280312Y-109166341D01*
X155201135Y-109275318D01*
X155113916Y-109446493D01*
X155054553Y-109629197D01*
X155024500Y-109818945D01*
X152989273Y-109818945D01*
X152931939Y-109744225D01*
X152931933Y-109744218D01*
X152755781Y-109568066D01*
X152755774Y-109568060D01*
X152558126Y-109416400D01*
X152342376Y-109291837D01*
X152342361Y-109291830D01*
X152112207Y-109196498D01*
X151871561Y-109132017D01*
X151624575Y-109099501D01*
X151624570Y-109099500D01*
X151624565Y-109099500D01*
X151375435Y-109099500D01*
X151375429Y-109099500D01*
X151375424Y-109099501D01*
X151128438Y-109132017D01*
X150887792Y-109196498D01*
X150657638Y-109291830D01*
X150657623Y-109291837D01*
X150441873Y-109416400D01*
X150244225Y-109568060D01*
X150244218Y-109568066D01*
X150068066Y-109744218D01*
X150068060Y-109744225D01*
X149916400Y-109941873D01*
X149791837Y-110157623D01*
X149791830Y-110157638D01*
X149696498Y-110387792D01*
X149632017Y-110628438D01*
X149599501Y-110875424D01*
X149599500Y-110875441D01*
X128922504Y-110875441D01*
X133811127Y-105986819D01*
X133872450Y-105953334D01*
X133898808Y-105950500D01*
X158579192Y-105950500D01*
X158646231Y-105970185D01*
X158666873Y-105986819D01*
X161085324Y-108405271D01*
X161085327Y-108405274D01*
X161085330Y-108405276D01*
X161140102Y-108441873D01*
X161191873Y-108476465D01*
X161310256Y-108525501D01*
X161310260Y-108525501D01*
X161310261Y-108525502D01*
X161435928Y-108550500D01*
X161435931Y-108550500D01*
X162679192Y-108550500D01*
X162746231Y-108570185D01*
X162766873Y-108586819D01*
X164313181Y-110133126D01*
X164346666Y-110194449D01*
X164349500Y-110220807D01*
X164349500Y-111945064D01*
X164329815Y-112012103D01*
X164328603Y-112013954D01*
X164290608Y-112070817D01*
X164290602Y-112070828D01*
X164230264Y-112216498D01*
X164230261Y-112216510D01*
X164199500Y-112371153D01*
X164199500Y-112528846D01*
X164230261Y-112683489D01*
X164230264Y-112683501D01*
X164290602Y-112829172D01*
X164290609Y-112829185D01*
X164378210Y-112960288D01*
X164378213Y-112960292D01*
X164489707Y-113071786D01*
X164489711Y-113071789D01*
X164620814Y-113159390D01*
X164620827Y-113159397D01*
X164766498Y-113219735D01*
X164766503Y-113219737D01*
X164919157Y-113250102D01*
X164921153Y-113250499D01*
X164921156Y-113250500D01*
X164921158Y-113250500D01*
X165078844Y-113250500D01*
X165078845Y-113250499D01*
X165233497Y-113219737D01*
X165379179Y-113159394D01*
X165510289Y-113071789D01*
X165621789Y-112960289D01*
X165709394Y-112829179D01*
X165712835Y-112820873D01*
X165746001Y-112740801D01*
X165769737Y-112683497D01*
X165800500Y-112528842D01*
X165800500Y-112371158D01*
X165800500Y-112371155D01*
X165800499Y-112371153D01*
X165780489Y-112270557D01*
X165769737Y-112216503D01*
X165709394Y-112070821D01*
X165671396Y-112013953D01*
X165650520Y-111947276D01*
X165650500Y-111945064D01*
X165650500Y-109835928D01*
X165625502Y-109710261D01*
X165625501Y-109710260D01*
X165625501Y-109710256D01*
X165576465Y-109591873D01*
X165576464Y-109591872D01*
X165576461Y-109591866D01*
X165505276Y-109485331D01*
X165505273Y-109485327D01*
X165479008Y-109459062D01*
X165479003Y-109459058D01*
X165466436Y-109446491D01*
X165414669Y-109394724D01*
X165395386Y-109375441D01*
X169099500Y-109375441D01*
X169099500Y-109624558D01*
X169099501Y-109624575D01*
X169127401Y-109836501D01*
X169132018Y-109871565D01*
X169148140Y-109931732D01*
X169196498Y-110112207D01*
X169291830Y-110342361D01*
X169291837Y-110342376D01*
X169416400Y-110558126D01*
X169568060Y-110755774D01*
X169568066Y-110755781D01*
X169744218Y-110931933D01*
X169744225Y-110931939D01*
X169941873Y-111083599D01*
X170157623Y-111208162D01*
X170157638Y-111208169D01*
X170246250Y-111244873D01*
X170387793Y-111303502D01*
X170628435Y-111367982D01*
X170875435Y-111400500D01*
X170875442Y-111400500D01*
X171124558Y-111400500D01*
X171124565Y-111400500D01*
X171371565Y-111367982D01*
X171612207Y-111303502D01*
X171842373Y-111208164D01*
X172058127Y-111083599D01*
X172255776Y-110931938D01*
X172431938Y-110755776D01*
X172583599Y-110558127D01*
X172708164Y-110342373D01*
X172803502Y-110112207D01*
X172867982Y-109871565D01*
X172900500Y-109624565D01*
X172900500Y-109375435D01*
X172867982Y-109128435D01*
X172803502Y-108887793D01*
X172735886Y-108724553D01*
X172708169Y-108657638D01*
X172708162Y-108657623D01*
X172583599Y-108441873D01*
X172431939Y-108244225D01*
X172431933Y-108244218D01*
X172255781Y-108068066D01*
X172255774Y-108068060D01*
X172058126Y-107916400D01*
X171842376Y-107791837D01*
X171842361Y-107791830D01*
X171612207Y-107696498D01*
X171371561Y-107632017D01*
X171124575Y-107599501D01*
X171124570Y-107599500D01*
X171124565Y-107599500D01*
X170875435Y-107599500D01*
X170875429Y-107599500D01*
X170875424Y-107599501D01*
X170628438Y-107632017D01*
X170387792Y-107696498D01*
X170157638Y-107791830D01*
X170157623Y-107791837D01*
X169941873Y-107916400D01*
X169744225Y-108068060D01*
X169744218Y-108068066D01*
X169568066Y-108244218D01*
X169568060Y-108244225D01*
X169416400Y-108441873D01*
X169291837Y-108657623D01*
X169291830Y-108657638D01*
X169196498Y-108887792D01*
X169132017Y-109128438D01*
X169099501Y-109375424D01*
X169099500Y-109375441D01*
X165395386Y-109375441D01*
X164453071Y-108433126D01*
X163488113Y-107468167D01*
X163454628Y-107406844D01*
X163459612Y-107337152D01*
X163488111Y-107292807D01*
X165117101Y-105663819D01*
X165178424Y-105630334D01*
X165204782Y-105627500D01*
X172490859Y-105627500D01*
X172557898Y-105647185D01*
X172603653Y-105699989D01*
X172607030Y-105708140D01*
X172611204Y-105719331D01*
X172611205Y-105719332D01*
X172611206Y-105719335D01*
X172697452Y-105834544D01*
X172697455Y-105834547D01*
X172812664Y-105920793D01*
X172812671Y-105920797D01*
X172947517Y-105971091D01*
X172947516Y-105971091D01*
X172954444Y-105971835D01*
X173007127Y-105977500D01*
X174802872Y-105977499D01*
X174862483Y-105971091D01*
X174997331Y-105920796D01*
X175112546Y-105834546D01*
X175198796Y-105719331D01*
X175249091Y-105584483D01*
X175255500Y-105524873D01*
X175255499Y-103729128D01*
X175249091Y-103669517D01*
X175247387Y-103664949D01*
X175198797Y-103534671D01*
X175198793Y-103534664D01*
X175112547Y-103419455D01*
X175112544Y-103419452D01*
X174997335Y-103333206D01*
X174997328Y-103333202D01*
X174865917Y-103284189D01*
X174809983Y-103242318D01*
X174785566Y-103176853D01*
X174800418Y-103108580D01*
X174821563Y-103080332D01*
X174935104Y-102966792D01*
X174941732Y-102957670D01*
X175060048Y-102794820D01*
X175060047Y-102794820D01*
X175060051Y-102794816D01*
X175156557Y-102605412D01*
X175222246Y-102403243D01*
X175255500Y-102193287D01*
X175255500Y-101980713D01*
X175222246Y-101770757D01*
X175156557Y-101568588D01*
X175060051Y-101379184D01*
X175060049Y-101379181D01*
X175060048Y-101379179D01*
X174935109Y-101207213D01*
X174784786Y-101056890D01*
X174612820Y-100931951D01*
X174423414Y-100835444D01*
X174423413Y-100835443D01*
X174423412Y-100835443D01*
X174221243Y-100769754D01*
X174221241Y-100769753D01*
X174221240Y-100769753D01*
X174059957Y-100744208D01*
X174011287Y-100736500D01*
X173798713Y-100736500D01*
X173750042Y-100744208D01*
X173588760Y-100769753D01*
X173386585Y-100835444D01*
X173197179Y-100931951D01*
X173025213Y-101056890D01*
X172874890Y-101207213D01*
X172749951Y-101379179D01*
X172653444Y-101568585D01*
X172587753Y-101770760D01*
X172560774Y-101941102D01*
X172554500Y-101980713D01*
X172554500Y-102193287D01*
X172587754Y-102403243D01*
X172599501Y-102439397D01*
X172653444Y-102605414D01*
X172749951Y-102794820D01*
X172874890Y-102966786D01*
X172988430Y-103080326D01*
X173021915Y-103141649D01*
X173016931Y-103211341D01*
X172975059Y-103267274D01*
X172944083Y-103284189D01*
X172812669Y-103333203D01*
X172812664Y-103333206D01*
X172697455Y-103419452D01*
X172697452Y-103419455D01*
X172611206Y-103534664D01*
X172611204Y-103534668D01*
X172611204Y-103534669D01*
X172607039Y-103545834D01*
X172565171Y-103601766D01*
X172499707Y-103626184D01*
X172490859Y-103626500D01*
X164640455Y-103626500D01*
X164546813Y-103645126D01*
X164546792Y-103645131D01*
X164543812Y-103645724D01*
X164447164Y-103664949D01*
X164424109Y-103674499D01*
X164415670Y-103677994D01*
X164415664Y-103677996D01*
X164265088Y-103740366D01*
X164265079Y-103740371D01*
X164101219Y-103849859D01*
X164031540Y-103919538D01*
X163961861Y-103989218D01*
X161822863Y-106128215D01*
X161822860Y-106128219D01*
X161713372Y-106292079D01*
X161713367Y-106292089D01*
X161637949Y-106474163D01*
X161637947Y-106474171D01*
X161599500Y-106667455D01*
X161599500Y-106780191D01*
X161579815Y-106847230D01*
X161527011Y-106892985D01*
X161457853Y-106902929D01*
X161394297Y-106873904D01*
X161387819Y-106867872D01*
X159314673Y-104794726D01*
X159314669Y-104794723D01*
X159208127Y-104723535D01*
X159101042Y-104679179D01*
X159089744Y-104674499D01*
X159089738Y-104674497D01*
X158964071Y-104649500D01*
X158964069Y-104649500D01*
X150534480Y-104649500D01*
X150467441Y-104629815D01*
X150421686Y-104577011D01*
X150411742Y-104507853D01*
X150431378Y-104456610D01*
X150486625Y-104373925D01*
X150486626Y-104373921D01*
X150486632Y-104373914D01*
X150562051Y-104191835D01*
X150586980Y-104066510D01*
X150600500Y-103998543D01*
X150600500Y-103801456D01*
X150562052Y-103608170D01*
X150562051Y-103608169D01*
X150562051Y-103608165D01*
X150562049Y-103608160D01*
X150486635Y-103426092D01*
X150486628Y-103426079D01*
X150377139Y-103262218D01*
X150377136Y-103262214D01*
X150237785Y-103122863D01*
X150237781Y-103122860D01*
X150073920Y-103013371D01*
X150073907Y-103013364D01*
X149891839Y-102937950D01*
X149891829Y-102937947D01*
X149698543Y-102899500D01*
X149698541Y-102899500D01*
X145751459Y-102899500D01*
X145751457Y-102899500D01*
X145558170Y-102937947D01*
X145558160Y-102937950D01*
X145376092Y-103013364D01*
X145376079Y-103013371D01*
X145212218Y-103122860D01*
X145212214Y-103122863D01*
X145072863Y-103262214D01*
X145072860Y-103262218D01*
X144963371Y-103426079D01*
X144963364Y-103426092D01*
X144887950Y-103608160D01*
X144887947Y-103608170D01*
X144849500Y-103801456D01*
X144849500Y-103801459D01*
X144849500Y-103998541D01*
X144849500Y-103998543D01*
X144849499Y-103998543D01*
X144887947Y-104191829D01*
X144887950Y-104191839D01*
X144963364Y-104373907D01*
X144963374Y-104373925D01*
X145018622Y-104456610D01*
X145039500Y-104523287D01*
X145021015Y-104590667D01*
X144969036Y-104637357D01*
X144915520Y-104649500D01*
X133513929Y-104649500D01*
X133388261Y-104674497D01*
X133388255Y-104674499D01*
X133269874Y-104723534D01*
X133163326Y-104794726D01*
X133163325Y-104794727D01*
X126713180Y-111244873D01*
X126651857Y-111278358D01*
X126582165Y-111273374D01*
X126526232Y-111231502D01*
X126501815Y-111166038D01*
X126501499Y-111157192D01*
X126501499Y-110289129D01*
X126501498Y-110289123D01*
X126499160Y-110267376D01*
X126495091Y-110229517D01*
X126491842Y-110220807D01*
X126444797Y-110094671D01*
X126444793Y-110094664D01*
X126358547Y-109979455D01*
X126358544Y-109979452D01*
X126243335Y-109893206D01*
X126243328Y-109893202D01*
X126108482Y-109842908D01*
X126108483Y-109842908D01*
X126048883Y-109836501D01*
X126048881Y-109836500D01*
X126048873Y-109836500D01*
X126048865Y-109836500D01*
X124771808Y-109836500D01*
X124704769Y-109816815D01*
X124684127Y-109800181D01*
X122086819Y-107202873D01*
X122053334Y-107141550D01*
X122050500Y-107115192D01*
X122050500Y-99679935D01*
X122070185Y-99612896D01*
X122071366Y-99611090D01*
X122109394Y-99554179D01*
X122169737Y-99408497D01*
X122171637Y-99398945D01*
X155024500Y-99398945D01*
X155024500Y-99591054D01*
X155054553Y-99780802D01*
X155113916Y-99963506D01*
X155182821Y-100098738D01*
X155201135Y-100134681D01*
X155314055Y-100290102D01*
X155449898Y-100425945D01*
X155605319Y-100538865D01*
X155776491Y-100626082D01*
X155776493Y-100626083D01*
X155867845Y-100655764D01*
X155959199Y-100685447D01*
X156148945Y-100715500D01*
X156148946Y-100715500D01*
X156341054Y-100715500D01*
X156341055Y-100715500D01*
X156530801Y-100685447D01*
X156713509Y-100626082D01*
X156884681Y-100538865D01*
X157040102Y-100425945D01*
X157175945Y-100290102D01*
X157288865Y-100134681D01*
X157376082Y-99963509D01*
X157435447Y-99780801D01*
X157465500Y-99591055D01*
X157465500Y-99398945D01*
X157435447Y-99209199D01*
X157398716Y-99096153D01*
X157376083Y-99026493D01*
X157332778Y-98941503D01*
X157288865Y-98855319D01*
X157175945Y-98699898D01*
X157040102Y-98564055D01*
X156884681Y-98451135D01*
X156794649Y-98405261D01*
X156713506Y-98363916D01*
X156530802Y-98304553D01*
X156435928Y-98289526D01*
X156341055Y-98274500D01*
X156148945Y-98274500D01*
X156085696Y-98284517D01*
X155959197Y-98304553D01*
X155776493Y-98363916D01*
X155605318Y-98451135D01*
X155516645Y-98515560D01*
X155449898Y-98564055D01*
X155449896Y-98564057D01*
X155449895Y-98564057D01*
X155314057Y-98699895D01*
X155314057Y-98699896D01*
X155314055Y-98699898D01*
X155265560Y-98766645D01*
X155201135Y-98855318D01*
X155113916Y-99026493D01*
X155054553Y-99209197D01*
X155024500Y-99398945D01*
X122171637Y-99398945D01*
X122174686Y-99383616D01*
X122177419Y-99369880D01*
X122177419Y-99369878D01*
X122200499Y-99253846D01*
X122200500Y-99253844D01*
X122200500Y-99096155D01*
X122200499Y-99096153D01*
X122192703Y-99056961D01*
X122169737Y-98941503D01*
X122169735Y-98941498D01*
X122109397Y-98795827D01*
X122109390Y-98795814D01*
X122021789Y-98664711D01*
X122021786Y-98664707D01*
X121910292Y-98553213D01*
X121910288Y-98553210D01*
X121779185Y-98465609D01*
X121779172Y-98465602D01*
X121633501Y-98405264D01*
X121633489Y-98405261D01*
X121478845Y-98374500D01*
X121478842Y-98374500D01*
X121321158Y-98374500D01*
X121321155Y-98374500D01*
X121166510Y-98405261D01*
X121166498Y-98405264D01*
X121020827Y-98465602D01*
X121020814Y-98465609D01*
X120889711Y-98553210D01*
X120889707Y-98553213D01*
X120778213Y-98664707D01*
X120778210Y-98664711D01*
X120690609Y-98795814D01*
X120690602Y-98795827D01*
X120630264Y-98941498D01*
X120630261Y-98941510D01*
X120599500Y-99096153D01*
X112210500Y-99096153D01*
X112210500Y-96858945D01*
X157564500Y-96858945D01*
X157564500Y-97051054D01*
X157594553Y-97240802D01*
X157653916Y-97423506D01*
X157653918Y-97423509D01*
X157741135Y-97594681D01*
X157854055Y-97750102D01*
X157989898Y-97885945D01*
X158145319Y-97998865D01*
X158316491Y-98086082D01*
X158316493Y-98086083D01*
X158407845Y-98115764D01*
X158499199Y-98145447D01*
X158688945Y-98175500D01*
X158688946Y-98175500D01*
X158881054Y-98175500D01*
X158881055Y-98175500D01*
X159070801Y-98145447D01*
X159253509Y-98086082D01*
X159424681Y-97998865D01*
X159580102Y-97885945D01*
X159715945Y-97750102D01*
X159828865Y-97594681D01*
X159916082Y-97423509D01*
X159975447Y-97240801D01*
X160005500Y-97051055D01*
X160005500Y-96858945D01*
X159975447Y-96669199D01*
X159938979Y-96556961D01*
X159916083Y-96486493D01*
X159828864Y-96315318D01*
X159715945Y-96159898D01*
X159580102Y-96024055D01*
X159424681Y-95911135D01*
X159361303Y-95878842D01*
X159253506Y-95823916D01*
X159070802Y-95764553D01*
X158975928Y-95749526D01*
X158881055Y-95734500D01*
X158688945Y-95734500D01*
X158625696Y-95744517D01*
X158499197Y-95764553D01*
X158316493Y-95823916D01*
X158145318Y-95911135D01*
X158056645Y-95975560D01*
X157989898Y-96024055D01*
X157989896Y-96024057D01*
X157989895Y-96024057D01*
X157854057Y-96159895D01*
X157854057Y-96159896D01*
X157854055Y-96159898D01*
X157805560Y-96226645D01*
X157741135Y-96315318D01*
X157653916Y-96486493D01*
X157594553Y-96669197D01*
X157564500Y-96858945D01*
X112210500Y-96858945D01*
X112210500Y-80889617D01*
X112230185Y-80822578D01*
X112264592Y-80788902D01*
X112263874Y-80787914D01*
X112267811Y-80785053D01*
X112267816Y-80785051D01*
X112439792Y-80660104D01*
X112590104Y-80509792D01*
X112590106Y-80509788D01*
X112590109Y-80509786D01*
X112715048Y-80337820D01*
X112715050Y-80337817D01*
X112715051Y-80337816D01*
X112811557Y-80148412D01*
X112877246Y-79946243D01*
X112910500Y-79736287D01*
X112910500Y-79523713D01*
X112877246Y-79313757D01*
X112811557Y-79111588D01*
X112715051Y-78922184D01*
X112715049Y-78922181D01*
X112715048Y-78922179D01*
X112627542Y-78801736D01*
X112590109Y-78750214D01*
X112590105Y-78750209D01*
X112572051Y-78732155D01*
X127990000Y-78732155D01*
X127990000Y-79380000D01*
X128906988Y-79380000D01*
X128874075Y-79437007D01*
X128840000Y-79564174D01*
X128840000Y-79695826D01*
X128874075Y-79822993D01*
X128906988Y-79880000D01*
X127990000Y-79880000D01*
X127990000Y-80527844D01*
X127996401Y-80587372D01*
X127996403Y-80587379D01*
X128046645Y-80722086D01*
X128046649Y-80722093D01*
X128132809Y-80837187D01*
X128132812Y-80837190D01*
X128247906Y-80923350D01*
X128247913Y-80923354D01*
X128382620Y-80973596D01*
X128382627Y-80973598D01*
X128442155Y-80979999D01*
X128442172Y-80980000D01*
X129090000Y-80980000D01*
X129090000Y-80063012D01*
X129147007Y-80095925D01*
X129274174Y-80130000D01*
X129405826Y-80130000D01*
X129532993Y-80095925D01*
X129590000Y-80063012D01*
X129590000Y-80980000D01*
X130237828Y-80980000D01*
X130237844Y-80979999D01*
X130297372Y-80973598D01*
X130297379Y-80973596D01*
X130432086Y-80923354D01*
X130432093Y-80923350D01*
X130547187Y-80837190D01*
X130547190Y-80837187D01*
X130633350Y-80722093D01*
X130633354Y-80722086D01*
X130682614Y-80590013D01*
X130724485Y-80534079D01*
X130789949Y-80509662D01*
X130858222Y-80524513D01*
X130886477Y-80545665D01*
X131000535Y-80659723D01*
X131000540Y-80659727D01*
X131172442Y-80784620D01*
X131361782Y-80881095D01*
X131563871Y-80946757D01*
X131630000Y-80957231D01*
X131630000Y-80063012D01*
X131687007Y-80095925D01*
X131814174Y-80130000D01*
X131945826Y-80130000D01*
X132072993Y-80095925D01*
X132130000Y-80063012D01*
X132130000Y-80957230D01*
X132196126Y-80946757D01*
X132196129Y-80946757D01*
X132398217Y-80881095D01*
X132587557Y-80784620D01*
X132759459Y-80659727D01*
X132759464Y-80659723D01*
X132909723Y-80509464D01*
X132909727Y-80509459D01*
X133034620Y-80337558D01*
X133039232Y-80328507D01*
X133087205Y-80277709D01*
X133155025Y-80260912D01*
X133221161Y-80283447D01*
X133260204Y-80328504D01*
X133264949Y-80337817D01*
X133389890Y-80509786D01*
X133389896Y-80509792D01*
X133540208Y-80660104D01*
X133712184Y-80785051D01*
X133712188Y-80785053D01*
X133716126Y-80787914D01*
X133715146Y-80789262D01*
X133757160Y-80835690D01*
X133769500Y-80889617D01*
X133769500Y-95295064D01*
X133749815Y-95362103D01*
X133748603Y-95363954D01*
X133710608Y-95420817D01*
X133710602Y-95420828D01*
X133650264Y-95566498D01*
X133650261Y-95566510D01*
X133619500Y-95721153D01*
X133619500Y-95878846D01*
X133650261Y-96033489D01*
X133650264Y-96033501D01*
X133710602Y-96179172D01*
X133710609Y-96179185D01*
X133798210Y-96310288D01*
X133798213Y-96310292D01*
X133909707Y-96421786D01*
X133909711Y-96421789D01*
X134040814Y-96509390D01*
X134040827Y-96509397D01*
X134186498Y-96569735D01*
X134186503Y-96569737D01*
X134341153Y-96600499D01*
X134341156Y-96600500D01*
X134341158Y-96600500D01*
X134498844Y-96600500D01*
X134498845Y-96600499D01*
X134653497Y-96569737D01*
X134774334Y-96519685D01*
X134799172Y-96509397D01*
X134799172Y-96509396D01*
X134799179Y-96509394D01*
X134930289Y-96421789D01*
X135041789Y-96310289D01*
X135129394Y-96179179D01*
X135189737Y-96033497D01*
X135220500Y-95878842D01*
X135220500Y-95721158D01*
X135220500Y-95721155D01*
X135220499Y-95721153D01*
X135198269Y-95609397D01*
X135189737Y-95566503D01*
X135129394Y-95420821D01*
X135091396Y-95363953D01*
X135070520Y-95297276D01*
X135070500Y-95295064D01*
X135070500Y-94318945D01*
X155024500Y-94318945D01*
X155024500Y-94511054D01*
X155054553Y-94700802D01*
X155113916Y-94883506D01*
X155113918Y-94883509D01*
X155201135Y-95054681D01*
X155314055Y-95210102D01*
X155449898Y-95345945D01*
X155605319Y-95458865D01*
X155728808Y-95521786D01*
X155776493Y-95546083D01*
X155839362Y-95566510D01*
X155959199Y-95605447D01*
X156148945Y-95635500D01*
X156148946Y-95635500D01*
X156341054Y-95635500D01*
X156341055Y-95635500D01*
X156530801Y-95605447D01*
X156713509Y-95546082D01*
X156884681Y-95458865D01*
X157040102Y-95345945D01*
X157175945Y-95210102D01*
X157288865Y-95054681D01*
X157376082Y-94883509D01*
X157435447Y-94700801D01*
X157465500Y-94511055D01*
X157465500Y-94318945D01*
X157435447Y-94129199D01*
X157405764Y-94037845D01*
X157376083Y-93946493D01*
X157319019Y-93834499D01*
X157288865Y-93775319D01*
X157175945Y-93619898D01*
X157040102Y-93484055D01*
X156884681Y-93371135D01*
X156713506Y-93283916D01*
X156530802Y-93224553D01*
X156364750Y-93198253D01*
X156341055Y-93194500D01*
X156148945Y-93194500D01*
X156125250Y-93198253D01*
X155959197Y-93224553D01*
X155776493Y-93283916D01*
X155605318Y-93371135D01*
X155547460Y-93413172D01*
X155449898Y-93484055D01*
X155449896Y-93484057D01*
X155449895Y-93484057D01*
X155314057Y-93619895D01*
X155314057Y-93619896D01*
X155314055Y-93619898D01*
X155269707Y-93680938D01*
X155201135Y-93775318D01*
X155113916Y-93946493D01*
X155054553Y-94129197D01*
X155024500Y-94318945D01*
X135070500Y-94318945D01*
X135070500Y-85569808D01*
X135090185Y-85502769D01*
X135142989Y-85457014D01*
X135212147Y-85447070D01*
X135275703Y-85476095D01*
X135282181Y-85482127D01*
X135505324Y-85705271D01*
X135505327Y-85705274D01*
X135565533Y-85745502D01*
X135611866Y-85776461D01*
X135611872Y-85776464D01*
X135611873Y-85776465D01*
X135730256Y-85825501D01*
X135730260Y-85825501D01*
X135730261Y-85825502D01*
X135855928Y-85850500D01*
X135855931Y-85850500D01*
X161995065Y-85850500D01*
X162062104Y-85870185D01*
X162063909Y-85871366D01*
X162120821Y-85909394D01*
X162120823Y-85909395D01*
X162120827Y-85909397D01*
X162266498Y-85969735D01*
X162266503Y-85969737D01*
X162402663Y-85996821D01*
X162421153Y-86000499D01*
X162421156Y-86000500D01*
X162421158Y-86000500D01*
X162578844Y-86000500D01*
X162578845Y-86000499D01*
X162733497Y-85969737D01*
X162879179Y-85909394D01*
X163010289Y-85821789D01*
X163121789Y-85710289D01*
X163209394Y-85579179D01*
X163269737Y-85433497D01*
X163300500Y-85278842D01*
X163300500Y-85121158D01*
X163300500Y-85121155D01*
X163300499Y-85121153D01*
X163269738Y-84966510D01*
X163269737Y-84966503D01*
X163226526Y-84862181D01*
X163209863Y-84821952D01*
X163202394Y-84752483D01*
X163233669Y-84690004D01*
X163293759Y-84654352D01*
X163324424Y-84650500D01*
X164900191Y-84650500D01*
X164967230Y-84670185D01*
X165012985Y-84722989D01*
X165022929Y-84792147D01*
X164993904Y-84855703D01*
X164987872Y-84862181D01*
X163494724Y-86355329D01*
X163447839Y-86425500D01*
X163447837Y-86425502D01*
X163423539Y-86461864D01*
X163423533Y-86461875D01*
X163374499Y-86580255D01*
X163374497Y-86580261D01*
X163349500Y-86705928D01*
X163349500Y-94395064D01*
X163329815Y-94462103D01*
X163328603Y-94463954D01*
X163290608Y-94520817D01*
X163290602Y-94520828D01*
X163230264Y-94666498D01*
X163230261Y-94666510D01*
X163199500Y-94821153D01*
X163199500Y-94978846D01*
X163230261Y-95133489D01*
X163230264Y-95133501D01*
X163290602Y-95279172D01*
X163290609Y-95279185D01*
X163378210Y-95410288D01*
X163378213Y-95410292D01*
X163489707Y-95521786D01*
X163489711Y-95521789D01*
X163620814Y-95609390D01*
X163620827Y-95609397D01*
X163766498Y-95669735D01*
X163766503Y-95669737D01*
X163921153Y-95700499D01*
X163921156Y-95700500D01*
X163921158Y-95700500D01*
X164078844Y-95700500D01*
X164078845Y-95700499D01*
X164233497Y-95669737D01*
X164379179Y-95609394D01*
X164510289Y-95521789D01*
X164621789Y-95410289D01*
X164709394Y-95279179D01*
X164769737Y-95133497D01*
X164800500Y-94978842D01*
X164800500Y-94821158D01*
X164800500Y-94821155D01*
X164800499Y-94821153D01*
X164769737Y-94666503D01*
X164709394Y-94520821D01*
X164671396Y-94463953D01*
X164650520Y-94397276D01*
X164650500Y-94395064D01*
X164650500Y-87090808D01*
X164670185Y-87023769D01*
X164686819Y-87003127D01*
X171275273Y-80414673D01*
X171275277Y-80414669D01*
X171346465Y-80308127D01*
X171380442Y-80226100D01*
X171395501Y-80189744D01*
X171407385Y-80130000D01*
X171420500Y-80064071D01*
X171420500Y-78716359D01*
X171440185Y-78649320D01*
X171488205Y-78605874D01*
X171504022Y-78597815D01*
X171682365Y-78468242D01*
X171838242Y-78312365D01*
X171967815Y-78134022D01*
X172067895Y-77937606D01*
X172136015Y-77727951D01*
X172170500Y-77510222D01*
X172170500Y-75489778D01*
X172869500Y-75489778D01*
X172869500Y-77510221D01*
X172903985Y-77727952D01*
X172972103Y-77937603D01*
X172972104Y-77937606D01*
X173038998Y-78068890D01*
X173072184Y-78134021D01*
X173072187Y-78134025D01*
X173201752Y-78312358D01*
X173201756Y-78312363D01*
X173357636Y-78468243D01*
X173357641Y-78468247D01*
X173387560Y-78489984D01*
X173535978Y-78597815D01*
X173664375Y-78663237D01*
X173732393Y-78697895D01*
X173732396Y-78697896D01*
X173789221Y-78716359D01*
X173942049Y-78766015D01*
X174159778Y-78800500D01*
X174159779Y-78800500D01*
X174380221Y-78800500D01*
X174380222Y-78800500D01*
X174597951Y-78766015D01*
X174807606Y-78697895D01*
X175004022Y-78597815D01*
X175182365Y-78468242D01*
X175338242Y-78312365D01*
X175467815Y-78134022D01*
X175567895Y-77937606D01*
X175636015Y-77727951D01*
X175670500Y-77510222D01*
X175670500Y-75489778D01*
X175636015Y-75272049D01*
X175581651Y-75104732D01*
X175567896Y-75062396D01*
X175567893Y-75062389D01*
X175512237Y-74953160D01*
X175512236Y-74953159D01*
X175467815Y-74865978D01*
X175423141Y-74804489D01*
X175338247Y-74687641D01*
X175338243Y-74687636D01*
X175182363Y-74531756D01*
X175182358Y-74531752D01*
X175004025Y-74402187D01*
X175004024Y-74402186D01*
X175004022Y-74402185D01*
X174916685Y-74357684D01*
X174807606Y-74302104D01*
X174807603Y-74302103D01*
X174597952Y-74233985D01*
X174449635Y-74210494D01*
X174380222Y-74199500D01*
X174159778Y-74199500D01*
X174090371Y-74210493D01*
X173942047Y-74233985D01*
X173732396Y-74302103D01*
X173732393Y-74302104D01*
X173535974Y-74402187D01*
X173357641Y-74531752D01*
X173357636Y-74531756D01*
X173201756Y-74687636D01*
X173201752Y-74687641D01*
X173072187Y-74865974D01*
X172972104Y-75062393D01*
X172972103Y-75062396D01*
X172903985Y-75272047D01*
X172869500Y-75489778D01*
X172170500Y-75489778D01*
X172136015Y-75272049D01*
X172081651Y-75104732D01*
X172067896Y-75062396D01*
X172067895Y-75062393D01*
X172012236Y-74953159D01*
X171967815Y-74865978D01*
X171923141Y-74804489D01*
X171838247Y-74687641D01*
X171838243Y-74687636D01*
X171682363Y-74531756D01*
X171682358Y-74531752D01*
X171504025Y-74402187D01*
X171504024Y-74402186D01*
X171504022Y-74402185D01*
X171416685Y-74357684D01*
X171307606Y-74302104D01*
X171307603Y-74302103D01*
X171097952Y-74233985D01*
X170949635Y-74210494D01*
X170880222Y-74199500D01*
X170659778Y-74199500D01*
X170590371Y-74210493D01*
X170442047Y-74233985D01*
X170232396Y-74302103D01*
X170232393Y-74302104D01*
X170035974Y-74402187D01*
X169857641Y-74531752D01*
X169857636Y-74531756D01*
X169701756Y-74687636D01*
X169701752Y-74687641D01*
X169572187Y-74865974D01*
X169472104Y-75062393D01*
X169472103Y-75062396D01*
X169403985Y-75272047D01*
X169369500Y-75489778D01*
X169369500Y-77510221D01*
X169403985Y-77727952D01*
X169472103Y-77937603D01*
X169472104Y-77937606D01*
X169572184Y-78134021D01*
X169654628Y-78247496D01*
X169678107Y-78313303D01*
X169662281Y-78381356D01*
X169641990Y-78408062D01*
X164736873Y-83313181D01*
X164675550Y-83346666D01*
X164649192Y-83349500D01*
X139780808Y-83349500D01*
X139713769Y-83329815D01*
X139693127Y-83313181D01*
X137646819Y-81266873D01*
X137613334Y-81205550D01*
X137610500Y-81179192D01*
X137610500Y-80889617D01*
X137630185Y-80822578D01*
X137664592Y-80788902D01*
X137663874Y-80787914D01*
X137667811Y-80785053D01*
X137667816Y-80785051D01*
X137839792Y-80660104D01*
X137990104Y-80509792D01*
X137990106Y-80509788D01*
X137990109Y-80509786D01*
X138115048Y-80337820D01*
X138115050Y-80337817D01*
X138115051Y-80337816D01*
X138211557Y-80148412D01*
X138277246Y-79946243D01*
X138310500Y-79736287D01*
X138310500Y-79523713D01*
X138277246Y-79313757D01*
X138211557Y-79111588D01*
X138115051Y-78922184D01*
X138115049Y-78922181D01*
X138115048Y-78922179D01*
X137990109Y-78750213D01*
X137839786Y-78599890D01*
X137667820Y-78474951D01*
X137478414Y-78378444D01*
X137478413Y-78378443D01*
X137478412Y-78378443D01*
X137276243Y-78312754D01*
X137276241Y-78312753D01*
X137276240Y-78312753D01*
X137114957Y-78287208D01*
X137066287Y-78279500D01*
X136853713Y-78279500D01*
X136805042Y-78287208D01*
X136643760Y-78312753D01*
X136441585Y-78378444D01*
X136252179Y-78474951D01*
X136080213Y-78599890D01*
X135929890Y-78750213D01*
X135804949Y-78922182D01*
X135800484Y-78930946D01*
X135752509Y-78981742D01*
X135684688Y-78998536D01*
X135618553Y-78975998D01*
X135579516Y-78930946D01*
X135575050Y-78922182D01*
X135450109Y-78750213D01*
X135299786Y-78599890D01*
X135127820Y-78474951D01*
X134938414Y-78378444D01*
X134938413Y-78378443D01*
X134938412Y-78378443D01*
X134736243Y-78312754D01*
X134736241Y-78312753D01*
X134736240Y-78312753D01*
X134574957Y-78287208D01*
X134526287Y-78279500D01*
X134313713Y-78279500D01*
X134265042Y-78287208D01*
X134103760Y-78312753D01*
X133901585Y-78378444D01*
X133712179Y-78474951D01*
X133540213Y-78599890D01*
X133389890Y-78750213D01*
X133264949Y-78922182D01*
X133260202Y-78931499D01*
X133212227Y-78982293D01*
X133144405Y-78999087D01*
X133078271Y-78976548D01*
X133039234Y-78931495D01*
X133034622Y-78922444D01*
X132909727Y-78750540D01*
X132909723Y-78750535D01*
X132759464Y-78600276D01*
X132759459Y-78600272D01*
X132587557Y-78475379D01*
X132398215Y-78378903D01*
X132196124Y-78313241D01*
X132130000Y-78302768D01*
X132130000Y-79196988D01*
X132072993Y-79164075D01*
X131945826Y-79130000D01*
X131814174Y-79130000D01*
X131687007Y-79164075D01*
X131630000Y-79196988D01*
X131630000Y-78302768D01*
X131629999Y-78302768D01*
X131563875Y-78313241D01*
X131361784Y-78378903D01*
X131172442Y-78475379D01*
X131000541Y-78600271D01*
X130886477Y-78714335D01*
X130825154Y-78747819D01*
X130755462Y-78742835D01*
X130699529Y-78700963D01*
X130682614Y-78669986D01*
X130633354Y-78537913D01*
X130633350Y-78537906D01*
X130547190Y-78422812D01*
X130547187Y-78422809D01*
X130432093Y-78336649D01*
X130432086Y-78336645D01*
X130297379Y-78286403D01*
X130297372Y-78286401D01*
X130237844Y-78280000D01*
X129590000Y-78280000D01*
X129590000Y-79196988D01*
X129532993Y-79164075D01*
X129405826Y-79130000D01*
X129274174Y-79130000D01*
X129147007Y-79164075D01*
X129090000Y-79196988D01*
X129090000Y-78280000D01*
X128442155Y-78280000D01*
X128382627Y-78286401D01*
X128382620Y-78286403D01*
X128247913Y-78336645D01*
X128247906Y-78336649D01*
X128132812Y-78422809D01*
X128132809Y-78422812D01*
X128046649Y-78537906D01*
X128046645Y-78537913D01*
X127996403Y-78672620D01*
X127996401Y-78672627D01*
X127990000Y-78732155D01*
X112572051Y-78732155D01*
X112439786Y-78599890D01*
X112267820Y-78474951D01*
X112078414Y-78378444D01*
X112078413Y-78378443D01*
X112078412Y-78378443D01*
X111876243Y-78312754D01*
X111876241Y-78312753D01*
X111876240Y-78312753D01*
X111714957Y-78287208D01*
X111666287Y-78279500D01*
X111453713Y-78279500D01*
X111405042Y-78287208D01*
X111243760Y-78312753D01*
X111041585Y-78378444D01*
X110852179Y-78474951D01*
X110680213Y-78599890D01*
X110529890Y-78750213D01*
X110404949Y-78922182D01*
X110400484Y-78930946D01*
X110352509Y-78981742D01*
X110284688Y-78998536D01*
X110218553Y-78975998D01*
X110179516Y-78930946D01*
X110175050Y-78922182D01*
X110050109Y-78750213D01*
X109899786Y-78599890D01*
X109727820Y-78474951D01*
X109538414Y-78378444D01*
X109538413Y-78378443D01*
X109538412Y-78378443D01*
X109336243Y-78312754D01*
X109336241Y-78312753D01*
X109336240Y-78312753D01*
X109174957Y-78287208D01*
X109126287Y-78279500D01*
X108913713Y-78279500D01*
X108865042Y-78287208D01*
X108703760Y-78312753D01*
X108501585Y-78378444D01*
X108312179Y-78474951D01*
X108140213Y-78599890D01*
X107989890Y-78750213D01*
X107864949Y-78922182D01*
X107860484Y-78930946D01*
X107812509Y-78981742D01*
X107744688Y-78998536D01*
X107678553Y-78975998D01*
X107639516Y-78930946D01*
X107635050Y-78922182D01*
X107510109Y-78750213D01*
X107359786Y-78599890D01*
X107187820Y-78474951D01*
X106998414Y-78378444D01*
X106998413Y-78378443D01*
X106998412Y-78378443D01*
X106796243Y-78312754D01*
X106796241Y-78312753D01*
X106796240Y-78312753D01*
X106634957Y-78287208D01*
X106586287Y-78279500D01*
X106373713Y-78279500D01*
X106325042Y-78287208D01*
X106163760Y-78312753D01*
X105961585Y-78378444D01*
X105772179Y-78474951D01*
X105600215Y-78599889D01*
X105486285Y-78713819D01*
X105424962Y-78747303D01*
X105355270Y-78742319D01*
X105299337Y-78700447D01*
X105282422Y-78669470D01*
X105233354Y-78537913D01*
X105233350Y-78537906D01*
X105147190Y-78422812D01*
X105147187Y-78422809D01*
X105032093Y-78336649D01*
X105032086Y-78336645D01*
X104897379Y-78286403D01*
X104897372Y-78286401D01*
X104837844Y-78280000D01*
X104190000Y-78280000D01*
X104190000Y-79196988D01*
X104132993Y-79164075D01*
X104005826Y-79130000D01*
X103874174Y-79130000D01*
X103747007Y-79164075D01*
X103690000Y-79196988D01*
X103690000Y-78280000D01*
X103042155Y-78280000D01*
X102982627Y-78286401D01*
X102982620Y-78286403D01*
X102847913Y-78336645D01*
X102847906Y-78336649D01*
X102732812Y-78422809D01*
X102732809Y-78422812D01*
X102646649Y-78537906D01*
X102646645Y-78537913D01*
X102596403Y-78672620D01*
X102596401Y-78672627D01*
X102590000Y-78732155D01*
X102590000Y-79380000D01*
X103506988Y-79380000D01*
X103474075Y-79437007D01*
X103440000Y-79564174D01*
X103440000Y-79695826D01*
X103474075Y-79822993D01*
X103506988Y-79880000D01*
X102590000Y-79880000D01*
X102590000Y-80527844D01*
X102596401Y-80587372D01*
X102596403Y-80587379D01*
X102646645Y-80722086D01*
X102646649Y-80722093D01*
X102732809Y-80837187D01*
X102732812Y-80837190D01*
X102847906Y-80923350D01*
X102847913Y-80923354D01*
X102982620Y-80973596D01*
X102982627Y-80973598D01*
X103042155Y-80979999D01*
X103042172Y-80980000D01*
X103690000Y-80980000D01*
X103690000Y-80063012D01*
X103747007Y-80095925D01*
X103874174Y-80130000D01*
X104005826Y-80130000D01*
X104132993Y-80095925D01*
X104190000Y-80063012D01*
X104190000Y-80980000D01*
X104837828Y-80980000D01*
X104837841Y-80979999D01*
X104871797Y-80976348D01*
X104940556Y-80988752D01*
X104991695Y-81036361D01*
X105008975Y-81104060D01*
X104986912Y-81170355D01*
X104972735Y-81187318D01*
X102846873Y-83313181D01*
X102785550Y-83346666D01*
X102759192Y-83349500D01*
X94198935Y-83349500D01*
X94131896Y-83329815D01*
X94130090Y-83328633D01*
X94073179Y-83290606D01*
X94073172Y-83290602D01*
X93927501Y-83230264D01*
X93927489Y-83230261D01*
X93772845Y-83199500D01*
X93772842Y-83199500D01*
X93615158Y-83199500D01*
X93615155Y-83199500D01*
X93460510Y-83230261D01*
X93460498Y-83230264D01*
X93314827Y-83290602D01*
X93314814Y-83290609D01*
X93183711Y-83378210D01*
X93183707Y-83378213D01*
X93072213Y-83489707D01*
X93072210Y-83489711D01*
X92984609Y-83620814D01*
X92984602Y-83620827D01*
X92924264Y-83766498D01*
X92924261Y-83766510D01*
X92893500Y-83921153D01*
X92893500Y-84078846D01*
X92924261Y-84233489D01*
X92924264Y-84233501D01*
X92984137Y-84378048D01*
X92991606Y-84447517D01*
X92960331Y-84509996D01*
X92900241Y-84545648D01*
X92869576Y-84549500D01*
X89882935Y-84549500D01*
X89815896Y-84529815D01*
X89814090Y-84528633D01*
X89757179Y-84490606D01*
X89757172Y-84490602D01*
X89611501Y-84430264D01*
X89611489Y-84430261D01*
X89456845Y-84399500D01*
X89456842Y-84399500D01*
X89299158Y-84399500D01*
X89299155Y-84399500D01*
X89144510Y-84430261D01*
X89144498Y-84430264D01*
X88998827Y-84490602D01*
X88998814Y-84490609D01*
X88867711Y-84578210D01*
X88867707Y-84578213D01*
X88756213Y-84689707D01*
X88756210Y-84689711D01*
X88668609Y-84820814D01*
X88668602Y-84820827D01*
X88608264Y-84966498D01*
X88608261Y-84966510D01*
X88577500Y-85121153D01*
X77000000Y-85121153D01*
X77000000Y-78324000D01*
X77019685Y-78256961D01*
X77072489Y-78211206D01*
X77124000Y-78200000D01*
X82000000Y-78200000D01*
X86000000Y-74200000D01*
X86000000Y-69324000D01*
X86019685Y-69256961D01*
X86072489Y-69211206D01*
X86124000Y-69200000D01*
X140655717Y-69200000D01*
X140722756Y-69219685D01*
G37*
%TD.AperFunction*%
%TA.AperFunction,Conductor*%
G36*
X273543039Y-96519685D02*
G01*
X273588794Y-96572489D01*
X273600000Y-96624000D01*
X273600000Y-102618644D01*
X273599500Y-102621158D01*
X273599500Y-102778842D01*
X273600000Y-102781355D01*
X273600000Y-105425500D01*
X273580315Y-105492539D01*
X273527511Y-105538294D01*
X273476000Y-105549500D01*
X269762929Y-105549500D01*
X269637261Y-105574497D01*
X269637255Y-105574499D01*
X269518875Y-105623533D01*
X269518866Y-105623538D01*
X269412331Y-105694723D01*
X269412327Y-105694726D01*
X268689181Y-106417873D01*
X268627858Y-106451358D01*
X268558166Y-106446374D01*
X268502233Y-106404502D01*
X268477816Y-106339038D01*
X268477500Y-106330192D01*
X268477500Y-104804935D01*
X268497185Y-104737896D01*
X268498366Y-104736090D01*
X268536394Y-104679179D01*
X268596737Y-104533497D01*
X268627500Y-104378842D01*
X268627500Y-104221158D01*
X268627500Y-104221155D01*
X268627499Y-104221153D01*
X268596738Y-104066510D01*
X268596737Y-104066503D01*
X268569191Y-104000000D01*
X268536397Y-103920827D01*
X268536390Y-103920814D01*
X268448789Y-103789711D01*
X268448786Y-103789707D01*
X268337292Y-103678213D01*
X268337288Y-103678210D01*
X268206185Y-103590609D01*
X268206172Y-103590602D01*
X268060501Y-103530264D01*
X268060489Y-103530261D01*
X267905845Y-103499500D01*
X267905842Y-103499500D01*
X267748158Y-103499500D01*
X267748155Y-103499500D01*
X267593510Y-103530261D01*
X267593498Y-103530264D01*
X267447827Y-103590602D01*
X267447814Y-103590609D01*
X267316711Y-103678210D01*
X267316707Y-103678213D01*
X267205213Y-103789707D01*
X267205210Y-103789711D01*
X267117609Y-103920814D01*
X267117602Y-103920827D01*
X267057264Y-104066498D01*
X267057261Y-104066510D01*
X267026500Y-104221153D01*
X267026500Y-104378846D01*
X267057261Y-104533489D01*
X267057264Y-104533501D01*
X267117602Y-104679172D01*
X267117606Y-104679179D01*
X267155602Y-104736044D01*
X267176480Y-104802721D01*
X267176500Y-104804935D01*
X267176500Y-110495064D01*
X267156815Y-110562103D01*
X267155603Y-110563954D01*
X267117608Y-110620817D01*
X267117602Y-110620828D01*
X267057264Y-110766498D01*
X267057261Y-110766510D01*
X267026500Y-110921153D01*
X267026500Y-111078846D01*
X267057261Y-111233489D01*
X267057264Y-111233501D01*
X267117602Y-111379172D01*
X267117609Y-111379185D01*
X267205210Y-111510288D01*
X267205213Y-111510292D01*
X267316707Y-111621786D01*
X267316711Y-111621789D01*
X267447814Y-111709390D01*
X267447827Y-111709397D01*
X267593498Y-111769735D01*
X267593503Y-111769737D01*
X267748153Y-111800499D01*
X267748156Y-111800500D01*
X267748158Y-111800500D01*
X267905844Y-111800500D01*
X267905845Y-111800499D01*
X268060497Y-111769737D01*
X268206179Y-111709394D01*
X268337289Y-111621789D01*
X268448789Y-111510289D01*
X268536394Y-111379179D01*
X268539550Y-111371561D01*
X268559284Y-111323918D01*
X268596737Y-111233497D01*
X268627500Y-111078842D01*
X268627500Y-110921158D01*
X268627500Y-110921155D01*
X268627499Y-110921153D01*
X268612539Y-110845945D01*
X268596737Y-110766503D01*
X268536394Y-110620821D01*
X268498396Y-110563953D01*
X268477520Y-110497276D01*
X268477500Y-110495064D01*
X268477500Y-108520807D01*
X268497185Y-108453768D01*
X268513819Y-108433126D01*
X270060126Y-106886819D01*
X270121449Y-106853334D01*
X270147807Y-106850500D01*
X273476000Y-106850500D01*
X273543039Y-106870185D01*
X273588794Y-106922989D01*
X273600000Y-106974500D01*
X273600000Y-109000000D01*
X278442701Y-109000000D01*
X278509740Y-109019685D01*
X278530377Y-109036314D01*
X278593563Y-109099500D01*
X278606821Y-109112758D01*
X278676652Y-109166341D01*
X278791468Y-109254442D01*
X278791475Y-109254446D01*
X278993023Y-109370811D01*
X278993039Y-109370819D01*
X279208052Y-109459879D01*
X279208054Y-109459879D01*
X279208060Y-109459882D01*
X279432874Y-109520121D01*
X279663628Y-109550500D01*
X279663635Y-109550500D01*
X280846365Y-109550500D01*
X280846372Y-109550500D01*
X281077126Y-109520121D01*
X281301940Y-109459882D01*
X281505801Y-109375441D01*
X281516960Y-109370819D01*
X281516963Y-109370817D01*
X281516969Y-109370815D01*
X281718532Y-109254442D01*
X281800515Y-109191534D01*
X281865683Y-109166341D01*
X281934127Y-109180379D01*
X281984117Y-109229193D01*
X282000000Y-109289911D01*
X282000000Y-116876000D01*
X281980315Y-116943039D01*
X281927511Y-116988794D01*
X281876000Y-117000000D01*
X276999999Y-117000000D01*
X273000000Y-120999999D01*
X273000000Y-125876000D01*
X272980315Y-125943039D01*
X272927511Y-125988794D01*
X272876000Y-126000000D01*
X258914281Y-126000000D01*
X258847242Y-125980315D01*
X258801487Y-125927511D01*
X258791543Y-125858353D01*
X258820568Y-125794797D01*
X258826600Y-125788319D01*
X258929145Y-125685775D01*
X259677140Y-124937781D01*
X259786632Y-124773914D01*
X259862052Y-124591835D01*
X259900501Y-124398540D01*
X259900501Y-124201459D01*
X259900501Y-124196349D01*
X259900500Y-124196323D01*
X259900500Y-115342995D01*
X267724500Y-115342995D01*
X267724500Y-115579004D01*
X267724501Y-115579020D01*
X267755306Y-115813010D01*
X267816394Y-116040993D01*
X267906714Y-116259045D01*
X267906719Y-116259056D01*
X267955206Y-116343036D01*
X268024727Y-116463450D01*
X268024729Y-116463453D01*
X268024730Y-116463454D01*
X268168406Y-116650697D01*
X268168412Y-116650704D01*
X268335295Y-116817587D01*
X268335302Y-116817593D01*
X268362430Y-116838409D01*
X268522550Y-116961273D01*
X268640201Y-117029199D01*
X268726943Y-117079280D01*
X268726948Y-117079282D01*
X268726951Y-117079284D01*
X268945007Y-117169606D01*
X269172986Y-117230693D01*
X269406989Y-117261500D01*
X269406996Y-117261500D01*
X269643004Y-117261500D01*
X269643011Y-117261500D01*
X269877014Y-117230693D01*
X270104993Y-117169606D01*
X270323049Y-117079284D01*
X270527450Y-116961273D01*
X270687570Y-116838409D01*
X270717920Y-116815121D01*
X270718814Y-116816286D01*
X270776619Y-116789469D01*
X270845835Y-116798998D01*
X270871697Y-116815619D01*
X270872080Y-116815121D01*
X271018550Y-116927511D01*
X271062550Y-116961273D01*
X271180201Y-117029199D01*
X271266943Y-117079280D01*
X271266948Y-117079282D01*
X271266951Y-117079284D01*
X271485007Y-117169606D01*
X271712986Y-117230693D01*
X271946989Y-117261500D01*
X271946996Y-117261500D01*
X272183004Y-117261500D01*
X272183011Y-117261500D01*
X272417014Y-117230693D01*
X272644993Y-117169606D01*
X272863049Y-117079284D01*
X273067450Y-116961273D01*
X273254699Y-116817592D01*
X273421592Y-116650699D01*
X273565273Y-116463450D01*
X273683284Y-116259049D01*
X273773606Y-116040993D01*
X273834693Y-115813014D01*
X273865500Y-115579011D01*
X273865500Y-115342989D01*
X273834693Y-115108986D01*
X273773606Y-114881007D01*
X273683284Y-114662951D01*
X273683282Y-114662948D01*
X273683280Y-114662943D01*
X273612741Y-114540767D01*
X273565273Y-114458550D01*
X273425693Y-114276645D01*
X273421593Y-114271302D01*
X273421587Y-114271295D01*
X273254704Y-114104412D01*
X273254697Y-114104406D01*
X273067454Y-113960730D01*
X273067453Y-113960729D01*
X273067450Y-113960727D01*
X272959024Y-113898127D01*
X272863056Y-113842719D01*
X272863045Y-113842714D01*
X272644993Y-113752394D01*
X272522231Y-113719500D01*
X272417014Y-113691307D01*
X272417013Y-113691306D01*
X272417010Y-113691306D01*
X272183020Y-113660501D01*
X272183017Y-113660500D01*
X272183011Y-113660500D01*
X271946989Y-113660500D01*
X271946983Y-113660500D01*
X271946979Y-113660501D01*
X271712989Y-113691306D01*
X271485006Y-113752394D01*
X271266954Y-113842714D01*
X271266943Y-113842719D01*
X271062545Y-113960730D01*
X270872080Y-114106879D01*
X270871191Y-114105720D01*
X270813338Y-114132537D01*
X270744124Y-114122983D01*
X270718298Y-114106385D01*
X270717920Y-114106879D01*
X270527454Y-113960730D01*
X270527453Y-113960729D01*
X270527450Y-113960727D01*
X270419024Y-113898127D01*
X270323056Y-113842719D01*
X270323045Y-113842714D01*
X270104993Y-113752394D01*
X269982231Y-113719500D01*
X269877014Y-113691307D01*
X269877013Y-113691306D01*
X269877010Y-113691306D01*
X269643020Y-113660501D01*
X269643017Y-113660500D01*
X269643011Y-113660500D01*
X269406989Y-113660500D01*
X269406983Y-113660500D01*
X269406979Y-113660501D01*
X269172989Y-113691306D01*
X268945006Y-113752394D01*
X268726954Y-113842714D01*
X268726943Y-113842719D01*
X268522545Y-113960730D01*
X268335302Y-114104406D01*
X268335295Y-114104412D01*
X268168412Y-114271295D01*
X268168406Y-114271302D01*
X268024730Y-114458545D01*
X267906719Y-114662943D01*
X267906714Y-114662954D01*
X267816394Y-114881006D01*
X267755306Y-115108989D01*
X267724501Y-115342979D01*
X267724500Y-115342995D01*
X259900500Y-115342995D01*
X259900500Y-100101456D01*
X259862052Y-99908170D01*
X259862051Y-99908169D01*
X259862051Y-99908165D01*
X259833522Y-99839289D01*
X259786635Y-99726092D01*
X259786628Y-99726079D01*
X259677139Y-99562218D01*
X259677136Y-99562214D01*
X259537785Y-99422863D01*
X259537781Y-99422860D01*
X259373920Y-99313371D01*
X259373907Y-99313364D01*
X259191839Y-99237950D01*
X259191829Y-99237947D01*
X258998543Y-99199500D01*
X258998541Y-99199500D01*
X258801459Y-99199500D01*
X258801457Y-99199500D01*
X258608170Y-99237947D01*
X258608160Y-99237950D01*
X258426092Y-99313364D01*
X258426079Y-99313371D01*
X258262218Y-99422860D01*
X258262214Y-99422863D01*
X258122863Y-99562214D01*
X258122860Y-99562218D01*
X258013371Y-99726079D01*
X258013364Y-99726092D01*
X257937950Y-99908160D01*
X257937947Y-99908170D01*
X257899500Y-100101456D01*
X257899500Y-123834217D01*
X257879815Y-123901256D01*
X257863181Y-123921898D01*
X257521899Y-124263181D01*
X257460576Y-124296666D01*
X257434218Y-124299500D01*
X200624000Y-124299500D01*
X200556961Y-124279815D01*
X200511206Y-124227011D01*
X200500000Y-124175500D01*
X200500000Y-99124000D01*
X200519685Y-99056961D01*
X200572489Y-99011206D01*
X200624000Y-99000000D01*
X207876000Y-99000000D01*
X207943039Y-99019685D01*
X207988794Y-99072489D01*
X208000000Y-99124000D01*
X208000000Y-110200000D01*
X219000000Y-110200000D01*
X219000000Y-103803496D01*
X228500000Y-103803496D01*
X228500000Y-104196503D01*
X228538521Y-104587629D01*
X228615194Y-104973087D01*
X228729282Y-105349186D01*
X228879683Y-105712285D01*
X228879685Y-105712290D01*
X229064941Y-106058879D01*
X229064952Y-106058897D01*
X229283289Y-106385662D01*
X229283299Y-106385676D01*
X229498521Y-106647924D01*
X231205747Y-104940697D01*
X231279588Y-105042330D01*
X231457670Y-105220412D01*
X231559301Y-105294251D01*
X229852074Y-107001477D01*
X230114323Y-107216700D01*
X230114337Y-107216710D01*
X230441102Y-107435047D01*
X230441120Y-107435058D01*
X230787709Y-107620314D01*
X230787714Y-107620316D01*
X231150813Y-107770717D01*
X231526912Y-107884805D01*
X231912371Y-107961478D01*
X231912370Y-107961478D01*
X232303496Y-108000000D01*
X232696504Y-108000000D01*
X233087629Y-107961478D01*
X233473087Y-107884805D01*
X233849186Y-107770717D01*
X234212285Y-107620316D01*
X234212290Y-107620314D01*
X234558879Y-107435058D01*
X234558897Y-107435047D01*
X234885662Y-107216710D01*
X234885676Y-107216700D01*
X235147923Y-107001478D01*
X235147924Y-107001477D01*
X233440698Y-105294251D01*
X233542330Y-105220412D01*
X233720412Y-105042330D01*
X233794251Y-104940698D01*
X235501477Y-106647924D01*
X235501478Y-106647923D01*
X235716700Y-106385676D01*
X235716710Y-106385662D01*
X235935047Y-106058897D01*
X235935058Y-106058879D01*
X236120314Y-105712290D01*
X236120316Y-105712285D01*
X236270717Y-105349186D01*
X236384805Y-104973087D01*
X236461478Y-104587629D01*
X236500000Y-104196503D01*
X236500000Y-103803496D01*
X238406000Y-103803496D01*
X238406000Y-104196503D01*
X238444521Y-104587629D01*
X238521194Y-104973087D01*
X238635282Y-105349186D01*
X238785683Y-105712285D01*
X238785685Y-105712290D01*
X238970941Y-106058879D01*
X238970952Y-106058897D01*
X239189289Y-106385662D01*
X239189299Y-106385676D01*
X239404521Y-106647924D01*
X241111747Y-104940697D01*
X241185588Y-105042330D01*
X241363670Y-105220412D01*
X241465301Y-105294251D01*
X239758074Y-107001477D01*
X240020323Y-107216700D01*
X240020337Y-107216710D01*
X240347102Y-107435047D01*
X240347120Y-107435058D01*
X240693709Y-107620314D01*
X240693714Y-107620316D01*
X241056813Y-107770717D01*
X241432912Y-107884805D01*
X241818371Y-107961478D01*
X241818370Y-107961478D01*
X242209496Y-108000000D01*
X242602504Y-108000000D01*
X242993629Y-107961478D01*
X243379087Y-107884805D01*
X243755186Y-107770717D01*
X244118285Y-107620316D01*
X244118290Y-107620314D01*
X244464879Y-107435058D01*
X244464897Y-107435047D01*
X244791662Y-107216710D01*
X244791676Y-107216700D01*
X245053923Y-107001478D01*
X245053924Y-107001477D01*
X243346698Y-105294251D01*
X243448330Y-105220412D01*
X243626412Y-105042330D01*
X243700251Y-104940698D01*
X245407477Y-106647924D01*
X245407478Y-106647923D01*
X245622700Y-106385676D01*
X245622710Y-106385662D01*
X245841047Y-106058897D01*
X245841058Y-106058879D01*
X246026314Y-105712290D01*
X246026316Y-105712285D01*
X246176717Y-105349186D01*
X246290805Y-104973087D01*
X246367478Y-104587629D01*
X246406000Y-104196503D01*
X246406000Y-103803496D01*
X246367478Y-103412370D01*
X246290805Y-103026912D01*
X246176717Y-102650813D01*
X246026316Y-102287714D01*
X246026314Y-102287709D01*
X245841058Y-101941120D01*
X245841047Y-101941102D01*
X245622710Y-101614337D01*
X245622700Y-101614323D01*
X245407477Y-101352074D01*
X243700251Y-103059300D01*
X243626412Y-102957670D01*
X243448330Y-102779588D01*
X243346698Y-102705748D01*
X245053924Y-100998521D01*
X244791676Y-100783299D01*
X244791662Y-100783289D01*
X244464897Y-100564952D01*
X244464879Y-100564941D01*
X244118290Y-100379685D01*
X244118285Y-100379683D01*
X243755186Y-100229282D01*
X243379087Y-100115194D01*
X242993628Y-100038521D01*
X242993629Y-100038521D01*
X242602504Y-100000000D01*
X242209496Y-100000000D01*
X241818370Y-100038521D01*
X241432912Y-100115194D01*
X241056813Y-100229282D01*
X240693714Y-100379683D01*
X240693709Y-100379685D01*
X240347120Y-100564941D01*
X240347102Y-100564952D01*
X240020337Y-100783289D01*
X240020323Y-100783299D01*
X239758075Y-100998520D01*
X239758074Y-100998521D01*
X241465301Y-102705748D01*
X241363670Y-102779588D01*
X241185588Y-102957670D01*
X241111748Y-103059301D01*
X239404521Y-101352074D01*
X239404520Y-101352075D01*
X239189299Y-101614323D01*
X239189289Y-101614337D01*
X238970952Y-101941102D01*
X238970941Y-101941120D01*
X238785685Y-102287709D01*
X238785683Y-102287714D01*
X238635282Y-102650813D01*
X238521194Y-103026912D01*
X238444521Y-103412370D01*
X238406000Y-103803496D01*
X236500000Y-103803496D01*
X236461478Y-103412370D01*
X236384805Y-103026912D01*
X236270717Y-102650813D01*
X236120316Y-102287714D01*
X236120314Y-102287709D01*
X235935058Y-101941120D01*
X235935047Y-101941102D01*
X235716710Y-101614337D01*
X235716700Y-101614323D01*
X235501477Y-101352074D01*
X233794251Y-103059300D01*
X233720412Y-102957670D01*
X233542330Y-102779588D01*
X233440698Y-102705748D01*
X235147924Y-100998521D01*
X234885676Y-100783299D01*
X234885662Y-100783289D01*
X234558897Y-100564952D01*
X234558879Y-100564941D01*
X234212290Y-100379685D01*
X234212285Y-100379683D01*
X233849186Y-100229282D01*
X233473087Y-100115194D01*
X233087628Y-100038521D01*
X233087629Y-100038521D01*
X232696504Y-100000000D01*
X232303496Y-100000000D01*
X231912370Y-100038521D01*
X231526912Y-100115194D01*
X231150813Y-100229282D01*
X230787714Y-100379683D01*
X230787709Y-100379685D01*
X230441120Y-100564941D01*
X230441102Y-100564952D01*
X230114337Y-100783289D01*
X230114323Y-100783299D01*
X229852075Y-100998520D01*
X229852074Y-100998521D01*
X231559301Y-102705748D01*
X231457670Y-102779588D01*
X231279588Y-102957670D01*
X231205748Y-103059301D01*
X229498521Y-101352074D01*
X229498520Y-101352075D01*
X229283299Y-101614323D01*
X229283289Y-101614337D01*
X229064952Y-101941102D01*
X229064941Y-101941120D01*
X228879685Y-102287709D01*
X228879683Y-102287714D01*
X228729282Y-102650813D01*
X228615194Y-103026912D01*
X228538521Y-103412370D01*
X228500000Y-103803496D01*
X219000000Y-103803496D01*
X219000000Y-96624000D01*
X219019685Y-96556961D01*
X219072489Y-96511206D01*
X219124000Y-96500000D01*
X273476000Y-96500000D01*
X273543039Y-96519685D01*
G37*
%TD.AperFunction*%
%TA.AperFunction,Conductor*%
G36*
X272943039Y-69219685D02*
G01*
X272988794Y-69272489D01*
X273000000Y-69324000D01*
X273000000Y-74200000D01*
X277000000Y-78200000D01*
X281876000Y-78200000D01*
X281943039Y-78219685D01*
X281988794Y-78272489D01*
X282000000Y-78324000D01*
X282000000Y-79876000D01*
X281980315Y-79943039D01*
X281927511Y-79988794D01*
X281876000Y-80000000D01*
X215000000Y-80000000D01*
X215000000Y-86376000D01*
X214980315Y-86443039D01*
X214927511Y-86488794D01*
X214876000Y-86500000D01*
X210924500Y-86500000D01*
X210857461Y-86480315D01*
X210811706Y-86427511D01*
X210800500Y-86376000D01*
X210800500Y-71638456D01*
X210762052Y-71445170D01*
X210762051Y-71445169D01*
X210762051Y-71445165D01*
X210762049Y-71445160D01*
X210686635Y-71263092D01*
X210686628Y-71263079D01*
X210577139Y-71099218D01*
X210577136Y-71099214D01*
X210437785Y-70959863D01*
X210437781Y-70959860D01*
X210273920Y-70850371D01*
X210273907Y-70850364D01*
X210091839Y-70774950D01*
X210091829Y-70774947D01*
X209898543Y-70736500D01*
X209898541Y-70736500D01*
X209701459Y-70736500D01*
X209701457Y-70736500D01*
X209508170Y-70774947D01*
X209508160Y-70774950D01*
X209326092Y-70850364D01*
X209326079Y-70850371D01*
X209162218Y-70959860D01*
X209162214Y-70959863D01*
X209022863Y-71099214D01*
X209022860Y-71099218D01*
X208913371Y-71263079D01*
X208913364Y-71263092D01*
X208837950Y-71445160D01*
X208837947Y-71445170D01*
X208799500Y-71638456D01*
X208799500Y-86376000D01*
X208779815Y-86443039D01*
X208727011Y-86488794D01*
X208675500Y-86500000D01*
X201124000Y-86500000D01*
X201056961Y-86480315D01*
X201011206Y-86427511D01*
X201000000Y-86376000D01*
X201000000Y-72061405D01*
X201019685Y-71994366D01*
X201072489Y-71948611D01*
X201141647Y-71938667D01*
X201171454Y-71946845D01*
X201208158Y-71962049D01*
X201208160Y-71962049D01*
X201208164Y-71962051D01*
X201401455Y-72000499D01*
X201401458Y-72000500D01*
X201401460Y-72000500D01*
X201598542Y-72000500D01*
X201598543Y-72000499D01*
X201791836Y-71962051D01*
X201973914Y-71886631D01*
X202137781Y-71777139D01*
X202277139Y-71637781D01*
X202386631Y-71473914D01*
X202462051Y-71291836D01*
X202500500Y-71098540D01*
X202500500Y-70901460D01*
X202500500Y-70901457D01*
X202500499Y-70901455D01*
X202490336Y-70850364D01*
X202462051Y-70708164D01*
X202386631Y-70526086D01*
X202374653Y-70508160D01*
X202277140Y-70362219D01*
X202277134Y-70362212D01*
X201326601Y-69411681D01*
X201293116Y-69350358D01*
X201298100Y-69280667D01*
X201339971Y-69224733D01*
X201405436Y-69200316D01*
X201414282Y-69200000D01*
X272876000Y-69200000D01*
X272943039Y-69219685D01*
G37*
%TD.AperFunction*%
%TA.AperFunction,Conductor*%
G36*
X145702256Y-70920185D02*
G01*
X145748011Y-70972989D01*
X145757955Y-71042147D01*
X145728930Y-71105703D01*
X145722898Y-71112181D01*
X145212220Y-71622859D01*
X145212218Y-71622861D01*
X145173999Y-71661080D01*
X145072859Y-71762219D01*
X144963371Y-71926080D01*
X144963364Y-71926093D01*
X144944973Y-71970494D01*
X144944973Y-71970497D01*
X144903655Y-72070248D01*
X144887949Y-72108164D01*
X144887947Y-72108170D01*
X144849500Y-72301456D01*
X144849500Y-78004055D01*
X144829815Y-78071094D01*
X144800987Y-78102431D01*
X144627256Y-78235739D01*
X144455739Y-78407256D01*
X144455733Y-78407263D01*
X144338869Y-78559564D01*
X144282441Y-78600767D01*
X144212695Y-78604922D01*
X144167608Y-78584396D01*
X144017557Y-78475379D01*
X143828215Y-78378903D01*
X143626124Y-78313241D01*
X143560000Y-78302768D01*
X143560000Y-79196988D01*
X143502993Y-79164075D01*
X143375826Y-79130000D01*
X143244174Y-79130000D01*
X143117007Y-79164075D01*
X143060000Y-79196988D01*
X143060000Y-78302768D01*
X143059999Y-78302768D01*
X142993875Y-78313241D01*
X142791784Y-78378903D01*
X142701711Y-78424798D01*
X142633041Y-78437694D01*
X142568301Y-78411417D01*
X142535509Y-78371727D01*
X142459698Y-78226593D01*
X142435958Y-78197479D01*
X142331109Y-78068890D01*
X142173409Y-77940304D01*
X142173410Y-77940304D01*
X142173407Y-77940302D01*
X141993049Y-77846091D01*
X141860387Y-77808131D01*
X141801350Y-77770764D01*
X141771887Y-77707411D01*
X141770500Y-77688916D01*
X141770500Y-71265782D01*
X141790185Y-71198743D01*
X141806819Y-71178101D01*
X142048101Y-70936819D01*
X142109424Y-70903334D01*
X142135782Y-70900500D01*
X145635217Y-70900500D01*
X145702256Y-70920185D01*
G37*
%TD.AperFunction*%
%TA.AperFunction,Conductor*%
G36*
X158071257Y-70920185D02*
G01*
X158091899Y-70936819D01*
X161959570Y-74804490D01*
X161993055Y-74865813D01*
X161988071Y-74935505D01*
X161986450Y-74939624D01*
X161966499Y-74987788D01*
X161902017Y-75228438D01*
X161889537Y-75323237D01*
X161861270Y-75387134D01*
X161802946Y-75425605D01*
X161733081Y-75426436D01*
X161673858Y-75389364D01*
X161644125Y-75326450D01*
X161635526Y-75272164D01*
X161567432Y-75062589D01*
X161467386Y-74866239D01*
X161337857Y-74687958D01*
X161182041Y-74532142D01*
X161003760Y-74402613D01*
X160807410Y-74302567D01*
X160597836Y-74234473D01*
X160520000Y-74222144D01*
X160520000Y-75951517D01*
X160501591Y-75940889D01*
X160348991Y-75900000D01*
X160191009Y-75900000D01*
X160038409Y-75940889D01*
X160020000Y-75951517D01*
X160020000Y-74222144D01*
X159942164Y-74234473D01*
X159942161Y-74234473D01*
X159732589Y-74302567D01*
X159536239Y-74402613D01*
X159357958Y-74532142D01*
X159202142Y-74687958D01*
X159072613Y-74866239D01*
X158972567Y-75062589D01*
X158904473Y-75272163D01*
X158895874Y-75326452D01*
X158865943Y-75389586D01*
X158806631Y-75426516D01*
X158736769Y-75425517D01*
X158678537Y-75386907D01*
X158650463Y-75323238D01*
X158637982Y-75228435D01*
X158573502Y-74987793D01*
X158498894Y-74807674D01*
X158478169Y-74757638D01*
X158478162Y-74757623D01*
X158353599Y-74541873D01*
X158201939Y-74344225D01*
X158201933Y-74344218D01*
X158025781Y-74168066D01*
X158025774Y-74168060D01*
X157828134Y-74016406D01*
X157825616Y-74014724D01*
X157825033Y-74014027D01*
X157824907Y-74013930D01*
X157824928Y-74013901D01*
X157780808Y-73961115D01*
X157770500Y-73911617D01*
X157770500Y-72504675D01*
X157770501Y-72504654D01*
X157770501Y-72301457D01*
X157770500Y-72301455D01*
X157732053Y-72108172D01*
X157732053Y-72108170D01*
X157732052Y-72108165D01*
X157656632Y-71926086D01*
X157656631Y-71926085D01*
X157656628Y-71926079D01*
X157547140Y-71762219D01*
X157547137Y-71762215D01*
X156897101Y-71112181D01*
X156863616Y-71050858D01*
X156868600Y-70981167D01*
X156910471Y-70925233D01*
X156975936Y-70900816D01*
X156984782Y-70900500D01*
X158004218Y-70900500D01*
X158071257Y-70920185D01*
G37*
%TD.AperFunction*%
%TD*%
M02*
