%TF.GenerationSoftware,KiCad,Pcbnew,9.0.6*%
%TF.CreationDate,2026-09-09T15:10:21-07:00*%
%TF.ProjectId,hvawg,68766177-672e-46b6-9963-61645f706362,rev?*%
%TF.SameCoordinates,Original*%
%TF.FileFunction,Soldermask,Bot*%
%TF.FilePolarity,Negative*%
%FSLAX46Y46*%
G04 Gerber Fmt 4.6, Leading zero omitted, Abs format (unit mm)*
G04 Created by KiCad (PCBNEW 9.0.6) date 2026-09-09 15:10:21*
%MOMM*%
%LPD*%
G01*
G04 APERTURE LIST*
%ADD10C,2.400000*%
%ADD11O,2.400000X2.400000*%
%ADD12C,2.800000*%
%ADD13R,1.700000X1.700000*%
%ADD14O,1.700000X1.700000*%
%ADD15C,1.440000*%
%ADD16C,1.600000*%
%ADD17O,1.600000X1.600000*%
%ADD18C,6.400000*%
%ADD19R,2.000000X1.905000*%
%ADD20O,2.000000X1.905000*%
G04 APERTURE END LIST*
D10*
%TO.C,R21*%
X221405000Y-93825000D03*
D11*
X211245000Y-93825000D03*
%TD*%
D12*
%TO.C,TP4*%
X175427000Y-101529000D03*
%TD*%
D13*
%TO.C,J7*%
X182680000Y-90430000D03*
D14*
X185220000Y-90430000D03*
X187760000Y-90430000D03*
X190300000Y-90430000D03*
%TD*%
D13*
%TO.C,J5*%
X139500000Y-90430000D03*
D14*
X142040000Y-90430000D03*
X144580000Y-90430000D03*
X147120000Y-90430000D03*
%TD*%
D15*
%TO.C,RV1*%
X156245000Y-101915000D03*
X158785000Y-104455000D03*
X156245000Y-106995000D03*
%TD*%
D13*
%TO.C,J9*%
X129340000Y-92970000D03*
D14*
X131880000Y-92970000D03*
X134420000Y-92970000D03*
X136960000Y-92970000D03*
X139500000Y-92970000D03*
X142040000Y-92970000D03*
X144580000Y-92970000D03*
X147120000Y-92970000D03*
%TD*%
D16*
%TO.C,R23*%
X212025000Y-115461000D03*
D17*
X214565000Y-115461000D03*
%TD*%
D13*
%TO.C,J4*%
X129340000Y-107570000D03*
D14*
X131880000Y-107570000D03*
X134420000Y-107570000D03*
X136960000Y-107570000D03*
%TD*%
D13*
%TO.C,JP10*%
X189030000Y-95764000D03*
D14*
X189030000Y-98304000D03*
%TD*%
D13*
%TO.C,J8*%
X182680000Y-107570000D03*
D14*
X185220000Y-107570000D03*
X187760000Y-107570000D03*
X190300000Y-107570000D03*
%TD*%
D13*
%TO.C,J2*%
X103940000Y-107570000D03*
D14*
X106480000Y-107570000D03*
X109020000Y-107570000D03*
X111560000Y-107570000D03*
%TD*%
D18*
%TO.C,H4*%
X221000000Y-114000000D03*
%TD*%
D13*
%TO.C,JP9*%
X185220000Y-95764000D03*
D14*
X185220000Y-98304000D03*
%TD*%
D18*
%TO.C,H1*%
X81000000Y-84000000D03*
%TD*%
D19*
%TO.C,Q3*%
X169551000Y-108679000D03*
D20*
X169551000Y-111219000D03*
X169551000Y-113759000D03*
%TD*%
D13*
%TO.C,JP11*%
X192840000Y-95764000D03*
D14*
X192840000Y-98304000D03*
%TD*%
D13*
%TO.C,JP4*%
X175785000Y-107435000D03*
D14*
X178325000Y-107435000D03*
%TD*%
D12*
%TO.C,TP5*%
X201685000Y-95790000D03*
%TD*%
D19*
%TO.C,Q1*%
X222755000Y-102695000D03*
D20*
X222755000Y-105235000D03*
X222755000Y-107775000D03*
%TD*%
D16*
%TO.C,R19*%
X178779000Y-112251000D03*
D17*
X178779000Y-114791000D03*
%TD*%
D15*
%TO.C,RV2*%
X156245000Y-91415000D03*
X158785000Y-93955000D03*
X156245000Y-96495000D03*
%TD*%
D13*
%TO.C,JP6*%
X173905000Y-96627000D03*
D14*
X173905000Y-94087000D03*
%TD*%
D13*
%TO.C,JP8*%
X181350000Y-95764000D03*
D14*
X181350000Y-98304000D03*
%TD*%
D13*
%TO.C,J6*%
X139500000Y-107570000D03*
D14*
X142040000Y-107570000D03*
X144580000Y-107570000D03*
X147120000Y-107570000D03*
%TD*%
D18*
%TO.C,H2*%
X81000000Y-114000000D03*
%TD*%
D13*
%TO.C,J3*%
X129340000Y-90430000D03*
D14*
X131880000Y-90430000D03*
X134420000Y-90430000D03*
X136960000Y-90430000D03*
%TD*%
D12*
%TO.C,TP1*%
X83853000Y-106425000D03*
%TD*%
%TO.C,TP3*%
X176845000Y-89249000D03*
%TD*%
D13*
%TO.C,J10*%
X192840000Y-90430000D03*
%TD*%
%TO.C,JP3*%
X125151000Y-108187000D03*
D14*
X125151000Y-110727000D03*
%TD*%
D12*
%TO.C,TP2*%
X120805000Y-110879000D03*
%TD*%
D18*
%TO.C,H3*%
X221000000Y-84000000D03*
%TD*%
D13*
%TO.C,J1*%
X103940000Y-90430000D03*
D14*
X106480000Y-90430000D03*
X109020000Y-90430000D03*
X111560000Y-90430000D03*
%TD*%
M02*
