M48
; DRILL file {KiCad 9.0.6} date 2026-09-24T19:51:51-0700
; FORMAT={-:-/ absolute / inch / decimal}
; #@! TF.CreationDate,2026-09-24T19:51:51-07:00
; #@! TF.GenerationSoftware,Kicad,Pcbnew,9.0.6
; #@! TF.FileFunction,Plated,1,2,PTH
FMAT,2
INCH
; #@! TA.AperFunction,Plated,PTH,ViaDrill
T1C0.0118
; #@! TA.AperFunction,Plated,PTH,ComponentDrill
T2C0.0118
; #@! TA.AperFunction,Plated,PTH,ComponentDrill
T3C0.0315
; #@! TA.AperFunction,Plated,PTH,ComponentDrill
T4C0.0394
; #@! TA.AperFunction,Plated,PTH,ComponentDrill
T5C0.0433
; #@! TA.AperFunction,Plated,PTH,ComponentDrill
T6C0.0472
; #@! TA.AperFunction,Plated,PTH,ComponentDrill
T7C0.0591
; #@! TA.AperFunction,Plated,PTH,ComponentDrill
T8C0.0630
; #@! TA.AperFunction,Plated,PTH,ComponentDrill
T9C0.1260
%
G90
G05
T1
X3.2795Y-3.7172
X3.2835Y-3.4293
X3.4621Y-3.5528
X3.5188Y-3.3543
X3.6221Y-3.6628
X3.6887Y-3.3071
X3.7064Y-4.748
X3.7387Y-3.126
X3.8887Y-3.3543
X3.9921Y-3.4735
X4.0354Y-3.4843
X4.0354Y-3.9106
X4.0709Y-3.622
X4.1142Y-3.4006
X4.4724Y-3.5544
X4.6182Y-4.0118
X4.7795Y-3.9045
X4.9173Y-3.5361
X5.2421Y-3.9221
X5.2921Y-3.7717
X5.6421Y-3.2441
X5.7421Y-4.0906
X5.7953Y-4.7029
X5.8898Y-4.0906
X5.9764Y-3.4537
X6.0709Y-3.8358
X6.0984Y-4.0906
X6.3098Y-3.1457
X6.3365Y-3.7205
X6.3976Y-3.3543
X6.4016Y-4.2034
X6.4016Y-4.819
X6.4331Y-4.3228
X6.4567Y-3.7362
X6.4961Y-4.4272
X6.6654Y-3.4404
X6.7835Y-3.6941
X6.9764Y-4.4488
X7.0984Y-3.4252
X7.0994Y-4.3504
X7.9331Y-2.7953
X8.122Y-3.1156
X8.122Y-4.5727
X8.2598Y-2.8243
X8.3465Y-3.3819
X10.1929Y-3.9449
X10.5444Y-4.1063
X10.5444Y-4.3701
X10.8031Y-4.0433
X10.8228Y-4.1811
X10.8504Y-3.815
X11.073Y-3.7906
T2
X8.7402Y-3.8583
X8.7402Y-4.0945
X8.7402Y-4.3307
X8.9567Y-3.8583
X8.9567Y-4.3307
X9.3485Y-3.8583
X9.3485Y-4.3307
X9.7441Y-3.8583
X9.7441Y-4.3307
X9.9606Y-3.8583
X9.9606Y-4.0945
X9.9606Y-4.3307
T3
X6.1514Y-3.7171
X6.1514Y-3.9171
X6.1514Y-4.3274
X6.1514Y-4.5274
X6.2514Y-3.8171
X6.2514Y-4.4274
X7.0385Y-4.7343
X7.0385Y-4.8343
X10.6112Y-4.5457
X10.7112Y-4.5457
T4
X4.0921Y-3.135
X4.0921Y-4.55
X4.1921Y-3.135
X4.1921Y-4.55
X4.2921Y-3.135
X4.2921Y-4.55
X4.3921Y-3.135
X4.3921Y-4.55
X4.9272Y-4.3774
X4.9272Y-4.4774
X5.0921Y-3.135
X5.0921Y-4.55
X5.1921Y-3.135
X5.1921Y-4.55
X5.2921Y-3.135
X5.2921Y-4.55
X5.3921Y-3.135
X5.3921Y-4.55
X5.5421Y-3.135
X5.5421Y-4.55
X5.6421Y-3.135
X5.6421Y-4.55
X5.7421Y-3.135
X5.7421Y-4.55
X5.8421Y-3.135
X5.8421Y-4.55
X6.8467Y-4.0192
X6.8467Y-4.1192
X6.9207Y-4.5447
X7.0207Y-4.5447
X7.1398Y-3.6128
X7.1398Y-3.7128
X7.1921Y-3.135
X7.1921Y-4.55
X7.2921Y-3.135
X7.2921Y-3.6128
X7.2921Y-3.7128
X7.2921Y-4.55
X7.3921Y-3.135
X7.3921Y-4.55
X7.4421Y-3.6128
X7.4421Y-3.7128
X7.4921Y-3.135
X7.4921Y-4.55
X7.5921Y-3.135
X7.5921Y-3.6128
X7.5921Y-3.7128
X7.5921Y-4.55
X7.6921Y-3.135
X7.6921Y-4.55
X7.7921Y-3.135
X7.7921Y-4.55
T5
X6.6752Y-4.5937
X6.6752Y-4.6937
X6.6752Y-4.7937
X11.0337Y-4.0431
X11.0337Y-4.1431
X11.0337Y-4.2431
T6
X6.0343Y-3.0118
X6.172Y-3.0118
X6.3098Y-3.0118
X6.4476Y-3.0118
X6.5854Y-3.0118
X6.7232Y-3.0118
X6.861Y-3.0118
X6.9988Y-3.0118
T8
X3.3013Y-4.3081
X4.7561Y-4.4834
X5.9646Y-4.3701
X6.7323Y-4.311
X6.9427Y-3.6319
X6.9853Y-4.3122
X7.4921Y-3.9094
X7.9404Y-3.5744
T9
X3.189Y-2.8819
X3.189Y-4.8031
X9.1535Y-4.0945
X9.5435Y-4.0945
X10.9449Y-2.8819
X10.9449Y-4.8031
T7
X8.4469Y-3.9945G85X8.3878Y-3.9945
G05
X8.4469Y-4.1945G85X8.3878Y-4.1945
G05
M30
